%TF.GenerationSoftware,KiCad,Pcbnew,(5.1.8)-1*%
%TF.CreationDate,2020-12-04T09:48:41+01:00*%
%TF.ProjectId,Horticulture,486f7274-6963-4756-9c74-7572652e6b69,rev?*%
%TF.SameCoordinates,Original*%
%TF.FileFunction,Legend,Bot*%
%TF.FilePolarity,Positive*%
%FSLAX46Y46*%
G04 Gerber Fmt 4.6, Leading zero omitted, Abs format (unit mm)*
G04 Created by KiCad (PCBNEW (5.1.8)-1) date 2020-12-04 09:48:41*
%MOMM*%
%LPD*%
G01*
G04 APERTURE LIST*
%ADD10C,0.120000*%
%ADD11C,0.300000*%
%ADD12C,0.200000*%
%ADD13C,0.254000*%
%ADD14C,0.150000*%
%ADD15C,0.015000*%
%ADD16R,0.600000X0.450000*%
%ADD17R,1.060000X0.650000*%
%ADD18R,4.500000X1.800000*%
%ADD19C,1.524000*%
%ADD20C,3.150000*%
%ADD21R,2.500000X3.200000*%
%ADD22R,4.000000X3.750000*%
%ADD23R,1.300000X2.400000*%
%ADD24C,2.200000*%
%ADD25O,1.700000X1.700000*%
%ADD26R,1.700000X1.700000*%
%ADD27R,10.800000X9.400000*%
%ADD28R,0.800000X4.600000*%
%ADD29C,0.100000*%
%ADD30R,2.400000X0.740000*%
G04 APERTURE END LIST*
D10*
X80264000Y-85090000D02*
G75*
G03*
X80264000Y-85090000I-254000J0D01*
G01*
X80369210Y-85090000D02*
G75*
G03*
X80369210Y-85090000I-359210J0D01*
G01*
X80518000Y-85090000D02*
G75*
G03*
X80518000Y-85090000I-508000J0D01*
G01*
X80645000Y-85090000D02*
G75*
G03*
X80645000Y-85090000I-635000J0D01*
G01*
D11*
X125878571Y-82378571D02*
X125878571Y-80878571D01*
X125878571Y-81592857D02*
X125021428Y-81592857D01*
X125021428Y-82378571D02*
X125021428Y-80878571D01*
X124092857Y-82378571D02*
X124235714Y-82307142D01*
X124307142Y-82235714D01*
X124378571Y-82092857D01*
X124378571Y-81664285D01*
X124307142Y-81521428D01*
X124235714Y-81450000D01*
X124092857Y-81378571D01*
X123878571Y-81378571D01*
X123735714Y-81450000D01*
X123664285Y-81521428D01*
X123592857Y-81664285D01*
X123592857Y-82092857D01*
X123664285Y-82235714D01*
X123735714Y-82307142D01*
X123878571Y-82378571D01*
X124092857Y-82378571D01*
X122950000Y-82378571D02*
X122950000Y-81378571D01*
X122950000Y-81664285D02*
X122878571Y-81521428D01*
X122807142Y-81450000D01*
X122664285Y-81378571D01*
X122521428Y-81378571D01*
X122235714Y-81378571D02*
X121664285Y-81378571D01*
X122021428Y-80878571D02*
X122021428Y-82164285D01*
X121950000Y-82307142D01*
X121807142Y-82378571D01*
X121664285Y-82378571D01*
X121164285Y-82378571D02*
X121164285Y-81378571D01*
X121164285Y-80878571D02*
X121235714Y-80950000D01*
X121164285Y-81021428D01*
X121092857Y-80950000D01*
X121164285Y-80878571D01*
X121164285Y-81021428D01*
X119807142Y-82307142D02*
X119950000Y-82378571D01*
X120235714Y-82378571D01*
X120378571Y-82307142D01*
X120450000Y-82235714D01*
X120521428Y-82092857D01*
X120521428Y-81664285D01*
X120450000Y-81521428D01*
X120378571Y-81450000D01*
X120235714Y-81378571D01*
X119950000Y-81378571D01*
X119807142Y-81450000D01*
X118521428Y-81378571D02*
X118521428Y-82378571D01*
X119164285Y-81378571D02*
X119164285Y-82164285D01*
X119092857Y-82307142D01*
X118950000Y-82378571D01*
X118735714Y-82378571D01*
X118592857Y-82307142D01*
X118521428Y-82235714D01*
X117592857Y-82378571D02*
X117735714Y-82307142D01*
X117807142Y-82164285D01*
X117807142Y-80878571D01*
X117235714Y-81378571D02*
X116664285Y-81378571D01*
X117021428Y-80878571D02*
X117021428Y-82164285D01*
X116950000Y-82307142D01*
X116807142Y-82378571D01*
X116664285Y-82378571D01*
X115521428Y-81378571D02*
X115521428Y-82378571D01*
X116164285Y-81378571D02*
X116164285Y-82164285D01*
X116092857Y-82307142D01*
X115950000Y-82378571D01*
X115735714Y-82378571D01*
X115592857Y-82307142D01*
X115521428Y-82235714D01*
X114807142Y-82378571D02*
X114807142Y-81378571D01*
X114807142Y-81664285D02*
X114735714Y-81521428D01*
X114664285Y-81450000D01*
X114521428Y-81378571D01*
X114378571Y-81378571D01*
X113307142Y-82307142D02*
X113450000Y-82378571D01*
X113735714Y-82378571D01*
X113878571Y-82307142D01*
X113950000Y-82164285D01*
X113950000Y-81592857D01*
X113878571Y-81450000D01*
X113735714Y-81378571D01*
X113450000Y-81378571D01*
X113307142Y-81450000D01*
X113235714Y-81592857D01*
X113235714Y-81735714D01*
X113950000Y-81878571D01*
X112592857Y-81807142D02*
X111450000Y-81807142D01*
X110735714Y-82378571D02*
X110735714Y-81378571D01*
X110735714Y-81664285D02*
X110664285Y-81521428D01*
X110592857Y-81450000D01*
X110450000Y-81378571D01*
X110307142Y-81378571D01*
X109235714Y-82307142D02*
X109378571Y-82378571D01*
X109664285Y-82378571D01*
X109807142Y-82307142D01*
X109878571Y-82164285D01*
X109878571Y-81592857D01*
X109807142Y-81450000D01*
X109664285Y-81378571D01*
X109378571Y-81378571D01*
X109235714Y-81450000D01*
X109164285Y-81592857D01*
X109164285Y-81735714D01*
X109878571Y-81878571D01*
X108664285Y-81378571D02*
X108307142Y-82378571D01*
X107950000Y-81378571D01*
X107378571Y-81807142D02*
X106235714Y-81807142D01*
X105664285Y-80878571D02*
X104735714Y-80878571D01*
X105235714Y-81450000D01*
X105021428Y-81450000D01*
X104878571Y-81521428D01*
X104807142Y-81592857D01*
X104735714Y-81735714D01*
X104735714Y-82092857D01*
X104807142Y-82235714D01*
X104878571Y-82307142D01*
X105021428Y-82378571D01*
X105450000Y-82378571D01*
X105592857Y-82307142D01*
X105664285Y-82235714D01*
X104092857Y-82235714D02*
X104021428Y-82307142D01*
X104092857Y-82378571D01*
X104164285Y-82307142D01*
X104092857Y-82235714D01*
X104092857Y-82378571D01*
X103450000Y-81021428D02*
X103378571Y-80950000D01*
X103235714Y-80878571D01*
X102878571Y-80878571D01*
X102735714Y-80950000D01*
X102664285Y-81021428D01*
X102592857Y-81164285D01*
X102592857Y-81307142D01*
X102664285Y-81521428D01*
X103521428Y-82378571D01*
X102592857Y-82378571D01*
X101950000Y-82235714D02*
X101878571Y-82307142D01*
X101950000Y-82378571D01*
X102021428Y-82307142D01*
X101950000Y-82235714D01*
X101950000Y-82378571D01*
X100450000Y-82378571D02*
X101307142Y-82378571D01*
X100878571Y-82378571D02*
X100878571Y-80878571D01*
X101021428Y-81092857D01*
X101164285Y-81235714D01*
X101307142Y-81307142D01*
D10*
%TO.C,R17*%
X185346359Y-96280000D02*
X185653641Y-96280000D01*
X185346359Y-95520000D02*
X185653641Y-95520000D01*
%TO.C,R16*%
X179853641Y-89420000D02*
X179546359Y-89420000D01*
X179853641Y-90180000D02*
X179546359Y-90180000D01*
%TO.C,R15*%
X179853641Y-88220000D02*
X179546359Y-88220000D01*
X179853641Y-88980000D02*
X179546359Y-88980000D01*
%TO.C,R14*%
X179853641Y-87020000D02*
X179546359Y-87020000D01*
X179853641Y-87780000D02*
X179546359Y-87780000D01*
%TO.C,R13*%
X177253641Y-82720000D02*
X176946359Y-82720000D01*
X177253641Y-83480000D02*
X176946359Y-83480000D01*
%TO.C,R12*%
X178753641Y-81120000D02*
X178446359Y-81120000D01*
X178753641Y-81880000D02*
X178446359Y-81880000D01*
%TO.C,R11*%
X64146359Y-84380000D02*
X64453641Y-84380000D01*
X64146359Y-83620000D02*
X64453641Y-83620000D01*
%TO.C,R10*%
X240346359Y-100280000D02*
X240653641Y-100280000D01*
X240346359Y-99520000D02*
X240653641Y-99520000D01*
%TO.C,R9*%
X224746359Y-100780000D02*
X225053641Y-100780000D01*
X224746359Y-100020000D02*
X225053641Y-100020000D01*
%TO.C,R8*%
X161646359Y-97180000D02*
X161953641Y-97180000D01*
X161646359Y-96420000D02*
X161953641Y-96420000D01*
%TO.C,R7*%
X146146359Y-99680000D02*
X146453641Y-99680000D01*
X146146359Y-98920000D02*
X146453641Y-98920000D01*
%TO.C,F1*%
X115397936Y-95910000D02*
X116602064Y-95910000D01*
X115397936Y-94090000D02*
X116602064Y-94090000D01*
%TO.C,D25*%
X109500000Y-97350000D02*
X109500000Y-95650000D01*
X109500000Y-95650000D02*
X112050000Y-95650000D01*
X109500000Y-97350000D02*
X112050000Y-97350000D01*
%TO.C,VR1*%
X101600000Y-91390000D02*
X104050000Y-91390000D01*
X103400000Y-94610000D02*
X101600000Y-94610000D01*
D12*
%TO.C,L1*%
X115000000Y-88600000D02*
G75*
G03*
X115000000Y-88600000I-100000J0D01*
G01*
D10*
%TO.C,Cout1*%
X106790000Y-94758578D02*
X106790000Y-94241422D01*
X108210000Y-94758578D02*
X108210000Y-94241422D01*
%TO.C,Cinx1*%
X102337221Y-99010000D02*
X102662779Y-99010000D01*
X102337221Y-97990000D02*
X102662779Y-97990000D01*
%TO.C,Cin1*%
X107602064Y-99910000D02*
X106397936Y-99910000D01*
X107602064Y-98090000D02*
X106397936Y-98090000D01*
%TO.C,Cboot1*%
X108210000Y-89241422D02*
X108210000Y-89758578D01*
X106790000Y-89241422D02*
X106790000Y-89758578D01*
%TO.C,C3*%
X179837221Y-82490000D02*
X180162779Y-82490000D01*
X179837221Y-83510000D02*
X180162779Y-83510000D01*
%TO.C,C5*%
X180162779Y-100010000D02*
X179837221Y-100010000D01*
X180162779Y-98990000D02*
X179837221Y-98990000D01*
%TO.C,C4*%
X200837221Y-82490000D02*
X201162779Y-82490000D01*
X200837221Y-83510000D02*
X201162779Y-83510000D01*
D13*
%TO.C,SW2*%
X187725000Y-81168000D02*
G75*
G03*
X187725000Y-81168000I-112000J0D01*
G01*
X187118000Y-82000000D02*
X193891000Y-82000000D01*
X187319000Y-100000000D02*
X193607000Y-100000000D01*
X198000000Y-82000000D02*
X198000000Y-88603000D01*
X198000000Y-100000000D02*
X198000000Y-93442000D01*
X183000000Y-100000000D02*
X183000000Y-93336000D01*
X183000000Y-82000000D02*
X183000000Y-88603000D01*
D10*
%TO.C,U7*%
X174670000Y-86050000D02*
X177330000Y-86050000D01*
X174670000Y-93730000D02*
X174670000Y-86050000D01*
X177330000Y-93730000D02*
X177330000Y-86050000D01*
X174670000Y-93730000D02*
X177330000Y-93730000D01*
X174670000Y-95000000D02*
X174670000Y-96330000D01*
X174670000Y-96330000D02*
X176000000Y-96330000D01*
%TO.C,U6*%
X75500000Y-91385000D02*
X73300000Y-91385000D01*
X75500000Y-91385000D02*
X77700000Y-91385000D01*
X75500000Y-84615000D02*
X73300000Y-84615000D01*
X75500000Y-84615000D02*
X79100000Y-84615000D01*
%TO.C,U4*%
X236700000Y-92450000D02*
X236700000Y-93950000D01*
X236700000Y-93950000D02*
X236010000Y-93950000D01*
X236010000Y-93950000D02*
X236010000Y-99075000D01*
X226300000Y-92450000D02*
X226300000Y-93950000D01*
X226300000Y-93950000D02*
X226990000Y-93950000D01*
X226990000Y-93950000D02*
X226990000Y-95050000D01*
%TO.C,U3*%
X222200000Y-92450000D02*
X222200000Y-93950000D01*
X222200000Y-93950000D02*
X221510000Y-93950000D01*
X221510000Y-93950000D02*
X221510000Y-99075000D01*
X211800000Y-92450000D02*
X211800000Y-93950000D01*
X211800000Y-93950000D02*
X212490000Y-93950000D01*
X212490000Y-93950000D02*
X212490000Y-95050000D01*
%TO.C,U2*%
X159200000Y-92450000D02*
X159200000Y-93950000D01*
X159200000Y-93950000D02*
X158510000Y-93950000D01*
X158510000Y-93950000D02*
X158510000Y-99075000D01*
X148800000Y-92450000D02*
X148800000Y-93950000D01*
X148800000Y-93950000D02*
X149490000Y-93950000D01*
X149490000Y-93950000D02*
X149490000Y-95050000D01*
%TO.C,U1*%
X143700000Y-92450000D02*
X143700000Y-93950000D01*
X143700000Y-93950000D02*
X143010000Y-93950000D01*
X143010000Y-93950000D02*
X143010000Y-99075000D01*
X133300000Y-92450000D02*
X133300000Y-93950000D01*
X133300000Y-93950000D02*
X133990000Y-93950000D01*
X133990000Y-93950000D02*
X133990000Y-95050000D01*
%TO.C,SW1*%
X78600000Y-95100000D02*
X78600000Y-95700000D01*
X80700000Y-94400000D02*
X79300000Y-94400000D01*
X81400000Y-95700000D02*
X81400000Y-95100000D01*
X79300000Y-96400000D02*
X80700000Y-96400000D01*
X78600000Y-95700000D02*
G75*
G03*
X79300000Y-96400000I700000J0D01*
G01*
X79300000Y-94400000D02*
G75*
G03*
X78600000Y-95100000I0J-700000D01*
G01*
X81400000Y-95100000D02*
G75*
G03*
X80700000Y-94400000I-700000J0D01*
G01*
X80700000Y-96400000D02*
G75*
G03*
X81400000Y-95700000I0J700000D01*
G01*
%TO.C,J2*%
X62735000Y-91735000D02*
X66265000Y-91735000D01*
X62735000Y-85265000D02*
X66265000Y-85265000D01*
X61410000Y-91670000D02*
X62735000Y-91670000D01*
X62735000Y-91735000D02*
X62735000Y-91670000D01*
X66265000Y-91735000D02*
X66265000Y-91670000D01*
X62735000Y-85330000D02*
X62735000Y-85265000D01*
X66265000Y-85330000D02*
X66265000Y-85265000D01*
%TO.C,J4*%
X258910000Y-91050000D02*
X258910000Y-84740000D01*
X258910000Y-84740000D02*
X247190000Y-84740000D01*
X247190000Y-84740000D02*
X247190000Y-86160000D01*
X247190000Y-86160000D02*
X251690000Y-86160000D01*
X258910000Y-91050000D02*
X258910000Y-97360000D01*
X258910000Y-97360000D02*
X247190000Y-97360000D01*
X247190000Y-97360000D02*
X247190000Y-95940000D01*
X247190000Y-95940000D02*
X251690000Y-95940000D01*
X252800000Y-87050000D02*
X258300000Y-87050000D01*
X258300000Y-87050000D02*
X258300000Y-87550000D01*
X258300000Y-87550000D02*
X252800000Y-87550000D01*
X252800000Y-87550000D02*
X252800000Y-87050000D01*
X252800000Y-89550000D02*
X258300000Y-89550000D01*
X258300000Y-89550000D02*
X258300000Y-90050000D01*
X258300000Y-90050000D02*
X252800000Y-90050000D01*
X252800000Y-90050000D02*
X252800000Y-89550000D01*
X252800000Y-92050000D02*
X258300000Y-92050000D01*
X258300000Y-92050000D02*
X258300000Y-92550000D01*
X258300000Y-92550000D02*
X252800000Y-92550000D01*
X252800000Y-92550000D02*
X252800000Y-92050000D01*
X252800000Y-94550000D02*
X258300000Y-94550000D01*
X258300000Y-94550000D02*
X258300000Y-95050000D01*
X258300000Y-95050000D02*
X252800000Y-95050000D01*
X252800000Y-95050000D02*
X252800000Y-94550000D01*
X249700000Y-87300000D02*
X249100000Y-87000000D01*
X249100000Y-87000000D02*
X249100000Y-87600000D01*
X249100000Y-87600000D02*
X249700000Y-87300000D01*
%TO.C,J3*%
X50900000Y-94500000D02*
X50300000Y-94800000D01*
X50900000Y-95100000D02*
X50900000Y-94500000D01*
X50300000Y-94800000D02*
X50900000Y-95100000D01*
X47200000Y-87050000D02*
X47200000Y-87550000D01*
X41700000Y-87050000D02*
X47200000Y-87050000D01*
X41700000Y-87550000D02*
X41700000Y-87050000D01*
X47200000Y-87550000D02*
X41700000Y-87550000D01*
X47200000Y-89550000D02*
X47200000Y-90050000D01*
X41700000Y-89550000D02*
X47200000Y-89550000D01*
X41700000Y-90050000D02*
X41700000Y-89550000D01*
X47200000Y-90050000D02*
X41700000Y-90050000D01*
X47200000Y-92050000D02*
X47200000Y-92550000D01*
X41700000Y-92050000D02*
X47200000Y-92050000D01*
X41700000Y-92550000D02*
X41700000Y-92050000D01*
X47200000Y-92550000D02*
X41700000Y-92550000D01*
X47200000Y-94550000D02*
X47200000Y-95050000D01*
X41700000Y-94550000D02*
X47200000Y-94550000D01*
X41700000Y-95050000D02*
X41700000Y-94550000D01*
X47200000Y-95050000D02*
X41700000Y-95050000D01*
X52810000Y-86160000D02*
X48310000Y-86160000D01*
X52810000Y-84740000D02*
X52810000Y-86160000D01*
X41090000Y-84740000D02*
X52810000Y-84740000D01*
X41090000Y-91050000D02*
X41090000Y-84740000D01*
X52810000Y-95940000D02*
X48310000Y-95940000D01*
X52810000Y-97360000D02*
X52810000Y-95940000D01*
X41090000Y-97360000D02*
X52810000Y-97360000D01*
X41090000Y-91050000D02*
X41090000Y-97360000D01*
%TO.C,R17*%
D14*
X186142857Y-97522380D02*
X186476190Y-97046190D01*
X186714285Y-97522380D02*
X186714285Y-96522380D01*
X186333333Y-96522380D01*
X186238095Y-96570000D01*
X186190476Y-96617619D01*
X186142857Y-96712857D01*
X186142857Y-96855714D01*
X186190476Y-96950952D01*
X186238095Y-96998571D01*
X186333333Y-97046190D01*
X186714285Y-97046190D01*
X185190476Y-97522380D02*
X185761904Y-97522380D01*
X185476190Y-97522380D02*
X185476190Y-96522380D01*
X185571428Y-96665238D01*
X185666666Y-96760476D01*
X185761904Y-96808095D01*
X184857142Y-96522380D02*
X184190476Y-96522380D01*
X184619047Y-97522380D01*
%TO.C,R16*%
X180342857Y-93052380D02*
X180676190Y-92576190D01*
X180914285Y-93052380D02*
X180914285Y-92052380D01*
X180533333Y-92052380D01*
X180438095Y-92100000D01*
X180390476Y-92147619D01*
X180342857Y-92242857D01*
X180342857Y-92385714D01*
X180390476Y-92480952D01*
X180438095Y-92528571D01*
X180533333Y-92576190D01*
X180914285Y-92576190D01*
X179390476Y-93052380D02*
X179961904Y-93052380D01*
X179676190Y-93052380D02*
X179676190Y-92052380D01*
X179771428Y-92195238D01*
X179866666Y-92290476D01*
X179961904Y-92338095D01*
X178533333Y-92052380D02*
X178723809Y-92052380D01*
X178819047Y-92100000D01*
X178866666Y-92147619D01*
X178961904Y-92290476D01*
X179009523Y-92480952D01*
X179009523Y-92861904D01*
X178961904Y-92957142D01*
X178914285Y-93004761D01*
X178819047Y-93052380D01*
X178628571Y-93052380D01*
X178533333Y-93004761D01*
X178485714Y-92957142D01*
X178438095Y-92861904D01*
X178438095Y-92623809D01*
X178485714Y-92528571D01*
X178533333Y-92480952D01*
X178628571Y-92433333D01*
X178819047Y-92433333D01*
X178914285Y-92480952D01*
X178961904Y-92528571D01*
X179009523Y-92623809D01*
%TO.C,R15*%
X180342857Y-91552380D02*
X180676190Y-91076190D01*
X180914285Y-91552380D02*
X180914285Y-90552380D01*
X180533333Y-90552380D01*
X180438095Y-90600000D01*
X180390476Y-90647619D01*
X180342857Y-90742857D01*
X180342857Y-90885714D01*
X180390476Y-90980952D01*
X180438095Y-91028571D01*
X180533333Y-91076190D01*
X180914285Y-91076190D01*
X179390476Y-91552380D02*
X179961904Y-91552380D01*
X179676190Y-91552380D02*
X179676190Y-90552380D01*
X179771428Y-90695238D01*
X179866666Y-90790476D01*
X179961904Y-90838095D01*
X178485714Y-90552380D02*
X178961904Y-90552380D01*
X179009523Y-91028571D01*
X178961904Y-90980952D01*
X178866666Y-90933333D01*
X178628571Y-90933333D01*
X178533333Y-90980952D01*
X178485714Y-91028571D01*
X178438095Y-91123809D01*
X178438095Y-91361904D01*
X178485714Y-91457142D01*
X178533333Y-91504761D01*
X178628571Y-91552380D01*
X178866666Y-91552380D01*
X178961904Y-91504761D01*
X179009523Y-91457142D01*
%TO.C,R14*%
X180442857Y-86252380D02*
X180776190Y-85776190D01*
X181014285Y-86252380D02*
X181014285Y-85252380D01*
X180633333Y-85252380D01*
X180538095Y-85300000D01*
X180490476Y-85347619D01*
X180442857Y-85442857D01*
X180442857Y-85585714D01*
X180490476Y-85680952D01*
X180538095Y-85728571D01*
X180633333Y-85776190D01*
X181014285Y-85776190D01*
X179490476Y-86252380D02*
X180061904Y-86252380D01*
X179776190Y-86252380D02*
X179776190Y-85252380D01*
X179871428Y-85395238D01*
X179966666Y-85490476D01*
X180061904Y-85538095D01*
X178633333Y-85585714D02*
X178633333Y-86252380D01*
X178871428Y-85204761D02*
X179109523Y-85919047D01*
X178490476Y-85919047D01*
%TO.C,R13*%
X175242857Y-83652380D02*
X175576190Y-83176190D01*
X175814285Y-83652380D02*
X175814285Y-82652380D01*
X175433333Y-82652380D01*
X175338095Y-82700000D01*
X175290476Y-82747619D01*
X175242857Y-82842857D01*
X175242857Y-82985714D01*
X175290476Y-83080952D01*
X175338095Y-83128571D01*
X175433333Y-83176190D01*
X175814285Y-83176190D01*
X174290476Y-83652380D02*
X174861904Y-83652380D01*
X174576190Y-83652380D02*
X174576190Y-82652380D01*
X174671428Y-82795238D01*
X174766666Y-82890476D01*
X174861904Y-82938095D01*
X173957142Y-82652380D02*
X173338095Y-82652380D01*
X173671428Y-83033333D01*
X173528571Y-83033333D01*
X173433333Y-83080952D01*
X173385714Y-83128571D01*
X173338095Y-83223809D01*
X173338095Y-83461904D01*
X173385714Y-83557142D01*
X173433333Y-83604761D01*
X173528571Y-83652380D01*
X173814285Y-83652380D01*
X173909523Y-83604761D01*
X173957142Y-83557142D01*
%TO.C,R12*%
X181842857Y-81852380D02*
X182176190Y-81376190D01*
X182414285Y-81852380D02*
X182414285Y-80852380D01*
X182033333Y-80852380D01*
X181938095Y-80900000D01*
X181890476Y-80947619D01*
X181842857Y-81042857D01*
X181842857Y-81185714D01*
X181890476Y-81280952D01*
X181938095Y-81328571D01*
X182033333Y-81376190D01*
X182414285Y-81376190D01*
X180890476Y-81852380D02*
X181461904Y-81852380D01*
X181176190Y-81852380D02*
X181176190Y-80852380D01*
X181271428Y-80995238D01*
X181366666Y-81090476D01*
X181461904Y-81138095D01*
X180509523Y-80947619D02*
X180461904Y-80900000D01*
X180366666Y-80852380D01*
X180128571Y-80852380D01*
X180033333Y-80900000D01*
X179985714Y-80947619D01*
X179938095Y-81042857D01*
X179938095Y-81138095D01*
X179985714Y-81280952D01*
X180557142Y-81852380D01*
X179938095Y-81852380D01*
%TO.C,R11*%
X64942857Y-85622380D02*
X65276190Y-85146190D01*
X65514285Y-85622380D02*
X65514285Y-84622380D01*
X65133333Y-84622380D01*
X65038095Y-84670000D01*
X64990476Y-84717619D01*
X64942857Y-84812857D01*
X64942857Y-84955714D01*
X64990476Y-85050952D01*
X65038095Y-85098571D01*
X65133333Y-85146190D01*
X65514285Y-85146190D01*
X63990476Y-85622380D02*
X64561904Y-85622380D01*
X64276190Y-85622380D02*
X64276190Y-84622380D01*
X64371428Y-84765238D01*
X64466666Y-84860476D01*
X64561904Y-84908095D01*
X63038095Y-85622380D02*
X63609523Y-85622380D01*
X63323809Y-85622380D02*
X63323809Y-84622380D01*
X63419047Y-84765238D01*
X63514285Y-84860476D01*
X63609523Y-84908095D01*
%TO.C,R10*%
X241142857Y-101522380D02*
X241476190Y-101046190D01*
X241714285Y-101522380D02*
X241714285Y-100522380D01*
X241333333Y-100522380D01*
X241238095Y-100570000D01*
X241190476Y-100617619D01*
X241142857Y-100712857D01*
X241142857Y-100855714D01*
X241190476Y-100950952D01*
X241238095Y-100998571D01*
X241333333Y-101046190D01*
X241714285Y-101046190D01*
X240190476Y-101522380D02*
X240761904Y-101522380D01*
X240476190Y-101522380D02*
X240476190Y-100522380D01*
X240571428Y-100665238D01*
X240666666Y-100760476D01*
X240761904Y-100808095D01*
X239571428Y-100522380D02*
X239476190Y-100522380D01*
X239380952Y-100570000D01*
X239333333Y-100617619D01*
X239285714Y-100712857D01*
X239238095Y-100903333D01*
X239238095Y-101141428D01*
X239285714Y-101331904D01*
X239333333Y-101427142D01*
X239380952Y-101474761D01*
X239476190Y-101522380D01*
X239571428Y-101522380D01*
X239666666Y-101474761D01*
X239714285Y-101427142D01*
X239761904Y-101331904D01*
X239809523Y-101141428D01*
X239809523Y-100903333D01*
X239761904Y-100712857D01*
X239714285Y-100617619D01*
X239666666Y-100570000D01*
X239571428Y-100522380D01*
%TO.C,R9*%
X225066666Y-102022380D02*
X225400000Y-101546190D01*
X225638095Y-102022380D02*
X225638095Y-101022380D01*
X225257142Y-101022380D01*
X225161904Y-101070000D01*
X225114285Y-101117619D01*
X225066666Y-101212857D01*
X225066666Y-101355714D01*
X225114285Y-101450952D01*
X225161904Y-101498571D01*
X225257142Y-101546190D01*
X225638095Y-101546190D01*
X224590476Y-102022380D02*
X224400000Y-102022380D01*
X224304761Y-101974761D01*
X224257142Y-101927142D01*
X224161904Y-101784285D01*
X224114285Y-101593809D01*
X224114285Y-101212857D01*
X224161904Y-101117619D01*
X224209523Y-101070000D01*
X224304761Y-101022380D01*
X224495238Y-101022380D01*
X224590476Y-101070000D01*
X224638095Y-101117619D01*
X224685714Y-101212857D01*
X224685714Y-101450952D01*
X224638095Y-101546190D01*
X224590476Y-101593809D01*
X224495238Y-101641428D01*
X224304761Y-101641428D01*
X224209523Y-101593809D01*
X224161904Y-101546190D01*
X224114285Y-101450952D01*
%TO.C,R8*%
X161966666Y-98422380D02*
X162300000Y-97946190D01*
X162538095Y-98422380D02*
X162538095Y-97422380D01*
X162157142Y-97422380D01*
X162061904Y-97470000D01*
X162014285Y-97517619D01*
X161966666Y-97612857D01*
X161966666Y-97755714D01*
X162014285Y-97850952D01*
X162061904Y-97898571D01*
X162157142Y-97946190D01*
X162538095Y-97946190D01*
X161395238Y-97850952D02*
X161490476Y-97803333D01*
X161538095Y-97755714D01*
X161585714Y-97660476D01*
X161585714Y-97612857D01*
X161538095Y-97517619D01*
X161490476Y-97470000D01*
X161395238Y-97422380D01*
X161204761Y-97422380D01*
X161109523Y-97470000D01*
X161061904Y-97517619D01*
X161014285Y-97612857D01*
X161014285Y-97660476D01*
X161061904Y-97755714D01*
X161109523Y-97803333D01*
X161204761Y-97850952D01*
X161395238Y-97850952D01*
X161490476Y-97898571D01*
X161538095Y-97946190D01*
X161585714Y-98041428D01*
X161585714Y-98231904D01*
X161538095Y-98327142D01*
X161490476Y-98374761D01*
X161395238Y-98422380D01*
X161204761Y-98422380D01*
X161109523Y-98374761D01*
X161061904Y-98327142D01*
X161014285Y-98231904D01*
X161014285Y-98041428D01*
X161061904Y-97946190D01*
X161109523Y-97898571D01*
X161204761Y-97850952D01*
%TO.C,R7*%
X146466666Y-100922380D02*
X146800000Y-100446190D01*
X147038095Y-100922380D02*
X147038095Y-99922380D01*
X146657142Y-99922380D01*
X146561904Y-99970000D01*
X146514285Y-100017619D01*
X146466666Y-100112857D01*
X146466666Y-100255714D01*
X146514285Y-100350952D01*
X146561904Y-100398571D01*
X146657142Y-100446190D01*
X147038095Y-100446190D01*
X146133333Y-99922380D02*
X145466666Y-99922380D01*
X145895238Y-100922380D01*
%TO.C,F1*%
X116333333Y-96748571D02*
X116666666Y-96748571D01*
X116666666Y-97272380D02*
X116666666Y-96272380D01*
X116190476Y-96272380D01*
X115285714Y-97272380D02*
X115857142Y-97272380D01*
X115571428Y-97272380D02*
X115571428Y-96272380D01*
X115666666Y-96415238D01*
X115761904Y-96510476D01*
X115857142Y-96558095D01*
%TO.C,D25*%
X112214285Y-98802380D02*
X112214285Y-97802380D01*
X111976190Y-97802380D01*
X111833333Y-97850000D01*
X111738095Y-97945238D01*
X111690476Y-98040476D01*
X111642857Y-98230952D01*
X111642857Y-98373809D01*
X111690476Y-98564285D01*
X111738095Y-98659523D01*
X111833333Y-98754761D01*
X111976190Y-98802380D01*
X112214285Y-98802380D01*
X111261904Y-97897619D02*
X111214285Y-97850000D01*
X111119047Y-97802380D01*
X110880952Y-97802380D01*
X110785714Y-97850000D01*
X110738095Y-97897619D01*
X110690476Y-97992857D01*
X110690476Y-98088095D01*
X110738095Y-98230952D01*
X111309523Y-98802380D01*
X110690476Y-98802380D01*
X109785714Y-97802380D02*
X110261904Y-97802380D01*
X110309523Y-98278571D01*
X110261904Y-98230952D01*
X110166666Y-98183333D01*
X109928571Y-98183333D01*
X109833333Y-98230952D01*
X109785714Y-98278571D01*
X109738095Y-98373809D01*
X109738095Y-98611904D01*
X109785714Y-98707142D01*
X109833333Y-98754761D01*
X109928571Y-98802380D01*
X110166666Y-98802380D01*
X110261904Y-98754761D01*
X110309523Y-98707142D01*
%TO.C,VR1*%
X103809523Y-89552380D02*
X103476190Y-90552380D01*
X103142857Y-89552380D01*
X102238095Y-90552380D02*
X102571428Y-90076190D01*
X102809523Y-90552380D02*
X102809523Y-89552380D01*
X102428571Y-89552380D01*
X102333333Y-89600000D01*
X102285714Y-89647619D01*
X102238095Y-89742857D01*
X102238095Y-89885714D01*
X102285714Y-89980952D01*
X102333333Y-90028571D01*
X102428571Y-90076190D01*
X102809523Y-90076190D01*
X101285714Y-90552380D02*
X101857142Y-90552380D01*
X101571428Y-90552380D02*
X101571428Y-89552380D01*
X101666666Y-89695238D01*
X101761904Y-89790476D01*
X101857142Y-89838095D01*
%TO.C,Rent1*%
X104833333Y-96282380D02*
X105166666Y-95806190D01*
X105404761Y-96282380D02*
X105404761Y-95282380D01*
X105023809Y-95282380D01*
X104928571Y-95330000D01*
X104880952Y-95377619D01*
X104833333Y-95472857D01*
X104833333Y-95615714D01*
X104880952Y-95710952D01*
X104928571Y-95758571D01*
X105023809Y-95806190D01*
X105404761Y-95806190D01*
X104023809Y-96234761D02*
X104119047Y-96282380D01*
X104309523Y-96282380D01*
X104404761Y-96234761D01*
X104452380Y-96139523D01*
X104452380Y-95758571D01*
X104404761Y-95663333D01*
X104309523Y-95615714D01*
X104119047Y-95615714D01*
X104023809Y-95663333D01*
X103976190Y-95758571D01*
X103976190Y-95853809D01*
X104452380Y-95949047D01*
X103547619Y-95615714D02*
X103547619Y-96282380D01*
X103547619Y-95710952D02*
X103500000Y-95663333D01*
X103404761Y-95615714D01*
X103261904Y-95615714D01*
X103166666Y-95663333D01*
X103119047Y-95758571D01*
X103119047Y-96282380D01*
X102785714Y-95615714D02*
X102404761Y-95615714D01*
X102642857Y-95282380D02*
X102642857Y-96139523D01*
X102595238Y-96234761D01*
X102500000Y-96282380D01*
X102404761Y-96282380D01*
X101547619Y-96282380D02*
X102119047Y-96282380D01*
X101833333Y-96282380D02*
X101833333Y-95282380D01*
X101928571Y-95425238D01*
X102023809Y-95520476D01*
X102119047Y-95568095D01*
%TO.C,Renb1*%
X101500000Y-97622380D02*
X101833333Y-97146190D01*
X102071428Y-97622380D02*
X102071428Y-96622380D01*
X101690476Y-96622380D01*
X101595238Y-96670000D01*
X101547619Y-96717619D01*
X101500000Y-96812857D01*
X101500000Y-96955714D01*
X101547619Y-97050952D01*
X101595238Y-97098571D01*
X101690476Y-97146190D01*
X102071428Y-97146190D01*
X100690476Y-97574761D02*
X100785714Y-97622380D01*
X100976190Y-97622380D01*
X101071428Y-97574761D01*
X101119047Y-97479523D01*
X101119047Y-97098571D01*
X101071428Y-97003333D01*
X100976190Y-96955714D01*
X100785714Y-96955714D01*
X100690476Y-97003333D01*
X100642857Y-97098571D01*
X100642857Y-97193809D01*
X101119047Y-97289047D01*
X100214285Y-96955714D02*
X100214285Y-97622380D01*
X100214285Y-97050952D02*
X100166666Y-97003333D01*
X100071428Y-96955714D01*
X99928571Y-96955714D01*
X99833333Y-97003333D01*
X99785714Y-97098571D01*
X99785714Y-97622380D01*
X99309523Y-97622380D02*
X99309523Y-96622380D01*
X99309523Y-97003333D02*
X99214285Y-96955714D01*
X99023809Y-96955714D01*
X98928571Y-97003333D01*
X98880952Y-97050952D01*
X98833333Y-97146190D01*
X98833333Y-97431904D01*
X98880952Y-97527142D01*
X98928571Y-97574761D01*
X99023809Y-97622380D01*
X99214285Y-97622380D01*
X99309523Y-97574761D01*
X97880952Y-97622380D02*
X98452380Y-97622380D01*
X98166666Y-97622380D02*
X98166666Y-96622380D01*
X98261904Y-96765238D01*
X98357142Y-96860476D01*
X98452380Y-96908095D01*
%TO.C,L1*%
D15*
X112614666Y-86573123D02*
X112919428Y-86573123D01*
X112919428Y-85933123D01*
X112066095Y-86573123D02*
X112431809Y-86573123D01*
X112248952Y-86573123D02*
X112248952Y-85933123D01*
X112309904Y-86024552D01*
X112370857Y-86085504D01*
X112431809Y-86115980D01*
%TO.C,Cout1*%
D14*
X109357142Y-93142857D02*
X109404761Y-93095238D01*
X109452380Y-92952380D01*
X109452380Y-92857142D01*
X109404761Y-92714285D01*
X109309523Y-92619047D01*
X109214285Y-92571428D01*
X109023809Y-92523809D01*
X108880952Y-92523809D01*
X108690476Y-92571428D01*
X108595238Y-92619047D01*
X108500000Y-92714285D01*
X108452380Y-92857142D01*
X108452380Y-92952380D01*
X108500000Y-93095238D01*
X108547619Y-93142857D01*
X109452380Y-93714285D02*
X109404761Y-93619047D01*
X109357142Y-93571428D01*
X109261904Y-93523809D01*
X108976190Y-93523809D01*
X108880952Y-93571428D01*
X108833333Y-93619047D01*
X108785714Y-93714285D01*
X108785714Y-93857142D01*
X108833333Y-93952380D01*
X108880952Y-94000000D01*
X108976190Y-94047619D01*
X109261904Y-94047619D01*
X109357142Y-94000000D01*
X109404761Y-93952380D01*
X109452380Y-93857142D01*
X109452380Y-93714285D01*
X108785714Y-94904761D02*
X109452380Y-94904761D01*
X108785714Y-94476190D02*
X109309523Y-94476190D01*
X109404761Y-94523809D01*
X109452380Y-94619047D01*
X109452380Y-94761904D01*
X109404761Y-94857142D01*
X109357142Y-94904761D01*
X108785714Y-95238095D02*
X108785714Y-95619047D01*
X108452380Y-95380952D02*
X109309523Y-95380952D01*
X109404761Y-95428571D01*
X109452380Y-95523809D01*
X109452380Y-95619047D01*
X109452380Y-96476190D02*
X109452380Y-95904761D01*
X109452380Y-96190476D02*
X108452380Y-96190476D01*
X108595238Y-96095238D01*
X108690476Y-96000000D01*
X108738095Y-95904761D01*
%TO.C,Cinx1*%
X103761904Y-100287142D02*
X103809523Y-100334761D01*
X103952380Y-100382380D01*
X104047619Y-100382380D01*
X104190476Y-100334761D01*
X104285714Y-100239523D01*
X104333333Y-100144285D01*
X104380952Y-99953809D01*
X104380952Y-99810952D01*
X104333333Y-99620476D01*
X104285714Y-99525238D01*
X104190476Y-99430000D01*
X104047619Y-99382380D01*
X103952380Y-99382380D01*
X103809523Y-99430000D01*
X103761904Y-99477619D01*
X103333333Y-100382380D02*
X103333333Y-99715714D01*
X103333333Y-99382380D02*
X103380952Y-99430000D01*
X103333333Y-99477619D01*
X103285714Y-99430000D01*
X103333333Y-99382380D01*
X103333333Y-99477619D01*
X102857142Y-99715714D02*
X102857142Y-100382380D01*
X102857142Y-99810952D02*
X102809523Y-99763333D01*
X102714285Y-99715714D01*
X102571428Y-99715714D01*
X102476190Y-99763333D01*
X102428571Y-99858571D01*
X102428571Y-100382380D01*
X102047619Y-100382380D02*
X101523809Y-99715714D01*
X102047619Y-99715714D02*
X101523809Y-100382380D01*
X100619047Y-100382380D02*
X101190476Y-100382380D01*
X100904761Y-100382380D02*
X100904761Y-99382380D01*
X101000000Y-99525238D01*
X101095238Y-99620476D01*
X101190476Y-99668095D01*
%TO.C,Cin1*%
X107857142Y-97537142D02*
X107904761Y-97584761D01*
X108047619Y-97632380D01*
X108142857Y-97632380D01*
X108285714Y-97584761D01*
X108380952Y-97489523D01*
X108428571Y-97394285D01*
X108476190Y-97203809D01*
X108476190Y-97060952D01*
X108428571Y-96870476D01*
X108380952Y-96775238D01*
X108285714Y-96680000D01*
X108142857Y-96632380D01*
X108047619Y-96632380D01*
X107904761Y-96680000D01*
X107857142Y-96727619D01*
X107428571Y-97632380D02*
X107428571Y-96965714D01*
X107428571Y-96632380D02*
X107476190Y-96680000D01*
X107428571Y-96727619D01*
X107380952Y-96680000D01*
X107428571Y-96632380D01*
X107428571Y-96727619D01*
X106952380Y-96965714D02*
X106952380Y-97632380D01*
X106952380Y-97060952D02*
X106904761Y-97013333D01*
X106809523Y-96965714D01*
X106666666Y-96965714D01*
X106571428Y-97013333D01*
X106523809Y-97108571D01*
X106523809Y-97632380D01*
X105523809Y-97632380D02*
X106095238Y-97632380D01*
X105809523Y-97632380D02*
X105809523Y-96632380D01*
X105904761Y-96775238D01*
X106000000Y-96870476D01*
X106095238Y-96918095D01*
%TO.C,Cboot1*%
X106207142Y-87690476D02*
X106254761Y-87642857D01*
X106302380Y-87500000D01*
X106302380Y-87404761D01*
X106254761Y-87261904D01*
X106159523Y-87166666D01*
X106064285Y-87119047D01*
X105873809Y-87071428D01*
X105730952Y-87071428D01*
X105540476Y-87119047D01*
X105445238Y-87166666D01*
X105350000Y-87261904D01*
X105302380Y-87404761D01*
X105302380Y-87500000D01*
X105350000Y-87642857D01*
X105397619Y-87690476D01*
X106302380Y-88119047D02*
X105302380Y-88119047D01*
X105683333Y-88119047D02*
X105635714Y-88214285D01*
X105635714Y-88404761D01*
X105683333Y-88500000D01*
X105730952Y-88547619D01*
X105826190Y-88595238D01*
X106111904Y-88595238D01*
X106207142Y-88547619D01*
X106254761Y-88500000D01*
X106302380Y-88404761D01*
X106302380Y-88214285D01*
X106254761Y-88119047D01*
X106302380Y-89166666D02*
X106254761Y-89071428D01*
X106207142Y-89023809D01*
X106111904Y-88976190D01*
X105826190Y-88976190D01*
X105730952Y-89023809D01*
X105683333Y-89071428D01*
X105635714Y-89166666D01*
X105635714Y-89309523D01*
X105683333Y-89404761D01*
X105730952Y-89452380D01*
X105826190Y-89500000D01*
X106111904Y-89500000D01*
X106207142Y-89452380D01*
X106254761Y-89404761D01*
X106302380Y-89309523D01*
X106302380Y-89166666D01*
X106302380Y-90071428D02*
X106254761Y-89976190D01*
X106207142Y-89928571D01*
X106111904Y-89880952D01*
X105826190Y-89880952D01*
X105730952Y-89928571D01*
X105683333Y-89976190D01*
X105635714Y-90071428D01*
X105635714Y-90214285D01*
X105683333Y-90309523D01*
X105730952Y-90357142D01*
X105826190Y-90404761D01*
X106111904Y-90404761D01*
X106207142Y-90357142D01*
X106254761Y-90309523D01*
X106302380Y-90214285D01*
X106302380Y-90071428D01*
X105635714Y-90690476D02*
X105635714Y-91071428D01*
X105302380Y-90833333D02*
X106159523Y-90833333D01*
X106254761Y-90880952D01*
X106302380Y-90976190D01*
X106302380Y-91071428D01*
X106302380Y-91928571D02*
X106302380Y-91357142D01*
X106302380Y-91642857D02*
X105302380Y-91642857D01*
X105445238Y-91547619D01*
X105540476Y-91452380D01*
X105588095Y-91357142D01*
%TO.C,R5*%
X82066666Y-86482380D02*
X82400000Y-86006190D01*
X82638095Y-86482380D02*
X82638095Y-85482380D01*
X82257142Y-85482380D01*
X82161904Y-85530000D01*
X82114285Y-85577619D01*
X82066666Y-85672857D01*
X82066666Y-85815714D01*
X82114285Y-85910952D01*
X82161904Y-85958571D01*
X82257142Y-86006190D01*
X82638095Y-86006190D01*
X81161904Y-85482380D02*
X81638095Y-85482380D01*
X81685714Y-85958571D01*
X81638095Y-85910952D01*
X81542857Y-85863333D01*
X81304761Y-85863333D01*
X81209523Y-85910952D01*
X81161904Y-85958571D01*
X81114285Y-86053809D01*
X81114285Y-86291904D01*
X81161904Y-86387142D01*
X81209523Y-86434761D01*
X81304761Y-86482380D01*
X81542857Y-86482380D01*
X81638095Y-86434761D01*
X81685714Y-86387142D01*
%TO.C,R6*%
X82066666Y-85322380D02*
X82400000Y-84846190D01*
X82638095Y-85322380D02*
X82638095Y-84322380D01*
X82257142Y-84322380D01*
X82161904Y-84370000D01*
X82114285Y-84417619D01*
X82066666Y-84512857D01*
X82066666Y-84655714D01*
X82114285Y-84750952D01*
X82161904Y-84798571D01*
X82257142Y-84846190D01*
X82638095Y-84846190D01*
X81209523Y-84322380D02*
X81400000Y-84322380D01*
X81495238Y-84370000D01*
X81542857Y-84417619D01*
X81638095Y-84560476D01*
X81685714Y-84750952D01*
X81685714Y-85131904D01*
X81638095Y-85227142D01*
X81590476Y-85274761D01*
X81495238Y-85322380D01*
X81304761Y-85322380D01*
X81209523Y-85274761D01*
X81161904Y-85227142D01*
X81114285Y-85131904D01*
X81114285Y-84893809D01*
X81161904Y-84798571D01*
X81209523Y-84750952D01*
X81304761Y-84703333D01*
X81495238Y-84703333D01*
X81590476Y-84750952D01*
X81638095Y-84798571D01*
X81685714Y-84893809D01*
%TO.C,C3*%
X180166666Y-84787142D02*
X180214285Y-84834761D01*
X180357142Y-84882380D01*
X180452380Y-84882380D01*
X180595238Y-84834761D01*
X180690476Y-84739523D01*
X180738095Y-84644285D01*
X180785714Y-84453809D01*
X180785714Y-84310952D01*
X180738095Y-84120476D01*
X180690476Y-84025238D01*
X180595238Y-83930000D01*
X180452380Y-83882380D01*
X180357142Y-83882380D01*
X180214285Y-83930000D01*
X180166666Y-83977619D01*
X179833333Y-83882380D02*
X179214285Y-83882380D01*
X179547619Y-84263333D01*
X179404761Y-84263333D01*
X179309523Y-84310952D01*
X179261904Y-84358571D01*
X179214285Y-84453809D01*
X179214285Y-84691904D01*
X179261904Y-84787142D01*
X179309523Y-84834761D01*
X179404761Y-84882380D01*
X179690476Y-84882380D01*
X179785714Y-84834761D01*
X179833333Y-84787142D01*
%TO.C,C5*%
X180166666Y-98427142D02*
X180214285Y-98474761D01*
X180357142Y-98522380D01*
X180452380Y-98522380D01*
X180595238Y-98474761D01*
X180690476Y-98379523D01*
X180738095Y-98284285D01*
X180785714Y-98093809D01*
X180785714Y-97950952D01*
X180738095Y-97760476D01*
X180690476Y-97665238D01*
X180595238Y-97570000D01*
X180452380Y-97522380D01*
X180357142Y-97522380D01*
X180214285Y-97570000D01*
X180166666Y-97617619D01*
X179261904Y-97522380D02*
X179738095Y-97522380D01*
X179785714Y-97998571D01*
X179738095Y-97950952D01*
X179642857Y-97903333D01*
X179404761Y-97903333D01*
X179309523Y-97950952D01*
X179261904Y-97998571D01*
X179214285Y-98093809D01*
X179214285Y-98331904D01*
X179261904Y-98427142D01*
X179309523Y-98474761D01*
X179404761Y-98522380D01*
X179642857Y-98522380D01*
X179738095Y-98474761D01*
X179785714Y-98427142D01*
%TO.C,C4*%
X201166666Y-84787142D02*
X201214285Y-84834761D01*
X201357142Y-84882380D01*
X201452380Y-84882380D01*
X201595238Y-84834761D01*
X201690476Y-84739523D01*
X201738095Y-84644285D01*
X201785714Y-84453809D01*
X201785714Y-84310952D01*
X201738095Y-84120476D01*
X201690476Y-84025238D01*
X201595238Y-83930000D01*
X201452380Y-83882380D01*
X201357142Y-83882380D01*
X201214285Y-83930000D01*
X201166666Y-83977619D01*
X200309523Y-84215714D02*
X200309523Y-84882380D01*
X200547619Y-83834761D02*
X200785714Y-84549047D01*
X200166666Y-84549047D01*
%TO.C,SW2*%
D13*
X192085333Y-94804047D02*
X191903904Y-94864523D01*
X191601523Y-94864523D01*
X191480571Y-94804047D01*
X191420095Y-94743571D01*
X191359619Y-94622619D01*
X191359619Y-94501666D01*
X191420095Y-94380714D01*
X191480571Y-94320238D01*
X191601523Y-94259761D01*
X191843428Y-94199285D01*
X191964380Y-94138809D01*
X192024857Y-94078333D01*
X192085333Y-93957380D01*
X192085333Y-93836428D01*
X192024857Y-93715476D01*
X191964380Y-93655000D01*
X191843428Y-93594523D01*
X191541047Y-93594523D01*
X191359619Y-93655000D01*
X190936285Y-93594523D02*
X190633904Y-94864523D01*
X190392000Y-93957380D01*
X190150095Y-94864523D01*
X189847714Y-93594523D01*
X189424380Y-93715476D02*
X189363904Y-93655000D01*
X189242952Y-93594523D01*
X188940571Y-93594523D01*
X188819619Y-93655000D01*
X188759142Y-93715476D01*
X188698666Y-93836428D01*
X188698666Y-93957380D01*
X188759142Y-94138809D01*
X189484857Y-94864523D01*
X188698666Y-94864523D01*
%TO.C,U7*%
D14*
X176761904Y-96782380D02*
X176761904Y-97591904D01*
X176714285Y-97687142D01*
X176666666Y-97734761D01*
X176571428Y-97782380D01*
X176380952Y-97782380D01*
X176285714Y-97734761D01*
X176238095Y-97687142D01*
X176190476Y-97591904D01*
X176190476Y-96782380D01*
X175809523Y-96782380D02*
X175142857Y-96782380D01*
X175571428Y-97782380D01*
%TO.C,U6*%
X76261904Y-83252380D02*
X76261904Y-84061904D01*
X76214285Y-84157142D01*
X76166666Y-84204761D01*
X76071428Y-84252380D01*
X75880952Y-84252380D01*
X75785714Y-84204761D01*
X75738095Y-84157142D01*
X75690476Y-84061904D01*
X75690476Y-83252380D01*
X74785714Y-83252380D02*
X74976190Y-83252380D01*
X75071428Y-83300000D01*
X75119047Y-83347619D01*
X75214285Y-83490476D01*
X75261904Y-83680952D01*
X75261904Y-84061904D01*
X75214285Y-84157142D01*
X75166666Y-84204761D01*
X75071428Y-84252380D01*
X74880952Y-84252380D01*
X74785714Y-84204761D01*
X74738095Y-84157142D01*
X74690476Y-84061904D01*
X74690476Y-83823809D01*
X74738095Y-83728571D01*
X74785714Y-83680952D01*
X74880952Y-83633333D01*
X75071428Y-83633333D01*
X75166666Y-83680952D01*
X75214285Y-83728571D01*
X75261904Y-83823809D01*
%TO.C,U4*%
X237602380Y-90238095D02*
X238411904Y-90238095D01*
X238507142Y-90285714D01*
X238554761Y-90333333D01*
X238602380Y-90428571D01*
X238602380Y-90619047D01*
X238554761Y-90714285D01*
X238507142Y-90761904D01*
X238411904Y-90809523D01*
X237602380Y-90809523D01*
X237935714Y-91714285D02*
X238602380Y-91714285D01*
X237554761Y-91476190D02*
X238269047Y-91238095D01*
X238269047Y-91857142D01*
%TO.C,U3*%
X223102380Y-90238095D02*
X223911904Y-90238095D01*
X224007142Y-90285714D01*
X224054761Y-90333333D01*
X224102380Y-90428571D01*
X224102380Y-90619047D01*
X224054761Y-90714285D01*
X224007142Y-90761904D01*
X223911904Y-90809523D01*
X223102380Y-90809523D01*
X223102380Y-91190476D02*
X223102380Y-91809523D01*
X223483333Y-91476190D01*
X223483333Y-91619047D01*
X223530952Y-91714285D01*
X223578571Y-91761904D01*
X223673809Y-91809523D01*
X223911904Y-91809523D01*
X224007142Y-91761904D01*
X224054761Y-91714285D01*
X224102380Y-91619047D01*
X224102380Y-91333333D01*
X224054761Y-91238095D01*
X224007142Y-91190476D01*
%TO.C,U2*%
X160102380Y-90238095D02*
X160911904Y-90238095D01*
X161007142Y-90285714D01*
X161054761Y-90333333D01*
X161102380Y-90428571D01*
X161102380Y-90619047D01*
X161054761Y-90714285D01*
X161007142Y-90761904D01*
X160911904Y-90809523D01*
X160102380Y-90809523D01*
X160197619Y-91238095D02*
X160150000Y-91285714D01*
X160102380Y-91380952D01*
X160102380Y-91619047D01*
X160150000Y-91714285D01*
X160197619Y-91761904D01*
X160292857Y-91809523D01*
X160388095Y-91809523D01*
X160530952Y-91761904D01*
X161102380Y-91190476D01*
X161102380Y-91809523D01*
%TO.C,U1*%
X144602380Y-90238095D02*
X145411904Y-90238095D01*
X145507142Y-90285714D01*
X145554761Y-90333333D01*
X145602380Y-90428571D01*
X145602380Y-90619047D01*
X145554761Y-90714285D01*
X145507142Y-90761904D01*
X145411904Y-90809523D01*
X144602380Y-90809523D01*
X145602380Y-91809523D02*
X145602380Y-91238095D01*
X145602380Y-91523809D02*
X144602380Y-91523809D01*
X144745238Y-91428571D01*
X144840476Y-91333333D01*
X144888095Y-91238095D01*
%TO.C,SW1*%
X81333333Y-97604761D02*
X81190476Y-97652380D01*
X80952380Y-97652380D01*
X80857142Y-97604761D01*
X80809523Y-97557142D01*
X80761904Y-97461904D01*
X80761904Y-97366666D01*
X80809523Y-97271428D01*
X80857142Y-97223809D01*
X80952380Y-97176190D01*
X81142857Y-97128571D01*
X81238095Y-97080952D01*
X81285714Y-97033333D01*
X81333333Y-96938095D01*
X81333333Y-96842857D01*
X81285714Y-96747619D01*
X81238095Y-96700000D01*
X81142857Y-96652380D01*
X80904761Y-96652380D01*
X80761904Y-96700000D01*
X80428571Y-96652380D02*
X80190476Y-97652380D01*
X80000000Y-96938095D01*
X79809523Y-97652380D01*
X79571428Y-96652380D01*
X78666666Y-97652380D02*
X79238095Y-97652380D01*
X78952380Y-97652380D02*
X78952380Y-96652380D01*
X79047619Y-96795238D01*
X79142857Y-96890476D01*
X79238095Y-96938095D01*
%TO.C,J2*%
X64833333Y-92187380D02*
X64833333Y-92901666D01*
X64880952Y-93044523D01*
X64976190Y-93139761D01*
X65119047Y-93187380D01*
X65214285Y-93187380D01*
X64404761Y-92282619D02*
X64357142Y-92235000D01*
X64261904Y-92187380D01*
X64023809Y-92187380D01*
X63928571Y-92235000D01*
X63880952Y-92282619D01*
X63833333Y-92377857D01*
X63833333Y-92473095D01*
X63880952Y-92615952D01*
X64452380Y-93187380D01*
X63833333Y-93187380D01*
%TO.C,J4*%
X245552380Y-90716666D02*
X246266666Y-90716666D01*
X246409523Y-90669047D01*
X246504761Y-90573809D01*
X246552380Y-90430952D01*
X246552380Y-90335714D01*
X245885714Y-91621428D02*
X246552380Y-91621428D01*
X245504761Y-91383333D02*
X246219047Y-91145238D01*
X246219047Y-91764285D01*
%TO.C,J3*%
X53352380Y-90716666D02*
X54066666Y-90716666D01*
X54209523Y-90669047D01*
X54304761Y-90573809D01*
X54352380Y-90430952D01*
X54352380Y-90335714D01*
X53352380Y-91097619D02*
X53352380Y-91716666D01*
X53733333Y-91383333D01*
X53733333Y-91526190D01*
X53780952Y-91621428D01*
X53828571Y-91669047D01*
X53923809Y-91716666D01*
X54161904Y-91716666D01*
X54257142Y-91669047D01*
X54304761Y-91621428D01*
X54352380Y-91526190D01*
X54352380Y-91240476D01*
X54304761Y-91145238D01*
X54257142Y-91097619D01*
%TD*%
%LPC*%
%TO.C,R17*%
G36*
G01*
X185740000Y-96085000D02*
X185740000Y-95715000D01*
G75*
G02*
X185875000Y-95580000I135000J0D01*
G01*
X186145000Y-95580000D01*
G75*
G02*
X186280000Y-95715000I0J-135000D01*
G01*
X186280000Y-96085000D01*
G75*
G02*
X186145000Y-96220000I-135000J0D01*
G01*
X185875000Y-96220000D01*
G75*
G02*
X185740000Y-96085000I0J135000D01*
G01*
G37*
G36*
G01*
X184720000Y-96085000D02*
X184720000Y-95715000D01*
G75*
G02*
X184855000Y-95580000I135000J0D01*
G01*
X185125000Y-95580000D01*
G75*
G02*
X185260000Y-95715000I0J-135000D01*
G01*
X185260000Y-96085000D01*
G75*
G02*
X185125000Y-96220000I-135000J0D01*
G01*
X184855000Y-96220000D01*
G75*
G02*
X184720000Y-96085000I0J135000D01*
G01*
G37*
%TD*%
%TO.C,R16*%
G36*
G01*
X179460000Y-89615000D02*
X179460000Y-89985000D01*
G75*
G02*
X179325000Y-90120000I-135000J0D01*
G01*
X179055000Y-90120000D01*
G75*
G02*
X178920000Y-89985000I0J135000D01*
G01*
X178920000Y-89615000D01*
G75*
G02*
X179055000Y-89480000I135000J0D01*
G01*
X179325000Y-89480000D01*
G75*
G02*
X179460000Y-89615000I0J-135000D01*
G01*
G37*
G36*
G01*
X180480000Y-89615000D02*
X180480000Y-89985000D01*
G75*
G02*
X180345000Y-90120000I-135000J0D01*
G01*
X180075000Y-90120000D01*
G75*
G02*
X179940000Y-89985000I0J135000D01*
G01*
X179940000Y-89615000D01*
G75*
G02*
X180075000Y-89480000I135000J0D01*
G01*
X180345000Y-89480000D01*
G75*
G02*
X180480000Y-89615000I0J-135000D01*
G01*
G37*
%TD*%
%TO.C,R15*%
G36*
G01*
X179460000Y-88415000D02*
X179460000Y-88785000D01*
G75*
G02*
X179325000Y-88920000I-135000J0D01*
G01*
X179055000Y-88920000D01*
G75*
G02*
X178920000Y-88785000I0J135000D01*
G01*
X178920000Y-88415000D01*
G75*
G02*
X179055000Y-88280000I135000J0D01*
G01*
X179325000Y-88280000D01*
G75*
G02*
X179460000Y-88415000I0J-135000D01*
G01*
G37*
G36*
G01*
X180480000Y-88415000D02*
X180480000Y-88785000D01*
G75*
G02*
X180345000Y-88920000I-135000J0D01*
G01*
X180075000Y-88920000D01*
G75*
G02*
X179940000Y-88785000I0J135000D01*
G01*
X179940000Y-88415000D01*
G75*
G02*
X180075000Y-88280000I135000J0D01*
G01*
X180345000Y-88280000D01*
G75*
G02*
X180480000Y-88415000I0J-135000D01*
G01*
G37*
%TD*%
%TO.C,R14*%
G36*
G01*
X179460000Y-87215000D02*
X179460000Y-87585000D01*
G75*
G02*
X179325000Y-87720000I-135000J0D01*
G01*
X179055000Y-87720000D01*
G75*
G02*
X178920000Y-87585000I0J135000D01*
G01*
X178920000Y-87215000D01*
G75*
G02*
X179055000Y-87080000I135000J0D01*
G01*
X179325000Y-87080000D01*
G75*
G02*
X179460000Y-87215000I0J-135000D01*
G01*
G37*
G36*
G01*
X180480000Y-87215000D02*
X180480000Y-87585000D01*
G75*
G02*
X180345000Y-87720000I-135000J0D01*
G01*
X180075000Y-87720000D01*
G75*
G02*
X179940000Y-87585000I0J135000D01*
G01*
X179940000Y-87215000D01*
G75*
G02*
X180075000Y-87080000I135000J0D01*
G01*
X180345000Y-87080000D01*
G75*
G02*
X180480000Y-87215000I0J-135000D01*
G01*
G37*
%TD*%
%TO.C,R13*%
G36*
G01*
X176860000Y-82915000D02*
X176860000Y-83285000D01*
G75*
G02*
X176725000Y-83420000I-135000J0D01*
G01*
X176455000Y-83420000D01*
G75*
G02*
X176320000Y-83285000I0J135000D01*
G01*
X176320000Y-82915000D01*
G75*
G02*
X176455000Y-82780000I135000J0D01*
G01*
X176725000Y-82780000D01*
G75*
G02*
X176860000Y-82915000I0J-135000D01*
G01*
G37*
G36*
G01*
X177880000Y-82915000D02*
X177880000Y-83285000D01*
G75*
G02*
X177745000Y-83420000I-135000J0D01*
G01*
X177475000Y-83420000D01*
G75*
G02*
X177340000Y-83285000I0J135000D01*
G01*
X177340000Y-82915000D01*
G75*
G02*
X177475000Y-82780000I135000J0D01*
G01*
X177745000Y-82780000D01*
G75*
G02*
X177880000Y-82915000I0J-135000D01*
G01*
G37*
%TD*%
%TO.C,R12*%
G36*
G01*
X178360000Y-81315000D02*
X178360000Y-81685000D01*
G75*
G02*
X178225000Y-81820000I-135000J0D01*
G01*
X177955000Y-81820000D01*
G75*
G02*
X177820000Y-81685000I0J135000D01*
G01*
X177820000Y-81315000D01*
G75*
G02*
X177955000Y-81180000I135000J0D01*
G01*
X178225000Y-81180000D01*
G75*
G02*
X178360000Y-81315000I0J-135000D01*
G01*
G37*
G36*
G01*
X179380000Y-81315000D02*
X179380000Y-81685000D01*
G75*
G02*
X179245000Y-81820000I-135000J0D01*
G01*
X178975000Y-81820000D01*
G75*
G02*
X178840000Y-81685000I0J135000D01*
G01*
X178840000Y-81315000D01*
G75*
G02*
X178975000Y-81180000I135000J0D01*
G01*
X179245000Y-81180000D01*
G75*
G02*
X179380000Y-81315000I0J-135000D01*
G01*
G37*
%TD*%
%TO.C,R11*%
G36*
G01*
X64540000Y-84185000D02*
X64540000Y-83815000D01*
G75*
G02*
X64675000Y-83680000I135000J0D01*
G01*
X64945000Y-83680000D01*
G75*
G02*
X65080000Y-83815000I0J-135000D01*
G01*
X65080000Y-84185000D01*
G75*
G02*
X64945000Y-84320000I-135000J0D01*
G01*
X64675000Y-84320000D01*
G75*
G02*
X64540000Y-84185000I0J135000D01*
G01*
G37*
G36*
G01*
X63520000Y-84185000D02*
X63520000Y-83815000D01*
G75*
G02*
X63655000Y-83680000I135000J0D01*
G01*
X63925000Y-83680000D01*
G75*
G02*
X64060000Y-83815000I0J-135000D01*
G01*
X64060000Y-84185000D01*
G75*
G02*
X63925000Y-84320000I-135000J0D01*
G01*
X63655000Y-84320000D01*
G75*
G02*
X63520000Y-84185000I0J135000D01*
G01*
G37*
%TD*%
%TO.C,R10*%
G36*
G01*
X240740000Y-100085000D02*
X240740000Y-99715000D01*
G75*
G02*
X240875000Y-99580000I135000J0D01*
G01*
X241145000Y-99580000D01*
G75*
G02*
X241280000Y-99715000I0J-135000D01*
G01*
X241280000Y-100085000D01*
G75*
G02*
X241145000Y-100220000I-135000J0D01*
G01*
X240875000Y-100220000D01*
G75*
G02*
X240740000Y-100085000I0J135000D01*
G01*
G37*
G36*
G01*
X239720000Y-100085000D02*
X239720000Y-99715000D01*
G75*
G02*
X239855000Y-99580000I135000J0D01*
G01*
X240125000Y-99580000D01*
G75*
G02*
X240260000Y-99715000I0J-135000D01*
G01*
X240260000Y-100085000D01*
G75*
G02*
X240125000Y-100220000I-135000J0D01*
G01*
X239855000Y-100220000D01*
G75*
G02*
X239720000Y-100085000I0J135000D01*
G01*
G37*
%TD*%
%TO.C,R9*%
G36*
G01*
X225140000Y-100585000D02*
X225140000Y-100215000D01*
G75*
G02*
X225275000Y-100080000I135000J0D01*
G01*
X225545000Y-100080000D01*
G75*
G02*
X225680000Y-100215000I0J-135000D01*
G01*
X225680000Y-100585000D01*
G75*
G02*
X225545000Y-100720000I-135000J0D01*
G01*
X225275000Y-100720000D01*
G75*
G02*
X225140000Y-100585000I0J135000D01*
G01*
G37*
G36*
G01*
X224120000Y-100585000D02*
X224120000Y-100215000D01*
G75*
G02*
X224255000Y-100080000I135000J0D01*
G01*
X224525000Y-100080000D01*
G75*
G02*
X224660000Y-100215000I0J-135000D01*
G01*
X224660000Y-100585000D01*
G75*
G02*
X224525000Y-100720000I-135000J0D01*
G01*
X224255000Y-100720000D01*
G75*
G02*
X224120000Y-100585000I0J135000D01*
G01*
G37*
%TD*%
%TO.C,R8*%
G36*
G01*
X162040000Y-96985000D02*
X162040000Y-96615000D01*
G75*
G02*
X162175000Y-96480000I135000J0D01*
G01*
X162445000Y-96480000D01*
G75*
G02*
X162580000Y-96615000I0J-135000D01*
G01*
X162580000Y-96985000D01*
G75*
G02*
X162445000Y-97120000I-135000J0D01*
G01*
X162175000Y-97120000D01*
G75*
G02*
X162040000Y-96985000I0J135000D01*
G01*
G37*
G36*
G01*
X161020000Y-96985000D02*
X161020000Y-96615000D01*
G75*
G02*
X161155000Y-96480000I135000J0D01*
G01*
X161425000Y-96480000D01*
G75*
G02*
X161560000Y-96615000I0J-135000D01*
G01*
X161560000Y-96985000D01*
G75*
G02*
X161425000Y-97120000I-135000J0D01*
G01*
X161155000Y-97120000D01*
G75*
G02*
X161020000Y-96985000I0J135000D01*
G01*
G37*
%TD*%
%TO.C,R7*%
G36*
G01*
X146540000Y-99485000D02*
X146540000Y-99115000D01*
G75*
G02*
X146675000Y-98980000I135000J0D01*
G01*
X146945000Y-98980000D01*
G75*
G02*
X147080000Y-99115000I0J-135000D01*
G01*
X147080000Y-99485000D01*
G75*
G02*
X146945000Y-99620000I-135000J0D01*
G01*
X146675000Y-99620000D01*
G75*
G02*
X146540000Y-99485000I0J135000D01*
G01*
G37*
G36*
G01*
X145520000Y-99485000D02*
X145520000Y-99115000D01*
G75*
G02*
X145655000Y-98980000I135000J0D01*
G01*
X145925000Y-98980000D01*
G75*
G02*
X146060000Y-99115000I0J-135000D01*
G01*
X146060000Y-99485000D01*
G75*
G02*
X145925000Y-99620000I-135000J0D01*
G01*
X145655000Y-99620000D01*
G75*
G02*
X145520000Y-99485000I0J135000D01*
G01*
G37*
%TD*%
%TO.C,F1*%
G36*
G01*
X116775000Y-95625000D02*
X116775000Y-94375000D01*
G75*
G02*
X117025000Y-94125000I250000J0D01*
G01*
X117775000Y-94125000D01*
G75*
G02*
X118025000Y-94375000I0J-250000D01*
G01*
X118025000Y-95625000D01*
G75*
G02*
X117775000Y-95875000I-250000J0D01*
G01*
X117025000Y-95875000D01*
G75*
G02*
X116775000Y-95625000I0J250000D01*
G01*
G37*
G36*
G01*
X113975000Y-95625000D02*
X113975000Y-94375000D01*
G75*
G02*
X114225000Y-94125000I250000J0D01*
G01*
X114975000Y-94125000D01*
G75*
G02*
X115225000Y-94375000I0J-250000D01*
G01*
X115225000Y-95625000D01*
G75*
G02*
X114975000Y-95875000I-250000J0D01*
G01*
X114225000Y-95875000D01*
G75*
G02*
X113975000Y-95625000I0J250000D01*
G01*
G37*
%TD*%
D16*
%TO.C,D25*%
X112050000Y-96500000D03*
X109950000Y-96500000D03*
%TD*%
D17*
%TO.C,VR1*%
X103600000Y-92050000D03*
X103600000Y-93000000D03*
X103600000Y-93950000D03*
X101400000Y-93950000D03*
X101400000Y-92050000D03*
X101400000Y-93000000D03*
%TD*%
%TO.C,Rent1*%
G36*
G01*
X104280000Y-96827500D02*
X104280000Y-97172500D01*
G75*
G02*
X104132500Y-97320000I-147500J0D01*
G01*
X103837500Y-97320000D01*
G75*
G02*
X103690000Y-97172500I0J147500D01*
G01*
X103690000Y-96827500D01*
G75*
G02*
X103837500Y-96680000I147500J0D01*
G01*
X104132500Y-96680000D01*
G75*
G02*
X104280000Y-96827500I0J-147500D01*
G01*
G37*
G36*
G01*
X103310000Y-96827500D02*
X103310000Y-97172500D01*
G75*
G02*
X103162500Y-97320000I-147500J0D01*
G01*
X102867500Y-97320000D01*
G75*
G02*
X102720000Y-97172500I0J147500D01*
G01*
X102720000Y-96827500D01*
G75*
G02*
X102867500Y-96680000I147500J0D01*
G01*
X103162500Y-96680000D01*
G75*
G02*
X103310000Y-96827500I0J-147500D01*
G01*
G37*
%TD*%
%TO.C,Renb1*%
G36*
G01*
X99220000Y-96172500D02*
X99220000Y-95827500D01*
G75*
G02*
X99367500Y-95680000I147500J0D01*
G01*
X99662500Y-95680000D01*
G75*
G02*
X99810000Y-95827500I0J-147500D01*
G01*
X99810000Y-96172500D01*
G75*
G02*
X99662500Y-96320000I-147500J0D01*
G01*
X99367500Y-96320000D01*
G75*
G02*
X99220000Y-96172500I0J147500D01*
G01*
G37*
G36*
G01*
X100190000Y-96172500D02*
X100190000Y-95827500D01*
G75*
G02*
X100337500Y-95680000I147500J0D01*
G01*
X100632500Y-95680000D01*
G75*
G02*
X100780000Y-95827500I0J-147500D01*
G01*
X100780000Y-96172500D01*
G75*
G02*
X100632500Y-96320000I-147500J0D01*
G01*
X100337500Y-96320000D01*
G75*
G02*
X100190000Y-96172500I0J147500D01*
G01*
G37*
%TD*%
D18*
%TO.C,L1*%
X112000000Y-92150000D03*
X112000000Y-88850000D03*
%TD*%
%TO.C,Cout1*%
G36*
G01*
X107956250Y-95925000D02*
X107043750Y-95925000D01*
G75*
G02*
X106800000Y-95681250I0J243750D01*
G01*
X106800000Y-95193750D01*
G75*
G02*
X107043750Y-94950000I243750J0D01*
G01*
X107956250Y-94950000D01*
G75*
G02*
X108200000Y-95193750I0J-243750D01*
G01*
X108200000Y-95681250D01*
G75*
G02*
X107956250Y-95925000I-243750J0D01*
G01*
G37*
G36*
G01*
X107956250Y-94050000D02*
X107043750Y-94050000D01*
G75*
G02*
X106800000Y-93806250I0J243750D01*
G01*
X106800000Y-93318750D01*
G75*
G02*
X107043750Y-93075000I243750J0D01*
G01*
X107956250Y-93075000D01*
G75*
G02*
X108200000Y-93318750I0J-243750D01*
G01*
X108200000Y-93806250D01*
G75*
G02*
X107956250Y-94050000I-243750J0D01*
G01*
G37*
%TD*%
%TO.C,Cinx1*%
G36*
G01*
X102850000Y-98756250D02*
X102850000Y-98243750D01*
G75*
G02*
X103068750Y-98025000I218750J0D01*
G01*
X103506250Y-98025000D01*
G75*
G02*
X103725000Y-98243750I0J-218750D01*
G01*
X103725000Y-98756250D01*
G75*
G02*
X103506250Y-98975000I-218750J0D01*
G01*
X103068750Y-98975000D01*
G75*
G02*
X102850000Y-98756250I0J218750D01*
G01*
G37*
G36*
G01*
X101275000Y-98756250D02*
X101275000Y-98243750D01*
G75*
G02*
X101493750Y-98025000I218750J0D01*
G01*
X101931250Y-98025000D01*
G75*
G02*
X102150000Y-98243750I0J-218750D01*
G01*
X102150000Y-98756250D01*
G75*
G02*
X101931250Y-98975000I-218750J0D01*
G01*
X101493750Y-98975000D01*
G75*
G02*
X101275000Y-98756250I0J218750D01*
G01*
G37*
%TD*%
%TO.C,Cin1*%
G36*
G01*
X109025000Y-98375000D02*
X109025000Y-99625000D01*
G75*
G02*
X108775000Y-99875000I-250000J0D01*
G01*
X108025000Y-99875000D01*
G75*
G02*
X107775000Y-99625000I0J250000D01*
G01*
X107775000Y-98375000D01*
G75*
G02*
X108025000Y-98125000I250000J0D01*
G01*
X108775000Y-98125000D01*
G75*
G02*
X109025000Y-98375000I0J-250000D01*
G01*
G37*
G36*
G01*
X106225000Y-98375000D02*
X106225000Y-99625000D01*
G75*
G02*
X105975000Y-99875000I-250000J0D01*
G01*
X105225000Y-99875000D01*
G75*
G02*
X104975000Y-99625000I0J250000D01*
G01*
X104975000Y-98375000D01*
G75*
G02*
X105225000Y-98125000I250000J0D01*
G01*
X105975000Y-98125000D01*
G75*
G02*
X106225000Y-98375000I0J-250000D01*
G01*
G37*
%TD*%
%TO.C,Cboot1*%
G36*
G01*
X107043750Y-88075000D02*
X107956250Y-88075000D01*
G75*
G02*
X108200000Y-88318750I0J-243750D01*
G01*
X108200000Y-88806250D01*
G75*
G02*
X107956250Y-89050000I-243750J0D01*
G01*
X107043750Y-89050000D01*
G75*
G02*
X106800000Y-88806250I0J243750D01*
G01*
X106800000Y-88318750D01*
G75*
G02*
X107043750Y-88075000I243750J0D01*
G01*
G37*
G36*
G01*
X107043750Y-89950000D02*
X107956250Y-89950000D01*
G75*
G02*
X108200000Y-90193750I0J-243750D01*
G01*
X108200000Y-90681250D01*
G75*
G02*
X107956250Y-90925000I-243750J0D01*
G01*
X107043750Y-90925000D01*
G75*
G02*
X106800000Y-90681250I0J243750D01*
G01*
X106800000Y-90193750D01*
G75*
G02*
X107043750Y-89950000I243750J0D01*
G01*
G37*
%TD*%
%TO.C,R5*%
G36*
G01*
X81710000Y-87027500D02*
X81710000Y-87372500D01*
G75*
G02*
X81562500Y-87520000I-147500J0D01*
G01*
X81267500Y-87520000D01*
G75*
G02*
X81120000Y-87372500I0J147500D01*
G01*
X81120000Y-87027500D01*
G75*
G02*
X81267500Y-86880000I147500J0D01*
G01*
X81562500Y-86880000D01*
G75*
G02*
X81710000Y-87027500I0J-147500D01*
G01*
G37*
G36*
G01*
X82680000Y-87027500D02*
X82680000Y-87372500D01*
G75*
G02*
X82532500Y-87520000I-147500J0D01*
G01*
X82237500Y-87520000D01*
G75*
G02*
X82090000Y-87372500I0J147500D01*
G01*
X82090000Y-87027500D01*
G75*
G02*
X82237500Y-86880000I147500J0D01*
G01*
X82532500Y-86880000D01*
G75*
G02*
X82680000Y-87027500I0J-147500D01*
G01*
G37*
%TD*%
%TO.C,R6*%
G36*
G01*
X82090000Y-83872500D02*
X82090000Y-83527500D01*
G75*
G02*
X82237500Y-83380000I147500J0D01*
G01*
X82532500Y-83380000D01*
G75*
G02*
X82680000Y-83527500I0J-147500D01*
G01*
X82680000Y-83872500D01*
G75*
G02*
X82532500Y-84020000I-147500J0D01*
G01*
X82237500Y-84020000D01*
G75*
G02*
X82090000Y-83872500I0J147500D01*
G01*
G37*
G36*
G01*
X81120000Y-83872500D02*
X81120000Y-83527500D01*
G75*
G02*
X81267500Y-83380000I147500J0D01*
G01*
X81562500Y-83380000D01*
G75*
G02*
X81710000Y-83527500I0J-147500D01*
G01*
X81710000Y-83872500D01*
G75*
G02*
X81562500Y-84020000I-147500J0D01*
G01*
X81267500Y-84020000D01*
G75*
G02*
X81120000Y-83872500I0J147500D01*
G01*
G37*
%TD*%
%TO.C,C3*%
G36*
G01*
X180350000Y-83256250D02*
X180350000Y-82743750D01*
G75*
G02*
X180568750Y-82525000I218750J0D01*
G01*
X181006250Y-82525000D01*
G75*
G02*
X181225000Y-82743750I0J-218750D01*
G01*
X181225000Y-83256250D01*
G75*
G02*
X181006250Y-83475000I-218750J0D01*
G01*
X180568750Y-83475000D01*
G75*
G02*
X180350000Y-83256250I0J218750D01*
G01*
G37*
G36*
G01*
X178775000Y-83256250D02*
X178775000Y-82743750D01*
G75*
G02*
X178993750Y-82525000I218750J0D01*
G01*
X179431250Y-82525000D01*
G75*
G02*
X179650000Y-82743750I0J-218750D01*
G01*
X179650000Y-83256250D01*
G75*
G02*
X179431250Y-83475000I-218750J0D01*
G01*
X178993750Y-83475000D01*
G75*
G02*
X178775000Y-83256250I0J218750D01*
G01*
G37*
%TD*%
%TO.C,C5*%
G36*
G01*
X179650000Y-99243750D02*
X179650000Y-99756250D01*
G75*
G02*
X179431250Y-99975000I-218750J0D01*
G01*
X178993750Y-99975000D01*
G75*
G02*
X178775000Y-99756250I0J218750D01*
G01*
X178775000Y-99243750D01*
G75*
G02*
X178993750Y-99025000I218750J0D01*
G01*
X179431250Y-99025000D01*
G75*
G02*
X179650000Y-99243750I0J-218750D01*
G01*
G37*
G36*
G01*
X181225000Y-99243750D02*
X181225000Y-99756250D01*
G75*
G02*
X181006250Y-99975000I-218750J0D01*
G01*
X180568750Y-99975000D01*
G75*
G02*
X180350000Y-99756250I0J218750D01*
G01*
X180350000Y-99243750D01*
G75*
G02*
X180568750Y-99025000I218750J0D01*
G01*
X181006250Y-99025000D01*
G75*
G02*
X181225000Y-99243750I0J-218750D01*
G01*
G37*
%TD*%
%TO.C,C4*%
G36*
G01*
X201350000Y-83256250D02*
X201350000Y-82743750D01*
G75*
G02*
X201568750Y-82525000I218750J0D01*
G01*
X202006250Y-82525000D01*
G75*
G02*
X202225000Y-82743750I0J-218750D01*
G01*
X202225000Y-83256250D01*
G75*
G02*
X202006250Y-83475000I-218750J0D01*
G01*
X201568750Y-83475000D01*
G75*
G02*
X201350000Y-83256250I0J218750D01*
G01*
G37*
G36*
G01*
X199775000Y-83256250D02*
X199775000Y-82743750D01*
G75*
G02*
X199993750Y-82525000I218750J0D01*
G01*
X200431250Y-82525000D01*
G75*
G02*
X200650000Y-82743750I0J-218750D01*
G01*
X200650000Y-83256250D01*
G75*
G02*
X200431250Y-83475000I-218750J0D01*
G01*
X199993750Y-83475000D01*
G75*
G02*
X199775000Y-83256250I0J218750D01*
G01*
G37*
%TD*%
D19*
%TO.C,A1*%
X84450000Y-80840000D03*
X81910000Y-80840000D03*
X79370000Y-80840000D03*
X76830000Y-80840000D03*
X74290000Y-80840000D03*
X71750000Y-80840000D03*
X69210000Y-80840000D03*
X66670000Y-80840000D03*
X64130000Y-80840000D03*
X61590000Y-80840000D03*
X59050000Y-80840000D03*
X56510000Y-80840000D03*
X51430000Y-80840000D03*
X46350000Y-80840000D03*
X84450000Y-101160000D03*
X81910000Y-101160000D03*
X79370000Y-101160000D03*
X76830000Y-101160000D03*
X74290000Y-101160000D03*
X71750000Y-101160000D03*
X69210000Y-101160000D03*
X66670000Y-101160000D03*
X64130000Y-101160000D03*
X61590000Y-101160000D03*
X59050000Y-101160000D03*
X56510000Y-101160000D03*
X48890000Y-80840000D03*
X53970000Y-80840000D03*
%TD*%
D20*
%TO.C,SW2*%
X190500000Y-91000000D03*
D21*
X185500000Y-98900000D03*
D22*
X184125000Y-91000000D03*
D21*
X185500000Y-83100000D03*
X195500000Y-83100000D03*
D22*
X196875000Y-91000000D03*
D21*
X195500000Y-98900000D03*
D23*
X193000000Y-98000000D03*
X188000000Y-98000000D03*
X190500000Y-83700000D03*
X193000000Y-83700000D03*
X188000000Y-83700000D03*
D24*
X190500000Y-86500000D03*
%TD*%
D25*
%TO.C,U7*%
X176000000Y-87380000D03*
X176000000Y-89920000D03*
X176000000Y-92460000D03*
D26*
X176000000Y-95000000D03*
%TD*%
%TO.C,U6*%
G36*
G01*
X73375000Y-84975000D02*
X73375000Y-85175000D01*
G75*
G02*
X73275000Y-85275000I-100000J0D01*
G01*
X72000000Y-85275000D01*
G75*
G02*
X71900000Y-85175000I0J100000D01*
G01*
X71900000Y-84975000D01*
G75*
G02*
X72000000Y-84875000I100000J0D01*
G01*
X73275000Y-84875000D01*
G75*
G02*
X73375000Y-84975000I0J-100000D01*
G01*
G37*
G36*
G01*
X73375000Y-85625000D02*
X73375000Y-85825000D01*
G75*
G02*
X73275000Y-85925000I-100000J0D01*
G01*
X72000000Y-85925000D01*
G75*
G02*
X71900000Y-85825000I0J100000D01*
G01*
X71900000Y-85625000D01*
G75*
G02*
X72000000Y-85525000I100000J0D01*
G01*
X73275000Y-85525000D01*
G75*
G02*
X73375000Y-85625000I0J-100000D01*
G01*
G37*
G36*
G01*
X73375000Y-86275000D02*
X73375000Y-86475000D01*
G75*
G02*
X73275000Y-86575000I-100000J0D01*
G01*
X72000000Y-86575000D01*
G75*
G02*
X71900000Y-86475000I0J100000D01*
G01*
X71900000Y-86275000D01*
G75*
G02*
X72000000Y-86175000I100000J0D01*
G01*
X73275000Y-86175000D01*
G75*
G02*
X73375000Y-86275000I0J-100000D01*
G01*
G37*
G36*
G01*
X73375000Y-86925000D02*
X73375000Y-87125000D01*
G75*
G02*
X73275000Y-87225000I-100000J0D01*
G01*
X72000000Y-87225000D01*
G75*
G02*
X71900000Y-87125000I0J100000D01*
G01*
X71900000Y-86925000D01*
G75*
G02*
X72000000Y-86825000I100000J0D01*
G01*
X73275000Y-86825000D01*
G75*
G02*
X73375000Y-86925000I0J-100000D01*
G01*
G37*
G36*
G01*
X73375000Y-87575000D02*
X73375000Y-87775000D01*
G75*
G02*
X73275000Y-87875000I-100000J0D01*
G01*
X72000000Y-87875000D01*
G75*
G02*
X71900000Y-87775000I0J100000D01*
G01*
X71900000Y-87575000D01*
G75*
G02*
X72000000Y-87475000I100000J0D01*
G01*
X73275000Y-87475000D01*
G75*
G02*
X73375000Y-87575000I0J-100000D01*
G01*
G37*
G36*
G01*
X73375000Y-88225000D02*
X73375000Y-88425000D01*
G75*
G02*
X73275000Y-88525000I-100000J0D01*
G01*
X72000000Y-88525000D01*
G75*
G02*
X71900000Y-88425000I0J100000D01*
G01*
X71900000Y-88225000D01*
G75*
G02*
X72000000Y-88125000I100000J0D01*
G01*
X73275000Y-88125000D01*
G75*
G02*
X73375000Y-88225000I0J-100000D01*
G01*
G37*
G36*
G01*
X73375000Y-88875000D02*
X73375000Y-89075000D01*
G75*
G02*
X73275000Y-89175000I-100000J0D01*
G01*
X72000000Y-89175000D01*
G75*
G02*
X71900000Y-89075000I0J100000D01*
G01*
X71900000Y-88875000D01*
G75*
G02*
X72000000Y-88775000I100000J0D01*
G01*
X73275000Y-88775000D01*
G75*
G02*
X73375000Y-88875000I0J-100000D01*
G01*
G37*
G36*
G01*
X73375000Y-89525000D02*
X73375000Y-89725000D01*
G75*
G02*
X73275000Y-89825000I-100000J0D01*
G01*
X72000000Y-89825000D01*
G75*
G02*
X71900000Y-89725000I0J100000D01*
G01*
X71900000Y-89525000D01*
G75*
G02*
X72000000Y-89425000I100000J0D01*
G01*
X73275000Y-89425000D01*
G75*
G02*
X73375000Y-89525000I0J-100000D01*
G01*
G37*
G36*
G01*
X73375000Y-90175000D02*
X73375000Y-90375000D01*
G75*
G02*
X73275000Y-90475000I-100000J0D01*
G01*
X72000000Y-90475000D01*
G75*
G02*
X71900000Y-90375000I0J100000D01*
G01*
X71900000Y-90175000D01*
G75*
G02*
X72000000Y-90075000I100000J0D01*
G01*
X73275000Y-90075000D01*
G75*
G02*
X73375000Y-90175000I0J-100000D01*
G01*
G37*
G36*
G01*
X73375000Y-90825000D02*
X73375000Y-91025000D01*
G75*
G02*
X73275000Y-91125000I-100000J0D01*
G01*
X72000000Y-91125000D01*
G75*
G02*
X71900000Y-91025000I0J100000D01*
G01*
X71900000Y-90825000D01*
G75*
G02*
X72000000Y-90725000I100000J0D01*
G01*
X73275000Y-90725000D01*
G75*
G02*
X73375000Y-90825000I0J-100000D01*
G01*
G37*
G36*
G01*
X79100000Y-90825000D02*
X79100000Y-91025000D01*
G75*
G02*
X79000000Y-91125000I-100000J0D01*
G01*
X77725000Y-91125000D01*
G75*
G02*
X77625000Y-91025000I0J100000D01*
G01*
X77625000Y-90825000D01*
G75*
G02*
X77725000Y-90725000I100000J0D01*
G01*
X79000000Y-90725000D01*
G75*
G02*
X79100000Y-90825000I0J-100000D01*
G01*
G37*
G36*
G01*
X79100000Y-90175000D02*
X79100000Y-90375000D01*
G75*
G02*
X79000000Y-90475000I-100000J0D01*
G01*
X77725000Y-90475000D01*
G75*
G02*
X77625000Y-90375000I0J100000D01*
G01*
X77625000Y-90175000D01*
G75*
G02*
X77725000Y-90075000I100000J0D01*
G01*
X79000000Y-90075000D01*
G75*
G02*
X79100000Y-90175000I0J-100000D01*
G01*
G37*
G36*
G01*
X79100000Y-89525000D02*
X79100000Y-89725000D01*
G75*
G02*
X79000000Y-89825000I-100000J0D01*
G01*
X77725000Y-89825000D01*
G75*
G02*
X77625000Y-89725000I0J100000D01*
G01*
X77625000Y-89525000D01*
G75*
G02*
X77725000Y-89425000I100000J0D01*
G01*
X79000000Y-89425000D01*
G75*
G02*
X79100000Y-89525000I0J-100000D01*
G01*
G37*
G36*
G01*
X79100000Y-88875000D02*
X79100000Y-89075000D01*
G75*
G02*
X79000000Y-89175000I-100000J0D01*
G01*
X77725000Y-89175000D01*
G75*
G02*
X77625000Y-89075000I0J100000D01*
G01*
X77625000Y-88875000D01*
G75*
G02*
X77725000Y-88775000I100000J0D01*
G01*
X79000000Y-88775000D01*
G75*
G02*
X79100000Y-88875000I0J-100000D01*
G01*
G37*
G36*
G01*
X79100000Y-88225000D02*
X79100000Y-88425000D01*
G75*
G02*
X79000000Y-88525000I-100000J0D01*
G01*
X77725000Y-88525000D01*
G75*
G02*
X77625000Y-88425000I0J100000D01*
G01*
X77625000Y-88225000D01*
G75*
G02*
X77725000Y-88125000I100000J0D01*
G01*
X79000000Y-88125000D01*
G75*
G02*
X79100000Y-88225000I0J-100000D01*
G01*
G37*
G36*
G01*
X79100000Y-87575000D02*
X79100000Y-87775000D01*
G75*
G02*
X79000000Y-87875000I-100000J0D01*
G01*
X77725000Y-87875000D01*
G75*
G02*
X77625000Y-87775000I0J100000D01*
G01*
X77625000Y-87575000D01*
G75*
G02*
X77725000Y-87475000I100000J0D01*
G01*
X79000000Y-87475000D01*
G75*
G02*
X79100000Y-87575000I0J-100000D01*
G01*
G37*
G36*
G01*
X79100000Y-86925000D02*
X79100000Y-87125000D01*
G75*
G02*
X79000000Y-87225000I-100000J0D01*
G01*
X77725000Y-87225000D01*
G75*
G02*
X77625000Y-87125000I0J100000D01*
G01*
X77625000Y-86925000D01*
G75*
G02*
X77725000Y-86825000I100000J0D01*
G01*
X79000000Y-86825000D01*
G75*
G02*
X79100000Y-86925000I0J-100000D01*
G01*
G37*
G36*
G01*
X79100000Y-86275000D02*
X79100000Y-86475000D01*
G75*
G02*
X79000000Y-86575000I-100000J0D01*
G01*
X77725000Y-86575000D01*
G75*
G02*
X77625000Y-86475000I0J100000D01*
G01*
X77625000Y-86275000D01*
G75*
G02*
X77725000Y-86175000I100000J0D01*
G01*
X79000000Y-86175000D01*
G75*
G02*
X79100000Y-86275000I0J-100000D01*
G01*
G37*
G36*
G01*
X79100000Y-85625000D02*
X79100000Y-85825000D01*
G75*
G02*
X79000000Y-85925000I-100000J0D01*
G01*
X77725000Y-85925000D01*
G75*
G02*
X77625000Y-85825000I0J100000D01*
G01*
X77625000Y-85625000D01*
G75*
G02*
X77725000Y-85525000I100000J0D01*
G01*
X79000000Y-85525000D01*
G75*
G02*
X79100000Y-85625000I0J-100000D01*
G01*
G37*
G36*
G01*
X79100000Y-84975000D02*
X79100000Y-85175000D01*
G75*
G02*
X79000000Y-85275000I-100000J0D01*
G01*
X77725000Y-85275000D01*
G75*
G02*
X77625000Y-85175000I0J100000D01*
G01*
X77625000Y-84975000D01*
G75*
G02*
X77725000Y-84875000I100000J0D01*
G01*
X79000000Y-84875000D01*
G75*
G02*
X79100000Y-84975000I0J-100000D01*
G01*
G37*
%TD*%
D27*
%TO.C,U4*%
X231500000Y-87625000D03*
D28*
X227690000Y-96775000D03*
X228960000Y-96775000D03*
X230230000Y-96775000D03*
X231500000Y-96775000D03*
X232770000Y-96775000D03*
X234040000Y-96775000D03*
X235310000Y-96775000D03*
%TD*%
D27*
%TO.C,U3*%
X217000000Y-87625000D03*
D28*
X213190000Y-96775000D03*
X214460000Y-96775000D03*
X215730000Y-96775000D03*
X217000000Y-96775000D03*
X218270000Y-96775000D03*
X219540000Y-96775000D03*
X220810000Y-96775000D03*
%TD*%
D27*
%TO.C,U2*%
X154000000Y-87625000D03*
D28*
X150190000Y-96775000D03*
X151460000Y-96775000D03*
X152730000Y-96775000D03*
X154000000Y-96775000D03*
X155270000Y-96775000D03*
X156540000Y-96775000D03*
X157810000Y-96775000D03*
%TD*%
D27*
%TO.C,U1*%
X138500000Y-87625000D03*
D28*
X134690000Y-96775000D03*
X135960000Y-96775000D03*
X137230000Y-96775000D03*
X138500000Y-96775000D03*
X139770000Y-96775000D03*
X141040000Y-96775000D03*
X142310000Y-96775000D03*
%TD*%
D29*
%TO.C,SW1*%
G36*
X80650000Y-94650602D02*
G01*
X80674534Y-94650602D01*
X80723365Y-94655412D01*
X80771490Y-94664984D01*
X80818445Y-94679228D01*
X80863778Y-94698005D01*
X80907051Y-94721136D01*
X80947850Y-94748396D01*
X80985779Y-94779524D01*
X81020476Y-94814221D01*
X81051604Y-94852150D01*
X81078864Y-94892949D01*
X81101995Y-94936222D01*
X81120772Y-94981555D01*
X81135016Y-95028510D01*
X81144588Y-95076635D01*
X81149398Y-95125466D01*
X81149398Y-95150000D01*
X81150000Y-95150000D01*
X81150000Y-95650000D01*
X81149398Y-95650000D01*
X81149398Y-95674534D01*
X81144588Y-95723365D01*
X81135016Y-95771490D01*
X81120772Y-95818445D01*
X81101995Y-95863778D01*
X81078864Y-95907051D01*
X81051604Y-95947850D01*
X81020476Y-95985779D01*
X80985779Y-96020476D01*
X80947850Y-96051604D01*
X80907051Y-96078864D01*
X80863778Y-96101995D01*
X80818445Y-96120772D01*
X80771490Y-96135016D01*
X80723365Y-96144588D01*
X80674534Y-96149398D01*
X80650000Y-96149398D01*
X80650000Y-96150000D01*
X80150000Y-96150000D01*
X80150000Y-94650000D01*
X80650000Y-94650000D01*
X80650000Y-94650602D01*
G37*
G36*
X79850000Y-96150000D02*
G01*
X79350000Y-96150000D01*
X79350000Y-96149398D01*
X79325466Y-96149398D01*
X79276635Y-96144588D01*
X79228510Y-96135016D01*
X79181555Y-96120772D01*
X79136222Y-96101995D01*
X79092949Y-96078864D01*
X79052150Y-96051604D01*
X79014221Y-96020476D01*
X78979524Y-95985779D01*
X78948396Y-95947850D01*
X78921136Y-95907051D01*
X78898005Y-95863778D01*
X78879228Y-95818445D01*
X78864984Y-95771490D01*
X78855412Y-95723365D01*
X78850602Y-95674534D01*
X78850602Y-95650000D01*
X78850000Y-95650000D01*
X78850000Y-95150000D01*
X78850602Y-95150000D01*
X78850602Y-95125466D01*
X78855412Y-95076635D01*
X78864984Y-95028510D01*
X78879228Y-94981555D01*
X78898005Y-94936222D01*
X78921136Y-94892949D01*
X78948396Y-94852150D01*
X78979524Y-94814221D01*
X79014221Y-94779524D01*
X79052150Y-94748396D01*
X79092949Y-94721136D01*
X79136222Y-94698005D01*
X79181555Y-94679228D01*
X79228510Y-94664984D01*
X79276635Y-94655412D01*
X79325466Y-94650602D01*
X79350000Y-94650602D01*
X79350000Y-94650000D01*
X79850000Y-94650000D01*
X79850000Y-96150000D01*
G37*
%TD*%
D30*
%TO.C,J2*%
X66450000Y-85960000D03*
X62550000Y-85960000D03*
X66450000Y-87230000D03*
X62550000Y-87230000D03*
X66450000Y-88500000D03*
X62550000Y-88500000D03*
X66450000Y-89770000D03*
X62550000Y-89770000D03*
X66450000Y-91040000D03*
X62550000Y-91040000D03*
%TD*%
%TO.C,J4*%
G36*
G01*
X256175000Y-83150000D02*
X259125000Y-83150000D01*
G75*
G02*
X259600000Y-83625000I0J-475000D01*
G01*
X259600000Y-84575000D01*
G75*
G02*
X259125000Y-85050000I-475000J0D01*
G01*
X256175000Y-85050000D01*
G75*
G02*
X255700000Y-84575000I0J475000D01*
G01*
X255700000Y-83625000D01*
G75*
G02*
X256175000Y-83150000I475000J0D01*
G01*
G37*
G36*
G01*
X256175000Y-97050000D02*
X259125000Y-97050000D01*
G75*
G02*
X259600000Y-97525000I0J-475000D01*
G01*
X259600000Y-98475000D01*
G75*
G02*
X259125000Y-98950000I-475000J0D01*
G01*
X256175000Y-98950000D01*
G75*
G02*
X255700000Y-98475000I0J475000D01*
G01*
X255700000Y-97525000D01*
G75*
G02*
X256175000Y-97050000I475000J0D01*
G01*
G37*
G36*
G01*
X247841100Y-86650000D02*
X251958900Y-86650000D01*
G75*
G02*
X252150000Y-86841100I0J-191100D01*
G01*
X252150000Y-87758900D01*
G75*
G02*
X251958900Y-87950000I-191100J0D01*
G01*
X247841100Y-87950000D01*
G75*
G02*
X247650000Y-87758900I0J191100D01*
G01*
X247650000Y-86841100D01*
G75*
G02*
X247841100Y-86650000I191100J0D01*
G01*
G37*
G36*
G01*
X247975000Y-89150000D02*
X251825000Y-89150000D01*
G75*
G02*
X252150000Y-89475000I0J-325000D01*
G01*
X252150000Y-90125000D01*
G75*
G02*
X251825000Y-90450000I-325000J0D01*
G01*
X247975000Y-90450000D01*
G75*
G02*
X247650000Y-90125000I0J325000D01*
G01*
X247650000Y-89475000D01*
G75*
G02*
X247975000Y-89150000I325000J0D01*
G01*
G37*
G36*
G01*
X247975000Y-91650000D02*
X251825000Y-91650000D01*
G75*
G02*
X252150000Y-91975000I0J-325000D01*
G01*
X252150000Y-92625000D01*
G75*
G02*
X251825000Y-92950000I-325000J0D01*
G01*
X247975000Y-92950000D01*
G75*
G02*
X247650000Y-92625000I0J325000D01*
G01*
X247650000Y-91975000D01*
G75*
G02*
X247975000Y-91650000I325000J0D01*
G01*
G37*
G36*
G01*
X247975000Y-94150000D02*
X251825000Y-94150000D01*
G75*
G02*
X252150000Y-94475000I0J-325000D01*
G01*
X252150000Y-95125000D01*
G75*
G02*
X251825000Y-95450000I-325000J0D01*
G01*
X247975000Y-95450000D01*
G75*
G02*
X247650000Y-95125000I0J325000D01*
G01*
X247650000Y-94475000D01*
G75*
G02*
X247975000Y-94150000I325000J0D01*
G01*
G37*
%TD*%
%TO.C,J3*%
G36*
G01*
X52025000Y-87950000D02*
X48175000Y-87950000D01*
G75*
G02*
X47850000Y-87625000I0J325000D01*
G01*
X47850000Y-86975000D01*
G75*
G02*
X48175000Y-86650000I325000J0D01*
G01*
X52025000Y-86650000D01*
G75*
G02*
X52350000Y-86975000I0J-325000D01*
G01*
X52350000Y-87625000D01*
G75*
G02*
X52025000Y-87950000I-325000J0D01*
G01*
G37*
G36*
G01*
X52025000Y-90450000D02*
X48175000Y-90450000D01*
G75*
G02*
X47850000Y-90125000I0J325000D01*
G01*
X47850000Y-89475000D01*
G75*
G02*
X48175000Y-89150000I325000J0D01*
G01*
X52025000Y-89150000D01*
G75*
G02*
X52350000Y-89475000I0J-325000D01*
G01*
X52350000Y-90125000D01*
G75*
G02*
X52025000Y-90450000I-325000J0D01*
G01*
G37*
G36*
G01*
X52025000Y-92950000D02*
X48175000Y-92950000D01*
G75*
G02*
X47850000Y-92625000I0J325000D01*
G01*
X47850000Y-91975000D01*
G75*
G02*
X48175000Y-91650000I325000J0D01*
G01*
X52025000Y-91650000D01*
G75*
G02*
X52350000Y-91975000I0J-325000D01*
G01*
X52350000Y-92625000D01*
G75*
G02*
X52025000Y-92950000I-325000J0D01*
G01*
G37*
G36*
G01*
X52158900Y-95450000D02*
X48041100Y-95450000D01*
G75*
G02*
X47850000Y-95258900I0J191100D01*
G01*
X47850000Y-94341100D01*
G75*
G02*
X48041100Y-94150000I191100J0D01*
G01*
X52158900Y-94150000D01*
G75*
G02*
X52350000Y-94341100I0J-191100D01*
G01*
X52350000Y-95258900D01*
G75*
G02*
X52158900Y-95450000I-191100J0D01*
G01*
G37*
G36*
G01*
X43825000Y-85050000D02*
X40875000Y-85050000D01*
G75*
G02*
X40400000Y-84575000I0J475000D01*
G01*
X40400000Y-83625000D01*
G75*
G02*
X40875000Y-83150000I475000J0D01*
G01*
X43825000Y-83150000D01*
G75*
G02*
X44300000Y-83625000I0J-475000D01*
G01*
X44300000Y-84575000D01*
G75*
G02*
X43825000Y-85050000I-475000J0D01*
G01*
G37*
G36*
G01*
X43825000Y-98950000D02*
X40875000Y-98950000D01*
G75*
G02*
X40400000Y-98475000I0J475000D01*
G01*
X40400000Y-97525000D01*
G75*
G02*
X40875000Y-97050000I475000J0D01*
G01*
X43825000Y-97050000D01*
G75*
G02*
X44300000Y-97525000I0J-475000D01*
G01*
X44300000Y-98475000D01*
G75*
G02*
X43825000Y-98950000I-475000J0D01*
G01*
G37*
%TD*%
M02*
