%TF.GenerationSoftware,KiCad,Pcbnew,(5.1.8)-1*%
%TF.CreationDate,2020-12-04T09:48:41+01:00*%
%TF.ProjectId,Horticulture,486f7274-6963-4756-9c74-7572652e6b69,rev?*%
%TF.SameCoordinates,Original*%
%TF.FileFunction,Legend,Top*%
%TF.FilePolarity,Positive*%
%FSLAX46Y46*%
G04 Gerber Fmt 4.6, Leading zero omitted, Abs format (unit mm)*
G04 Created by KiCad (PCBNEW (5.1.8)-1) date 2020-12-04 09:48:41*
%MOMM*%
%LPD*%
G01*
G04 APERTURE LIST*
%ADD10C,0.120000*%
%ADD11C,0.150000*%
%ADD12C,0.100000*%
%ADD13C,1.524000*%
%ADD14C,3.150000*%
%ADD15C,2.200000*%
%ADD16O,1.700000X1.700000*%
%ADD17R,1.700000X1.700000*%
%ADD18R,1.930000X2.400000*%
%ADD19R,0.820000X2.400000*%
G04 APERTURE END LIST*
D10*
%TO.C,R4*%
X251241422Y-97290000D02*
X251758578Y-97290000D01*
X251241422Y-98710000D02*
X251758578Y-98710000D01*
%TO.C,R3*%
X251241422Y-92790000D02*
X251758578Y-92790000D01*
X251241422Y-94210000D02*
X251758578Y-94210000D01*
%TO.C,R2*%
X251241422Y-88290000D02*
X251758578Y-88290000D01*
X251241422Y-89710000D02*
X251758578Y-89710000D01*
%TO.C,R1*%
X251241422Y-83790000D02*
X251758578Y-83790000D01*
X251241422Y-85210000D02*
X251758578Y-85210000D01*
%TO.C,D24*%
X247250000Y-99750000D02*
X241500000Y-99750000D01*
X247250000Y-96250000D02*
X247250000Y-99750000D01*
X241500000Y-96250000D02*
X247250000Y-96250000D01*
X241500000Y-99750000D02*
X241500000Y-96250000D01*
%TO.C,D23*%
X208750000Y-99750000D02*
X203000000Y-99750000D01*
X208750000Y-96250000D02*
X208750000Y-99750000D01*
X203000000Y-96250000D02*
X208750000Y-96250000D01*
X203000000Y-99750000D02*
X203000000Y-96250000D01*
%TO.C,D22*%
X169750000Y-99750000D02*
X164000000Y-99750000D01*
X169750000Y-96250000D02*
X169750000Y-99750000D01*
X164000000Y-96250000D02*
X169750000Y-96250000D01*
X164000000Y-99750000D02*
X164000000Y-96250000D01*
%TO.C,D21*%
X130750000Y-99750000D02*
X125000000Y-99750000D01*
X130750000Y-96250000D02*
X130750000Y-99750000D01*
X125000000Y-96250000D02*
X130750000Y-96250000D01*
X125000000Y-99750000D02*
X125000000Y-96250000D01*
%TO.C,D20*%
X91750000Y-99750000D02*
X86000000Y-99750000D01*
X91750000Y-96250000D02*
X91750000Y-99750000D01*
X86000000Y-96250000D02*
X91750000Y-96250000D01*
X86000000Y-99750000D02*
X86000000Y-96250000D01*
%TO.C,D19*%
X52750000Y-99750000D02*
X47000000Y-99750000D01*
X52750000Y-96250000D02*
X52750000Y-99750000D01*
X47000000Y-96250000D02*
X52750000Y-96250000D01*
X47000000Y-99750000D02*
X47000000Y-96250000D01*
%TO.C,D18*%
X247250000Y-95250000D02*
X241500000Y-95250000D01*
X247250000Y-91750000D02*
X247250000Y-95250000D01*
X241500000Y-91750000D02*
X247250000Y-91750000D01*
X241500000Y-95250000D02*
X241500000Y-91750000D01*
%TO.C,D17*%
X208750000Y-95250000D02*
X203000000Y-95250000D01*
X208750000Y-91750000D02*
X208750000Y-95250000D01*
X203000000Y-91750000D02*
X208750000Y-91750000D01*
X203000000Y-95250000D02*
X203000000Y-91750000D01*
%TO.C,D16*%
X169750000Y-95250000D02*
X164000000Y-95250000D01*
X169750000Y-91750000D02*
X169750000Y-95250000D01*
X164000000Y-91750000D02*
X169750000Y-91750000D01*
X164000000Y-95250000D02*
X164000000Y-91750000D01*
%TO.C,D15*%
X130750000Y-95250000D02*
X125000000Y-95250000D01*
X130750000Y-91750000D02*
X130750000Y-95250000D01*
X125000000Y-91750000D02*
X130750000Y-91750000D01*
X125000000Y-95250000D02*
X125000000Y-91750000D01*
%TO.C,D14*%
X91750000Y-95250000D02*
X86000000Y-95250000D01*
X91750000Y-91750000D02*
X91750000Y-95250000D01*
X86000000Y-91750000D02*
X91750000Y-91750000D01*
X86000000Y-95250000D02*
X86000000Y-91750000D01*
%TO.C,D13*%
X52750000Y-95250000D02*
X47000000Y-95250000D01*
X52750000Y-91750000D02*
X52750000Y-95250000D01*
X47000000Y-91750000D02*
X52750000Y-91750000D01*
X47000000Y-95250000D02*
X47000000Y-91750000D01*
%TO.C,D12*%
X247250000Y-90750000D02*
X241500000Y-90750000D01*
X247250000Y-87250000D02*
X247250000Y-90750000D01*
X241500000Y-87250000D02*
X247250000Y-87250000D01*
X241500000Y-90750000D02*
X241500000Y-87250000D01*
%TO.C,D11*%
X208750000Y-90750000D02*
X203000000Y-90750000D01*
X208750000Y-87250000D02*
X208750000Y-90750000D01*
X203000000Y-87250000D02*
X208750000Y-87250000D01*
X203000000Y-90750000D02*
X203000000Y-87250000D01*
%TO.C,D10*%
X169750000Y-90750000D02*
X164000000Y-90750000D01*
X169750000Y-87250000D02*
X169750000Y-90750000D01*
X164000000Y-87250000D02*
X169750000Y-87250000D01*
X164000000Y-90750000D02*
X164000000Y-87250000D01*
%TO.C,D9*%
X130750000Y-90750000D02*
X125000000Y-90750000D01*
X130750000Y-87250000D02*
X130750000Y-90750000D01*
X125000000Y-87250000D02*
X130750000Y-87250000D01*
X125000000Y-90750000D02*
X125000000Y-87250000D01*
%TO.C,D8*%
X91750000Y-90750000D02*
X86000000Y-90750000D01*
X91750000Y-87250000D02*
X91750000Y-90750000D01*
X86000000Y-87250000D02*
X91750000Y-87250000D01*
X86000000Y-90750000D02*
X86000000Y-87250000D01*
%TO.C,D7*%
X52750000Y-90750000D02*
X47000000Y-90750000D01*
X52750000Y-87250000D02*
X52750000Y-90750000D01*
X47000000Y-87250000D02*
X52750000Y-87250000D01*
X47000000Y-90750000D02*
X47000000Y-87250000D01*
%TO.C,D6*%
X247250000Y-86250000D02*
X241500000Y-86250000D01*
X247250000Y-82750000D02*
X247250000Y-86250000D01*
X241500000Y-82750000D02*
X247250000Y-82750000D01*
X241500000Y-86250000D02*
X241500000Y-82750000D01*
%TO.C,D5*%
X208750000Y-86250000D02*
X203000000Y-86250000D01*
X208750000Y-82750000D02*
X208750000Y-86250000D01*
X203000000Y-82750000D02*
X208750000Y-82750000D01*
X203000000Y-86250000D02*
X203000000Y-82750000D01*
%TO.C,D4*%
X169750000Y-86250000D02*
X164000000Y-86250000D01*
X169750000Y-82750000D02*
X169750000Y-86250000D01*
X164000000Y-82750000D02*
X169750000Y-82750000D01*
X164000000Y-86250000D02*
X164000000Y-82750000D01*
%TO.C,D3*%
X130750000Y-86250000D02*
X125000000Y-86250000D01*
X130750000Y-82750000D02*
X130750000Y-86250000D01*
X125000000Y-82750000D02*
X130750000Y-82750000D01*
X125000000Y-86250000D02*
X125000000Y-82750000D01*
%TO.C,D2*%
X91750000Y-86250000D02*
X86000000Y-86250000D01*
X91750000Y-82750000D02*
X91750000Y-86250000D01*
X86000000Y-82750000D02*
X91750000Y-82750000D01*
X86000000Y-86250000D02*
X86000000Y-82750000D01*
%TO.C,D1*%
X52750000Y-86250000D02*
X47000000Y-86250000D01*
X52750000Y-82750000D02*
X52750000Y-86250000D01*
X47000000Y-82750000D02*
X52750000Y-82750000D01*
X47000000Y-86250000D02*
X47000000Y-82750000D01*
%TO.C,R4*%
D11*
X251333333Y-96802380D02*
X251000000Y-96326190D01*
X250761904Y-96802380D02*
X250761904Y-95802380D01*
X251142857Y-95802380D01*
X251238095Y-95850000D01*
X251285714Y-95897619D01*
X251333333Y-95992857D01*
X251333333Y-96135714D01*
X251285714Y-96230952D01*
X251238095Y-96278571D01*
X251142857Y-96326190D01*
X250761904Y-96326190D01*
X252190476Y-96135714D02*
X252190476Y-96802380D01*
X251952380Y-95754761D02*
X251714285Y-96469047D01*
X252333333Y-96469047D01*
%TO.C,R3*%
X251333333Y-92302380D02*
X251000000Y-91826190D01*
X250761904Y-92302380D02*
X250761904Y-91302380D01*
X251142857Y-91302380D01*
X251238095Y-91350000D01*
X251285714Y-91397619D01*
X251333333Y-91492857D01*
X251333333Y-91635714D01*
X251285714Y-91730952D01*
X251238095Y-91778571D01*
X251142857Y-91826190D01*
X250761904Y-91826190D01*
X251666666Y-91302380D02*
X252285714Y-91302380D01*
X251952380Y-91683333D01*
X252095238Y-91683333D01*
X252190476Y-91730952D01*
X252238095Y-91778571D01*
X252285714Y-91873809D01*
X252285714Y-92111904D01*
X252238095Y-92207142D01*
X252190476Y-92254761D01*
X252095238Y-92302380D01*
X251809523Y-92302380D01*
X251714285Y-92254761D01*
X251666666Y-92207142D01*
%TO.C,R2*%
X251333333Y-87802380D02*
X251000000Y-87326190D01*
X250761904Y-87802380D02*
X250761904Y-86802380D01*
X251142857Y-86802380D01*
X251238095Y-86850000D01*
X251285714Y-86897619D01*
X251333333Y-86992857D01*
X251333333Y-87135714D01*
X251285714Y-87230952D01*
X251238095Y-87278571D01*
X251142857Y-87326190D01*
X250761904Y-87326190D01*
X251714285Y-86897619D02*
X251761904Y-86850000D01*
X251857142Y-86802380D01*
X252095238Y-86802380D01*
X252190476Y-86850000D01*
X252238095Y-86897619D01*
X252285714Y-86992857D01*
X252285714Y-87088095D01*
X252238095Y-87230952D01*
X251666666Y-87802380D01*
X252285714Y-87802380D01*
%TO.C,R1*%
X251333333Y-83302380D02*
X251000000Y-82826190D01*
X250761904Y-83302380D02*
X250761904Y-82302380D01*
X251142857Y-82302380D01*
X251238095Y-82350000D01*
X251285714Y-82397619D01*
X251333333Y-82492857D01*
X251333333Y-82635714D01*
X251285714Y-82730952D01*
X251238095Y-82778571D01*
X251142857Y-82826190D01*
X250761904Y-82826190D01*
X252285714Y-83302380D02*
X251714285Y-83302380D01*
X252000000Y-83302380D02*
X252000000Y-82302380D01*
X251904761Y-82445238D01*
X251809523Y-82540476D01*
X251714285Y-82588095D01*
%TO.C,D24*%
X240702380Y-99094285D02*
X239702380Y-99094285D01*
X239702380Y-98856190D01*
X239750000Y-98713333D01*
X239845238Y-98618095D01*
X239940476Y-98570476D01*
X240130952Y-98522857D01*
X240273809Y-98522857D01*
X240464285Y-98570476D01*
X240559523Y-98618095D01*
X240654761Y-98713333D01*
X240702380Y-98856190D01*
X240702380Y-99094285D01*
X239797619Y-98141904D02*
X239750000Y-98094285D01*
X239702380Y-97999047D01*
X239702380Y-97760952D01*
X239750000Y-97665714D01*
X239797619Y-97618095D01*
X239892857Y-97570476D01*
X239988095Y-97570476D01*
X240130952Y-97618095D01*
X240702380Y-98189523D01*
X240702380Y-97570476D01*
X240035714Y-96713333D02*
X240702380Y-96713333D01*
X239654761Y-96951428D02*
X240369047Y-97189523D01*
X240369047Y-96570476D01*
D12*
X246928571Y-99107142D02*
X246952380Y-99130952D01*
X246976190Y-99202380D01*
X246976190Y-99250000D01*
X246952380Y-99321428D01*
X246904761Y-99369047D01*
X246857142Y-99392857D01*
X246761904Y-99416666D01*
X246690476Y-99416666D01*
X246595238Y-99392857D01*
X246547619Y-99369047D01*
X246500000Y-99321428D01*
X246476190Y-99250000D01*
X246476190Y-99202380D01*
X246500000Y-99130952D01*
X246523809Y-99107142D01*
X246976190Y-98678571D02*
X246714285Y-98678571D01*
X246666666Y-98702380D01*
X246642857Y-98750000D01*
X246642857Y-98845238D01*
X246666666Y-98892857D01*
X246952380Y-98678571D02*
X246976190Y-98726190D01*
X246976190Y-98845238D01*
X246952380Y-98892857D01*
X246904761Y-98916666D01*
X246857142Y-98916666D01*
X246809523Y-98892857D01*
X246785714Y-98845238D01*
X246785714Y-98726190D01*
X246761904Y-98678571D01*
X246642857Y-98511904D02*
X246642857Y-98321428D01*
X246476190Y-98440476D02*
X246904761Y-98440476D01*
X246952380Y-98416666D01*
X246976190Y-98369047D01*
X246976190Y-98321428D01*
X246976190Y-98154761D02*
X246476190Y-98154761D01*
X246976190Y-97940476D02*
X246714285Y-97940476D01*
X246666666Y-97964285D01*
X246642857Y-98011904D01*
X246642857Y-98083333D01*
X246666666Y-98130952D01*
X246690476Y-98154761D01*
X246976190Y-97630952D02*
X246952380Y-97678571D01*
X246928571Y-97702380D01*
X246880952Y-97726190D01*
X246738095Y-97726190D01*
X246690476Y-97702380D01*
X246666666Y-97678571D01*
X246642857Y-97630952D01*
X246642857Y-97559523D01*
X246666666Y-97511904D01*
X246690476Y-97488095D01*
X246738095Y-97464285D01*
X246880952Y-97464285D01*
X246928571Y-97488095D01*
X246952380Y-97511904D01*
X246976190Y-97559523D01*
X246976190Y-97630952D01*
X246976190Y-97035714D02*
X246476190Y-97035714D01*
X246952380Y-97035714D02*
X246976190Y-97083333D01*
X246976190Y-97178571D01*
X246952380Y-97226190D01*
X246928571Y-97250000D01*
X246880952Y-97273809D01*
X246738095Y-97273809D01*
X246690476Y-97250000D01*
X246666666Y-97226190D01*
X246642857Y-97178571D01*
X246642857Y-97083333D01*
X246666666Y-97035714D01*
X246952380Y-96607142D02*
X246976190Y-96654761D01*
X246976190Y-96750000D01*
X246952380Y-96797619D01*
X246904761Y-96821428D01*
X246714285Y-96821428D01*
X246666666Y-96797619D01*
X246642857Y-96750000D01*
X246642857Y-96654761D01*
X246666666Y-96607142D01*
X246714285Y-96583333D01*
X246761904Y-96583333D01*
X246809523Y-96821428D01*
X242083333Y-99011904D02*
X242083333Y-98773809D01*
X242226190Y-99059523D02*
X241726190Y-98892857D01*
X242226190Y-98726190D01*
X241892857Y-98559523D02*
X242226190Y-98559523D01*
X241940476Y-98559523D02*
X241916666Y-98535714D01*
X241892857Y-98488095D01*
X241892857Y-98416666D01*
X241916666Y-98369047D01*
X241964285Y-98345238D01*
X242226190Y-98345238D01*
X242226190Y-98035714D02*
X242202380Y-98083333D01*
X242178571Y-98107142D01*
X242130952Y-98130952D01*
X241988095Y-98130952D01*
X241940476Y-98107142D01*
X241916666Y-98083333D01*
X241892857Y-98035714D01*
X241892857Y-97964285D01*
X241916666Y-97916666D01*
X241940476Y-97892857D01*
X241988095Y-97869047D01*
X242130952Y-97869047D01*
X242178571Y-97892857D01*
X242202380Y-97916666D01*
X242226190Y-97964285D01*
X242226190Y-98035714D01*
X242226190Y-97440476D02*
X241726190Y-97440476D01*
X242202380Y-97440476D02*
X242226190Y-97488095D01*
X242226190Y-97583333D01*
X242202380Y-97630952D01*
X242178571Y-97654761D01*
X242130952Y-97678571D01*
X241988095Y-97678571D01*
X241940476Y-97654761D01*
X241916666Y-97630952D01*
X241892857Y-97583333D01*
X241892857Y-97488095D01*
X241916666Y-97440476D01*
X242202380Y-97011904D02*
X242226190Y-97059523D01*
X242226190Y-97154761D01*
X242202380Y-97202380D01*
X242154761Y-97226190D01*
X241964285Y-97226190D01*
X241916666Y-97202380D01*
X241892857Y-97154761D01*
X241892857Y-97059523D01*
X241916666Y-97011904D01*
X241964285Y-96988095D01*
X242011904Y-96988095D01*
X242059523Y-97226190D01*
%TO.C,D23*%
D11*
X202202380Y-99094285D02*
X201202380Y-99094285D01*
X201202380Y-98856190D01*
X201250000Y-98713333D01*
X201345238Y-98618095D01*
X201440476Y-98570476D01*
X201630952Y-98522857D01*
X201773809Y-98522857D01*
X201964285Y-98570476D01*
X202059523Y-98618095D01*
X202154761Y-98713333D01*
X202202380Y-98856190D01*
X202202380Y-99094285D01*
X201297619Y-98141904D02*
X201250000Y-98094285D01*
X201202380Y-97999047D01*
X201202380Y-97760952D01*
X201250000Y-97665714D01*
X201297619Y-97618095D01*
X201392857Y-97570476D01*
X201488095Y-97570476D01*
X201630952Y-97618095D01*
X202202380Y-98189523D01*
X202202380Y-97570476D01*
X201202380Y-97237142D02*
X201202380Y-96618095D01*
X201583333Y-96951428D01*
X201583333Y-96808571D01*
X201630952Y-96713333D01*
X201678571Y-96665714D01*
X201773809Y-96618095D01*
X202011904Y-96618095D01*
X202107142Y-96665714D01*
X202154761Y-96713333D01*
X202202380Y-96808571D01*
X202202380Y-97094285D01*
X202154761Y-97189523D01*
X202107142Y-97237142D01*
D12*
X208428571Y-99107142D02*
X208452380Y-99130952D01*
X208476190Y-99202380D01*
X208476190Y-99250000D01*
X208452380Y-99321428D01*
X208404761Y-99369047D01*
X208357142Y-99392857D01*
X208261904Y-99416666D01*
X208190476Y-99416666D01*
X208095238Y-99392857D01*
X208047619Y-99369047D01*
X208000000Y-99321428D01*
X207976190Y-99250000D01*
X207976190Y-99202380D01*
X208000000Y-99130952D01*
X208023809Y-99107142D01*
X208476190Y-98678571D02*
X208214285Y-98678571D01*
X208166666Y-98702380D01*
X208142857Y-98750000D01*
X208142857Y-98845238D01*
X208166666Y-98892857D01*
X208452380Y-98678571D02*
X208476190Y-98726190D01*
X208476190Y-98845238D01*
X208452380Y-98892857D01*
X208404761Y-98916666D01*
X208357142Y-98916666D01*
X208309523Y-98892857D01*
X208285714Y-98845238D01*
X208285714Y-98726190D01*
X208261904Y-98678571D01*
X208142857Y-98511904D02*
X208142857Y-98321428D01*
X207976190Y-98440476D02*
X208404761Y-98440476D01*
X208452380Y-98416666D01*
X208476190Y-98369047D01*
X208476190Y-98321428D01*
X208476190Y-98154761D02*
X207976190Y-98154761D01*
X208476190Y-97940476D02*
X208214285Y-97940476D01*
X208166666Y-97964285D01*
X208142857Y-98011904D01*
X208142857Y-98083333D01*
X208166666Y-98130952D01*
X208190476Y-98154761D01*
X208476190Y-97630952D02*
X208452380Y-97678571D01*
X208428571Y-97702380D01*
X208380952Y-97726190D01*
X208238095Y-97726190D01*
X208190476Y-97702380D01*
X208166666Y-97678571D01*
X208142857Y-97630952D01*
X208142857Y-97559523D01*
X208166666Y-97511904D01*
X208190476Y-97488095D01*
X208238095Y-97464285D01*
X208380952Y-97464285D01*
X208428571Y-97488095D01*
X208452380Y-97511904D01*
X208476190Y-97559523D01*
X208476190Y-97630952D01*
X208476190Y-97035714D02*
X207976190Y-97035714D01*
X208452380Y-97035714D02*
X208476190Y-97083333D01*
X208476190Y-97178571D01*
X208452380Y-97226190D01*
X208428571Y-97250000D01*
X208380952Y-97273809D01*
X208238095Y-97273809D01*
X208190476Y-97250000D01*
X208166666Y-97226190D01*
X208142857Y-97178571D01*
X208142857Y-97083333D01*
X208166666Y-97035714D01*
X208452380Y-96607142D02*
X208476190Y-96654761D01*
X208476190Y-96750000D01*
X208452380Y-96797619D01*
X208404761Y-96821428D01*
X208214285Y-96821428D01*
X208166666Y-96797619D01*
X208142857Y-96750000D01*
X208142857Y-96654761D01*
X208166666Y-96607142D01*
X208214285Y-96583333D01*
X208261904Y-96583333D01*
X208309523Y-96821428D01*
X203583333Y-99011904D02*
X203583333Y-98773809D01*
X203726190Y-99059523D02*
X203226190Y-98892857D01*
X203726190Y-98726190D01*
X203392857Y-98559523D02*
X203726190Y-98559523D01*
X203440476Y-98559523D02*
X203416666Y-98535714D01*
X203392857Y-98488095D01*
X203392857Y-98416666D01*
X203416666Y-98369047D01*
X203464285Y-98345238D01*
X203726190Y-98345238D01*
X203726190Y-98035714D02*
X203702380Y-98083333D01*
X203678571Y-98107142D01*
X203630952Y-98130952D01*
X203488095Y-98130952D01*
X203440476Y-98107142D01*
X203416666Y-98083333D01*
X203392857Y-98035714D01*
X203392857Y-97964285D01*
X203416666Y-97916666D01*
X203440476Y-97892857D01*
X203488095Y-97869047D01*
X203630952Y-97869047D01*
X203678571Y-97892857D01*
X203702380Y-97916666D01*
X203726190Y-97964285D01*
X203726190Y-98035714D01*
X203726190Y-97440476D02*
X203226190Y-97440476D01*
X203702380Y-97440476D02*
X203726190Y-97488095D01*
X203726190Y-97583333D01*
X203702380Y-97630952D01*
X203678571Y-97654761D01*
X203630952Y-97678571D01*
X203488095Y-97678571D01*
X203440476Y-97654761D01*
X203416666Y-97630952D01*
X203392857Y-97583333D01*
X203392857Y-97488095D01*
X203416666Y-97440476D01*
X203702380Y-97011904D02*
X203726190Y-97059523D01*
X203726190Y-97154761D01*
X203702380Y-97202380D01*
X203654761Y-97226190D01*
X203464285Y-97226190D01*
X203416666Y-97202380D01*
X203392857Y-97154761D01*
X203392857Y-97059523D01*
X203416666Y-97011904D01*
X203464285Y-96988095D01*
X203511904Y-96988095D01*
X203559523Y-97226190D01*
%TO.C,D22*%
D11*
X163202380Y-99094285D02*
X162202380Y-99094285D01*
X162202380Y-98856190D01*
X162250000Y-98713333D01*
X162345238Y-98618095D01*
X162440476Y-98570476D01*
X162630952Y-98522857D01*
X162773809Y-98522857D01*
X162964285Y-98570476D01*
X163059523Y-98618095D01*
X163154761Y-98713333D01*
X163202380Y-98856190D01*
X163202380Y-99094285D01*
X162297619Y-98141904D02*
X162250000Y-98094285D01*
X162202380Y-97999047D01*
X162202380Y-97760952D01*
X162250000Y-97665714D01*
X162297619Y-97618095D01*
X162392857Y-97570476D01*
X162488095Y-97570476D01*
X162630952Y-97618095D01*
X163202380Y-98189523D01*
X163202380Y-97570476D01*
X162297619Y-97189523D02*
X162250000Y-97141904D01*
X162202380Y-97046666D01*
X162202380Y-96808571D01*
X162250000Y-96713333D01*
X162297619Y-96665714D01*
X162392857Y-96618095D01*
X162488095Y-96618095D01*
X162630952Y-96665714D01*
X163202380Y-97237142D01*
X163202380Y-96618095D01*
D12*
X169428571Y-99107142D02*
X169452380Y-99130952D01*
X169476190Y-99202380D01*
X169476190Y-99250000D01*
X169452380Y-99321428D01*
X169404761Y-99369047D01*
X169357142Y-99392857D01*
X169261904Y-99416666D01*
X169190476Y-99416666D01*
X169095238Y-99392857D01*
X169047619Y-99369047D01*
X169000000Y-99321428D01*
X168976190Y-99250000D01*
X168976190Y-99202380D01*
X169000000Y-99130952D01*
X169023809Y-99107142D01*
X169476190Y-98678571D02*
X169214285Y-98678571D01*
X169166666Y-98702380D01*
X169142857Y-98750000D01*
X169142857Y-98845238D01*
X169166666Y-98892857D01*
X169452380Y-98678571D02*
X169476190Y-98726190D01*
X169476190Y-98845238D01*
X169452380Y-98892857D01*
X169404761Y-98916666D01*
X169357142Y-98916666D01*
X169309523Y-98892857D01*
X169285714Y-98845238D01*
X169285714Y-98726190D01*
X169261904Y-98678571D01*
X169142857Y-98511904D02*
X169142857Y-98321428D01*
X168976190Y-98440476D02*
X169404761Y-98440476D01*
X169452380Y-98416666D01*
X169476190Y-98369047D01*
X169476190Y-98321428D01*
X169476190Y-98154761D02*
X168976190Y-98154761D01*
X169476190Y-97940476D02*
X169214285Y-97940476D01*
X169166666Y-97964285D01*
X169142857Y-98011904D01*
X169142857Y-98083333D01*
X169166666Y-98130952D01*
X169190476Y-98154761D01*
X169476190Y-97630952D02*
X169452380Y-97678571D01*
X169428571Y-97702380D01*
X169380952Y-97726190D01*
X169238095Y-97726190D01*
X169190476Y-97702380D01*
X169166666Y-97678571D01*
X169142857Y-97630952D01*
X169142857Y-97559523D01*
X169166666Y-97511904D01*
X169190476Y-97488095D01*
X169238095Y-97464285D01*
X169380952Y-97464285D01*
X169428571Y-97488095D01*
X169452380Y-97511904D01*
X169476190Y-97559523D01*
X169476190Y-97630952D01*
X169476190Y-97035714D02*
X168976190Y-97035714D01*
X169452380Y-97035714D02*
X169476190Y-97083333D01*
X169476190Y-97178571D01*
X169452380Y-97226190D01*
X169428571Y-97250000D01*
X169380952Y-97273809D01*
X169238095Y-97273809D01*
X169190476Y-97250000D01*
X169166666Y-97226190D01*
X169142857Y-97178571D01*
X169142857Y-97083333D01*
X169166666Y-97035714D01*
X169452380Y-96607142D02*
X169476190Y-96654761D01*
X169476190Y-96750000D01*
X169452380Y-96797619D01*
X169404761Y-96821428D01*
X169214285Y-96821428D01*
X169166666Y-96797619D01*
X169142857Y-96750000D01*
X169142857Y-96654761D01*
X169166666Y-96607142D01*
X169214285Y-96583333D01*
X169261904Y-96583333D01*
X169309523Y-96821428D01*
X164583333Y-99011904D02*
X164583333Y-98773809D01*
X164726190Y-99059523D02*
X164226190Y-98892857D01*
X164726190Y-98726190D01*
X164392857Y-98559523D02*
X164726190Y-98559523D01*
X164440476Y-98559523D02*
X164416666Y-98535714D01*
X164392857Y-98488095D01*
X164392857Y-98416666D01*
X164416666Y-98369047D01*
X164464285Y-98345238D01*
X164726190Y-98345238D01*
X164726190Y-98035714D02*
X164702380Y-98083333D01*
X164678571Y-98107142D01*
X164630952Y-98130952D01*
X164488095Y-98130952D01*
X164440476Y-98107142D01*
X164416666Y-98083333D01*
X164392857Y-98035714D01*
X164392857Y-97964285D01*
X164416666Y-97916666D01*
X164440476Y-97892857D01*
X164488095Y-97869047D01*
X164630952Y-97869047D01*
X164678571Y-97892857D01*
X164702380Y-97916666D01*
X164726190Y-97964285D01*
X164726190Y-98035714D01*
X164726190Y-97440476D02*
X164226190Y-97440476D01*
X164702380Y-97440476D02*
X164726190Y-97488095D01*
X164726190Y-97583333D01*
X164702380Y-97630952D01*
X164678571Y-97654761D01*
X164630952Y-97678571D01*
X164488095Y-97678571D01*
X164440476Y-97654761D01*
X164416666Y-97630952D01*
X164392857Y-97583333D01*
X164392857Y-97488095D01*
X164416666Y-97440476D01*
X164702380Y-97011904D02*
X164726190Y-97059523D01*
X164726190Y-97154761D01*
X164702380Y-97202380D01*
X164654761Y-97226190D01*
X164464285Y-97226190D01*
X164416666Y-97202380D01*
X164392857Y-97154761D01*
X164392857Y-97059523D01*
X164416666Y-97011904D01*
X164464285Y-96988095D01*
X164511904Y-96988095D01*
X164559523Y-97226190D01*
%TO.C,D21*%
D11*
X124202380Y-99094285D02*
X123202380Y-99094285D01*
X123202380Y-98856190D01*
X123250000Y-98713333D01*
X123345238Y-98618095D01*
X123440476Y-98570476D01*
X123630952Y-98522857D01*
X123773809Y-98522857D01*
X123964285Y-98570476D01*
X124059523Y-98618095D01*
X124154761Y-98713333D01*
X124202380Y-98856190D01*
X124202380Y-99094285D01*
X123297619Y-98141904D02*
X123250000Y-98094285D01*
X123202380Y-97999047D01*
X123202380Y-97760952D01*
X123250000Y-97665714D01*
X123297619Y-97618095D01*
X123392857Y-97570476D01*
X123488095Y-97570476D01*
X123630952Y-97618095D01*
X124202380Y-98189523D01*
X124202380Y-97570476D01*
X124202380Y-96618095D02*
X124202380Y-97189523D01*
X124202380Y-96903809D02*
X123202380Y-96903809D01*
X123345238Y-96999047D01*
X123440476Y-97094285D01*
X123488095Y-97189523D01*
D12*
X130428571Y-99107142D02*
X130452380Y-99130952D01*
X130476190Y-99202380D01*
X130476190Y-99250000D01*
X130452380Y-99321428D01*
X130404761Y-99369047D01*
X130357142Y-99392857D01*
X130261904Y-99416666D01*
X130190476Y-99416666D01*
X130095238Y-99392857D01*
X130047619Y-99369047D01*
X130000000Y-99321428D01*
X129976190Y-99250000D01*
X129976190Y-99202380D01*
X130000000Y-99130952D01*
X130023809Y-99107142D01*
X130476190Y-98678571D02*
X130214285Y-98678571D01*
X130166666Y-98702380D01*
X130142857Y-98750000D01*
X130142857Y-98845238D01*
X130166666Y-98892857D01*
X130452380Y-98678571D02*
X130476190Y-98726190D01*
X130476190Y-98845238D01*
X130452380Y-98892857D01*
X130404761Y-98916666D01*
X130357142Y-98916666D01*
X130309523Y-98892857D01*
X130285714Y-98845238D01*
X130285714Y-98726190D01*
X130261904Y-98678571D01*
X130142857Y-98511904D02*
X130142857Y-98321428D01*
X129976190Y-98440476D02*
X130404761Y-98440476D01*
X130452380Y-98416666D01*
X130476190Y-98369047D01*
X130476190Y-98321428D01*
X130476190Y-98154761D02*
X129976190Y-98154761D01*
X130476190Y-97940476D02*
X130214285Y-97940476D01*
X130166666Y-97964285D01*
X130142857Y-98011904D01*
X130142857Y-98083333D01*
X130166666Y-98130952D01*
X130190476Y-98154761D01*
X130476190Y-97630952D02*
X130452380Y-97678571D01*
X130428571Y-97702380D01*
X130380952Y-97726190D01*
X130238095Y-97726190D01*
X130190476Y-97702380D01*
X130166666Y-97678571D01*
X130142857Y-97630952D01*
X130142857Y-97559523D01*
X130166666Y-97511904D01*
X130190476Y-97488095D01*
X130238095Y-97464285D01*
X130380952Y-97464285D01*
X130428571Y-97488095D01*
X130452380Y-97511904D01*
X130476190Y-97559523D01*
X130476190Y-97630952D01*
X130476190Y-97035714D02*
X129976190Y-97035714D01*
X130452380Y-97035714D02*
X130476190Y-97083333D01*
X130476190Y-97178571D01*
X130452380Y-97226190D01*
X130428571Y-97250000D01*
X130380952Y-97273809D01*
X130238095Y-97273809D01*
X130190476Y-97250000D01*
X130166666Y-97226190D01*
X130142857Y-97178571D01*
X130142857Y-97083333D01*
X130166666Y-97035714D01*
X130452380Y-96607142D02*
X130476190Y-96654761D01*
X130476190Y-96750000D01*
X130452380Y-96797619D01*
X130404761Y-96821428D01*
X130214285Y-96821428D01*
X130166666Y-96797619D01*
X130142857Y-96750000D01*
X130142857Y-96654761D01*
X130166666Y-96607142D01*
X130214285Y-96583333D01*
X130261904Y-96583333D01*
X130309523Y-96821428D01*
X125583333Y-99011904D02*
X125583333Y-98773809D01*
X125726190Y-99059523D02*
X125226190Y-98892857D01*
X125726190Y-98726190D01*
X125392857Y-98559523D02*
X125726190Y-98559523D01*
X125440476Y-98559523D02*
X125416666Y-98535714D01*
X125392857Y-98488095D01*
X125392857Y-98416666D01*
X125416666Y-98369047D01*
X125464285Y-98345238D01*
X125726190Y-98345238D01*
X125726190Y-98035714D02*
X125702380Y-98083333D01*
X125678571Y-98107142D01*
X125630952Y-98130952D01*
X125488095Y-98130952D01*
X125440476Y-98107142D01*
X125416666Y-98083333D01*
X125392857Y-98035714D01*
X125392857Y-97964285D01*
X125416666Y-97916666D01*
X125440476Y-97892857D01*
X125488095Y-97869047D01*
X125630952Y-97869047D01*
X125678571Y-97892857D01*
X125702380Y-97916666D01*
X125726190Y-97964285D01*
X125726190Y-98035714D01*
X125726190Y-97440476D02*
X125226190Y-97440476D01*
X125702380Y-97440476D02*
X125726190Y-97488095D01*
X125726190Y-97583333D01*
X125702380Y-97630952D01*
X125678571Y-97654761D01*
X125630952Y-97678571D01*
X125488095Y-97678571D01*
X125440476Y-97654761D01*
X125416666Y-97630952D01*
X125392857Y-97583333D01*
X125392857Y-97488095D01*
X125416666Y-97440476D01*
X125702380Y-97011904D02*
X125726190Y-97059523D01*
X125726190Y-97154761D01*
X125702380Y-97202380D01*
X125654761Y-97226190D01*
X125464285Y-97226190D01*
X125416666Y-97202380D01*
X125392857Y-97154761D01*
X125392857Y-97059523D01*
X125416666Y-97011904D01*
X125464285Y-96988095D01*
X125511904Y-96988095D01*
X125559523Y-97226190D01*
%TO.C,D20*%
D11*
X85202380Y-99094285D02*
X84202380Y-99094285D01*
X84202380Y-98856190D01*
X84250000Y-98713333D01*
X84345238Y-98618095D01*
X84440476Y-98570476D01*
X84630952Y-98522857D01*
X84773809Y-98522857D01*
X84964285Y-98570476D01*
X85059523Y-98618095D01*
X85154761Y-98713333D01*
X85202380Y-98856190D01*
X85202380Y-99094285D01*
X84297619Y-98141904D02*
X84250000Y-98094285D01*
X84202380Y-97999047D01*
X84202380Y-97760952D01*
X84250000Y-97665714D01*
X84297619Y-97618095D01*
X84392857Y-97570476D01*
X84488095Y-97570476D01*
X84630952Y-97618095D01*
X85202380Y-98189523D01*
X85202380Y-97570476D01*
X84202380Y-96951428D02*
X84202380Y-96856190D01*
X84250000Y-96760952D01*
X84297619Y-96713333D01*
X84392857Y-96665714D01*
X84583333Y-96618095D01*
X84821428Y-96618095D01*
X85011904Y-96665714D01*
X85107142Y-96713333D01*
X85154761Y-96760952D01*
X85202380Y-96856190D01*
X85202380Y-96951428D01*
X85154761Y-97046666D01*
X85107142Y-97094285D01*
X85011904Y-97141904D01*
X84821428Y-97189523D01*
X84583333Y-97189523D01*
X84392857Y-97141904D01*
X84297619Y-97094285D01*
X84250000Y-97046666D01*
X84202380Y-96951428D01*
D12*
X91428571Y-99107142D02*
X91452380Y-99130952D01*
X91476190Y-99202380D01*
X91476190Y-99250000D01*
X91452380Y-99321428D01*
X91404761Y-99369047D01*
X91357142Y-99392857D01*
X91261904Y-99416666D01*
X91190476Y-99416666D01*
X91095238Y-99392857D01*
X91047619Y-99369047D01*
X91000000Y-99321428D01*
X90976190Y-99250000D01*
X90976190Y-99202380D01*
X91000000Y-99130952D01*
X91023809Y-99107142D01*
X91476190Y-98678571D02*
X91214285Y-98678571D01*
X91166666Y-98702380D01*
X91142857Y-98750000D01*
X91142857Y-98845238D01*
X91166666Y-98892857D01*
X91452380Y-98678571D02*
X91476190Y-98726190D01*
X91476190Y-98845238D01*
X91452380Y-98892857D01*
X91404761Y-98916666D01*
X91357142Y-98916666D01*
X91309523Y-98892857D01*
X91285714Y-98845238D01*
X91285714Y-98726190D01*
X91261904Y-98678571D01*
X91142857Y-98511904D02*
X91142857Y-98321428D01*
X90976190Y-98440476D02*
X91404761Y-98440476D01*
X91452380Y-98416666D01*
X91476190Y-98369047D01*
X91476190Y-98321428D01*
X91476190Y-98154761D02*
X90976190Y-98154761D01*
X91476190Y-97940476D02*
X91214285Y-97940476D01*
X91166666Y-97964285D01*
X91142857Y-98011904D01*
X91142857Y-98083333D01*
X91166666Y-98130952D01*
X91190476Y-98154761D01*
X91476190Y-97630952D02*
X91452380Y-97678571D01*
X91428571Y-97702380D01*
X91380952Y-97726190D01*
X91238095Y-97726190D01*
X91190476Y-97702380D01*
X91166666Y-97678571D01*
X91142857Y-97630952D01*
X91142857Y-97559523D01*
X91166666Y-97511904D01*
X91190476Y-97488095D01*
X91238095Y-97464285D01*
X91380952Y-97464285D01*
X91428571Y-97488095D01*
X91452380Y-97511904D01*
X91476190Y-97559523D01*
X91476190Y-97630952D01*
X91476190Y-97035714D02*
X90976190Y-97035714D01*
X91452380Y-97035714D02*
X91476190Y-97083333D01*
X91476190Y-97178571D01*
X91452380Y-97226190D01*
X91428571Y-97250000D01*
X91380952Y-97273809D01*
X91238095Y-97273809D01*
X91190476Y-97250000D01*
X91166666Y-97226190D01*
X91142857Y-97178571D01*
X91142857Y-97083333D01*
X91166666Y-97035714D01*
X91452380Y-96607142D02*
X91476190Y-96654761D01*
X91476190Y-96750000D01*
X91452380Y-96797619D01*
X91404761Y-96821428D01*
X91214285Y-96821428D01*
X91166666Y-96797619D01*
X91142857Y-96750000D01*
X91142857Y-96654761D01*
X91166666Y-96607142D01*
X91214285Y-96583333D01*
X91261904Y-96583333D01*
X91309523Y-96821428D01*
X86583333Y-99011904D02*
X86583333Y-98773809D01*
X86726190Y-99059523D02*
X86226190Y-98892857D01*
X86726190Y-98726190D01*
X86392857Y-98559523D02*
X86726190Y-98559523D01*
X86440476Y-98559523D02*
X86416666Y-98535714D01*
X86392857Y-98488095D01*
X86392857Y-98416666D01*
X86416666Y-98369047D01*
X86464285Y-98345238D01*
X86726190Y-98345238D01*
X86726190Y-98035714D02*
X86702380Y-98083333D01*
X86678571Y-98107142D01*
X86630952Y-98130952D01*
X86488095Y-98130952D01*
X86440476Y-98107142D01*
X86416666Y-98083333D01*
X86392857Y-98035714D01*
X86392857Y-97964285D01*
X86416666Y-97916666D01*
X86440476Y-97892857D01*
X86488095Y-97869047D01*
X86630952Y-97869047D01*
X86678571Y-97892857D01*
X86702380Y-97916666D01*
X86726190Y-97964285D01*
X86726190Y-98035714D01*
X86726190Y-97440476D02*
X86226190Y-97440476D01*
X86702380Y-97440476D02*
X86726190Y-97488095D01*
X86726190Y-97583333D01*
X86702380Y-97630952D01*
X86678571Y-97654761D01*
X86630952Y-97678571D01*
X86488095Y-97678571D01*
X86440476Y-97654761D01*
X86416666Y-97630952D01*
X86392857Y-97583333D01*
X86392857Y-97488095D01*
X86416666Y-97440476D01*
X86702380Y-97011904D02*
X86726190Y-97059523D01*
X86726190Y-97154761D01*
X86702380Y-97202380D01*
X86654761Y-97226190D01*
X86464285Y-97226190D01*
X86416666Y-97202380D01*
X86392857Y-97154761D01*
X86392857Y-97059523D01*
X86416666Y-97011904D01*
X86464285Y-96988095D01*
X86511904Y-96988095D01*
X86559523Y-97226190D01*
%TO.C,D19*%
D11*
X46202380Y-99094285D02*
X45202380Y-99094285D01*
X45202380Y-98856190D01*
X45250000Y-98713333D01*
X45345238Y-98618095D01*
X45440476Y-98570476D01*
X45630952Y-98522857D01*
X45773809Y-98522857D01*
X45964285Y-98570476D01*
X46059523Y-98618095D01*
X46154761Y-98713333D01*
X46202380Y-98856190D01*
X46202380Y-99094285D01*
X46202380Y-97570476D02*
X46202380Y-98141904D01*
X46202380Y-97856190D02*
X45202380Y-97856190D01*
X45345238Y-97951428D01*
X45440476Y-98046666D01*
X45488095Y-98141904D01*
X46202380Y-97094285D02*
X46202380Y-96903809D01*
X46154761Y-96808571D01*
X46107142Y-96760952D01*
X45964285Y-96665714D01*
X45773809Y-96618095D01*
X45392857Y-96618095D01*
X45297619Y-96665714D01*
X45250000Y-96713333D01*
X45202380Y-96808571D01*
X45202380Y-96999047D01*
X45250000Y-97094285D01*
X45297619Y-97141904D01*
X45392857Y-97189523D01*
X45630952Y-97189523D01*
X45726190Y-97141904D01*
X45773809Y-97094285D01*
X45821428Y-96999047D01*
X45821428Y-96808571D01*
X45773809Y-96713333D01*
X45726190Y-96665714D01*
X45630952Y-96618095D01*
D12*
X52428571Y-99107142D02*
X52452380Y-99130952D01*
X52476190Y-99202380D01*
X52476190Y-99250000D01*
X52452380Y-99321428D01*
X52404761Y-99369047D01*
X52357142Y-99392857D01*
X52261904Y-99416666D01*
X52190476Y-99416666D01*
X52095238Y-99392857D01*
X52047619Y-99369047D01*
X52000000Y-99321428D01*
X51976190Y-99250000D01*
X51976190Y-99202380D01*
X52000000Y-99130952D01*
X52023809Y-99107142D01*
X52476190Y-98678571D02*
X52214285Y-98678571D01*
X52166666Y-98702380D01*
X52142857Y-98750000D01*
X52142857Y-98845238D01*
X52166666Y-98892857D01*
X52452380Y-98678571D02*
X52476190Y-98726190D01*
X52476190Y-98845238D01*
X52452380Y-98892857D01*
X52404761Y-98916666D01*
X52357142Y-98916666D01*
X52309523Y-98892857D01*
X52285714Y-98845238D01*
X52285714Y-98726190D01*
X52261904Y-98678571D01*
X52142857Y-98511904D02*
X52142857Y-98321428D01*
X51976190Y-98440476D02*
X52404761Y-98440476D01*
X52452380Y-98416666D01*
X52476190Y-98369047D01*
X52476190Y-98321428D01*
X52476190Y-98154761D02*
X51976190Y-98154761D01*
X52476190Y-97940476D02*
X52214285Y-97940476D01*
X52166666Y-97964285D01*
X52142857Y-98011904D01*
X52142857Y-98083333D01*
X52166666Y-98130952D01*
X52190476Y-98154761D01*
X52476190Y-97630952D02*
X52452380Y-97678571D01*
X52428571Y-97702380D01*
X52380952Y-97726190D01*
X52238095Y-97726190D01*
X52190476Y-97702380D01*
X52166666Y-97678571D01*
X52142857Y-97630952D01*
X52142857Y-97559523D01*
X52166666Y-97511904D01*
X52190476Y-97488095D01*
X52238095Y-97464285D01*
X52380952Y-97464285D01*
X52428571Y-97488095D01*
X52452380Y-97511904D01*
X52476190Y-97559523D01*
X52476190Y-97630952D01*
X52476190Y-97035714D02*
X51976190Y-97035714D01*
X52452380Y-97035714D02*
X52476190Y-97083333D01*
X52476190Y-97178571D01*
X52452380Y-97226190D01*
X52428571Y-97250000D01*
X52380952Y-97273809D01*
X52238095Y-97273809D01*
X52190476Y-97250000D01*
X52166666Y-97226190D01*
X52142857Y-97178571D01*
X52142857Y-97083333D01*
X52166666Y-97035714D01*
X52452380Y-96607142D02*
X52476190Y-96654761D01*
X52476190Y-96750000D01*
X52452380Y-96797619D01*
X52404761Y-96821428D01*
X52214285Y-96821428D01*
X52166666Y-96797619D01*
X52142857Y-96750000D01*
X52142857Y-96654761D01*
X52166666Y-96607142D01*
X52214285Y-96583333D01*
X52261904Y-96583333D01*
X52309523Y-96821428D01*
X47583333Y-99011904D02*
X47583333Y-98773809D01*
X47726190Y-99059523D02*
X47226190Y-98892857D01*
X47726190Y-98726190D01*
X47392857Y-98559523D02*
X47726190Y-98559523D01*
X47440476Y-98559523D02*
X47416666Y-98535714D01*
X47392857Y-98488095D01*
X47392857Y-98416666D01*
X47416666Y-98369047D01*
X47464285Y-98345238D01*
X47726190Y-98345238D01*
X47726190Y-98035714D02*
X47702380Y-98083333D01*
X47678571Y-98107142D01*
X47630952Y-98130952D01*
X47488095Y-98130952D01*
X47440476Y-98107142D01*
X47416666Y-98083333D01*
X47392857Y-98035714D01*
X47392857Y-97964285D01*
X47416666Y-97916666D01*
X47440476Y-97892857D01*
X47488095Y-97869047D01*
X47630952Y-97869047D01*
X47678571Y-97892857D01*
X47702380Y-97916666D01*
X47726190Y-97964285D01*
X47726190Y-98035714D01*
X47726190Y-97440476D02*
X47226190Y-97440476D01*
X47702380Y-97440476D02*
X47726190Y-97488095D01*
X47726190Y-97583333D01*
X47702380Y-97630952D01*
X47678571Y-97654761D01*
X47630952Y-97678571D01*
X47488095Y-97678571D01*
X47440476Y-97654761D01*
X47416666Y-97630952D01*
X47392857Y-97583333D01*
X47392857Y-97488095D01*
X47416666Y-97440476D01*
X47702380Y-97011904D02*
X47726190Y-97059523D01*
X47726190Y-97154761D01*
X47702380Y-97202380D01*
X47654761Y-97226190D01*
X47464285Y-97226190D01*
X47416666Y-97202380D01*
X47392857Y-97154761D01*
X47392857Y-97059523D01*
X47416666Y-97011904D01*
X47464285Y-96988095D01*
X47511904Y-96988095D01*
X47559523Y-97226190D01*
%TO.C,D18*%
D11*
X240702380Y-94594285D02*
X239702380Y-94594285D01*
X239702380Y-94356190D01*
X239750000Y-94213333D01*
X239845238Y-94118095D01*
X239940476Y-94070476D01*
X240130952Y-94022857D01*
X240273809Y-94022857D01*
X240464285Y-94070476D01*
X240559523Y-94118095D01*
X240654761Y-94213333D01*
X240702380Y-94356190D01*
X240702380Y-94594285D01*
X240702380Y-93070476D02*
X240702380Y-93641904D01*
X240702380Y-93356190D02*
X239702380Y-93356190D01*
X239845238Y-93451428D01*
X239940476Y-93546666D01*
X239988095Y-93641904D01*
X240130952Y-92499047D02*
X240083333Y-92594285D01*
X240035714Y-92641904D01*
X239940476Y-92689523D01*
X239892857Y-92689523D01*
X239797619Y-92641904D01*
X239750000Y-92594285D01*
X239702380Y-92499047D01*
X239702380Y-92308571D01*
X239750000Y-92213333D01*
X239797619Y-92165714D01*
X239892857Y-92118095D01*
X239940476Y-92118095D01*
X240035714Y-92165714D01*
X240083333Y-92213333D01*
X240130952Y-92308571D01*
X240130952Y-92499047D01*
X240178571Y-92594285D01*
X240226190Y-92641904D01*
X240321428Y-92689523D01*
X240511904Y-92689523D01*
X240607142Y-92641904D01*
X240654761Y-92594285D01*
X240702380Y-92499047D01*
X240702380Y-92308571D01*
X240654761Y-92213333D01*
X240607142Y-92165714D01*
X240511904Y-92118095D01*
X240321428Y-92118095D01*
X240226190Y-92165714D01*
X240178571Y-92213333D01*
X240130952Y-92308571D01*
D12*
X246928571Y-94607142D02*
X246952380Y-94630952D01*
X246976190Y-94702380D01*
X246976190Y-94750000D01*
X246952380Y-94821428D01*
X246904761Y-94869047D01*
X246857142Y-94892857D01*
X246761904Y-94916666D01*
X246690476Y-94916666D01*
X246595238Y-94892857D01*
X246547619Y-94869047D01*
X246500000Y-94821428D01*
X246476190Y-94750000D01*
X246476190Y-94702380D01*
X246500000Y-94630952D01*
X246523809Y-94607142D01*
X246976190Y-94178571D02*
X246714285Y-94178571D01*
X246666666Y-94202380D01*
X246642857Y-94250000D01*
X246642857Y-94345238D01*
X246666666Y-94392857D01*
X246952380Y-94178571D02*
X246976190Y-94226190D01*
X246976190Y-94345238D01*
X246952380Y-94392857D01*
X246904761Y-94416666D01*
X246857142Y-94416666D01*
X246809523Y-94392857D01*
X246785714Y-94345238D01*
X246785714Y-94226190D01*
X246761904Y-94178571D01*
X246642857Y-94011904D02*
X246642857Y-93821428D01*
X246476190Y-93940476D02*
X246904761Y-93940476D01*
X246952380Y-93916666D01*
X246976190Y-93869047D01*
X246976190Y-93821428D01*
X246976190Y-93654761D02*
X246476190Y-93654761D01*
X246976190Y-93440476D02*
X246714285Y-93440476D01*
X246666666Y-93464285D01*
X246642857Y-93511904D01*
X246642857Y-93583333D01*
X246666666Y-93630952D01*
X246690476Y-93654761D01*
X246976190Y-93130952D02*
X246952380Y-93178571D01*
X246928571Y-93202380D01*
X246880952Y-93226190D01*
X246738095Y-93226190D01*
X246690476Y-93202380D01*
X246666666Y-93178571D01*
X246642857Y-93130952D01*
X246642857Y-93059523D01*
X246666666Y-93011904D01*
X246690476Y-92988095D01*
X246738095Y-92964285D01*
X246880952Y-92964285D01*
X246928571Y-92988095D01*
X246952380Y-93011904D01*
X246976190Y-93059523D01*
X246976190Y-93130952D01*
X246976190Y-92535714D02*
X246476190Y-92535714D01*
X246952380Y-92535714D02*
X246976190Y-92583333D01*
X246976190Y-92678571D01*
X246952380Y-92726190D01*
X246928571Y-92750000D01*
X246880952Y-92773809D01*
X246738095Y-92773809D01*
X246690476Y-92750000D01*
X246666666Y-92726190D01*
X246642857Y-92678571D01*
X246642857Y-92583333D01*
X246666666Y-92535714D01*
X246952380Y-92107142D02*
X246976190Y-92154761D01*
X246976190Y-92250000D01*
X246952380Y-92297619D01*
X246904761Y-92321428D01*
X246714285Y-92321428D01*
X246666666Y-92297619D01*
X246642857Y-92250000D01*
X246642857Y-92154761D01*
X246666666Y-92107142D01*
X246714285Y-92083333D01*
X246761904Y-92083333D01*
X246809523Y-92321428D01*
X242083333Y-94511904D02*
X242083333Y-94273809D01*
X242226190Y-94559523D02*
X241726190Y-94392857D01*
X242226190Y-94226190D01*
X241892857Y-94059523D02*
X242226190Y-94059523D01*
X241940476Y-94059523D02*
X241916666Y-94035714D01*
X241892857Y-93988095D01*
X241892857Y-93916666D01*
X241916666Y-93869047D01*
X241964285Y-93845238D01*
X242226190Y-93845238D01*
X242226190Y-93535714D02*
X242202380Y-93583333D01*
X242178571Y-93607142D01*
X242130952Y-93630952D01*
X241988095Y-93630952D01*
X241940476Y-93607142D01*
X241916666Y-93583333D01*
X241892857Y-93535714D01*
X241892857Y-93464285D01*
X241916666Y-93416666D01*
X241940476Y-93392857D01*
X241988095Y-93369047D01*
X242130952Y-93369047D01*
X242178571Y-93392857D01*
X242202380Y-93416666D01*
X242226190Y-93464285D01*
X242226190Y-93535714D01*
X242226190Y-92940476D02*
X241726190Y-92940476D01*
X242202380Y-92940476D02*
X242226190Y-92988095D01*
X242226190Y-93083333D01*
X242202380Y-93130952D01*
X242178571Y-93154761D01*
X242130952Y-93178571D01*
X241988095Y-93178571D01*
X241940476Y-93154761D01*
X241916666Y-93130952D01*
X241892857Y-93083333D01*
X241892857Y-92988095D01*
X241916666Y-92940476D01*
X242202380Y-92511904D02*
X242226190Y-92559523D01*
X242226190Y-92654761D01*
X242202380Y-92702380D01*
X242154761Y-92726190D01*
X241964285Y-92726190D01*
X241916666Y-92702380D01*
X241892857Y-92654761D01*
X241892857Y-92559523D01*
X241916666Y-92511904D01*
X241964285Y-92488095D01*
X242011904Y-92488095D01*
X242059523Y-92726190D01*
%TO.C,D17*%
D11*
X202202380Y-94594285D02*
X201202380Y-94594285D01*
X201202380Y-94356190D01*
X201250000Y-94213333D01*
X201345238Y-94118095D01*
X201440476Y-94070476D01*
X201630952Y-94022857D01*
X201773809Y-94022857D01*
X201964285Y-94070476D01*
X202059523Y-94118095D01*
X202154761Y-94213333D01*
X202202380Y-94356190D01*
X202202380Y-94594285D01*
X202202380Y-93070476D02*
X202202380Y-93641904D01*
X202202380Y-93356190D02*
X201202380Y-93356190D01*
X201345238Y-93451428D01*
X201440476Y-93546666D01*
X201488095Y-93641904D01*
X201202380Y-92737142D02*
X201202380Y-92070476D01*
X202202380Y-92499047D01*
D12*
X208428571Y-94607142D02*
X208452380Y-94630952D01*
X208476190Y-94702380D01*
X208476190Y-94750000D01*
X208452380Y-94821428D01*
X208404761Y-94869047D01*
X208357142Y-94892857D01*
X208261904Y-94916666D01*
X208190476Y-94916666D01*
X208095238Y-94892857D01*
X208047619Y-94869047D01*
X208000000Y-94821428D01*
X207976190Y-94750000D01*
X207976190Y-94702380D01*
X208000000Y-94630952D01*
X208023809Y-94607142D01*
X208476190Y-94178571D02*
X208214285Y-94178571D01*
X208166666Y-94202380D01*
X208142857Y-94250000D01*
X208142857Y-94345238D01*
X208166666Y-94392857D01*
X208452380Y-94178571D02*
X208476190Y-94226190D01*
X208476190Y-94345238D01*
X208452380Y-94392857D01*
X208404761Y-94416666D01*
X208357142Y-94416666D01*
X208309523Y-94392857D01*
X208285714Y-94345238D01*
X208285714Y-94226190D01*
X208261904Y-94178571D01*
X208142857Y-94011904D02*
X208142857Y-93821428D01*
X207976190Y-93940476D02*
X208404761Y-93940476D01*
X208452380Y-93916666D01*
X208476190Y-93869047D01*
X208476190Y-93821428D01*
X208476190Y-93654761D02*
X207976190Y-93654761D01*
X208476190Y-93440476D02*
X208214285Y-93440476D01*
X208166666Y-93464285D01*
X208142857Y-93511904D01*
X208142857Y-93583333D01*
X208166666Y-93630952D01*
X208190476Y-93654761D01*
X208476190Y-93130952D02*
X208452380Y-93178571D01*
X208428571Y-93202380D01*
X208380952Y-93226190D01*
X208238095Y-93226190D01*
X208190476Y-93202380D01*
X208166666Y-93178571D01*
X208142857Y-93130952D01*
X208142857Y-93059523D01*
X208166666Y-93011904D01*
X208190476Y-92988095D01*
X208238095Y-92964285D01*
X208380952Y-92964285D01*
X208428571Y-92988095D01*
X208452380Y-93011904D01*
X208476190Y-93059523D01*
X208476190Y-93130952D01*
X208476190Y-92535714D02*
X207976190Y-92535714D01*
X208452380Y-92535714D02*
X208476190Y-92583333D01*
X208476190Y-92678571D01*
X208452380Y-92726190D01*
X208428571Y-92750000D01*
X208380952Y-92773809D01*
X208238095Y-92773809D01*
X208190476Y-92750000D01*
X208166666Y-92726190D01*
X208142857Y-92678571D01*
X208142857Y-92583333D01*
X208166666Y-92535714D01*
X208452380Y-92107142D02*
X208476190Y-92154761D01*
X208476190Y-92250000D01*
X208452380Y-92297619D01*
X208404761Y-92321428D01*
X208214285Y-92321428D01*
X208166666Y-92297619D01*
X208142857Y-92250000D01*
X208142857Y-92154761D01*
X208166666Y-92107142D01*
X208214285Y-92083333D01*
X208261904Y-92083333D01*
X208309523Y-92321428D01*
X203583333Y-94511904D02*
X203583333Y-94273809D01*
X203726190Y-94559523D02*
X203226190Y-94392857D01*
X203726190Y-94226190D01*
X203392857Y-94059523D02*
X203726190Y-94059523D01*
X203440476Y-94059523D02*
X203416666Y-94035714D01*
X203392857Y-93988095D01*
X203392857Y-93916666D01*
X203416666Y-93869047D01*
X203464285Y-93845238D01*
X203726190Y-93845238D01*
X203726190Y-93535714D02*
X203702380Y-93583333D01*
X203678571Y-93607142D01*
X203630952Y-93630952D01*
X203488095Y-93630952D01*
X203440476Y-93607142D01*
X203416666Y-93583333D01*
X203392857Y-93535714D01*
X203392857Y-93464285D01*
X203416666Y-93416666D01*
X203440476Y-93392857D01*
X203488095Y-93369047D01*
X203630952Y-93369047D01*
X203678571Y-93392857D01*
X203702380Y-93416666D01*
X203726190Y-93464285D01*
X203726190Y-93535714D01*
X203726190Y-92940476D02*
X203226190Y-92940476D01*
X203702380Y-92940476D02*
X203726190Y-92988095D01*
X203726190Y-93083333D01*
X203702380Y-93130952D01*
X203678571Y-93154761D01*
X203630952Y-93178571D01*
X203488095Y-93178571D01*
X203440476Y-93154761D01*
X203416666Y-93130952D01*
X203392857Y-93083333D01*
X203392857Y-92988095D01*
X203416666Y-92940476D01*
X203702380Y-92511904D02*
X203726190Y-92559523D01*
X203726190Y-92654761D01*
X203702380Y-92702380D01*
X203654761Y-92726190D01*
X203464285Y-92726190D01*
X203416666Y-92702380D01*
X203392857Y-92654761D01*
X203392857Y-92559523D01*
X203416666Y-92511904D01*
X203464285Y-92488095D01*
X203511904Y-92488095D01*
X203559523Y-92726190D01*
%TO.C,D16*%
D11*
X163202380Y-94594285D02*
X162202380Y-94594285D01*
X162202380Y-94356190D01*
X162250000Y-94213333D01*
X162345238Y-94118095D01*
X162440476Y-94070476D01*
X162630952Y-94022857D01*
X162773809Y-94022857D01*
X162964285Y-94070476D01*
X163059523Y-94118095D01*
X163154761Y-94213333D01*
X163202380Y-94356190D01*
X163202380Y-94594285D01*
X163202380Y-93070476D02*
X163202380Y-93641904D01*
X163202380Y-93356190D02*
X162202380Y-93356190D01*
X162345238Y-93451428D01*
X162440476Y-93546666D01*
X162488095Y-93641904D01*
X162202380Y-92213333D02*
X162202380Y-92403809D01*
X162250000Y-92499047D01*
X162297619Y-92546666D01*
X162440476Y-92641904D01*
X162630952Y-92689523D01*
X163011904Y-92689523D01*
X163107142Y-92641904D01*
X163154761Y-92594285D01*
X163202380Y-92499047D01*
X163202380Y-92308571D01*
X163154761Y-92213333D01*
X163107142Y-92165714D01*
X163011904Y-92118095D01*
X162773809Y-92118095D01*
X162678571Y-92165714D01*
X162630952Y-92213333D01*
X162583333Y-92308571D01*
X162583333Y-92499047D01*
X162630952Y-92594285D01*
X162678571Y-92641904D01*
X162773809Y-92689523D01*
D12*
X169428571Y-94607142D02*
X169452380Y-94630952D01*
X169476190Y-94702380D01*
X169476190Y-94750000D01*
X169452380Y-94821428D01*
X169404761Y-94869047D01*
X169357142Y-94892857D01*
X169261904Y-94916666D01*
X169190476Y-94916666D01*
X169095238Y-94892857D01*
X169047619Y-94869047D01*
X169000000Y-94821428D01*
X168976190Y-94750000D01*
X168976190Y-94702380D01*
X169000000Y-94630952D01*
X169023809Y-94607142D01*
X169476190Y-94178571D02*
X169214285Y-94178571D01*
X169166666Y-94202380D01*
X169142857Y-94250000D01*
X169142857Y-94345238D01*
X169166666Y-94392857D01*
X169452380Y-94178571D02*
X169476190Y-94226190D01*
X169476190Y-94345238D01*
X169452380Y-94392857D01*
X169404761Y-94416666D01*
X169357142Y-94416666D01*
X169309523Y-94392857D01*
X169285714Y-94345238D01*
X169285714Y-94226190D01*
X169261904Y-94178571D01*
X169142857Y-94011904D02*
X169142857Y-93821428D01*
X168976190Y-93940476D02*
X169404761Y-93940476D01*
X169452380Y-93916666D01*
X169476190Y-93869047D01*
X169476190Y-93821428D01*
X169476190Y-93654761D02*
X168976190Y-93654761D01*
X169476190Y-93440476D02*
X169214285Y-93440476D01*
X169166666Y-93464285D01*
X169142857Y-93511904D01*
X169142857Y-93583333D01*
X169166666Y-93630952D01*
X169190476Y-93654761D01*
X169476190Y-93130952D02*
X169452380Y-93178571D01*
X169428571Y-93202380D01*
X169380952Y-93226190D01*
X169238095Y-93226190D01*
X169190476Y-93202380D01*
X169166666Y-93178571D01*
X169142857Y-93130952D01*
X169142857Y-93059523D01*
X169166666Y-93011904D01*
X169190476Y-92988095D01*
X169238095Y-92964285D01*
X169380952Y-92964285D01*
X169428571Y-92988095D01*
X169452380Y-93011904D01*
X169476190Y-93059523D01*
X169476190Y-93130952D01*
X169476190Y-92535714D02*
X168976190Y-92535714D01*
X169452380Y-92535714D02*
X169476190Y-92583333D01*
X169476190Y-92678571D01*
X169452380Y-92726190D01*
X169428571Y-92750000D01*
X169380952Y-92773809D01*
X169238095Y-92773809D01*
X169190476Y-92750000D01*
X169166666Y-92726190D01*
X169142857Y-92678571D01*
X169142857Y-92583333D01*
X169166666Y-92535714D01*
X169452380Y-92107142D02*
X169476190Y-92154761D01*
X169476190Y-92250000D01*
X169452380Y-92297619D01*
X169404761Y-92321428D01*
X169214285Y-92321428D01*
X169166666Y-92297619D01*
X169142857Y-92250000D01*
X169142857Y-92154761D01*
X169166666Y-92107142D01*
X169214285Y-92083333D01*
X169261904Y-92083333D01*
X169309523Y-92321428D01*
X164583333Y-94511904D02*
X164583333Y-94273809D01*
X164726190Y-94559523D02*
X164226190Y-94392857D01*
X164726190Y-94226190D01*
X164392857Y-94059523D02*
X164726190Y-94059523D01*
X164440476Y-94059523D02*
X164416666Y-94035714D01*
X164392857Y-93988095D01*
X164392857Y-93916666D01*
X164416666Y-93869047D01*
X164464285Y-93845238D01*
X164726190Y-93845238D01*
X164726190Y-93535714D02*
X164702380Y-93583333D01*
X164678571Y-93607142D01*
X164630952Y-93630952D01*
X164488095Y-93630952D01*
X164440476Y-93607142D01*
X164416666Y-93583333D01*
X164392857Y-93535714D01*
X164392857Y-93464285D01*
X164416666Y-93416666D01*
X164440476Y-93392857D01*
X164488095Y-93369047D01*
X164630952Y-93369047D01*
X164678571Y-93392857D01*
X164702380Y-93416666D01*
X164726190Y-93464285D01*
X164726190Y-93535714D01*
X164726190Y-92940476D02*
X164226190Y-92940476D01*
X164702380Y-92940476D02*
X164726190Y-92988095D01*
X164726190Y-93083333D01*
X164702380Y-93130952D01*
X164678571Y-93154761D01*
X164630952Y-93178571D01*
X164488095Y-93178571D01*
X164440476Y-93154761D01*
X164416666Y-93130952D01*
X164392857Y-93083333D01*
X164392857Y-92988095D01*
X164416666Y-92940476D01*
X164702380Y-92511904D02*
X164726190Y-92559523D01*
X164726190Y-92654761D01*
X164702380Y-92702380D01*
X164654761Y-92726190D01*
X164464285Y-92726190D01*
X164416666Y-92702380D01*
X164392857Y-92654761D01*
X164392857Y-92559523D01*
X164416666Y-92511904D01*
X164464285Y-92488095D01*
X164511904Y-92488095D01*
X164559523Y-92726190D01*
%TO.C,D15*%
D11*
X124202380Y-94594285D02*
X123202380Y-94594285D01*
X123202380Y-94356190D01*
X123250000Y-94213333D01*
X123345238Y-94118095D01*
X123440476Y-94070476D01*
X123630952Y-94022857D01*
X123773809Y-94022857D01*
X123964285Y-94070476D01*
X124059523Y-94118095D01*
X124154761Y-94213333D01*
X124202380Y-94356190D01*
X124202380Y-94594285D01*
X124202380Y-93070476D02*
X124202380Y-93641904D01*
X124202380Y-93356190D02*
X123202380Y-93356190D01*
X123345238Y-93451428D01*
X123440476Y-93546666D01*
X123488095Y-93641904D01*
X123202380Y-92165714D02*
X123202380Y-92641904D01*
X123678571Y-92689523D01*
X123630952Y-92641904D01*
X123583333Y-92546666D01*
X123583333Y-92308571D01*
X123630952Y-92213333D01*
X123678571Y-92165714D01*
X123773809Y-92118095D01*
X124011904Y-92118095D01*
X124107142Y-92165714D01*
X124154761Y-92213333D01*
X124202380Y-92308571D01*
X124202380Y-92546666D01*
X124154761Y-92641904D01*
X124107142Y-92689523D01*
D12*
X130428571Y-94607142D02*
X130452380Y-94630952D01*
X130476190Y-94702380D01*
X130476190Y-94750000D01*
X130452380Y-94821428D01*
X130404761Y-94869047D01*
X130357142Y-94892857D01*
X130261904Y-94916666D01*
X130190476Y-94916666D01*
X130095238Y-94892857D01*
X130047619Y-94869047D01*
X130000000Y-94821428D01*
X129976190Y-94750000D01*
X129976190Y-94702380D01*
X130000000Y-94630952D01*
X130023809Y-94607142D01*
X130476190Y-94178571D02*
X130214285Y-94178571D01*
X130166666Y-94202380D01*
X130142857Y-94250000D01*
X130142857Y-94345238D01*
X130166666Y-94392857D01*
X130452380Y-94178571D02*
X130476190Y-94226190D01*
X130476190Y-94345238D01*
X130452380Y-94392857D01*
X130404761Y-94416666D01*
X130357142Y-94416666D01*
X130309523Y-94392857D01*
X130285714Y-94345238D01*
X130285714Y-94226190D01*
X130261904Y-94178571D01*
X130142857Y-94011904D02*
X130142857Y-93821428D01*
X129976190Y-93940476D02*
X130404761Y-93940476D01*
X130452380Y-93916666D01*
X130476190Y-93869047D01*
X130476190Y-93821428D01*
X130476190Y-93654761D02*
X129976190Y-93654761D01*
X130476190Y-93440476D02*
X130214285Y-93440476D01*
X130166666Y-93464285D01*
X130142857Y-93511904D01*
X130142857Y-93583333D01*
X130166666Y-93630952D01*
X130190476Y-93654761D01*
X130476190Y-93130952D02*
X130452380Y-93178571D01*
X130428571Y-93202380D01*
X130380952Y-93226190D01*
X130238095Y-93226190D01*
X130190476Y-93202380D01*
X130166666Y-93178571D01*
X130142857Y-93130952D01*
X130142857Y-93059523D01*
X130166666Y-93011904D01*
X130190476Y-92988095D01*
X130238095Y-92964285D01*
X130380952Y-92964285D01*
X130428571Y-92988095D01*
X130452380Y-93011904D01*
X130476190Y-93059523D01*
X130476190Y-93130952D01*
X130476190Y-92535714D02*
X129976190Y-92535714D01*
X130452380Y-92535714D02*
X130476190Y-92583333D01*
X130476190Y-92678571D01*
X130452380Y-92726190D01*
X130428571Y-92750000D01*
X130380952Y-92773809D01*
X130238095Y-92773809D01*
X130190476Y-92750000D01*
X130166666Y-92726190D01*
X130142857Y-92678571D01*
X130142857Y-92583333D01*
X130166666Y-92535714D01*
X130452380Y-92107142D02*
X130476190Y-92154761D01*
X130476190Y-92250000D01*
X130452380Y-92297619D01*
X130404761Y-92321428D01*
X130214285Y-92321428D01*
X130166666Y-92297619D01*
X130142857Y-92250000D01*
X130142857Y-92154761D01*
X130166666Y-92107142D01*
X130214285Y-92083333D01*
X130261904Y-92083333D01*
X130309523Y-92321428D01*
X125583333Y-94511904D02*
X125583333Y-94273809D01*
X125726190Y-94559523D02*
X125226190Y-94392857D01*
X125726190Y-94226190D01*
X125392857Y-94059523D02*
X125726190Y-94059523D01*
X125440476Y-94059523D02*
X125416666Y-94035714D01*
X125392857Y-93988095D01*
X125392857Y-93916666D01*
X125416666Y-93869047D01*
X125464285Y-93845238D01*
X125726190Y-93845238D01*
X125726190Y-93535714D02*
X125702380Y-93583333D01*
X125678571Y-93607142D01*
X125630952Y-93630952D01*
X125488095Y-93630952D01*
X125440476Y-93607142D01*
X125416666Y-93583333D01*
X125392857Y-93535714D01*
X125392857Y-93464285D01*
X125416666Y-93416666D01*
X125440476Y-93392857D01*
X125488095Y-93369047D01*
X125630952Y-93369047D01*
X125678571Y-93392857D01*
X125702380Y-93416666D01*
X125726190Y-93464285D01*
X125726190Y-93535714D01*
X125726190Y-92940476D02*
X125226190Y-92940476D01*
X125702380Y-92940476D02*
X125726190Y-92988095D01*
X125726190Y-93083333D01*
X125702380Y-93130952D01*
X125678571Y-93154761D01*
X125630952Y-93178571D01*
X125488095Y-93178571D01*
X125440476Y-93154761D01*
X125416666Y-93130952D01*
X125392857Y-93083333D01*
X125392857Y-92988095D01*
X125416666Y-92940476D01*
X125702380Y-92511904D02*
X125726190Y-92559523D01*
X125726190Y-92654761D01*
X125702380Y-92702380D01*
X125654761Y-92726190D01*
X125464285Y-92726190D01*
X125416666Y-92702380D01*
X125392857Y-92654761D01*
X125392857Y-92559523D01*
X125416666Y-92511904D01*
X125464285Y-92488095D01*
X125511904Y-92488095D01*
X125559523Y-92726190D01*
%TO.C,D14*%
D11*
X85202380Y-94594285D02*
X84202380Y-94594285D01*
X84202380Y-94356190D01*
X84250000Y-94213333D01*
X84345238Y-94118095D01*
X84440476Y-94070476D01*
X84630952Y-94022857D01*
X84773809Y-94022857D01*
X84964285Y-94070476D01*
X85059523Y-94118095D01*
X85154761Y-94213333D01*
X85202380Y-94356190D01*
X85202380Y-94594285D01*
X85202380Y-93070476D02*
X85202380Y-93641904D01*
X85202380Y-93356190D02*
X84202380Y-93356190D01*
X84345238Y-93451428D01*
X84440476Y-93546666D01*
X84488095Y-93641904D01*
X84535714Y-92213333D02*
X85202380Y-92213333D01*
X84154761Y-92451428D02*
X84869047Y-92689523D01*
X84869047Y-92070476D01*
D12*
X91428571Y-94607142D02*
X91452380Y-94630952D01*
X91476190Y-94702380D01*
X91476190Y-94750000D01*
X91452380Y-94821428D01*
X91404761Y-94869047D01*
X91357142Y-94892857D01*
X91261904Y-94916666D01*
X91190476Y-94916666D01*
X91095238Y-94892857D01*
X91047619Y-94869047D01*
X91000000Y-94821428D01*
X90976190Y-94750000D01*
X90976190Y-94702380D01*
X91000000Y-94630952D01*
X91023809Y-94607142D01*
X91476190Y-94178571D02*
X91214285Y-94178571D01*
X91166666Y-94202380D01*
X91142857Y-94250000D01*
X91142857Y-94345238D01*
X91166666Y-94392857D01*
X91452380Y-94178571D02*
X91476190Y-94226190D01*
X91476190Y-94345238D01*
X91452380Y-94392857D01*
X91404761Y-94416666D01*
X91357142Y-94416666D01*
X91309523Y-94392857D01*
X91285714Y-94345238D01*
X91285714Y-94226190D01*
X91261904Y-94178571D01*
X91142857Y-94011904D02*
X91142857Y-93821428D01*
X90976190Y-93940476D02*
X91404761Y-93940476D01*
X91452380Y-93916666D01*
X91476190Y-93869047D01*
X91476190Y-93821428D01*
X91476190Y-93654761D02*
X90976190Y-93654761D01*
X91476190Y-93440476D02*
X91214285Y-93440476D01*
X91166666Y-93464285D01*
X91142857Y-93511904D01*
X91142857Y-93583333D01*
X91166666Y-93630952D01*
X91190476Y-93654761D01*
X91476190Y-93130952D02*
X91452380Y-93178571D01*
X91428571Y-93202380D01*
X91380952Y-93226190D01*
X91238095Y-93226190D01*
X91190476Y-93202380D01*
X91166666Y-93178571D01*
X91142857Y-93130952D01*
X91142857Y-93059523D01*
X91166666Y-93011904D01*
X91190476Y-92988095D01*
X91238095Y-92964285D01*
X91380952Y-92964285D01*
X91428571Y-92988095D01*
X91452380Y-93011904D01*
X91476190Y-93059523D01*
X91476190Y-93130952D01*
X91476190Y-92535714D02*
X90976190Y-92535714D01*
X91452380Y-92535714D02*
X91476190Y-92583333D01*
X91476190Y-92678571D01*
X91452380Y-92726190D01*
X91428571Y-92750000D01*
X91380952Y-92773809D01*
X91238095Y-92773809D01*
X91190476Y-92750000D01*
X91166666Y-92726190D01*
X91142857Y-92678571D01*
X91142857Y-92583333D01*
X91166666Y-92535714D01*
X91452380Y-92107142D02*
X91476190Y-92154761D01*
X91476190Y-92250000D01*
X91452380Y-92297619D01*
X91404761Y-92321428D01*
X91214285Y-92321428D01*
X91166666Y-92297619D01*
X91142857Y-92250000D01*
X91142857Y-92154761D01*
X91166666Y-92107142D01*
X91214285Y-92083333D01*
X91261904Y-92083333D01*
X91309523Y-92321428D01*
X86583333Y-94511904D02*
X86583333Y-94273809D01*
X86726190Y-94559523D02*
X86226190Y-94392857D01*
X86726190Y-94226190D01*
X86392857Y-94059523D02*
X86726190Y-94059523D01*
X86440476Y-94059523D02*
X86416666Y-94035714D01*
X86392857Y-93988095D01*
X86392857Y-93916666D01*
X86416666Y-93869047D01*
X86464285Y-93845238D01*
X86726190Y-93845238D01*
X86726190Y-93535714D02*
X86702380Y-93583333D01*
X86678571Y-93607142D01*
X86630952Y-93630952D01*
X86488095Y-93630952D01*
X86440476Y-93607142D01*
X86416666Y-93583333D01*
X86392857Y-93535714D01*
X86392857Y-93464285D01*
X86416666Y-93416666D01*
X86440476Y-93392857D01*
X86488095Y-93369047D01*
X86630952Y-93369047D01*
X86678571Y-93392857D01*
X86702380Y-93416666D01*
X86726190Y-93464285D01*
X86726190Y-93535714D01*
X86726190Y-92940476D02*
X86226190Y-92940476D01*
X86702380Y-92940476D02*
X86726190Y-92988095D01*
X86726190Y-93083333D01*
X86702380Y-93130952D01*
X86678571Y-93154761D01*
X86630952Y-93178571D01*
X86488095Y-93178571D01*
X86440476Y-93154761D01*
X86416666Y-93130952D01*
X86392857Y-93083333D01*
X86392857Y-92988095D01*
X86416666Y-92940476D01*
X86702380Y-92511904D02*
X86726190Y-92559523D01*
X86726190Y-92654761D01*
X86702380Y-92702380D01*
X86654761Y-92726190D01*
X86464285Y-92726190D01*
X86416666Y-92702380D01*
X86392857Y-92654761D01*
X86392857Y-92559523D01*
X86416666Y-92511904D01*
X86464285Y-92488095D01*
X86511904Y-92488095D01*
X86559523Y-92726190D01*
%TO.C,D13*%
D11*
X46202380Y-94594285D02*
X45202380Y-94594285D01*
X45202380Y-94356190D01*
X45250000Y-94213333D01*
X45345238Y-94118095D01*
X45440476Y-94070476D01*
X45630952Y-94022857D01*
X45773809Y-94022857D01*
X45964285Y-94070476D01*
X46059523Y-94118095D01*
X46154761Y-94213333D01*
X46202380Y-94356190D01*
X46202380Y-94594285D01*
X46202380Y-93070476D02*
X46202380Y-93641904D01*
X46202380Y-93356190D02*
X45202380Y-93356190D01*
X45345238Y-93451428D01*
X45440476Y-93546666D01*
X45488095Y-93641904D01*
X45202380Y-92737142D02*
X45202380Y-92118095D01*
X45583333Y-92451428D01*
X45583333Y-92308571D01*
X45630952Y-92213333D01*
X45678571Y-92165714D01*
X45773809Y-92118095D01*
X46011904Y-92118095D01*
X46107142Y-92165714D01*
X46154761Y-92213333D01*
X46202380Y-92308571D01*
X46202380Y-92594285D01*
X46154761Y-92689523D01*
X46107142Y-92737142D01*
D12*
X52428571Y-94607142D02*
X52452380Y-94630952D01*
X52476190Y-94702380D01*
X52476190Y-94750000D01*
X52452380Y-94821428D01*
X52404761Y-94869047D01*
X52357142Y-94892857D01*
X52261904Y-94916666D01*
X52190476Y-94916666D01*
X52095238Y-94892857D01*
X52047619Y-94869047D01*
X52000000Y-94821428D01*
X51976190Y-94750000D01*
X51976190Y-94702380D01*
X52000000Y-94630952D01*
X52023809Y-94607142D01*
X52476190Y-94178571D02*
X52214285Y-94178571D01*
X52166666Y-94202380D01*
X52142857Y-94250000D01*
X52142857Y-94345238D01*
X52166666Y-94392857D01*
X52452380Y-94178571D02*
X52476190Y-94226190D01*
X52476190Y-94345238D01*
X52452380Y-94392857D01*
X52404761Y-94416666D01*
X52357142Y-94416666D01*
X52309523Y-94392857D01*
X52285714Y-94345238D01*
X52285714Y-94226190D01*
X52261904Y-94178571D01*
X52142857Y-94011904D02*
X52142857Y-93821428D01*
X51976190Y-93940476D02*
X52404761Y-93940476D01*
X52452380Y-93916666D01*
X52476190Y-93869047D01*
X52476190Y-93821428D01*
X52476190Y-93654761D02*
X51976190Y-93654761D01*
X52476190Y-93440476D02*
X52214285Y-93440476D01*
X52166666Y-93464285D01*
X52142857Y-93511904D01*
X52142857Y-93583333D01*
X52166666Y-93630952D01*
X52190476Y-93654761D01*
X52476190Y-93130952D02*
X52452380Y-93178571D01*
X52428571Y-93202380D01*
X52380952Y-93226190D01*
X52238095Y-93226190D01*
X52190476Y-93202380D01*
X52166666Y-93178571D01*
X52142857Y-93130952D01*
X52142857Y-93059523D01*
X52166666Y-93011904D01*
X52190476Y-92988095D01*
X52238095Y-92964285D01*
X52380952Y-92964285D01*
X52428571Y-92988095D01*
X52452380Y-93011904D01*
X52476190Y-93059523D01*
X52476190Y-93130952D01*
X52476190Y-92535714D02*
X51976190Y-92535714D01*
X52452380Y-92535714D02*
X52476190Y-92583333D01*
X52476190Y-92678571D01*
X52452380Y-92726190D01*
X52428571Y-92750000D01*
X52380952Y-92773809D01*
X52238095Y-92773809D01*
X52190476Y-92750000D01*
X52166666Y-92726190D01*
X52142857Y-92678571D01*
X52142857Y-92583333D01*
X52166666Y-92535714D01*
X52452380Y-92107142D02*
X52476190Y-92154761D01*
X52476190Y-92250000D01*
X52452380Y-92297619D01*
X52404761Y-92321428D01*
X52214285Y-92321428D01*
X52166666Y-92297619D01*
X52142857Y-92250000D01*
X52142857Y-92154761D01*
X52166666Y-92107142D01*
X52214285Y-92083333D01*
X52261904Y-92083333D01*
X52309523Y-92321428D01*
X47583333Y-94511904D02*
X47583333Y-94273809D01*
X47726190Y-94559523D02*
X47226190Y-94392857D01*
X47726190Y-94226190D01*
X47392857Y-94059523D02*
X47726190Y-94059523D01*
X47440476Y-94059523D02*
X47416666Y-94035714D01*
X47392857Y-93988095D01*
X47392857Y-93916666D01*
X47416666Y-93869047D01*
X47464285Y-93845238D01*
X47726190Y-93845238D01*
X47726190Y-93535714D02*
X47702380Y-93583333D01*
X47678571Y-93607142D01*
X47630952Y-93630952D01*
X47488095Y-93630952D01*
X47440476Y-93607142D01*
X47416666Y-93583333D01*
X47392857Y-93535714D01*
X47392857Y-93464285D01*
X47416666Y-93416666D01*
X47440476Y-93392857D01*
X47488095Y-93369047D01*
X47630952Y-93369047D01*
X47678571Y-93392857D01*
X47702380Y-93416666D01*
X47726190Y-93464285D01*
X47726190Y-93535714D01*
X47726190Y-92940476D02*
X47226190Y-92940476D01*
X47702380Y-92940476D02*
X47726190Y-92988095D01*
X47726190Y-93083333D01*
X47702380Y-93130952D01*
X47678571Y-93154761D01*
X47630952Y-93178571D01*
X47488095Y-93178571D01*
X47440476Y-93154761D01*
X47416666Y-93130952D01*
X47392857Y-93083333D01*
X47392857Y-92988095D01*
X47416666Y-92940476D01*
X47702380Y-92511904D02*
X47726190Y-92559523D01*
X47726190Y-92654761D01*
X47702380Y-92702380D01*
X47654761Y-92726190D01*
X47464285Y-92726190D01*
X47416666Y-92702380D01*
X47392857Y-92654761D01*
X47392857Y-92559523D01*
X47416666Y-92511904D01*
X47464285Y-92488095D01*
X47511904Y-92488095D01*
X47559523Y-92726190D01*
%TO.C,D12*%
D11*
X240702380Y-90094285D02*
X239702380Y-90094285D01*
X239702380Y-89856190D01*
X239750000Y-89713333D01*
X239845238Y-89618095D01*
X239940476Y-89570476D01*
X240130952Y-89522857D01*
X240273809Y-89522857D01*
X240464285Y-89570476D01*
X240559523Y-89618095D01*
X240654761Y-89713333D01*
X240702380Y-89856190D01*
X240702380Y-90094285D01*
X240702380Y-88570476D02*
X240702380Y-89141904D01*
X240702380Y-88856190D02*
X239702380Y-88856190D01*
X239845238Y-88951428D01*
X239940476Y-89046666D01*
X239988095Y-89141904D01*
X239797619Y-88189523D02*
X239750000Y-88141904D01*
X239702380Y-88046666D01*
X239702380Y-87808571D01*
X239750000Y-87713333D01*
X239797619Y-87665714D01*
X239892857Y-87618095D01*
X239988095Y-87618095D01*
X240130952Y-87665714D01*
X240702380Y-88237142D01*
X240702380Y-87618095D01*
D12*
X246928571Y-90107142D02*
X246952380Y-90130952D01*
X246976190Y-90202380D01*
X246976190Y-90250000D01*
X246952380Y-90321428D01*
X246904761Y-90369047D01*
X246857142Y-90392857D01*
X246761904Y-90416666D01*
X246690476Y-90416666D01*
X246595238Y-90392857D01*
X246547619Y-90369047D01*
X246500000Y-90321428D01*
X246476190Y-90250000D01*
X246476190Y-90202380D01*
X246500000Y-90130952D01*
X246523809Y-90107142D01*
X246976190Y-89678571D02*
X246714285Y-89678571D01*
X246666666Y-89702380D01*
X246642857Y-89750000D01*
X246642857Y-89845238D01*
X246666666Y-89892857D01*
X246952380Y-89678571D02*
X246976190Y-89726190D01*
X246976190Y-89845238D01*
X246952380Y-89892857D01*
X246904761Y-89916666D01*
X246857142Y-89916666D01*
X246809523Y-89892857D01*
X246785714Y-89845238D01*
X246785714Y-89726190D01*
X246761904Y-89678571D01*
X246642857Y-89511904D02*
X246642857Y-89321428D01*
X246476190Y-89440476D02*
X246904761Y-89440476D01*
X246952380Y-89416666D01*
X246976190Y-89369047D01*
X246976190Y-89321428D01*
X246976190Y-89154761D02*
X246476190Y-89154761D01*
X246976190Y-88940476D02*
X246714285Y-88940476D01*
X246666666Y-88964285D01*
X246642857Y-89011904D01*
X246642857Y-89083333D01*
X246666666Y-89130952D01*
X246690476Y-89154761D01*
X246976190Y-88630952D02*
X246952380Y-88678571D01*
X246928571Y-88702380D01*
X246880952Y-88726190D01*
X246738095Y-88726190D01*
X246690476Y-88702380D01*
X246666666Y-88678571D01*
X246642857Y-88630952D01*
X246642857Y-88559523D01*
X246666666Y-88511904D01*
X246690476Y-88488095D01*
X246738095Y-88464285D01*
X246880952Y-88464285D01*
X246928571Y-88488095D01*
X246952380Y-88511904D01*
X246976190Y-88559523D01*
X246976190Y-88630952D01*
X246976190Y-88035714D02*
X246476190Y-88035714D01*
X246952380Y-88035714D02*
X246976190Y-88083333D01*
X246976190Y-88178571D01*
X246952380Y-88226190D01*
X246928571Y-88250000D01*
X246880952Y-88273809D01*
X246738095Y-88273809D01*
X246690476Y-88250000D01*
X246666666Y-88226190D01*
X246642857Y-88178571D01*
X246642857Y-88083333D01*
X246666666Y-88035714D01*
X246952380Y-87607142D02*
X246976190Y-87654761D01*
X246976190Y-87750000D01*
X246952380Y-87797619D01*
X246904761Y-87821428D01*
X246714285Y-87821428D01*
X246666666Y-87797619D01*
X246642857Y-87750000D01*
X246642857Y-87654761D01*
X246666666Y-87607142D01*
X246714285Y-87583333D01*
X246761904Y-87583333D01*
X246809523Y-87821428D01*
X242083333Y-90011904D02*
X242083333Y-89773809D01*
X242226190Y-90059523D02*
X241726190Y-89892857D01*
X242226190Y-89726190D01*
X241892857Y-89559523D02*
X242226190Y-89559523D01*
X241940476Y-89559523D02*
X241916666Y-89535714D01*
X241892857Y-89488095D01*
X241892857Y-89416666D01*
X241916666Y-89369047D01*
X241964285Y-89345238D01*
X242226190Y-89345238D01*
X242226190Y-89035714D02*
X242202380Y-89083333D01*
X242178571Y-89107142D01*
X242130952Y-89130952D01*
X241988095Y-89130952D01*
X241940476Y-89107142D01*
X241916666Y-89083333D01*
X241892857Y-89035714D01*
X241892857Y-88964285D01*
X241916666Y-88916666D01*
X241940476Y-88892857D01*
X241988095Y-88869047D01*
X242130952Y-88869047D01*
X242178571Y-88892857D01*
X242202380Y-88916666D01*
X242226190Y-88964285D01*
X242226190Y-89035714D01*
X242226190Y-88440476D02*
X241726190Y-88440476D01*
X242202380Y-88440476D02*
X242226190Y-88488095D01*
X242226190Y-88583333D01*
X242202380Y-88630952D01*
X242178571Y-88654761D01*
X242130952Y-88678571D01*
X241988095Y-88678571D01*
X241940476Y-88654761D01*
X241916666Y-88630952D01*
X241892857Y-88583333D01*
X241892857Y-88488095D01*
X241916666Y-88440476D01*
X242202380Y-88011904D02*
X242226190Y-88059523D01*
X242226190Y-88154761D01*
X242202380Y-88202380D01*
X242154761Y-88226190D01*
X241964285Y-88226190D01*
X241916666Y-88202380D01*
X241892857Y-88154761D01*
X241892857Y-88059523D01*
X241916666Y-88011904D01*
X241964285Y-87988095D01*
X242011904Y-87988095D01*
X242059523Y-88226190D01*
%TO.C,D11*%
D11*
X202202380Y-90094285D02*
X201202380Y-90094285D01*
X201202380Y-89856190D01*
X201250000Y-89713333D01*
X201345238Y-89618095D01*
X201440476Y-89570476D01*
X201630952Y-89522857D01*
X201773809Y-89522857D01*
X201964285Y-89570476D01*
X202059523Y-89618095D01*
X202154761Y-89713333D01*
X202202380Y-89856190D01*
X202202380Y-90094285D01*
X202202380Y-88570476D02*
X202202380Y-89141904D01*
X202202380Y-88856190D02*
X201202380Y-88856190D01*
X201345238Y-88951428D01*
X201440476Y-89046666D01*
X201488095Y-89141904D01*
X202202380Y-87618095D02*
X202202380Y-88189523D01*
X202202380Y-87903809D02*
X201202380Y-87903809D01*
X201345238Y-87999047D01*
X201440476Y-88094285D01*
X201488095Y-88189523D01*
D12*
X208428571Y-90107142D02*
X208452380Y-90130952D01*
X208476190Y-90202380D01*
X208476190Y-90250000D01*
X208452380Y-90321428D01*
X208404761Y-90369047D01*
X208357142Y-90392857D01*
X208261904Y-90416666D01*
X208190476Y-90416666D01*
X208095238Y-90392857D01*
X208047619Y-90369047D01*
X208000000Y-90321428D01*
X207976190Y-90250000D01*
X207976190Y-90202380D01*
X208000000Y-90130952D01*
X208023809Y-90107142D01*
X208476190Y-89678571D02*
X208214285Y-89678571D01*
X208166666Y-89702380D01*
X208142857Y-89750000D01*
X208142857Y-89845238D01*
X208166666Y-89892857D01*
X208452380Y-89678571D02*
X208476190Y-89726190D01*
X208476190Y-89845238D01*
X208452380Y-89892857D01*
X208404761Y-89916666D01*
X208357142Y-89916666D01*
X208309523Y-89892857D01*
X208285714Y-89845238D01*
X208285714Y-89726190D01*
X208261904Y-89678571D01*
X208142857Y-89511904D02*
X208142857Y-89321428D01*
X207976190Y-89440476D02*
X208404761Y-89440476D01*
X208452380Y-89416666D01*
X208476190Y-89369047D01*
X208476190Y-89321428D01*
X208476190Y-89154761D02*
X207976190Y-89154761D01*
X208476190Y-88940476D02*
X208214285Y-88940476D01*
X208166666Y-88964285D01*
X208142857Y-89011904D01*
X208142857Y-89083333D01*
X208166666Y-89130952D01*
X208190476Y-89154761D01*
X208476190Y-88630952D02*
X208452380Y-88678571D01*
X208428571Y-88702380D01*
X208380952Y-88726190D01*
X208238095Y-88726190D01*
X208190476Y-88702380D01*
X208166666Y-88678571D01*
X208142857Y-88630952D01*
X208142857Y-88559523D01*
X208166666Y-88511904D01*
X208190476Y-88488095D01*
X208238095Y-88464285D01*
X208380952Y-88464285D01*
X208428571Y-88488095D01*
X208452380Y-88511904D01*
X208476190Y-88559523D01*
X208476190Y-88630952D01*
X208476190Y-88035714D02*
X207976190Y-88035714D01*
X208452380Y-88035714D02*
X208476190Y-88083333D01*
X208476190Y-88178571D01*
X208452380Y-88226190D01*
X208428571Y-88250000D01*
X208380952Y-88273809D01*
X208238095Y-88273809D01*
X208190476Y-88250000D01*
X208166666Y-88226190D01*
X208142857Y-88178571D01*
X208142857Y-88083333D01*
X208166666Y-88035714D01*
X208452380Y-87607142D02*
X208476190Y-87654761D01*
X208476190Y-87750000D01*
X208452380Y-87797619D01*
X208404761Y-87821428D01*
X208214285Y-87821428D01*
X208166666Y-87797619D01*
X208142857Y-87750000D01*
X208142857Y-87654761D01*
X208166666Y-87607142D01*
X208214285Y-87583333D01*
X208261904Y-87583333D01*
X208309523Y-87821428D01*
X203583333Y-90011904D02*
X203583333Y-89773809D01*
X203726190Y-90059523D02*
X203226190Y-89892857D01*
X203726190Y-89726190D01*
X203392857Y-89559523D02*
X203726190Y-89559523D01*
X203440476Y-89559523D02*
X203416666Y-89535714D01*
X203392857Y-89488095D01*
X203392857Y-89416666D01*
X203416666Y-89369047D01*
X203464285Y-89345238D01*
X203726190Y-89345238D01*
X203726190Y-89035714D02*
X203702380Y-89083333D01*
X203678571Y-89107142D01*
X203630952Y-89130952D01*
X203488095Y-89130952D01*
X203440476Y-89107142D01*
X203416666Y-89083333D01*
X203392857Y-89035714D01*
X203392857Y-88964285D01*
X203416666Y-88916666D01*
X203440476Y-88892857D01*
X203488095Y-88869047D01*
X203630952Y-88869047D01*
X203678571Y-88892857D01*
X203702380Y-88916666D01*
X203726190Y-88964285D01*
X203726190Y-89035714D01*
X203726190Y-88440476D02*
X203226190Y-88440476D01*
X203702380Y-88440476D02*
X203726190Y-88488095D01*
X203726190Y-88583333D01*
X203702380Y-88630952D01*
X203678571Y-88654761D01*
X203630952Y-88678571D01*
X203488095Y-88678571D01*
X203440476Y-88654761D01*
X203416666Y-88630952D01*
X203392857Y-88583333D01*
X203392857Y-88488095D01*
X203416666Y-88440476D01*
X203702380Y-88011904D02*
X203726190Y-88059523D01*
X203726190Y-88154761D01*
X203702380Y-88202380D01*
X203654761Y-88226190D01*
X203464285Y-88226190D01*
X203416666Y-88202380D01*
X203392857Y-88154761D01*
X203392857Y-88059523D01*
X203416666Y-88011904D01*
X203464285Y-87988095D01*
X203511904Y-87988095D01*
X203559523Y-88226190D01*
%TO.C,D10*%
D11*
X163202380Y-90094285D02*
X162202380Y-90094285D01*
X162202380Y-89856190D01*
X162250000Y-89713333D01*
X162345238Y-89618095D01*
X162440476Y-89570476D01*
X162630952Y-89522857D01*
X162773809Y-89522857D01*
X162964285Y-89570476D01*
X163059523Y-89618095D01*
X163154761Y-89713333D01*
X163202380Y-89856190D01*
X163202380Y-90094285D01*
X163202380Y-88570476D02*
X163202380Y-89141904D01*
X163202380Y-88856190D02*
X162202380Y-88856190D01*
X162345238Y-88951428D01*
X162440476Y-89046666D01*
X162488095Y-89141904D01*
X162202380Y-87951428D02*
X162202380Y-87856190D01*
X162250000Y-87760952D01*
X162297619Y-87713333D01*
X162392857Y-87665714D01*
X162583333Y-87618095D01*
X162821428Y-87618095D01*
X163011904Y-87665714D01*
X163107142Y-87713333D01*
X163154761Y-87760952D01*
X163202380Y-87856190D01*
X163202380Y-87951428D01*
X163154761Y-88046666D01*
X163107142Y-88094285D01*
X163011904Y-88141904D01*
X162821428Y-88189523D01*
X162583333Y-88189523D01*
X162392857Y-88141904D01*
X162297619Y-88094285D01*
X162250000Y-88046666D01*
X162202380Y-87951428D01*
D12*
X169428571Y-90107142D02*
X169452380Y-90130952D01*
X169476190Y-90202380D01*
X169476190Y-90250000D01*
X169452380Y-90321428D01*
X169404761Y-90369047D01*
X169357142Y-90392857D01*
X169261904Y-90416666D01*
X169190476Y-90416666D01*
X169095238Y-90392857D01*
X169047619Y-90369047D01*
X169000000Y-90321428D01*
X168976190Y-90250000D01*
X168976190Y-90202380D01*
X169000000Y-90130952D01*
X169023809Y-90107142D01*
X169476190Y-89678571D02*
X169214285Y-89678571D01*
X169166666Y-89702380D01*
X169142857Y-89750000D01*
X169142857Y-89845238D01*
X169166666Y-89892857D01*
X169452380Y-89678571D02*
X169476190Y-89726190D01*
X169476190Y-89845238D01*
X169452380Y-89892857D01*
X169404761Y-89916666D01*
X169357142Y-89916666D01*
X169309523Y-89892857D01*
X169285714Y-89845238D01*
X169285714Y-89726190D01*
X169261904Y-89678571D01*
X169142857Y-89511904D02*
X169142857Y-89321428D01*
X168976190Y-89440476D02*
X169404761Y-89440476D01*
X169452380Y-89416666D01*
X169476190Y-89369047D01*
X169476190Y-89321428D01*
X169476190Y-89154761D02*
X168976190Y-89154761D01*
X169476190Y-88940476D02*
X169214285Y-88940476D01*
X169166666Y-88964285D01*
X169142857Y-89011904D01*
X169142857Y-89083333D01*
X169166666Y-89130952D01*
X169190476Y-89154761D01*
X169476190Y-88630952D02*
X169452380Y-88678571D01*
X169428571Y-88702380D01*
X169380952Y-88726190D01*
X169238095Y-88726190D01*
X169190476Y-88702380D01*
X169166666Y-88678571D01*
X169142857Y-88630952D01*
X169142857Y-88559523D01*
X169166666Y-88511904D01*
X169190476Y-88488095D01*
X169238095Y-88464285D01*
X169380952Y-88464285D01*
X169428571Y-88488095D01*
X169452380Y-88511904D01*
X169476190Y-88559523D01*
X169476190Y-88630952D01*
X169476190Y-88035714D02*
X168976190Y-88035714D01*
X169452380Y-88035714D02*
X169476190Y-88083333D01*
X169476190Y-88178571D01*
X169452380Y-88226190D01*
X169428571Y-88250000D01*
X169380952Y-88273809D01*
X169238095Y-88273809D01*
X169190476Y-88250000D01*
X169166666Y-88226190D01*
X169142857Y-88178571D01*
X169142857Y-88083333D01*
X169166666Y-88035714D01*
X169452380Y-87607142D02*
X169476190Y-87654761D01*
X169476190Y-87750000D01*
X169452380Y-87797619D01*
X169404761Y-87821428D01*
X169214285Y-87821428D01*
X169166666Y-87797619D01*
X169142857Y-87750000D01*
X169142857Y-87654761D01*
X169166666Y-87607142D01*
X169214285Y-87583333D01*
X169261904Y-87583333D01*
X169309523Y-87821428D01*
X164583333Y-90011904D02*
X164583333Y-89773809D01*
X164726190Y-90059523D02*
X164226190Y-89892857D01*
X164726190Y-89726190D01*
X164392857Y-89559523D02*
X164726190Y-89559523D01*
X164440476Y-89559523D02*
X164416666Y-89535714D01*
X164392857Y-89488095D01*
X164392857Y-89416666D01*
X164416666Y-89369047D01*
X164464285Y-89345238D01*
X164726190Y-89345238D01*
X164726190Y-89035714D02*
X164702380Y-89083333D01*
X164678571Y-89107142D01*
X164630952Y-89130952D01*
X164488095Y-89130952D01*
X164440476Y-89107142D01*
X164416666Y-89083333D01*
X164392857Y-89035714D01*
X164392857Y-88964285D01*
X164416666Y-88916666D01*
X164440476Y-88892857D01*
X164488095Y-88869047D01*
X164630952Y-88869047D01*
X164678571Y-88892857D01*
X164702380Y-88916666D01*
X164726190Y-88964285D01*
X164726190Y-89035714D01*
X164726190Y-88440476D02*
X164226190Y-88440476D01*
X164702380Y-88440476D02*
X164726190Y-88488095D01*
X164726190Y-88583333D01*
X164702380Y-88630952D01*
X164678571Y-88654761D01*
X164630952Y-88678571D01*
X164488095Y-88678571D01*
X164440476Y-88654761D01*
X164416666Y-88630952D01*
X164392857Y-88583333D01*
X164392857Y-88488095D01*
X164416666Y-88440476D01*
X164702380Y-88011904D02*
X164726190Y-88059523D01*
X164726190Y-88154761D01*
X164702380Y-88202380D01*
X164654761Y-88226190D01*
X164464285Y-88226190D01*
X164416666Y-88202380D01*
X164392857Y-88154761D01*
X164392857Y-88059523D01*
X164416666Y-88011904D01*
X164464285Y-87988095D01*
X164511904Y-87988095D01*
X164559523Y-88226190D01*
%TO.C,D9*%
D11*
X124202380Y-89618095D02*
X123202380Y-89618095D01*
X123202380Y-89380000D01*
X123250000Y-89237142D01*
X123345238Y-89141904D01*
X123440476Y-89094285D01*
X123630952Y-89046666D01*
X123773809Y-89046666D01*
X123964285Y-89094285D01*
X124059523Y-89141904D01*
X124154761Y-89237142D01*
X124202380Y-89380000D01*
X124202380Y-89618095D01*
X124202380Y-88570476D02*
X124202380Y-88380000D01*
X124154761Y-88284761D01*
X124107142Y-88237142D01*
X123964285Y-88141904D01*
X123773809Y-88094285D01*
X123392857Y-88094285D01*
X123297619Y-88141904D01*
X123250000Y-88189523D01*
X123202380Y-88284761D01*
X123202380Y-88475238D01*
X123250000Y-88570476D01*
X123297619Y-88618095D01*
X123392857Y-88665714D01*
X123630952Y-88665714D01*
X123726190Y-88618095D01*
X123773809Y-88570476D01*
X123821428Y-88475238D01*
X123821428Y-88284761D01*
X123773809Y-88189523D01*
X123726190Y-88141904D01*
X123630952Y-88094285D01*
D12*
X130428571Y-90107142D02*
X130452380Y-90130952D01*
X130476190Y-90202380D01*
X130476190Y-90250000D01*
X130452380Y-90321428D01*
X130404761Y-90369047D01*
X130357142Y-90392857D01*
X130261904Y-90416666D01*
X130190476Y-90416666D01*
X130095238Y-90392857D01*
X130047619Y-90369047D01*
X130000000Y-90321428D01*
X129976190Y-90250000D01*
X129976190Y-90202380D01*
X130000000Y-90130952D01*
X130023809Y-90107142D01*
X130476190Y-89678571D02*
X130214285Y-89678571D01*
X130166666Y-89702380D01*
X130142857Y-89750000D01*
X130142857Y-89845238D01*
X130166666Y-89892857D01*
X130452380Y-89678571D02*
X130476190Y-89726190D01*
X130476190Y-89845238D01*
X130452380Y-89892857D01*
X130404761Y-89916666D01*
X130357142Y-89916666D01*
X130309523Y-89892857D01*
X130285714Y-89845238D01*
X130285714Y-89726190D01*
X130261904Y-89678571D01*
X130142857Y-89511904D02*
X130142857Y-89321428D01*
X129976190Y-89440476D02*
X130404761Y-89440476D01*
X130452380Y-89416666D01*
X130476190Y-89369047D01*
X130476190Y-89321428D01*
X130476190Y-89154761D02*
X129976190Y-89154761D01*
X130476190Y-88940476D02*
X130214285Y-88940476D01*
X130166666Y-88964285D01*
X130142857Y-89011904D01*
X130142857Y-89083333D01*
X130166666Y-89130952D01*
X130190476Y-89154761D01*
X130476190Y-88630952D02*
X130452380Y-88678571D01*
X130428571Y-88702380D01*
X130380952Y-88726190D01*
X130238095Y-88726190D01*
X130190476Y-88702380D01*
X130166666Y-88678571D01*
X130142857Y-88630952D01*
X130142857Y-88559523D01*
X130166666Y-88511904D01*
X130190476Y-88488095D01*
X130238095Y-88464285D01*
X130380952Y-88464285D01*
X130428571Y-88488095D01*
X130452380Y-88511904D01*
X130476190Y-88559523D01*
X130476190Y-88630952D01*
X130476190Y-88035714D02*
X129976190Y-88035714D01*
X130452380Y-88035714D02*
X130476190Y-88083333D01*
X130476190Y-88178571D01*
X130452380Y-88226190D01*
X130428571Y-88250000D01*
X130380952Y-88273809D01*
X130238095Y-88273809D01*
X130190476Y-88250000D01*
X130166666Y-88226190D01*
X130142857Y-88178571D01*
X130142857Y-88083333D01*
X130166666Y-88035714D01*
X130452380Y-87607142D02*
X130476190Y-87654761D01*
X130476190Y-87750000D01*
X130452380Y-87797619D01*
X130404761Y-87821428D01*
X130214285Y-87821428D01*
X130166666Y-87797619D01*
X130142857Y-87750000D01*
X130142857Y-87654761D01*
X130166666Y-87607142D01*
X130214285Y-87583333D01*
X130261904Y-87583333D01*
X130309523Y-87821428D01*
X125583333Y-90011904D02*
X125583333Y-89773809D01*
X125726190Y-90059523D02*
X125226190Y-89892857D01*
X125726190Y-89726190D01*
X125392857Y-89559523D02*
X125726190Y-89559523D01*
X125440476Y-89559523D02*
X125416666Y-89535714D01*
X125392857Y-89488095D01*
X125392857Y-89416666D01*
X125416666Y-89369047D01*
X125464285Y-89345238D01*
X125726190Y-89345238D01*
X125726190Y-89035714D02*
X125702380Y-89083333D01*
X125678571Y-89107142D01*
X125630952Y-89130952D01*
X125488095Y-89130952D01*
X125440476Y-89107142D01*
X125416666Y-89083333D01*
X125392857Y-89035714D01*
X125392857Y-88964285D01*
X125416666Y-88916666D01*
X125440476Y-88892857D01*
X125488095Y-88869047D01*
X125630952Y-88869047D01*
X125678571Y-88892857D01*
X125702380Y-88916666D01*
X125726190Y-88964285D01*
X125726190Y-89035714D01*
X125726190Y-88440476D02*
X125226190Y-88440476D01*
X125702380Y-88440476D02*
X125726190Y-88488095D01*
X125726190Y-88583333D01*
X125702380Y-88630952D01*
X125678571Y-88654761D01*
X125630952Y-88678571D01*
X125488095Y-88678571D01*
X125440476Y-88654761D01*
X125416666Y-88630952D01*
X125392857Y-88583333D01*
X125392857Y-88488095D01*
X125416666Y-88440476D01*
X125702380Y-88011904D02*
X125726190Y-88059523D01*
X125726190Y-88154761D01*
X125702380Y-88202380D01*
X125654761Y-88226190D01*
X125464285Y-88226190D01*
X125416666Y-88202380D01*
X125392857Y-88154761D01*
X125392857Y-88059523D01*
X125416666Y-88011904D01*
X125464285Y-87988095D01*
X125511904Y-87988095D01*
X125559523Y-88226190D01*
%TO.C,D8*%
D11*
X85202380Y-89618095D02*
X84202380Y-89618095D01*
X84202380Y-89380000D01*
X84250000Y-89237142D01*
X84345238Y-89141904D01*
X84440476Y-89094285D01*
X84630952Y-89046666D01*
X84773809Y-89046666D01*
X84964285Y-89094285D01*
X85059523Y-89141904D01*
X85154761Y-89237142D01*
X85202380Y-89380000D01*
X85202380Y-89618095D01*
X84630952Y-88475238D02*
X84583333Y-88570476D01*
X84535714Y-88618095D01*
X84440476Y-88665714D01*
X84392857Y-88665714D01*
X84297619Y-88618095D01*
X84250000Y-88570476D01*
X84202380Y-88475238D01*
X84202380Y-88284761D01*
X84250000Y-88189523D01*
X84297619Y-88141904D01*
X84392857Y-88094285D01*
X84440476Y-88094285D01*
X84535714Y-88141904D01*
X84583333Y-88189523D01*
X84630952Y-88284761D01*
X84630952Y-88475238D01*
X84678571Y-88570476D01*
X84726190Y-88618095D01*
X84821428Y-88665714D01*
X85011904Y-88665714D01*
X85107142Y-88618095D01*
X85154761Y-88570476D01*
X85202380Y-88475238D01*
X85202380Y-88284761D01*
X85154761Y-88189523D01*
X85107142Y-88141904D01*
X85011904Y-88094285D01*
X84821428Y-88094285D01*
X84726190Y-88141904D01*
X84678571Y-88189523D01*
X84630952Y-88284761D01*
D12*
X91428571Y-90107142D02*
X91452380Y-90130952D01*
X91476190Y-90202380D01*
X91476190Y-90250000D01*
X91452380Y-90321428D01*
X91404761Y-90369047D01*
X91357142Y-90392857D01*
X91261904Y-90416666D01*
X91190476Y-90416666D01*
X91095238Y-90392857D01*
X91047619Y-90369047D01*
X91000000Y-90321428D01*
X90976190Y-90250000D01*
X90976190Y-90202380D01*
X91000000Y-90130952D01*
X91023809Y-90107142D01*
X91476190Y-89678571D02*
X91214285Y-89678571D01*
X91166666Y-89702380D01*
X91142857Y-89750000D01*
X91142857Y-89845238D01*
X91166666Y-89892857D01*
X91452380Y-89678571D02*
X91476190Y-89726190D01*
X91476190Y-89845238D01*
X91452380Y-89892857D01*
X91404761Y-89916666D01*
X91357142Y-89916666D01*
X91309523Y-89892857D01*
X91285714Y-89845238D01*
X91285714Y-89726190D01*
X91261904Y-89678571D01*
X91142857Y-89511904D02*
X91142857Y-89321428D01*
X90976190Y-89440476D02*
X91404761Y-89440476D01*
X91452380Y-89416666D01*
X91476190Y-89369047D01*
X91476190Y-89321428D01*
X91476190Y-89154761D02*
X90976190Y-89154761D01*
X91476190Y-88940476D02*
X91214285Y-88940476D01*
X91166666Y-88964285D01*
X91142857Y-89011904D01*
X91142857Y-89083333D01*
X91166666Y-89130952D01*
X91190476Y-89154761D01*
X91476190Y-88630952D02*
X91452380Y-88678571D01*
X91428571Y-88702380D01*
X91380952Y-88726190D01*
X91238095Y-88726190D01*
X91190476Y-88702380D01*
X91166666Y-88678571D01*
X91142857Y-88630952D01*
X91142857Y-88559523D01*
X91166666Y-88511904D01*
X91190476Y-88488095D01*
X91238095Y-88464285D01*
X91380952Y-88464285D01*
X91428571Y-88488095D01*
X91452380Y-88511904D01*
X91476190Y-88559523D01*
X91476190Y-88630952D01*
X91476190Y-88035714D02*
X90976190Y-88035714D01*
X91452380Y-88035714D02*
X91476190Y-88083333D01*
X91476190Y-88178571D01*
X91452380Y-88226190D01*
X91428571Y-88250000D01*
X91380952Y-88273809D01*
X91238095Y-88273809D01*
X91190476Y-88250000D01*
X91166666Y-88226190D01*
X91142857Y-88178571D01*
X91142857Y-88083333D01*
X91166666Y-88035714D01*
X91452380Y-87607142D02*
X91476190Y-87654761D01*
X91476190Y-87750000D01*
X91452380Y-87797619D01*
X91404761Y-87821428D01*
X91214285Y-87821428D01*
X91166666Y-87797619D01*
X91142857Y-87750000D01*
X91142857Y-87654761D01*
X91166666Y-87607142D01*
X91214285Y-87583333D01*
X91261904Y-87583333D01*
X91309523Y-87821428D01*
X86583333Y-90011904D02*
X86583333Y-89773809D01*
X86726190Y-90059523D02*
X86226190Y-89892857D01*
X86726190Y-89726190D01*
X86392857Y-89559523D02*
X86726190Y-89559523D01*
X86440476Y-89559523D02*
X86416666Y-89535714D01*
X86392857Y-89488095D01*
X86392857Y-89416666D01*
X86416666Y-89369047D01*
X86464285Y-89345238D01*
X86726190Y-89345238D01*
X86726190Y-89035714D02*
X86702380Y-89083333D01*
X86678571Y-89107142D01*
X86630952Y-89130952D01*
X86488095Y-89130952D01*
X86440476Y-89107142D01*
X86416666Y-89083333D01*
X86392857Y-89035714D01*
X86392857Y-88964285D01*
X86416666Y-88916666D01*
X86440476Y-88892857D01*
X86488095Y-88869047D01*
X86630952Y-88869047D01*
X86678571Y-88892857D01*
X86702380Y-88916666D01*
X86726190Y-88964285D01*
X86726190Y-89035714D01*
X86726190Y-88440476D02*
X86226190Y-88440476D01*
X86702380Y-88440476D02*
X86726190Y-88488095D01*
X86726190Y-88583333D01*
X86702380Y-88630952D01*
X86678571Y-88654761D01*
X86630952Y-88678571D01*
X86488095Y-88678571D01*
X86440476Y-88654761D01*
X86416666Y-88630952D01*
X86392857Y-88583333D01*
X86392857Y-88488095D01*
X86416666Y-88440476D01*
X86702380Y-88011904D02*
X86726190Y-88059523D01*
X86726190Y-88154761D01*
X86702380Y-88202380D01*
X86654761Y-88226190D01*
X86464285Y-88226190D01*
X86416666Y-88202380D01*
X86392857Y-88154761D01*
X86392857Y-88059523D01*
X86416666Y-88011904D01*
X86464285Y-87988095D01*
X86511904Y-87988095D01*
X86559523Y-88226190D01*
%TO.C,D7*%
D11*
X46202380Y-89618095D02*
X45202380Y-89618095D01*
X45202380Y-89380000D01*
X45250000Y-89237142D01*
X45345238Y-89141904D01*
X45440476Y-89094285D01*
X45630952Y-89046666D01*
X45773809Y-89046666D01*
X45964285Y-89094285D01*
X46059523Y-89141904D01*
X46154761Y-89237142D01*
X46202380Y-89380000D01*
X46202380Y-89618095D01*
X45202380Y-88713333D02*
X45202380Y-88046666D01*
X46202380Y-88475238D01*
D12*
X52428571Y-90107142D02*
X52452380Y-90130952D01*
X52476190Y-90202380D01*
X52476190Y-90250000D01*
X52452380Y-90321428D01*
X52404761Y-90369047D01*
X52357142Y-90392857D01*
X52261904Y-90416666D01*
X52190476Y-90416666D01*
X52095238Y-90392857D01*
X52047619Y-90369047D01*
X52000000Y-90321428D01*
X51976190Y-90250000D01*
X51976190Y-90202380D01*
X52000000Y-90130952D01*
X52023809Y-90107142D01*
X52476190Y-89678571D02*
X52214285Y-89678571D01*
X52166666Y-89702380D01*
X52142857Y-89750000D01*
X52142857Y-89845238D01*
X52166666Y-89892857D01*
X52452380Y-89678571D02*
X52476190Y-89726190D01*
X52476190Y-89845238D01*
X52452380Y-89892857D01*
X52404761Y-89916666D01*
X52357142Y-89916666D01*
X52309523Y-89892857D01*
X52285714Y-89845238D01*
X52285714Y-89726190D01*
X52261904Y-89678571D01*
X52142857Y-89511904D02*
X52142857Y-89321428D01*
X51976190Y-89440476D02*
X52404761Y-89440476D01*
X52452380Y-89416666D01*
X52476190Y-89369047D01*
X52476190Y-89321428D01*
X52476190Y-89154761D02*
X51976190Y-89154761D01*
X52476190Y-88940476D02*
X52214285Y-88940476D01*
X52166666Y-88964285D01*
X52142857Y-89011904D01*
X52142857Y-89083333D01*
X52166666Y-89130952D01*
X52190476Y-89154761D01*
X52476190Y-88630952D02*
X52452380Y-88678571D01*
X52428571Y-88702380D01*
X52380952Y-88726190D01*
X52238095Y-88726190D01*
X52190476Y-88702380D01*
X52166666Y-88678571D01*
X52142857Y-88630952D01*
X52142857Y-88559523D01*
X52166666Y-88511904D01*
X52190476Y-88488095D01*
X52238095Y-88464285D01*
X52380952Y-88464285D01*
X52428571Y-88488095D01*
X52452380Y-88511904D01*
X52476190Y-88559523D01*
X52476190Y-88630952D01*
X52476190Y-88035714D02*
X51976190Y-88035714D01*
X52452380Y-88035714D02*
X52476190Y-88083333D01*
X52476190Y-88178571D01*
X52452380Y-88226190D01*
X52428571Y-88250000D01*
X52380952Y-88273809D01*
X52238095Y-88273809D01*
X52190476Y-88250000D01*
X52166666Y-88226190D01*
X52142857Y-88178571D01*
X52142857Y-88083333D01*
X52166666Y-88035714D01*
X52452380Y-87607142D02*
X52476190Y-87654761D01*
X52476190Y-87750000D01*
X52452380Y-87797619D01*
X52404761Y-87821428D01*
X52214285Y-87821428D01*
X52166666Y-87797619D01*
X52142857Y-87750000D01*
X52142857Y-87654761D01*
X52166666Y-87607142D01*
X52214285Y-87583333D01*
X52261904Y-87583333D01*
X52309523Y-87821428D01*
X47583333Y-90011904D02*
X47583333Y-89773809D01*
X47726190Y-90059523D02*
X47226190Y-89892857D01*
X47726190Y-89726190D01*
X47392857Y-89559523D02*
X47726190Y-89559523D01*
X47440476Y-89559523D02*
X47416666Y-89535714D01*
X47392857Y-89488095D01*
X47392857Y-89416666D01*
X47416666Y-89369047D01*
X47464285Y-89345238D01*
X47726190Y-89345238D01*
X47726190Y-89035714D02*
X47702380Y-89083333D01*
X47678571Y-89107142D01*
X47630952Y-89130952D01*
X47488095Y-89130952D01*
X47440476Y-89107142D01*
X47416666Y-89083333D01*
X47392857Y-89035714D01*
X47392857Y-88964285D01*
X47416666Y-88916666D01*
X47440476Y-88892857D01*
X47488095Y-88869047D01*
X47630952Y-88869047D01*
X47678571Y-88892857D01*
X47702380Y-88916666D01*
X47726190Y-88964285D01*
X47726190Y-89035714D01*
X47726190Y-88440476D02*
X47226190Y-88440476D01*
X47702380Y-88440476D02*
X47726190Y-88488095D01*
X47726190Y-88583333D01*
X47702380Y-88630952D01*
X47678571Y-88654761D01*
X47630952Y-88678571D01*
X47488095Y-88678571D01*
X47440476Y-88654761D01*
X47416666Y-88630952D01*
X47392857Y-88583333D01*
X47392857Y-88488095D01*
X47416666Y-88440476D01*
X47702380Y-88011904D02*
X47726190Y-88059523D01*
X47726190Y-88154761D01*
X47702380Y-88202380D01*
X47654761Y-88226190D01*
X47464285Y-88226190D01*
X47416666Y-88202380D01*
X47392857Y-88154761D01*
X47392857Y-88059523D01*
X47416666Y-88011904D01*
X47464285Y-87988095D01*
X47511904Y-87988095D01*
X47559523Y-88226190D01*
%TO.C,D6*%
D11*
X240702380Y-85118095D02*
X239702380Y-85118095D01*
X239702380Y-84880000D01*
X239750000Y-84737142D01*
X239845238Y-84641904D01*
X239940476Y-84594285D01*
X240130952Y-84546666D01*
X240273809Y-84546666D01*
X240464285Y-84594285D01*
X240559523Y-84641904D01*
X240654761Y-84737142D01*
X240702380Y-84880000D01*
X240702380Y-85118095D01*
X239702380Y-83689523D02*
X239702380Y-83880000D01*
X239750000Y-83975238D01*
X239797619Y-84022857D01*
X239940476Y-84118095D01*
X240130952Y-84165714D01*
X240511904Y-84165714D01*
X240607142Y-84118095D01*
X240654761Y-84070476D01*
X240702380Y-83975238D01*
X240702380Y-83784761D01*
X240654761Y-83689523D01*
X240607142Y-83641904D01*
X240511904Y-83594285D01*
X240273809Y-83594285D01*
X240178571Y-83641904D01*
X240130952Y-83689523D01*
X240083333Y-83784761D01*
X240083333Y-83975238D01*
X240130952Y-84070476D01*
X240178571Y-84118095D01*
X240273809Y-84165714D01*
D12*
X246928571Y-85607142D02*
X246952380Y-85630952D01*
X246976190Y-85702380D01*
X246976190Y-85750000D01*
X246952380Y-85821428D01*
X246904761Y-85869047D01*
X246857142Y-85892857D01*
X246761904Y-85916666D01*
X246690476Y-85916666D01*
X246595238Y-85892857D01*
X246547619Y-85869047D01*
X246500000Y-85821428D01*
X246476190Y-85750000D01*
X246476190Y-85702380D01*
X246500000Y-85630952D01*
X246523809Y-85607142D01*
X246976190Y-85178571D02*
X246714285Y-85178571D01*
X246666666Y-85202380D01*
X246642857Y-85250000D01*
X246642857Y-85345238D01*
X246666666Y-85392857D01*
X246952380Y-85178571D02*
X246976190Y-85226190D01*
X246976190Y-85345238D01*
X246952380Y-85392857D01*
X246904761Y-85416666D01*
X246857142Y-85416666D01*
X246809523Y-85392857D01*
X246785714Y-85345238D01*
X246785714Y-85226190D01*
X246761904Y-85178571D01*
X246642857Y-85011904D02*
X246642857Y-84821428D01*
X246476190Y-84940476D02*
X246904761Y-84940476D01*
X246952380Y-84916666D01*
X246976190Y-84869047D01*
X246976190Y-84821428D01*
X246976190Y-84654761D02*
X246476190Y-84654761D01*
X246976190Y-84440476D02*
X246714285Y-84440476D01*
X246666666Y-84464285D01*
X246642857Y-84511904D01*
X246642857Y-84583333D01*
X246666666Y-84630952D01*
X246690476Y-84654761D01*
X246976190Y-84130952D02*
X246952380Y-84178571D01*
X246928571Y-84202380D01*
X246880952Y-84226190D01*
X246738095Y-84226190D01*
X246690476Y-84202380D01*
X246666666Y-84178571D01*
X246642857Y-84130952D01*
X246642857Y-84059523D01*
X246666666Y-84011904D01*
X246690476Y-83988095D01*
X246738095Y-83964285D01*
X246880952Y-83964285D01*
X246928571Y-83988095D01*
X246952380Y-84011904D01*
X246976190Y-84059523D01*
X246976190Y-84130952D01*
X246976190Y-83535714D02*
X246476190Y-83535714D01*
X246952380Y-83535714D02*
X246976190Y-83583333D01*
X246976190Y-83678571D01*
X246952380Y-83726190D01*
X246928571Y-83750000D01*
X246880952Y-83773809D01*
X246738095Y-83773809D01*
X246690476Y-83750000D01*
X246666666Y-83726190D01*
X246642857Y-83678571D01*
X246642857Y-83583333D01*
X246666666Y-83535714D01*
X246952380Y-83107142D02*
X246976190Y-83154761D01*
X246976190Y-83250000D01*
X246952380Y-83297619D01*
X246904761Y-83321428D01*
X246714285Y-83321428D01*
X246666666Y-83297619D01*
X246642857Y-83250000D01*
X246642857Y-83154761D01*
X246666666Y-83107142D01*
X246714285Y-83083333D01*
X246761904Y-83083333D01*
X246809523Y-83321428D01*
X242083333Y-85511904D02*
X242083333Y-85273809D01*
X242226190Y-85559523D02*
X241726190Y-85392857D01*
X242226190Y-85226190D01*
X241892857Y-85059523D02*
X242226190Y-85059523D01*
X241940476Y-85059523D02*
X241916666Y-85035714D01*
X241892857Y-84988095D01*
X241892857Y-84916666D01*
X241916666Y-84869047D01*
X241964285Y-84845238D01*
X242226190Y-84845238D01*
X242226190Y-84535714D02*
X242202380Y-84583333D01*
X242178571Y-84607142D01*
X242130952Y-84630952D01*
X241988095Y-84630952D01*
X241940476Y-84607142D01*
X241916666Y-84583333D01*
X241892857Y-84535714D01*
X241892857Y-84464285D01*
X241916666Y-84416666D01*
X241940476Y-84392857D01*
X241988095Y-84369047D01*
X242130952Y-84369047D01*
X242178571Y-84392857D01*
X242202380Y-84416666D01*
X242226190Y-84464285D01*
X242226190Y-84535714D01*
X242226190Y-83940476D02*
X241726190Y-83940476D01*
X242202380Y-83940476D02*
X242226190Y-83988095D01*
X242226190Y-84083333D01*
X242202380Y-84130952D01*
X242178571Y-84154761D01*
X242130952Y-84178571D01*
X241988095Y-84178571D01*
X241940476Y-84154761D01*
X241916666Y-84130952D01*
X241892857Y-84083333D01*
X241892857Y-83988095D01*
X241916666Y-83940476D01*
X242202380Y-83511904D02*
X242226190Y-83559523D01*
X242226190Y-83654761D01*
X242202380Y-83702380D01*
X242154761Y-83726190D01*
X241964285Y-83726190D01*
X241916666Y-83702380D01*
X241892857Y-83654761D01*
X241892857Y-83559523D01*
X241916666Y-83511904D01*
X241964285Y-83488095D01*
X242011904Y-83488095D01*
X242059523Y-83726190D01*
%TO.C,D5*%
D11*
X202202380Y-85118095D02*
X201202380Y-85118095D01*
X201202380Y-84880000D01*
X201250000Y-84737142D01*
X201345238Y-84641904D01*
X201440476Y-84594285D01*
X201630952Y-84546666D01*
X201773809Y-84546666D01*
X201964285Y-84594285D01*
X202059523Y-84641904D01*
X202154761Y-84737142D01*
X202202380Y-84880000D01*
X202202380Y-85118095D01*
X201202380Y-83641904D02*
X201202380Y-84118095D01*
X201678571Y-84165714D01*
X201630952Y-84118095D01*
X201583333Y-84022857D01*
X201583333Y-83784761D01*
X201630952Y-83689523D01*
X201678571Y-83641904D01*
X201773809Y-83594285D01*
X202011904Y-83594285D01*
X202107142Y-83641904D01*
X202154761Y-83689523D01*
X202202380Y-83784761D01*
X202202380Y-84022857D01*
X202154761Y-84118095D01*
X202107142Y-84165714D01*
D12*
X208428571Y-85607142D02*
X208452380Y-85630952D01*
X208476190Y-85702380D01*
X208476190Y-85750000D01*
X208452380Y-85821428D01*
X208404761Y-85869047D01*
X208357142Y-85892857D01*
X208261904Y-85916666D01*
X208190476Y-85916666D01*
X208095238Y-85892857D01*
X208047619Y-85869047D01*
X208000000Y-85821428D01*
X207976190Y-85750000D01*
X207976190Y-85702380D01*
X208000000Y-85630952D01*
X208023809Y-85607142D01*
X208476190Y-85178571D02*
X208214285Y-85178571D01*
X208166666Y-85202380D01*
X208142857Y-85250000D01*
X208142857Y-85345238D01*
X208166666Y-85392857D01*
X208452380Y-85178571D02*
X208476190Y-85226190D01*
X208476190Y-85345238D01*
X208452380Y-85392857D01*
X208404761Y-85416666D01*
X208357142Y-85416666D01*
X208309523Y-85392857D01*
X208285714Y-85345238D01*
X208285714Y-85226190D01*
X208261904Y-85178571D01*
X208142857Y-85011904D02*
X208142857Y-84821428D01*
X207976190Y-84940476D02*
X208404761Y-84940476D01*
X208452380Y-84916666D01*
X208476190Y-84869047D01*
X208476190Y-84821428D01*
X208476190Y-84654761D02*
X207976190Y-84654761D01*
X208476190Y-84440476D02*
X208214285Y-84440476D01*
X208166666Y-84464285D01*
X208142857Y-84511904D01*
X208142857Y-84583333D01*
X208166666Y-84630952D01*
X208190476Y-84654761D01*
X208476190Y-84130952D02*
X208452380Y-84178571D01*
X208428571Y-84202380D01*
X208380952Y-84226190D01*
X208238095Y-84226190D01*
X208190476Y-84202380D01*
X208166666Y-84178571D01*
X208142857Y-84130952D01*
X208142857Y-84059523D01*
X208166666Y-84011904D01*
X208190476Y-83988095D01*
X208238095Y-83964285D01*
X208380952Y-83964285D01*
X208428571Y-83988095D01*
X208452380Y-84011904D01*
X208476190Y-84059523D01*
X208476190Y-84130952D01*
X208476190Y-83535714D02*
X207976190Y-83535714D01*
X208452380Y-83535714D02*
X208476190Y-83583333D01*
X208476190Y-83678571D01*
X208452380Y-83726190D01*
X208428571Y-83750000D01*
X208380952Y-83773809D01*
X208238095Y-83773809D01*
X208190476Y-83750000D01*
X208166666Y-83726190D01*
X208142857Y-83678571D01*
X208142857Y-83583333D01*
X208166666Y-83535714D01*
X208452380Y-83107142D02*
X208476190Y-83154761D01*
X208476190Y-83250000D01*
X208452380Y-83297619D01*
X208404761Y-83321428D01*
X208214285Y-83321428D01*
X208166666Y-83297619D01*
X208142857Y-83250000D01*
X208142857Y-83154761D01*
X208166666Y-83107142D01*
X208214285Y-83083333D01*
X208261904Y-83083333D01*
X208309523Y-83321428D01*
X203583333Y-85511904D02*
X203583333Y-85273809D01*
X203726190Y-85559523D02*
X203226190Y-85392857D01*
X203726190Y-85226190D01*
X203392857Y-85059523D02*
X203726190Y-85059523D01*
X203440476Y-85059523D02*
X203416666Y-85035714D01*
X203392857Y-84988095D01*
X203392857Y-84916666D01*
X203416666Y-84869047D01*
X203464285Y-84845238D01*
X203726190Y-84845238D01*
X203726190Y-84535714D02*
X203702380Y-84583333D01*
X203678571Y-84607142D01*
X203630952Y-84630952D01*
X203488095Y-84630952D01*
X203440476Y-84607142D01*
X203416666Y-84583333D01*
X203392857Y-84535714D01*
X203392857Y-84464285D01*
X203416666Y-84416666D01*
X203440476Y-84392857D01*
X203488095Y-84369047D01*
X203630952Y-84369047D01*
X203678571Y-84392857D01*
X203702380Y-84416666D01*
X203726190Y-84464285D01*
X203726190Y-84535714D01*
X203726190Y-83940476D02*
X203226190Y-83940476D01*
X203702380Y-83940476D02*
X203726190Y-83988095D01*
X203726190Y-84083333D01*
X203702380Y-84130952D01*
X203678571Y-84154761D01*
X203630952Y-84178571D01*
X203488095Y-84178571D01*
X203440476Y-84154761D01*
X203416666Y-84130952D01*
X203392857Y-84083333D01*
X203392857Y-83988095D01*
X203416666Y-83940476D01*
X203702380Y-83511904D02*
X203726190Y-83559523D01*
X203726190Y-83654761D01*
X203702380Y-83702380D01*
X203654761Y-83726190D01*
X203464285Y-83726190D01*
X203416666Y-83702380D01*
X203392857Y-83654761D01*
X203392857Y-83559523D01*
X203416666Y-83511904D01*
X203464285Y-83488095D01*
X203511904Y-83488095D01*
X203559523Y-83726190D01*
%TO.C,D4*%
D11*
X163202380Y-85118095D02*
X162202380Y-85118095D01*
X162202380Y-84880000D01*
X162250000Y-84737142D01*
X162345238Y-84641904D01*
X162440476Y-84594285D01*
X162630952Y-84546666D01*
X162773809Y-84546666D01*
X162964285Y-84594285D01*
X163059523Y-84641904D01*
X163154761Y-84737142D01*
X163202380Y-84880000D01*
X163202380Y-85118095D01*
X162535714Y-83689523D02*
X163202380Y-83689523D01*
X162154761Y-83927619D02*
X162869047Y-84165714D01*
X162869047Y-83546666D01*
D12*
X169428571Y-85607142D02*
X169452380Y-85630952D01*
X169476190Y-85702380D01*
X169476190Y-85750000D01*
X169452380Y-85821428D01*
X169404761Y-85869047D01*
X169357142Y-85892857D01*
X169261904Y-85916666D01*
X169190476Y-85916666D01*
X169095238Y-85892857D01*
X169047619Y-85869047D01*
X169000000Y-85821428D01*
X168976190Y-85750000D01*
X168976190Y-85702380D01*
X169000000Y-85630952D01*
X169023809Y-85607142D01*
X169476190Y-85178571D02*
X169214285Y-85178571D01*
X169166666Y-85202380D01*
X169142857Y-85250000D01*
X169142857Y-85345238D01*
X169166666Y-85392857D01*
X169452380Y-85178571D02*
X169476190Y-85226190D01*
X169476190Y-85345238D01*
X169452380Y-85392857D01*
X169404761Y-85416666D01*
X169357142Y-85416666D01*
X169309523Y-85392857D01*
X169285714Y-85345238D01*
X169285714Y-85226190D01*
X169261904Y-85178571D01*
X169142857Y-85011904D02*
X169142857Y-84821428D01*
X168976190Y-84940476D02*
X169404761Y-84940476D01*
X169452380Y-84916666D01*
X169476190Y-84869047D01*
X169476190Y-84821428D01*
X169476190Y-84654761D02*
X168976190Y-84654761D01*
X169476190Y-84440476D02*
X169214285Y-84440476D01*
X169166666Y-84464285D01*
X169142857Y-84511904D01*
X169142857Y-84583333D01*
X169166666Y-84630952D01*
X169190476Y-84654761D01*
X169476190Y-84130952D02*
X169452380Y-84178571D01*
X169428571Y-84202380D01*
X169380952Y-84226190D01*
X169238095Y-84226190D01*
X169190476Y-84202380D01*
X169166666Y-84178571D01*
X169142857Y-84130952D01*
X169142857Y-84059523D01*
X169166666Y-84011904D01*
X169190476Y-83988095D01*
X169238095Y-83964285D01*
X169380952Y-83964285D01*
X169428571Y-83988095D01*
X169452380Y-84011904D01*
X169476190Y-84059523D01*
X169476190Y-84130952D01*
X169476190Y-83535714D02*
X168976190Y-83535714D01*
X169452380Y-83535714D02*
X169476190Y-83583333D01*
X169476190Y-83678571D01*
X169452380Y-83726190D01*
X169428571Y-83750000D01*
X169380952Y-83773809D01*
X169238095Y-83773809D01*
X169190476Y-83750000D01*
X169166666Y-83726190D01*
X169142857Y-83678571D01*
X169142857Y-83583333D01*
X169166666Y-83535714D01*
X169452380Y-83107142D02*
X169476190Y-83154761D01*
X169476190Y-83250000D01*
X169452380Y-83297619D01*
X169404761Y-83321428D01*
X169214285Y-83321428D01*
X169166666Y-83297619D01*
X169142857Y-83250000D01*
X169142857Y-83154761D01*
X169166666Y-83107142D01*
X169214285Y-83083333D01*
X169261904Y-83083333D01*
X169309523Y-83321428D01*
X164583333Y-85511904D02*
X164583333Y-85273809D01*
X164726190Y-85559523D02*
X164226190Y-85392857D01*
X164726190Y-85226190D01*
X164392857Y-85059523D02*
X164726190Y-85059523D01*
X164440476Y-85059523D02*
X164416666Y-85035714D01*
X164392857Y-84988095D01*
X164392857Y-84916666D01*
X164416666Y-84869047D01*
X164464285Y-84845238D01*
X164726190Y-84845238D01*
X164726190Y-84535714D02*
X164702380Y-84583333D01*
X164678571Y-84607142D01*
X164630952Y-84630952D01*
X164488095Y-84630952D01*
X164440476Y-84607142D01*
X164416666Y-84583333D01*
X164392857Y-84535714D01*
X164392857Y-84464285D01*
X164416666Y-84416666D01*
X164440476Y-84392857D01*
X164488095Y-84369047D01*
X164630952Y-84369047D01*
X164678571Y-84392857D01*
X164702380Y-84416666D01*
X164726190Y-84464285D01*
X164726190Y-84535714D01*
X164726190Y-83940476D02*
X164226190Y-83940476D01*
X164702380Y-83940476D02*
X164726190Y-83988095D01*
X164726190Y-84083333D01*
X164702380Y-84130952D01*
X164678571Y-84154761D01*
X164630952Y-84178571D01*
X164488095Y-84178571D01*
X164440476Y-84154761D01*
X164416666Y-84130952D01*
X164392857Y-84083333D01*
X164392857Y-83988095D01*
X164416666Y-83940476D01*
X164702380Y-83511904D02*
X164726190Y-83559523D01*
X164726190Y-83654761D01*
X164702380Y-83702380D01*
X164654761Y-83726190D01*
X164464285Y-83726190D01*
X164416666Y-83702380D01*
X164392857Y-83654761D01*
X164392857Y-83559523D01*
X164416666Y-83511904D01*
X164464285Y-83488095D01*
X164511904Y-83488095D01*
X164559523Y-83726190D01*
%TO.C,D3*%
D11*
X124202380Y-85118095D02*
X123202380Y-85118095D01*
X123202380Y-84880000D01*
X123250000Y-84737142D01*
X123345238Y-84641904D01*
X123440476Y-84594285D01*
X123630952Y-84546666D01*
X123773809Y-84546666D01*
X123964285Y-84594285D01*
X124059523Y-84641904D01*
X124154761Y-84737142D01*
X124202380Y-84880000D01*
X124202380Y-85118095D01*
X123202380Y-84213333D02*
X123202380Y-83594285D01*
X123583333Y-83927619D01*
X123583333Y-83784761D01*
X123630952Y-83689523D01*
X123678571Y-83641904D01*
X123773809Y-83594285D01*
X124011904Y-83594285D01*
X124107142Y-83641904D01*
X124154761Y-83689523D01*
X124202380Y-83784761D01*
X124202380Y-84070476D01*
X124154761Y-84165714D01*
X124107142Y-84213333D01*
D12*
X130428571Y-85607142D02*
X130452380Y-85630952D01*
X130476190Y-85702380D01*
X130476190Y-85750000D01*
X130452380Y-85821428D01*
X130404761Y-85869047D01*
X130357142Y-85892857D01*
X130261904Y-85916666D01*
X130190476Y-85916666D01*
X130095238Y-85892857D01*
X130047619Y-85869047D01*
X130000000Y-85821428D01*
X129976190Y-85750000D01*
X129976190Y-85702380D01*
X130000000Y-85630952D01*
X130023809Y-85607142D01*
X130476190Y-85178571D02*
X130214285Y-85178571D01*
X130166666Y-85202380D01*
X130142857Y-85250000D01*
X130142857Y-85345238D01*
X130166666Y-85392857D01*
X130452380Y-85178571D02*
X130476190Y-85226190D01*
X130476190Y-85345238D01*
X130452380Y-85392857D01*
X130404761Y-85416666D01*
X130357142Y-85416666D01*
X130309523Y-85392857D01*
X130285714Y-85345238D01*
X130285714Y-85226190D01*
X130261904Y-85178571D01*
X130142857Y-85011904D02*
X130142857Y-84821428D01*
X129976190Y-84940476D02*
X130404761Y-84940476D01*
X130452380Y-84916666D01*
X130476190Y-84869047D01*
X130476190Y-84821428D01*
X130476190Y-84654761D02*
X129976190Y-84654761D01*
X130476190Y-84440476D02*
X130214285Y-84440476D01*
X130166666Y-84464285D01*
X130142857Y-84511904D01*
X130142857Y-84583333D01*
X130166666Y-84630952D01*
X130190476Y-84654761D01*
X130476190Y-84130952D02*
X130452380Y-84178571D01*
X130428571Y-84202380D01*
X130380952Y-84226190D01*
X130238095Y-84226190D01*
X130190476Y-84202380D01*
X130166666Y-84178571D01*
X130142857Y-84130952D01*
X130142857Y-84059523D01*
X130166666Y-84011904D01*
X130190476Y-83988095D01*
X130238095Y-83964285D01*
X130380952Y-83964285D01*
X130428571Y-83988095D01*
X130452380Y-84011904D01*
X130476190Y-84059523D01*
X130476190Y-84130952D01*
X130476190Y-83535714D02*
X129976190Y-83535714D01*
X130452380Y-83535714D02*
X130476190Y-83583333D01*
X130476190Y-83678571D01*
X130452380Y-83726190D01*
X130428571Y-83750000D01*
X130380952Y-83773809D01*
X130238095Y-83773809D01*
X130190476Y-83750000D01*
X130166666Y-83726190D01*
X130142857Y-83678571D01*
X130142857Y-83583333D01*
X130166666Y-83535714D01*
X130452380Y-83107142D02*
X130476190Y-83154761D01*
X130476190Y-83250000D01*
X130452380Y-83297619D01*
X130404761Y-83321428D01*
X130214285Y-83321428D01*
X130166666Y-83297619D01*
X130142857Y-83250000D01*
X130142857Y-83154761D01*
X130166666Y-83107142D01*
X130214285Y-83083333D01*
X130261904Y-83083333D01*
X130309523Y-83321428D01*
X125583333Y-85511904D02*
X125583333Y-85273809D01*
X125726190Y-85559523D02*
X125226190Y-85392857D01*
X125726190Y-85226190D01*
X125392857Y-85059523D02*
X125726190Y-85059523D01*
X125440476Y-85059523D02*
X125416666Y-85035714D01*
X125392857Y-84988095D01*
X125392857Y-84916666D01*
X125416666Y-84869047D01*
X125464285Y-84845238D01*
X125726190Y-84845238D01*
X125726190Y-84535714D02*
X125702380Y-84583333D01*
X125678571Y-84607142D01*
X125630952Y-84630952D01*
X125488095Y-84630952D01*
X125440476Y-84607142D01*
X125416666Y-84583333D01*
X125392857Y-84535714D01*
X125392857Y-84464285D01*
X125416666Y-84416666D01*
X125440476Y-84392857D01*
X125488095Y-84369047D01*
X125630952Y-84369047D01*
X125678571Y-84392857D01*
X125702380Y-84416666D01*
X125726190Y-84464285D01*
X125726190Y-84535714D01*
X125726190Y-83940476D02*
X125226190Y-83940476D01*
X125702380Y-83940476D02*
X125726190Y-83988095D01*
X125726190Y-84083333D01*
X125702380Y-84130952D01*
X125678571Y-84154761D01*
X125630952Y-84178571D01*
X125488095Y-84178571D01*
X125440476Y-84154761D01*
X125416666Y-84130952D01*
X125392857Y-84083333D01*
X125392857Y-83988095D01*
X125416666Y-83940476D01*
X125702380Y-83511904D02*
X125726190Y-83559523D01*
X125726190Y-83654761D01*
X125702380Y-83702380D01*
X125654761Y-83726190D01*
X125464285Y-83726190D01*
X125416666Y-83702380D01*
X125392857Y-83654761D01*
X125392857Y-83559523D01*
X125416666Y-83511904D01*
X125464285Y-83488095D01*
X125511904Y-83488095D01*
X125559523Y-83726190D01*
%TO.C,D2*%
D11*
X85202380Y-85118095D02*
X84202380Y-85118095D01*
X84202380Y-84880000D01*
X84250000Y-84737142D01*
X84345238Y-84641904D01*
X84440476Y-84594285D01*
X84630952Y-84546666D01*
X84773809Y-84546666D01*
X84964285Y-84594285D01*
X85059523Y-84641904D01*
X85154761Y-84737142D01*
X85202380Y-84880000D01*
X85202380Y-85118095D01*
X84297619Y-84165714D02*
X84250000Y-84118095D01*
X84202380Y-84022857D01*
X84202380Y-83784761D01*
X84250000Y-83689523D01*
X84297619Y-83641904D01*
X84392857Y-83594285D01*
X84488095Y-83594285D01*
X84630952Y-83641904D01*
X85202380Y-84213333D01*
X85202380Y-83594285D01*
D12*
X91428571Y-85607142D02*
X91452380Y-85630952D01*
X91476190Y-85702380D01*
X91476190Y-85750000D01*
X91452380Y-85821428D01*
X91404761Y-85869047D01*
X91357142Y-85892857D01*
X91261904Y-85916666D01*
X91190476Y-85916666D01*
X91095238Y-85892857D01*
X91047619Y-85869047D01*
X91000000Y-85821428D01*
X90976190Y-85750000D01*
X90976190Y-85702380D01*
X91000000Y-85630952D01*
X91023809Y-85607142D01*
X91476190Y-85178571D02*
X91214285Y-85178571D01*
X91166666Y-85202380D01*
X91142857Y-85250000D01*
X91142857Y-85345238D01*
X91166666Y-85392857D01*
X91452380Y-85178571D02*
X91476190Y-85226190D01*
X91476190Y-85345238D01*
X91452380Y-85392857D01*
X91404761Y-85416666D01*
X91357142Y-85416666D01*
X91309523Y-85392857D01*
X91285714Y-85345238D01*
X91285714Y-85226190D01*
X91261904Y-85178571D01*
X91142857Y-85011904D02*
X91142857Y-84821428D01*
X90976190Y-84940476D02*
X91404761Y-84940476D01*
X91452380Y-84916666D01*
X91476190Y-84869047D01*
X91476190Y-84821428D01*
X91476190Y-84654761D02*
X90976190Y-84654761D01*
X91476190Y-84440476D02*
X91214285Y-84440476D01*
X91166666Y-84464285D01*
X91142857Y-84511904D01*
X91142857Y-84583333D01*
X91166666Y-84630952D01*
X91190476Y-84654761D01*
X91476190Y-84130952D02*
X91452380Y-84178571D01*
X91428571Y-84202380D01*
X91380952Y-84226190D01*
X91238095Y-84226190D01*
X91190476Y-84202380D01*
X91166666Y-84178571D01*
X91142857Y-84130952D01*
X91142857Y-84059523D01*
X91166666Y-84011904D01*
X91190476Y-83988095D01*
X91238095Y-83964285D01*
X91380952Y-83964285D01*
X91428571Y-83988095D01*
X91452380Y-84011904D01*
X91476190Y-84059523D01*
X91476190Y-84130952D01*
X91476190Y-83535714D02*
X90976190Y-83535714D01*
X91452380Y-83535714D02*
X91476190Y-83583333D01*
X91476190Y-83678571D01*
X91452380Y-83726190D01*
X91428571Y-83750000D01*
X91380952Y-83773809D01*
X91238095Y-83773809D01*
X91190476Y-83750000D01*
X91166666Y-83726190D01*
X91142857Y-83678571D01*
X91142857Y-83583333D01*
X91166666Y-83535714D01*
X91452380Y-83107142D02*
X91476190Y-83154761D01*
X91476190Y-83250000D01*
X91452380Y-83297619D01*
X91404761Y-83321428D01*
X91214285Y-83321428D01*
X91166666Y-83297619D01*
X91142857Y-83250000D01*
X91142857Y-83154761D01*
X91166666Y-83107142D01*
X91214285Y-83083333D01*
X91261904Y-83083333D01*
X91309523Y-83321428D01*
X86583333Y-85511904D02*
X86583333Y-85273809D01*
X86726190Y-85559523D02*
X86226190Y-85392857D01*
X86726190Y-85226190D01*
X86392857Y-85059523D02*
X86726190Y-85059523D01*
X86440476Y-85059523D02*
X86416666Y-85035714D01*
X86392857Y-84988095D01*
X86392857Y-84916666D01*
X86416666Y-84869047D01*
X86464285Y-84845238D01*
X86726190Y-84845238D01*
X86726190Y-84535714D02*
X86702380Y-84583333D01*
X86678571Y-84607142D01*
X86630952Y-84630952D01*
X86488095Y-84630952D01*
X86440476Y-84607142D01*
X86416666Y-84583333D01*
X86392857Y-84535714D01*
X86392857Y-84464285D01*
X86416666Y-84416666D01*
X86440476Y-84392857D01*
X86488095Y-84369047D01*
X86630952Y-84369047D01*
X86678571Y-84392857D01*
X86702380Y-84416666D01*
X86726190Y-84464285D01*
X86726190Y-84535714D01*
X86726190Y-83940476D02*
X86226190Y-83940476D01*
X86702380Y-83940476D02*
X86726190Y-83988095D01*
X86726190Y-84083333D01*
X86702380Y-84130952D01*
X86678571Y-84154761D01*
X86630952Y-84178571D01*
X86488095Y-84178571D01*
X86440476Y-84154761D01*
X86416666Y-84130952D01*
X86392857Y-84083333D01*
X86392857Y-83988095D01*
X86416666Y-83940476D01*
X86702380Y-83511904D02*
X86726190Y-83559523D01*
X86726190Y-83654761D01*
X86702380Y-83702380D01*
X86654761Y-83726190D01*
X86464285Y-83726190D01*
X86416666Y-83702380D01*
X86392857Y-83654761D01*
X86392857Y-83559523D01*
X86416666Y-83511904D01*
X86464285Y-83488095D01*
X86511904Y-83488095D01*
X86559523Y-83726190D01*
%TO.C,D1*%
D11*
X46202380Y-85118095D02*
X45202380Y-85118095D01*
X45202380Y-84880000D01*
X45250000Y-84737142D01*
X45345238Y-84641904D01*
X45440476Y-84594285D01*
X45630952Y-84546666D01*
X45773809Y-84546666D01*
X45964285Y-84594285D01*
X46059523Y-84641904D01*
X46154761Y-84737142D01*
X46202380Y-84880000D01*
X46202380Y-85118095D01*
X46202380Y-83594285D02*
X46202380Y-84165714D01*
X46202380Y-83880000D02*
X45202380Y-83880000D01*
X45345238Y-83975238D01*
X45440476Y-84070476D01*
X45488095Y-84165714D01*
D12*
X52428571Y-85607142D02*
X52452380Y-85630952D01*
X52476190Y-85702380D01*
X52476190Y-85750000D01*
X52452380Y-85821428D01*
X52404761Y-85869047D01*
X52357142Y-85892857D01*
X52261904Y-85916666D01*
X52190476Y-85916666D01*
X52095238Y-85892857D01*
X52047619Y-85869047D01*
X52000000Y-85821428D01*
X51976190Y-85750000D01*
X51976190Y-85702380D01*
X52000000Y-85630952D01*
X52023809Y-85607142D01*
X52476190Y-85178571D02*
X52214285Y-85178571D01*
X52166666Y-85202380D01*
X52142857Y-85250000D01*
X52142857Y-85345238D01*
X52166666Y-85392857D01*
X52452380Y-85178571D02*
X52476190Y-85226190D01*
X52476190Y-85345238D01*
X52452380Y-85392857D01*
X52404761Y-85416666D01*
X52357142Y-85416666D01*
X52309523Y-85392857D01*
X52285714Y-85345238D01*
X52285714Y-85226190D01*
X52261904Y-85178571D01*
X52142857Y-85011904D02*
X52142857Y-84821428D01*
X51976190Y-84940476D02*
X52404761Y-84940476D01*
X52452380Y-84916666D01*
X52476190Y-84869047D01*
X52476190Y-84821428D01*
X52476190Y-84654761D02*
X51976190Y-84654761D01*
X52476190Y-84440476D02*
X52214285Y-84440476D01*
X52166666Y-84464285D01*
X52142857Y-84511904D01*
X52142857Y-84583333D01*
X52166666Y-84630952D01*
X52190476Y-84654761D01*
X52476190Y-84130952D02*
X52452380Y-84178571D01*
X52428571Y-84202380D01*
X52380952Y-84226190D01*
X52238095Y-84226190D01*
X52190476Y-84202380D01*
X52166666Y-84178571D01*
X52142857Y-84130952D01*
X52142857Y-84059523D01*
X52166666Y-84011904D01*
X52190476Y-83988095D01*
X52238095Y-83964285D01*
X52380952Y-83964285D01*
X52428571Y-83988095D01*
X52452380Y-84011904D01*
X52476190Y-84059523D01*
X52476190Y-84130952D01*
X52476190Y-83535714D02*
X51976190Y-83535714D01*
X52452380Y-83535714D02*
X52476190Y-83583333D01*
X52476190Y-83678571D01*
X52452380Y-83726190D01*
X52428571Y-83750000D01*
X52380952Y-83773809D01*
X52238095Y-83773809D01*
X52190476Y-83750000D01*
X52166666Y-83726190D01*
X52142857Y-83678571D01*
X52142857Y-83583333D01*
X52166666Y-83535714D01*
X52452380Y-83107142D02*
X52476190Y-83154761D01*
X52476190Y-83250000D01*
X52452380Y-83297619D01*
X52404761Y-83321428D01*
X52214285Y-83321428D01*
X52166666Y-83297619D01*
X52142857Y-83250000D01*
X52142857Y-83154761D01*
X52166666Y-83107142D01*
X52214285Y-83083333D01*
X52261904Y-83083333D01*
X52309523Y-83321428D01*
X47583333Y-85511904D02*
X47583333Y-85273809D01*
X47726190Y-85559523D02*
X47226190Y-85392857D01*
X47726190Y-85226190D01*
X47392857Y-85059523D02*
X47726190Y-85059523D01*
X47440476Y-85059523D02*
X47416666Y-85035714D01*
X47392857Y-84988095D01*
X47392857Y-84916666D01*
X47416666Y-84869047D01*
X47464285Y-84845238D01*
X47726190Y-84845238D01*
X47726190Y-84535714D02*
X47702380Y-84583333D01*
X47678571Y-84607142D01*
X47630952Y-84630952D01*
X47488095Y-84630952D01*
X47440476Y-84607142D01*
X47416666Y-84583333D01*
X47392857Y-84535714D01*
X47392857Y-84464285D01*
X47416666Y-84416666D01*
X47440476Y-84392857D01*
X47488095Y-84369047D01*
X47630952Y-84369047D01*
X47678571Y-84392857D01*
X47702380Y-84416666D01*
X47726190Y-84464285D01*
X47726190Y-84535714D01*
X47726190Y-83940476D02*
X47226190Y-83940476D01*
X47702380Y-83940476D02*
X47726190Y-83988095D01*
X47726190Y-84083333D01*
X47702380Y-84130952D01*
X47678571Y-84154761D01*
X47630952Y-84178571D01*
X47488095Y-84178571D01*
X47440476Y-84154761D01*
X47416666Y-84130952D01*
X47392857Y-84083333D01*
X47392857Y-83988095D01*
X47416666Y-83940476D01*
X47702380Y-83511904D02*
X47726190Y-83559523D01*
X47726190Y-83654761D01*
X47702380Y-83702380D01*
X47654761Y-83726190D01*
X47464285Y-83726190D01*
X47416666Y-83702380D01*
X47392857Y-83654761D01*
X47392857Y-83559523D01*
X47416666Y-83511904D01*
X47464285Y-83488095D01*
X47511904Y-83488095D01*
X47559523Y-83726190D01*
%TD*%
%LPC*%
D13*
%TO.C,A1*%
X84450000Y-80840000D03*
X81910000Y-80840000D03*
X79370000Y-80840000D03*
X76830000Y-80840000D03*
X74290000Y-80840000D03*
X71750000Y-80840000D03*
X69210000Y-80840000D03*
X66670000Y-80840000D03*
X64130000Y-80840000D03*
X61590000Y-80840000D03*
X59050000Y-80840000D03*
X56510000Y-80840000D03*
X51430000Y-80840000D03*
X46350000Y-80840000D03*
X84450000Y-101160000D03*
X81910000Y-101160000D03*
X79370000Y-101160000D03*
X76830000Y-101160000D03*
X74290000Y-101160000D03*
X71750000Y-101160000D03*
X69210000Y-101160000D03*
X66670000Y-101160000D03*
X64130000Y-101160000D03*
X61590000Y-101160000D03*
X59050000Y-101160000D03*
X56510000Y-101160000D03*
X48890000Y-80840000D03*
X53970000Y-80840000D03*
%TD*%
D14*
%TO.C,SW2*%
X190500000Y-91000000D03*
D15*
X190500000Y-86500000D03*
%TD*%
D16*
%TO.C,U7*%
X176000000Y-87380000D03*
X176000000Y-89920000D03*
X176000000Y-92460000D03*
D17*
X176000000Y-95000000D03*
%TD*%
%TO.C,R4*%
G36*
G01*
X251950000Y-98456250D02*
X251950000Y-97543750D01*
G75*
G02*
X252193750Y-97300000I243750J0D01*
G01*
X252681250Y-97300000D01*
G75*
G02*
X252925000Y-97543750I0J-243750D01*
G01*
X252925000Y-98456250D01*
G75*
G02*
X252681250Y-98700000I-243750J0D01*
G01*
X252193750Y-98700000D01*
G75*
G02*
X251950000Y-98456250I0J243750D01*
G01*
G37*
G36*
G01*
X250075000Y-98456250D02*
X250075000Y-97543750D01*
G75*
G02*
X250318750Y-97300000I243750J0D01*
G01*
X250806250Y-97300000D01*
G75*
G02*
X251050000Y-97543750I0J-243750D01*
G01*
X251050000Y-98456250D01*
G75*
G02*
X250806250Y-98700000I-243750J0D01*
G01*
X250318750Y-98700000D01*
G75*
G02*
X250075000Y-98456250I0J243750D01*
G01*
G37*
%TD*%
%TO.C,R3*%
G36*
G01*
X251950000Y-93956250D02*
X251950000Y-93043750D01*
G75*
G02*
X252193750Y-92800000I243750J0D01*
G01*
X252681250Y-92800000D01*
G75*
G02*
X252925000Y-93043750I0J-243750D01*
G01*
X252925000Y-93956250D01*
G75*
G02*
X252681250Y-94200000I-243750J0D01*
G01*
X252193750Y-94200000D01*
G75*
G02*
X251950000Y-93956250I0J243750D01*
G01*
G37*
G36*
G01*
X250075000Y-93956250D02*
X250075000Y-93043750D01*
G75*
G02*
X250318750Y-92800000I243750J0D01*
G01*
X250806250Y-92800000D01*
G75*
G02*
X251050000Y-93043750I0J-243750D01*
G01*
X251050000Y-93956250D01*
G75*
G02*
X250806250Y-94200000I-243750J0D01*
G01*
X250318750Y-94200000D01*
G75*
G02*
X250075000Y-93956250I0J243750D01*
G01*
G37*
%TD*%
%TO.C,R2*%
G36*
G01*
X251950000Y-89456250D02*
X251950000Y-88543750D01*
G75*
G02*
X252193750Y-88300000I243750J0D01*
G01*
X252681250Y-88300000D01*
G75*
G02*
X252925000Y-88543750I0J-243750D01*
G01*
X252925000Y-89456250D01*
G75*
G02*
X252681250Y-89700000I-243750J0D01*
G01*
X252193750Y-89700000D01*
G75*
G02*
X251950000Y-89456250I0J243750D01*
G01*
G37*
G36*
G01*
X250075000Y-89456250D02*
X250075000Y-88543750D01*
G75*
G02*
X250318750Y-88300000I243750J0D01*
G01*
X250806250Y-88300000D01*
G75*
G02*
X251050000Y-88543750I0J-243750D01*
G01*
X251050000Y-89456250D01*
G75*
G02*
X250806250Y-89700000I-243750J0D01*
G01*
X250318750Y-89700000D01*
G75*
G02*
X250075000Y-89456250I0J243750D01*
G01*
G37*
%TD*%
%TO.C,R1*%
G36*
G01*
X251950000Y-84956250D02*
X251950000Y-84043750D01*
G75*
G02*
X252193750Y-83800000I243750J0D01*
G01*
X252681250Y-83800000D01*
G75*
G02*
X252925000Y-84043750I0J-243750D01*
G01*
X252925000Y-84956250D01*
G75*
G02*
X252681250Y-85200000I-243750J0D01*
G01*
X252193750Y-85200000D01*
G75*
G02*
X251950000Y-84956250I0J243750D01*
G01*
G37*
G36*
G01*
X250075000Y-84956250D02*
X250075000Y-84043750D01*
G75*
G02*
X250318750Y-83800000I243750J0D01*
G01*
X250806250Y-83800000D01*
G75*
G02*
X251050000Y-84043750I0J-243750D01*
G01*
X251050000Y-84956250D01*
G75*
G02*
X250806250Y-85200000I-243750J0D01*
G01*
X250318750Y-85200000D01*
G75*
G02*
X250075000Y-84956250I0J243750D01*
G01*
G37*
%TD*%
D18*
%TO.C,D24*%
X245225000Y-98000000D03*
D19*
X243000000Y-98000000D03*
%TD*%
D18*
%TO.C,D23*%
X206725000Y-98000000D03*
D19*
X204500000Y-98000000D03*
%TD*%
D18*
%TO.C,D22*%
X167725000Y-98000000D03*
D19*
X165500000Y-98000000D03*
%TD*%
D18*
%TO.C,D21*%
X128725000Y-98000000D03*
D19*
X126500000Y-98000000D03*
%TD*%
D18*
%TO.C,D20*%
X89725000Y-98000000D03*
D19*
X87500000Y-98000000D03*
%TD*%
D18*
%TO.C,D19*%
X50725000Y-98000000D03*
D19*
X48500000Y-98000000D03*
%TD*%
D18*
%TO.C,D18*%
X245225000Y-93500000D03*
D19*
X243000000Y-93500000D03*
%TD*%
D18*
%TO.C,D17*%
X206725000Y-93500000D03*
D19*
X204500000Y-93500000D03*
%TD*%
D18*
%TO.C,D16*%
X167725000Y-93500000D03*
D19*
X165500000Y-93500000D03*
%TD*%
D18*
%TO.C,D15*%
X128725000Y-93500000D03*
D19*
X126500000Y-93500000D03*
%TD*%
D18*
%TO.C,D14*%
X89725000Y-93500000D03*
D19*
X87500000Y-93500000D03*
%TD*%
D18*
%TO.C,D13*%
X50725000Y-93500000D03*
D19*
X48500000Y-93500000D03*
%TD*%
D18*
%TO.C,D12*%
X245225000Y-89000000D03*
D19*
X243000000Y-89000000D03*
%TD*%
D18*
%TO.C,D11*%
X206725000Y-89000000D03*
D19*
X204500000Y-89000000D03*
%TD*%
D18*
%TO.C,D10*%
X167725000Y-89000000D03*
D19*
X165500000Y-89000000D03*
%TD*%
D18*
%TO.C,D9*%
X128725000Y-89000000D03*
D19*
X126500000Y-89000000D03*
%TD*%
D18*
%TO.C,D8*%
X89725000Y-89000000D03*
D19*
X87500000Y-89000000D03*
%TD*%
D18*
%TO.C,D7*%
X50725000Y-89000000D03*
D19*
X48500000Y-89000000D03*
%TD*%
D18*
%TO.C,D6*%
X245225000Y-84500000D03*
D19*
X243000000Y-84500000D03*
%TD*%
D18*
%TO.C,D5*%
X206725000Y-84500000D03*
D19*
X204500000Y-84500000D03*
%TD*%
D18*
%TO.C,D4*%
X167725000Y-84500000D03*
D19*
X165500000Y-84500000D03*
%TD*%
D18*
%TO.C,D3*%
X128725000Y-84500000D03*
D19*
X126500000Y-84500000D03*
%TD*%
D18*
%TO.C,D2*%
X89725000Y-84500000D03*
D19*
X87500000Y-84500000D03*
%TD*%
D18*
%TO.C,D1*%
X50725000Y-84500000D03*
D19*
X48500000Y-84500000D03*
%TD*%
M02*
