%TF.GenerationSoftware,KiCad,Pcbnew,(5.1.8)-1*%
%TF.CreationDate,2020-12-04T09:48:41+01:00*%
%TF.ProjectId,Horticulture,486f7274-6963-4756-9c74-7572652e6b69,rev?*%
%TF.SameCoordinates,Original*%
%TF.FileFunction,Paste,Bot*%
%TF.FilePolarity,Positive*%
%FSLAX46Y46*%
G04 Gerber Fmt 4.6, Leading zero omitted, Abs format (unit mm)*
G04 Created by KiCad (PCBNEW (5.1.8)-1) date 2020-12-04 09:48:41*
%MOMM*%
%LPD*%
G01*
G04 APERTURE LIST*
%ADD10R,0.600000X0.450000*%
%ADD11R,1.060000X0.650000*%
%ADD12R,4.500000X1.800000*%
%ADD13R,2.500000X3.200000*%
%ADD14R,4.000000X3.750000*%
%ADD15R,1.300000X2.400000*%
%ADD16R,5.250000X4.550000*%
%ADD17R,0.800000X4.600000*%
%ADD18R,2.400000X0.740000*%
G04 APERTURE END LIST*
%TO.C,R17*%
G36*
G01*
X185740000Y-96085000D02*
X185740000Y-95715000D01*
G75*
G02*
X185875000Y-95580000I135000J0D01*
G01*
X186145000Y-95580000D01*
G75*
G02*
X186280000Y-95715000I0J-135000D01*
G01*
X186280000Y-96085000D01*
G75*
G02*
X186145000Y-96220000I-135000J0D01*
G01*
X185875000Y-96220000D01*
G75*
G02*
X185740000Y-96085000I0J135000D01*
G01*
G37*
G36*
G01*
X184720000Y-96085000D02*
X184720000Y-95715000D01*
G75*
G02*
X184855000Y-95580000I135000J0D01*
G01*
X185125000Y-95580000D01*
G75*
G02*
X185260000Y-95715000I0J-135000D01*
G01*
X185260000Y-96085000D01*
G75*
G02*
X185125000Y-96220000I-135000J0D01*
G01*
X184855000Y-96220000D01*
G75*
G02*
X184720000Y-96085000I0J135000D01*
G01*
G37*
%TD*%
%TO.C,R16*%
G36*
G01*
X179460000Y-89615000D02*
X179460000Y-89985000D01*
G75*
G02*
X179325000Y-90120000I-135000J0D01*
G01*
X179055000Y-90120000D01*
G75*
G02*
X178920000Y-89985000I0J135000D01*
G01*
X178920000Y-89615000D01*
G75*
G02*
X179055000Y-89480000I135000J0D01*
G01*
X179325000Y-89480000D01*
G75*
G02*
X179460000Y-89615000I0J-135000D01*
G01*
G37*
G36*
G01*
X180480000Y-89615000D02*
X180480000Y-89985000D01*
G75*
G02*
X180345000Y-90120000I-135000J0D01*
G01*
X180075000Y-90120000D01*
G75*
G02*
X179940000Y-89985000I0J135000D01*
G01*
X179940000Y-89615000D01*
G75*
G02*
X180075000Y-89480000I135000J0D01*
G01*
X180345000Y-89480000D01*
G75*
G02*
X180480000Y-89615000I0J-135000D01*
G01*
G37*
%TD*%
%TO.C,R15*%
G36*
G01*
X179460000Y-88415000D02*
X179460000Y-88785000D01*
G75*
G02*
X179325000Y-88920000I-135000J0D01*
G01*
X179055000Y-88920000D01*
G75*
G02*
X178920000Y-88785000I0J135000D01*
G01*
X178920000Y-88415000D01*
G75*
G02*
X179055000Y-88280000I135000J0D01*
G01*
X179325000Y-88280000D01*
G75*
G02*
X179460000Y-88415000I0J-135000D01*
G01*
G37*
G36*
G01*
X180480000Y-88415000D02*
X180480000Y-88785000D01*
G75*
G02*
X180345000Y-88920000I-135000J0D01*
G01*
X180075000Y-88920000D01*
G75*
G02*
X179940000Y-88785000I0J135000D01*
G01*
X179940000Y-88415000D01*
G75*
G02*
X180075000Y-88280000I135000J0D01*
G01*
X180345000Y-88280000D01*
G75*
G02*
X180480000Y-88415000I0J-135000D01*
G01*
G37*
%TD*%
%TO.C,R14*%
G36*
G01*
X179460000Y-87215000D02*
X179460000Y-87585000D01*
G75*
G02*
X179325000Y-87720000I-135000J0D01*
G01*
X179055000Y-87720000D01*
G75*
G02*
X178920000Y-87585000I0J135000D01*
G01*
X178920000Y-87215000D01*
G75*
G02*
X179055000Y-87080000I135000J0D01*
G01*
X179325000Y-87080000D01*
G75*
G02*
X179460000Y-87215000I0J-135000D01*
G01*
G37*
G36*
G01*
X180480000Y-87215000D02*
X180480000Y-87585000D01*
G75*
G02*
X180345000Y-87720000I-135000J0D01*
G01*
X180075000Y-87720000D01*
G75*
G02*
X179940000Y-87585000I0J135000D01*
G01*
X179940000Y-87215000D01*
G75*
G02*
X180075000Y-87080000I135000J0D01*
G01*
X180345000Y-87080000D01*
G75*
G02*
X180480000Y-87215000I0J-135000D01*
G01*
G37*
%TD*%
%TO.C,R13*%
G36*
G01*
X176860000Y-82915000D02*
X176860000Y-83285000D01*
G75*
G02*
X176725000Y-83420000I-135000J0D01*
G01*
X176455000Y-83420000D01*
G75*
G02*
X176320000Y-83285000I0J135000D01*
G01*
X176320000Y-82915000D01*
G75*
G02*
X176455000Y-82780000I135000J0D01*
G01*
X176725000Y-82780000D01*
G75*
G02*
X176860000Y-82915000I0J-135000D01*
G01*
G37*
G36*
G01*
X177880000Y-82915000D02*
X177880000Y-83285000D01*
G75*
G02*
X177745000Y-83420000I-135000J0D01*
G01*
X177475000Y-83420000D01*
G75*
G02*
X177340000Y-83285000I0J135000D01*
G01*
X177340000Y-82915000D01*
G75*
G02*
X177475000Y-82780000I135000J0D01*
G01*
X177745000Y-82780000D01*
G75*
G02*
X177880000Y-82915000I0J-135000D01*
G01*
G37*
%TD*%
%TO.C,R12*%
G36*
G01*
X178360000Y-81315000D02*
X178360000Y-81685000D01*
G75*
G02*
X178225000Y-81820000I-135000J0D01*
G01*
X177955000Y-81820000D01*
G75*
G02*
X177820000Y-81685000I0J135000D01*
G01*
X177820000Y-81315000D01*
G75*
G02*
X177955000Y-81180000I135000J0D01*
G01*
X178225000Y-81180000D01*
G75*
G02*
X178360000Y-81315000I0J-135000D01*
G01*
G37*
G36*
G01*
X179380000Y-81315000D02*
X179380000Y-81685000D01*
G75*
G02*
X179245000Y-81820000I-135000J0D01*
G01*
X178975000Y-81820000D01*
G75*
G02*
X178840000Y-81685000I0J135000D01*
G01*
X178840000Y-81315000D01*
G75*
G02*
X178975000Y-81180000I135000J0D01*
G01*
X179245000Y-81180000D01*
G75*
G02*
X179380000Y-81315000I0J-135000D01*
G01*
G37*
%TD*%
%TO.C,R11*%
G36*
G01*
X64540000Y-84185000D02*
X64540000Y-83815000D01*
G75*
G02*
X64675000Y-83680000I135000J0D01*
G01*
X64945000Y-83680000D01*
G75*
G02*
X65080000Y-83815000I0J-135000D01*
G01*
X65080000Y-84185000D01*
G75*
G02*
X64945000Y-84320000I-135000J0D01*
G01*
X64675000Y-84320000D01*
G75*
G02*
X64540000Y-84185000I0J135000D01*
G01*
G37*
G36*
G01*
X63520000Y-84185000D02*
X63520000Y-83815000D01*
G75*
G02*
X63655000Y-83680000I135000J0D01*
G01*
X63925000Y-83680000D01*
G75*
G02*
X64060000Y-83815000I0J-135000D01*
G01*
X64060000Y-84185000D01*
G75*
G02*
X63925000Y-84320000I-135000J0D01*
G01*
X63655000Y-84320000D01*
G75*
G02*
X63520000Y-84185000I0J135000D01*
G01*
G37*
%TD*%
%TO.C,R10*%
G36*
G01*
X240740000Y-100085000D02*
X240740000Y-99715000D01*
G75*
G02*
X240875000Y-99580000I135000J0D01*
G01*
X241145000Y-99580000D01*
G75*
G02*
X241280000Y-99715000I0J-135000D01*
G01*
X241280000Y-100085000D01*
G75*
G02*
X241145000Y-100220000I-135000J0D01*
G01*
X240875000Y-100220000D01*
G75*
G02*
X240740000Y-100085000I0J135000D01*
G01*
G37*
G36*
G01*
X239720000Y-100085000D02*
X239720000Y-99715000D01*
G75*
G02*
X239855000Y-99580000I135000J0D01*
G01*
X240125000Y-99580000D01*
G75*
G02*
X240260000Y-99715000I0J-135000D01*
G01*
X240260000Y-100085000D01*
G75*
G02*
X240125000Y-100220000I-135000J0D01*
G01*
X239855000Y-100220000D01*
G75*
G02*
X239720000Y-100085000I0J135000D01*
G01*
G37*
%TD*%
%TO.C,R9*%
G36*
G01*
X225140000Y-100585000D02*
X225140000Y-100215000D01*
G75*
G02*
X225275000Y-100080000I135000J0D01*
G01*
X225545000Y-100080000D01*
G75*
G02*
X225680000Y-100215000I0J-135000D01*
G01*
X225680000Y-100585000D01*
G75*
G02*
X225545000Y-100720000I-135000J0D01*
G01*
X225275000Y-100720000D01*
G75*
G02*
X225140000Y-100585000I0J135000D01*
G01*
G37*
G36*
G01*
X224120000Y-100585000D02*
X224120000Y-100215000D01*
G75*
G02*
X224255000Y-100080000I135000J0D01*
G01*
X224525000Y-100080000D01*
G75*
G02*
X224660000Y-100215000I0J-135000D01*
G01*
X224660000Y-100585000D01*
G75*
G02*
X224525000Y-100720000I-135000J0D01*
G01*
X224255000Y-100720000D01*
G75*
G02*
X224120000Y-100585000I0J135000D01*
G01*
G37*
%TD*%
%TO.C,R8*%
G36*
G01*
X162040000Y-96985000D02*
X162040000Y-96615000D01*
G75*
G02*
X162175000Y-96480000I135000J0D01*
G01*
X162445000Y-96480000D01*
G75*
G02*
X162580000Y-96615000I0J-135000D01*
G01*
X162580000Y-96985000D01*
G75*
G02*
X162445000Y-97120000I-135000J0D01*
G01*
X162175000Y-97120000D01*
G75*
G02*
X162040000Y-96985000I0J135000D01*
G01*
G37*
G36*
G01*
X161020000Y-96985000D02*
X161020000Y-96615000D01*
G75*
G02*
X161155000Y-96480000I135000J0D01*
G01*
X161425000Y-96480000D01*
G75*
G02*
X161560000Y-96615000I0J-135000D01*
G01*
X161560000Y-96985000D01*
G75*
G02*
X161425000Y-97120000I-135000J0D01*
G01*
X161155000Y-97120000D01*
G75*
G02*
X161020000Y-96985000I0J135000D01*
G01*
G37*
%TD*%
%TO.C,R7*%
G36*
G01*
X146540000Y-99485000D02*
X146540000Y-99115000D01*
G75*
G02*
X146675000Y-98980000I135000J0D01*
G01*
X146945000Y-98980000D01*
G75*
G02*
X147080000Y-99115000I0J-135000D01*
G01*
X147080000Y-99485000D01*
G75*
G02*
X146945000Y-99620000I-135000J0D01*
G01*
X146675000Y-99620000D01*
G75*
G02*
X146540000Y-99485000I0J135000D01*
G01*
G37*
G36*
G01*
X145520000Y-99485000D02*
X145520000Y-99115000D01*
G75*
G02*
X145655000Y-98980000I135000J0D01*
G01*
X145925000Y-98980000D01*
G75*
G02*
X146060000Y-99115000I0J-135000D01*
G01*
X146060000Y-99485000D01*
G75*
G02*
X145925000Y-99620000I-135000J0D01*
G01*
X145655000Y-99620000D01*
G75*
G02*
X145520000Y-99485000I0J135000D01*
G01*
G37*
%TD*%
%TO.C,F1*%
G36*
G01*
X116775000Y-95625000D02*
X116775000Y-94375000D01*
G75*
G02*
X117025000Y-94125000I250000J0D01*
G01*
X117775000Y-94125000D01*
G75*
G02*
X118025000Y-94375000I0J-250000D01*
G01*
X118025000Y-95625000D01*
G75*
G02*
X117775000Y-95875000I-250000J0D01*
G01*
X117025000Y-95875000D01*
G75*
G02*
X116775000Y-95625000I0J250000D01*
G01*
G37*
G36*
G01*
X113975000Y-95625000D02*
X113975000Y-94375000D01*
G75*
G02*
X114225000Y-94125000I250000J0D01*
G01*
X114975000Y-94125000D01*
G75*
G02*
X115225000Y-94375000I0J-250000D01*
G01*
X115225000Y-95625000D01*
G75*
G02*
X114975000Y-95875000I-250000J0D01*
G01*
X114225000Y-95875000D01*
G75*
G02*
X113975000Y-95625000I0J250000D01*
G01*
G37*
%TD*%
D10*
%TO.C,D25*%
X112050000Y-96500000D03*
X109950000Y-96500000D03*
%TD*%
D11*
%TO.C,VR1*%
X103600000Y-92050000D03*
X103600000Y-93000000D03*
X103600000Y-93950000D03*
X101400000Y-93950000D03*
X101400000Y-92050000D03*
X101400000Y-93000000D03*
%TD*%
%TO.C,Rent1*%
G36*
G01*
X104280000Y-96827500D02*
X104280000Y-97172500D01*
G75*
G02*
X104132500Y-97320000I-147500J0D01*
G01*
X103837500Y-97320000D01*
G75*
G02*
X103690000Y-97172500I0J147500D01*
G01*
X103690000Y-96827500D01*
G75*
G02*
X103837500Y-96680000I147500J0D01*
G01*
X104132500Y-96680000D01*
G75*
G02*
X104280000Y-96827500I0J-147500D01*
G01*
G37*
G36*
G01*
X103310000Y-96827500D02*
X103310000Y-97172500D01*
G75*
G02*
X103162500Y-97320000I-147500J0D01*
G01*
X102867500Y-97320000D01*
G75*
G02*
X102720000Y-97172500I0J147500D01*
G01*
X102720000Y-96827500D01*
G75*
G02*
X102867500Y-96680000I147500J0D01*
G01*
X103162500Y-96680000D01*
G75*
G02*
X103310000Y-96827500I0J-147500D01*
G01*
G37*
%TD*%
%TO.C,Renb1*%
G36*
G01*
X99220000Y-96172500D02*
X99220000Y-95827500D01*
G75*
G02*
X99367500Y-95680000I147500J0D01*
G01*
X99662500Y-95680000D01*
G75*
G02*
X99810000Y-95827500I0J-147500D01*
G01*
X99810000Y-96172500D01*
G75*
G02*
X99662500Y-96320000I-147500J0D01*
G01*
X99367500Y-96320000D01*
G75*
G02*
X99220000Y-96172500I0J147500D01*
G01*
G37*
G36*
G01*
X100190000Y-96172500D02*
X100190000Y-95827500D01*
G75*
G02*
X100337500Y-95680000I147500J0D01*
G01*
X100632500Y-95680000D01*
G75*
G02*
X100780000Y-95827500I0J-147500D01*
G01*
X100780000Y-96172500D01*
G75*
G02*
X100632500Y-96320000I-147500J0D01*
G01*
X100337500Y-96320000D01*
G75*
G02*
X100190000Y-96172500I0J147500D01*
G01*
G37*
%TD*%
D12*
%TO.C,L1*%
X112000000Y-92150000D03*
X112000000Y-88850000D03*
%TD*%
%TO.C,Cout1*%
G36*
G01*
X107956250Y-95925000D02*
X107043750Y-95925000D01*
G75*
G02*
X106800000Y-95681250I0J243750D01*
G01*
X106800000Y-95193750D01*
G75*
G02*
X107043750Y-94950000I243750J0D01*
G01*
X107956250Y-94950000D01*
G75*
G02*
X108200000Y-95193750I0J-243750D01*
G01*
X108200000Y-95681250D01*
G75*
G02*
X107956250Y-95925000I-243750J0D01*
G01*
G37*
G36*
G01*
X107956250Y-94050000D02*
X107043750Y-94050000D01*
G75*
G02*
X106800000Y-93806250I0J243750D01*
G01*
X106800000Y-93318750D01*
G75*
G02*
X107043750Y-93075000I243750J0D01*
G01*
X107956250Y-93075000D01*
G75*
G02*
X108200000Y-93318750I0J-243750D01*
G01*
X108200000Y-93806250D01*
G75*
G02*
X107956250Y-94050000I-243750J0D01*
G01*
G37*
%TD*%
%TO.C,Cinx1*%
G36*
G01*
X102850000Y-98756250D02*
X102850000Y-98243750D01*
G75*
G02*
X103068750Y-98025000I218750J0D01*
G01*
X103506250Y-98025000D01*
G75*
G02*
X103725000Y-98243750I0J-218750D01*
G01*
X103725000Y-98756250D01*
G75*
G02*
X103506250Y-98975000I-218750J0D01*
G01*
X103068750Y-98975000D01*
G75*
G02*
X102850000Y-98756250I0J218750D01*
G01*
G37*
G36*
G01*
X101275000Y-98756250D02*
X101275000Y-98243750D01*
G75*
G02*
X101493750Y-98025000I218750J0D01*
G01*
X101931250Y-98025000D01*
G75*
G02*
X102150000Y-98243750I0J-218750D01*
G01*
X102150000Y-98756250D01*
G75*
G02*
X101931250Y-98975000I-218750J0D01*
G01*
X101493750Y-98975000D01*
G75*
G02*
X101275000Y-98756250I0J218750D01*
G01*
G37*
%TD*%
%TO.C,Cin1*%
G36*
G01*
X109025000Y-98375000D02*
X109025000Y-99625000D01*
G75*
G02*
X108775000Y-99875000I-250000J0D01*
G01*
X108025000Y-99875000D01*
G75*
G02*
X107775000Y-99625000I0J250000D01*
G01*
X107775000Y-98375000D01*
G75*
G02*
X108025000Y-98125000I250000J0D01*
G01*
X108775000Y-98125000D01*
G75*
G02*
X109025000Y-98375000I0J-250000D01*
G01*
G37*
G36*
G01*
X106225000Y-98375000D02*
X106225000Y-99625000D01*
G75*
G02*
X105975000Y-99875000I-250000J0D01*
G01*
X105225000Y-99875000D01*
G75*
G02*
X104975000Y-99625000I0J250000D01*
G01*
X104975000Y-98375000D01*
G75*
G02*
X105225000Y-98125000I250000J0D01*
G01*
X105975000Y-98125000D01*
G75*
G02*
X106225000Y-98375000I0J-250000D01*
G01*
G37*
%TD*%
%TO.C,Cboot1*%
G36*
G01*
X107043750Y-88075000D02*
X107956250Y-88075000D01*
G75*
G02*
X108200000Y-88318750I0J-243750D01*
G01*
X108200000Y-88806250D01*
G75*
G02*
X107956250Y-89050000I-243750J0D01*
G01*
X107043750Y-89050000D01*
G75*
G02*
X106800000Y-88806250I0J243750D01*
G01*
X106800000Y-88318750D01*
G75*
G02*
X107043750Y-88075000I243750J0D01*
G01*
G37*
G36*
G01*
X107043750Y-89950000D02*
X107956250Y-89950000D01*
G75*
G02*
X108200000Y-90193750I0J-243750D01*
G01*
X108200000Y-90681250D01*
G75*
G02*
X107956250Y-90925000I-243750J0D01*
G01*
X107043750Y-90925000D01*
G75*
G02*
X106800000Y-90681250I0J243750D01*
G01*
X106800000Y-90193750D01*
G75*
G02*
X107043750Y-89950000I243750J0D01*
G01*
G37*
%TD*%
%TO.C,R5*%
G36*
G01*
X81710000Y-87027500D02*
X81710000Y-87372500D01*
G75*
G02*
X81562500Y-87520000I-147500J0D01*
G01*
X81267500Y-87520000D01*
G75*
G02*
X81120000Y-87372500I0J147500D01*
G01*
X81120000Y-87027500D01*
G75*
G02*
X81267500Y-86880000I147500J0D01*
G01*
X81562500Y-86880000D01*
G75*
G02*
X81710000Y-87027500I0J-147500D01*
G01*
G37*
G36*
G01*
X82680000Y-87027500D02*
X82680000Y-87372500D01*
G75*
G02*
X82532500Y-87520000I-147500J0D01*
G01*
X82237500Y-87520000D01*
G75*
G02*
X82090000Y-87372500I0J147500D01*
G01*
X82090000Y-87027500D01*
G75*
G02*
X82237500Y-86880000I147500J0D01*
G01*
X82532500Y-86880000D01*
G75*
G02*
X82680000Y-87027500I0J-147500D01*
G01*
G37*
%TD*%
%TO.C,R6*%
G36*
G01*
X82090000Y-83872500D02*
X82090000Y-83527500D01*
G75*
G02*
X82237500Y-83380000I147500J0D01*
G01*
X82532500Y-83380000D01*
G75*
G02*
X82680000Y-83527500I0J-147500D01*
G01*
X82680000Y-83872500D01*
G75*
G02*
X82532500Y-84020000I-147500J0D01*
G01*
X82237500Y-84020000D01*
G75*
G02*
X82090000Y-83872500I0J147500D01*
G01*
G37*
G36*
G01*
X81120000Y-83872500D02*
X81120000Y-83527500D01*
G75*
G02*
X81267500Y-83380000I147500J0D01*
G01*
X81562500Y-83380000D01*
G75*
G02*
X81710000Y-83527500I0J-147500D01*
G01*
X81710000Y-83872500D01*
G75*
G02*
X81562500Y-84020000I-147500J0D01*
G01*
X81267500Y-84020000D01*
G75*
G02*
X81120000Y-83872500I0J147500D01*
G01*
G37*
%TD*%
%TO.C,C3*%
G36*
G01*
X180350000Y-83256250D02*
X180350000Y-82743750D01*
G75*
G02*
X180568750Y-82525000I218750J0D01*
G01*
X181006250Y-82525000D01*
G75*
G02*
X181225000Y-82743750I0J-218750D01*
G01*
X181225000Y-83256250D01*
G75*
G02*
X181006250Y-83475000I-218750J0D01*
G01*
X180568750Y-83475000D01*
G75*
G02*
X180350000Y-83256250I0J218750D01*
G01*
G37*
G36*
G01*
X178775000Y-83256250D02*
X178775000Y-82743750D01*
G75*
G02*
X178993750Y-82525000I218750J0D01*
G01*
X179431250Y-82525000D01*
G75*
G02*
X179650000Y-82743750I0J-218750D01*
G01*
X179650000Y-83256250D01*
G75*
G02*
X179431250Y-83475000I-218750J0D01*
G01*
X178993750Y-83475000D01*
G75*
G02*
X178775000Y-83256250I0J218750D01*
G01*
G37*
%TD*%
%TO.C,C5*%
G36*
G01*
X179650000Y-99243750D02*
X179650000Y-99756250D01*
G75*
G02*
X179431250Y-99975000I-218750J0D01*
G01*
X178993750Y-99975000D01*
G75*
G02*
X178775000Y-99756250I0J218750D01*
G01*
X178775000Y-99243750D01*
G75*
G02*
X178993750Y-99025000I218750J0D01*
G01*
X179431250Y-99025000D01*
G75*
G02*
X179650000Y-99243750I0J-218750D01*
G01*
G37*
G36*
G01*
X181225000Y-99243750D02*
X181225000Y-99756250D01*
G75*
G02*
X181006250Y-99975000I-218750J0D01*
G01*
X180568750Y-99975000D01*
G75*
G02*
X180350000Y-99756250I0J218750D01*
G01*
X180350000Y-99243750D01*
G75*
G02*
X180568750Y-99025000I218750J0D01*
G01*
X181006250Y-99025000D01*
G75*
G02*
X181225000Y-99243750I0J-218750D01*
G01*
G37*
%TD*%
%TO.C,C4*%
G36*
G01*
X201350000Y-83256250D02*
X201350000Y-82743750D01*
G75*
G02*
X201568750Y-82525000I218750J0D01*
G01*
X202006250Y-82525000D01*
G75*
G02*
X202225000Y-82743750I0J-218750D01*
G01*
X202225000Y-83256250D01*
G75*
G02*
X202006250Y-83475000I-218750J0D01*
G01*
X201568750Y-83475000D01*
G75*
G02*
X201350000Y-83256250I0J218750D01*
G01*
G37*
G36*
G01*
X199775000Y-83256250D02*
X199775000Y-82743750D01*
G75*
G02*
X199993750Y-82525000I218750J0D01*
G01*
X200431250Y-82525000D01*
G75*
G02*
X200650000Y-82743750I0J-218750D01*
G01*
X200650000Y-83256250D01*
G75*
G02*
X200431250Y-83475000I-218750J0D01*
G01*
X199993750Y-83475000D01*
G75*
G02*
X199775000Y-83256250I0J218750D01*
G01*
G37*
%TD*%
D13*
%TO.C,SW2*%
X185500000Y-98900000D03*
D14*
X184125000Y-91000000D03*
D13*
X185500000Y-83100000D03*
X195500000Y-83100000D03*
D14*
X196875000Y-91000000D03*
D13*
X195500000Y-98900000D03*
D15*
X193000000Y-98000000D03*
X188000000Y-98000000D03*
X190500000Y-83700000D03*
X193000000Y-83700000D03*
X188000000Y-83700000D03*
%TD*%
%TO.C,U6*%
G36*
G01*
X73375000Y-84975000D02*
X73375000Y-85175000D01*
G75*
G02*
X73275000Y-85275000I-100000J0D01*
G01*
X72000000Y-85275000D01*
G75*
G02*
X71900000Y-85175000I0J100000D01*
G01*
X71900000Y-84975000D01*
G75*
G02*
X72000000Y-84875000I100000J0D01*
G01*
X73275000Y-84875000D01*
G75*
G02*
X73375000Y-84975000I0J-100000D01*
G01*
G37*
G36*
G01*
X73375000Y-85625000D02*
X73375000Y-85825000D01*
G75*
G02*
X73275000Y-85925000I-100000J0D01*
G01*
X72000000Y-85925000D01*
G75*
G02*
X71900000Y-85825000I0J100000D01*
G01*
X71900000Y-85625000D01*
G75*
G02*
X72000000Y-85525000I100000J0D01*
G01*
X73275000Y-85525000D01*
G75*
G02*
X73375000Y-85625000I0J-100000D01*
G01*
G37*
G36*
G01*
X73375000Y-86275000D02*
X73375000Y-86475000D01*
G75*
G02*
X73275000Y-86575000I-100000J0D01*
G01*
X72000000Y-86575000D01*
G75*
G02*
X71900000Y-86475000I0J100000D01*
G01*
X71900000Y-86275000D01*
G75*
G02*
X72000000Y-86175000I100000J0D01*
G01*
X73275000Y-86175000D01*
G75*
G02*
X73375000Y-86275000I0J-100000D01*
G01*
G37*
G36*
G01*
X73375000Y-86925000D02*
X73375000Y-87125000D01*
G75*
G02*
X73275000Y-87225000I-100000J0D01*
G01*
X72000000Y-87225000D01*
G75*
G02*
X71900000Y-87125000I0J100000D01*
G01*
X71900000Y-86925000D01*
G75*
G02*
X72000000Y-86825000I100000J0D01*
G01*
X73275000Y-86825000D01*
G75*
G02*
X73375000Y-86925000I0J-100000D01*
G01*
G37*
G36*
G01*
X73375000Y-87575000D02*
X73375000Y-87775000D01*
G75*
G02*
X73275000Y-87875000I-100000J0D01*
G01*
X72000000Y-87875000D01*
G75*
G02*
X71900000Y-87775000I0J100000D01*
G01*
X71900000Y-87575000D01*
G75*
G02*
X72000000Y-87475000I100000J0D01*
G01*
X73275000Y-87475000D01*
G75*
G02*
X73375000Y-87575000I0J-100000D01*
G01*
G37*
G36*
G01*
X73375000Y-88225000D02*
X73375000Y-88425000D01*
G75*
G02*
X73275000Y-88525000I-100000J0D01*
G01*
X72000000Y-88525000D01*
G75*
G02*
X71900000Y-88425000I0J100000D01*
G01*
X71900000Y-88225000D01*
G75*
G02*
X72000000Y-88125000I100000J0D01*
G01*
X73275000Y-88125000D01*
G75*
G02*
X73375000Y-88225000I0J-100000D01*
G01*
G37*
G36*
G01*
X73375000Y-88875000D02*
X73375000Y-89075000D01*
G75*
G02*
X73275000Y-89175000I-100000J0D01*
G01*
X72000000Y-89175000D01*
G75*
G02*
X71900000Y-89075000I0J100000D01*
G01*
X71900000Y-88875000D01*
G75*
G02*
X72000000Y-88775000I100000J0D01*
G01*
X73275000Y-88775000D01*
G75*
G02*
X73375000Y-88875000I0J-100000D01*
G01*
G37*
G36*
G01*
X73375000Y-89525000D02*
X73375000Y-89725000D01*
G75*
G02*
X73275000Y-89825000I-100000J0D01*
G01*
X72000000Y-89825000D01*
G75*
G02*
X71900000Y-89725000I0J100000D01*
G01*
X71900000Y-89525000D01*
G75*
G02*
X72000000Y-89425000I100000J0D01*
G01*
X73275000Y-89425000D01*
G75*
G02*
X73375000Y-89525000I0J-100000D01*
G01*
G37*
G36*
G01*
X73375000Y-90175000D02*
X73375000Y-90375000D01*
G75*
G02*
X73275000Y-90475000I-100000J0D01*
G01*
X72000000Y-90475000D01*
G75*
G02*
X71900000Y-90375000I0J100000D01*
G01*
X71900000Y-90175000D01*
G75*
G02*
X72000000Y-90075000I100000J0D01*
G01*
X73275000Y-90075000D01*
G75*
G02*
X73375000Y-90175000I0J-100000D01*
G01*
G37*
G36*
G01*
X73375000Y-90825000D02*
X73375000Y-91025000D01*
G75*
G02*
X73275000Y-91125000I-100000J0D01*
G01*
X72000000Y-91125000D01*
G75*
G02*
X71900000Y-91025000I0J100000D01*
G01*
X71900000Y-90825000D01*
G75*
G02*
X72000000Y-90725000I100000J0D01*
G01*
X73275000Y-90725000D01*
G75*
G02*
X73375000Y-90825000I0J-100000D01*
G01*
G37*
G36*
G01*
X79100000Y-90825000D02*
X79100000Y-91025000D01*
G75*
G02*
X79000000Y-91125000I-100000J0D01*
G01*
X77725000Y-91125000D01*
G75*
G02*
X77625000Y-91025000I0J100000D01*
G01*
X77625000Y-90825000D01*
G75*
G02*
X77725000Y-90725000I100000J0D01*
G01*
X79000000Y-90725000D01*
G75*
G02*
X79100000Y-90825000I0J-100000D01*
G01*
G37*
G36*
G01*
X79100000Y-90175000D02*
X79100000Y-90375000D01*
G75*
G02*
X79000000Y-90475000I-100000J0D01*
G01*
X77725000Y-90475000D01*
G75*
G02*
X77625000Y-90375000I0J100000D01*
G01*
X77625000Y-90175000D01*
G75*
G02*
X77725000Y-90075000I100000J0D01*
G01*
X79000000Y-90075000D01*
G75*
G02*
X79100000Y-90175000I0J-100000D01*
G01*
G37*
G36*
G01*
X79100000Y-89525000D02*
X79100000Y-89725000D01*
G75*
G02*
X79000000Y-89825000I-100000J0D01*
G01*
X77725000Y-89825000D01*
G75*
G02*
X77625000Y-89725000I0J100000D01*
G01*
X77625000Y-89525000D01*
G75*
G02*
X77725000Y-89425000I100000J0D01*
G01*
X79000000Y-89425000D01*
G75*
G02*
X79100000Y-89525000I0J-100000D01*
G01*
G37*
G36*
G01*
X79100000Y-88875000D02*
X79100000Y-89075000D01*
G75*
G02*
X79000000Y-89175000I-100000J0D01*
G01*
X77725000Y-89175000D01*
G75*
G02*
X77625000Y-89075000I0J100000D01*
G01*
X77625000Y-88875000D01*
G75*
G02*
X77725000Y-88775000I100000J0D01*
G01*
X79000000Y-88775000D01*
G75*
G02*
X79100000Y-88875000I0J-100000D01*
G01*
G37*
G36*
G01*
X79100000Y-88225000D02*
X79100000Y-88425000D01*
G75*
G02*
X79000000Y-88525000I-100000J0D01*
G01*
X77725000Y-88525000D01*
G75*
G02*
X77625000Y-88425000I0J100000D01*
G01*
X77625000Y-88225000D01*
G75*
G02*
X77725000Y-88125000I100000J0D01*
G01*
X79000000Y-88125000D01*
G75*
G02*
X79100000Y-88225000I0J-100000D01*
G01*
G37*
G36*
G01*
X79100000Y-87575000D02*
X79100000Y-87775000D01*
G75*
G02*
X79000000Y-87875000I-100000J0D01*
G01*
X77725000Y-87875000D01*
G75*
G02*
X77625000Y-87775000I0J100000D01*
G01*
X77625000Y-87575000D01*
G75*
G02*
X77725000Y-87475000I100000J0D01*
G01*
X79000000Y-87475000D01*
G75*
G02*
X79100000Y-87575000I0J-100000D01*
G01*
G37*
G36*
G01*
X79100000Y-86925000D02*
X79100000Y-87125000D01*
G75*
G02*
X79000000Y-87225000I-100000J0D01*
G01*
X77725000Y-87225000D01*
G75*
G02*
X77625000Y-87125000I0J100000D01*
G01*
X77625000Y-86925000D01*
G75*
G02*
X77725000Y-86825000I100000J0D01*
G01*
X79000000Y-86825000D01*
G75*
G02*
X79100000Y-86925000I0J-100000D01*
G01*
G37*
G36*
G01*
X79100000Y-86275000D02*
X79100000Y-86475000D01*
G75*
G02*
X79000000Y-86575000I-100000J0D01*
G01*
X77725000Y-86575000D01*
G75*
G02*
X77625000Y-86475000I0J100000D01*
G01*
X77625000Y-86275000D01*
G75*
G02*
X77725000Y-86175000I100000J0D01*
G01*
X79000000Y-86175000D01*
G75*
G02*
X79100000Y-86275000I0J-100000D01*
G01*
G37*
G36*
G01*
X79100000Y-85625000D02*
X79100000Y-85825000D01*
G75*
G02*
X79000000Y-85925000I-100000J0D01*
G01*
X77725000Y-85925000D01*
G75*
G02*
X77625000Y-85825000I0J100000D01*
G01*
X77625000Y-85625000D01*
G75*
G02*
X77725000Y-85525000I100000J0D01*
G01*
X79000000Y-85525000D01*
G75*
G02*
X79100000Y-85625000I0J-100000D01*
G01*
G37*
G36*
G01*
X79100000Y-84975000D02*
X79100000Y-85175000D01*
G75*
G02*
X79000000Y-85275000I-100000J0D01*
G01*
X77725000Y-85275000D01*
G75*
G02*
X77625000Y-85175000I0J100000D01*
G01*
X77625000Y-84975000D01*
G75*
G02*
X77725000Y-84875000I100000J0D01*
G01*
X79000000Y-84875000D01*
G75*
G02*
X79100000Y-84975000I0J-100000D01*
G01*
G37*
%TD*%
D16*
%TO.C,U4*%
X228725000Y-90050000D03*
X234275000Y-85200000D03*
X234275000Y-90050000D03*
X228725000Y-85200000D03*
D17*
X227690000Y-96775000D03*
X228960000Y-96775000D03*
X230230000Y-96775000D03*
X231500000Y-96775000D03*
X232770000Y-96775000D03*
X234040000Y-96775000D03*
X235310000Y-96775000D03*
%TD*%
D16*
%TO.C,U3*%
X214225000Y-90050000D03*
X219775000Y-85200000D03*
X219775000Y-90050000D03*
X214225000Y-85200000D03*
D17*
X213190000Y-96775000D03*
X214460000Y-96775000D03*
X215730000Y-96775000D03*
X217000000Y-96775000D03*
X218270000Y-96775000D03*
X219540000Y-96775000D03*
X220810000Y-96775000D03*
%TD*%
D16*
%TO.C,U2*%
X151225000Y-90050000D03*
X156775000Y-85200000D03*
X156775000Y-90050000D03*
X151225000Y-85200000D03*
D17*
X150190000Y-96775000D03*
X151460000Y-96775000D03*
X152730000Y-96775000D03*
X154000000Y-96775000D03*
X155270000Y-96775000D03*
X156540000Y-96775000D03*
X157810000Y-96775000D03*
%TD*%
D16*
%TO.C,U1*%
X135725000Y-90050000D03*
X141275000Y-85200000D03*
X141275000Y-90050000D03*
X135725000Y-85200000D03*
D17*
X134690000Y-96775000D03*
X135960000Y-96775000D03*
X137230000Y-96775000D03*
X138500000Y-96775000D03*
X139770000Y-96775000D03*
X141040000Y-96775000D03*
X142310000Y-96775000D03*
%TD*%
D18*
%TO.C,J2*%
X66450000Y-85960000D03*
X62550000Y-85960000D03*
X66450000Y-87230000D03*
X62550000Y-87230000D03*
X66450000Y-88500000D03*
X62550000Y-88500000D03*
X66450000Y-89770000D03*
X62550000Y-89770000D03*
X66450000Y-91040000D03*
X62550000Y-91040000D03*
%TD*%
%TO.C,J4*%
G36*
G01*
X256175000Y-83150000D02*
X259125000Y-83150000D01*
G75*
G02*
X259600000Y-83625000I0J-475000D01*
G01*
X259600000Y-84575000D01*
G75*
G02*
X259125000Y-85050000I-475000J0D01*
G01*
X256175000Y-85050000D01*
G75*
G02*
X255700000Y-84575000I0J475000D01*
G01*
X255700000Y-83625000D01*
G75*
G02*
X256175000Y-83150000I475000J0D01*
G01*
G37*
G36*
G01*
X256175000Y-97050000D02*
X259125000Y-97050000D01*
G75*
G02*
X259600000Y-97525000I0J-475000D01*
G01*
X259600000Y-98475000D01*
G75*
G02*
X259125000Y-98950000I-475000J0D01*
G01*
X256175000Y-98950000D01*
G75*
G02*
X255700000Y-98475000I0J475000D01*
G01*
X255700000Y-97525000D01*
G75*
G02*
X256175000Y-97050000I475000J0D01*
G01*
G37*
G36*
G01*
X247841100Y-86650000D02*
X251958900Y-86650000D01*
G75*
G02*
X252150000Y-86841100I0J-191100D01*
G01*
X252150000Y-87758900D01*
G75*
G02*
X251958900Y-87950000I-191100J0D01*
G01*
X247841100Y-87950000D01*
G75*
G02*
X247650000Y-87758900I0J191100D01*
G01*
X247650000Y-86841100D01*
G75*
G02*
X247841100Y-86650000I191100J0D01*
G01*
G37*
G36*
G01*
X247975000Y-89150000D02*
X251825000Y-89150000D01*
G75*
G02*
X252150000Y-89475000I0J-325000D01*
G01*
X252150000Y-90125000D01*
G75*
G02*
X251825000Y-90450000I-325000J0D01*
G01*
X247975000Y-90450000D01*
G75*
G02*
X247650000Y-90125000I0J325000D01*
G01*
X247650000Y-89475000D01*
G75*
G02*
X247975000Y-89150000I325000J0D01*
G01*
G37*
G36*
G01*
X247975000Y-91650000D02*
X251825000Y-91650000D01*
G75*
G02*
X252150000Y-91975000I0J-325000D01*
G01*
X252150000Y-92625000D01*
G75*
G02*
X251825000Y-92950000I-325000J0D01*
G01*
X247975000Y-92950000D01*
G75*
G02*
X247650000Y-92625000I0J325000D01*
G01*
X247650000Y-91975000D01*
G75*
G02*
X247975000Y-91650000I325000J0D01*
G01*
G37*
G36*
G01*
X247975000Y-94150000D02*
X251825000Y-94150000D01*
G75*
G02*
X252150000Y-94475000I0J-325000D01*
G01*
X252150000Y-95125000D01*
G75*
G02*
X251825000Y-95450000I-325000J0D01*
G01*
X247975000Y-95450000D01*
G75*
G02*
X247650000Y-95125000I0J325000D01*
G01*
X247650000Y-94475000D01*
G75*
G02*
X247975000Y-94150000I325000J0D01*
G01*
G37*
%TD*%
%TO.C,J3*%
G36*
G01*
X52025000Y-87950000D02*
X48175000Y-87950000D01*
G75*
G02*
X47850000Y-87625000I0J325000D01*
G01*
X47850000Y-86975000D01*
G75*
G02*
X48175000Y-86650000I325000J0D01*
G01*
X52025000Y-86650000D01*
G75*
G02*
X52350000Y-86975000I0J-325000D01*
G01*
X52350000Y-87625000D01*
G75*
G02*
X52025000Y-87950000I-325000J0D01*
G01*
G37*
G36*
G01*
X52025000Y-90450000D02*
X48175000Y-90450000D01*
G75*
G02*
X47850000Y-90125000I0J325000D01*
G01*
X47850000Y-89475000D01*
G75*
G02*
X48175000Y-89150000I325000J0D01*
G01*
X52025000Y-89150000D01*
G75*
G02*
X52350000Y-89475000I0J-325000D01*
G01*
X52350000Y-90125000D01*
G75*
G02*
X52025000Y-90450000I-325000J0D01*
G01*
G37*
G36*
G01*
X52025000Y-92950000D02*
X48175000Y-92950000D01*
G75*
G02*
X47850000Y-92625000I0J325000D01*
G01*
X47850000Y-91975000D01*
G75*
G02*
X48175000Y-91650000I325000J0D01*
G01*
X52025000Y-91650000D01*
G75*
G02*
X52350000Y-91975000I0J-325000D01*
G01*
X52350000Y-92625000D01*
G75*
G02*
X52025000Y-92950000I-325000J0D01*
G01*
G37*
G36*
G01*
X52158900Y-95450000D02*
X48041100Y-95450000D01*
G75*
G02*
X47850000Y-95258900I0J191100D01*
G01*
X47850000Y-94341100D01*
G75*
G02*
X48041100Y-94150000I191100J0D01*
G01*
X52158900Y-94150000D01*
G75*
G02*
X52350000Y-94341100I0J-191100D01*
G01*
X52350000Y-95258900D01*
G75*
G02*
X52158900Y-95450000I-191100J0D01*
G01*
G37*
G36*
G01*
X43825000Y-85050000D02*
X40875000Y-85050000D01*
G75*
G02*
X40400000Y-84575000I0J475000D01*
G01*
X40400000Y-83625000D01*
G75*
G02*
X40875000Y-83150000I475000J0D01*
G01*
X43825000Y-83150000D01*
G75*
G02*
X44300000Y-83625000I0J-475000D01*
G01*
X44300000Y-84575000D01*
G75*
G02*
X43825000Y-85050000I-475000J0D01*
G01*
G37*
G36*
G01*
X43825000Y-98950000D02*
X40875000Y-98950000D01*
G75*
G02*
X40400000Y-98475000I0J475000D01*
G01*
X40400000Y-97525000D01*
G75*
G02*
X40875000Y-97050000I475000J0D01*
G01*
X43825000Y-97050000D01*
G75*
G02*
X44300000Y-97525000I0J-475000D01*
G01*
X44300000Y-98475000D01*
G75*
G02*
X43825000Y-98950000I-475000J0D01*
G01*
G37*
%TD*%
M02*
