%TF.GenerationSoftware,KiCad,Pcbnew,(5.1.5)-3*%
%TF.CreationDate,2020-08-13T15:19:08+02:00*%
%TF.ProjectId,Horticulture,486f7274-6963-4756-9c74-7572652e6b69,rev?*%
%TF.SameCoordinates,Original*%
%TF.FileFunction,Paste,Bot*%
%TF.FilePolarity,Positive*%
%FSLAX46Y46*%
G04 Gerber Fmt 4.6, Leading zero omitted, Abs format (unit mm)*
G04 Created by KiCad (PCBNEW (5.1.5)-3) date 2020-08-13 15:19:08*
%MOMM*%
%LPD*%
G04 APERTURE LIST*
%ADD10R,1.300000X2.400000*%
%ADD11R,2.500000X3.200000*%
%ADD12R,4.000000X3.750000*%
%ADD13R,0.800000X4.600000*%
%ADD14R,5.250000X4.550000*%
%ADD15C,0.100000*%
%ADD16R,1.000000X1.000000*%
%ADD17R,2.400000X0.740000*%
%ADD18R,0.700000X0.950000*%
%ADD19R,2.000000X1.500000*%
%ADD20R,2.000000X3.800000*%
G04 APERTURE END LIST*
D10*
%TO.C,SW2*%
X147000000Y-83500000D03*
X152000000Y-83500000D03*
X149500000Y-83500000D03*
X147000000Y-97800000D03*
X152000000Y-97800000D03*
D11*
X154500000Y-98700000D03*
D12*
X155875000Y-90800000D03*
D11*
X154500000Y-82900000D03*
X144500000Y-82900000D03*
D12*
X143125000Y-90800000D03*
D11*
X144500000Y-98700000D03*
%TD*%
D13*
%TO.C,U4*%
X223410000Y-96075000D03*
X222140000Y-96075000D03*
X220870000Y-96075000D03*
X219600000Y-96075000D03*
X218330000Y-96075000D03*
X217060000Y-96075000D03*
X215790000Y-96075000D03*
D14*
X216825000Y-84500000D03*
X222375000Y-89350000D03*
X222375000Y-84500000D03*
X216825000Y-89350000D03*
%TD*%
D15*
%TO.C,J4*%
G36*
X259171558Y-83152287D02*
G01*
X259217668Y-83159127D01*
X259262885Y-83170453D01*
X259306775Y-83186157D01*
X259348913Y-83206087D01*
X259388896Y-83230052D01*
X259426337Y-83257820D01*
X259460876Y-83289124D01*
X259492180Y-83323663D01*
X259519948Y-83361104D01*
X259543913Y-83401087D01*
X259563843Y-83443225D01*
X259579547Y-83487115D01*
X259590873Y-83532332D01*
X259597713Y-83578442D01*
X259600000Y-83625000D01*
X259600000Y-84575000D01*
X259597713Y-84621558D01*
X259590873Y-84667668D01*
X259579547Y-84712885D01*
X259563843Y-84756775D01*
X259543913Y-84798913D01*
X259519948Y-84838896D01*
X259492180Y-84876337D01*
X259460876Y-84910876D01*
X259426337Y-84942180D01*
X259388896Y-84969948D01*
X259348913Y-84993913D01*
X259306775Y-85013843D01*
X259262885Y-85029547D01*
X259217668Y-85040873D01*
X259171558Y-85047713D01*
X259125000Y-85050000D01*
X256175000Y-85050000D01*
X256128442Y-85047713D01*
X256082332Y-85040873D01*
X256037115Y-85029547D01*
X255993225Y-85013843D01*
X255951087Y-84993913D01*
X255911104Y-84969948D01*
X255873663Y-84942180D01*
X255839124Y-84910876D01*
X255807820Y-84876337D01*
X255780052Y-84838896D01*
X255756087Y-84798913D01*
X255736157Y-84756775D01*
X255720453Y-84712885D01*
X255709127Y-84667668D01*
X255702287Y-84621558D01*
X255700000Y-84575000D01*
X255700000Y-83625000D01*
X255702287Y-83578442D01*
X255709127Y-83532332D01*
X255720453Y-83487115D01*
X255736157Y-83443225D01*
X255756087Y-83401087D01*
X255780052Y-83361104D01*
X255807820Y-83323663D01*
X255839124Y-83289124D01*
X255873663Y-83257820D01*
X255911104Y-83230052D01*
X255951087Y-83206087D01*
X255993225Y-83186157D01*
X256037115Y-83170453D01*
X256082332Y-83159127D01*
X256128442Y-83152287D01*
X256175000Y-83150000D01*
X259125000Y-83150000D01*
X259171558Y-83152287D01*
G37*
G36*
X259171558Y-97052287D02*
G01*
X259217668Y-97059127D01*
X259262885Y-97070453D01*
X259306775Y-97086157D01*
X259348913Y-97106087D01*
X259388896Y-97130052D01*
X259426337Y-97157820D01*
X259460876Y-97189124D01*
X259492180Y-97223663D01*
X259519948Y-97261104D01*
X259543913Y-97301087D01*
X259563843Y-97343225D01*
X259579547Y-97387115D01*
X259590873Y-97432332D01*
X259597713Y-97478442D01*
X259600000Y-97525000D01*
X259600000Y-98475000D01*
X259597713Y-98521558D01*
X259590873Y-98567668D01*
X259579547Y-98612885D01*
X259563843Y-98656775D01*
X259543913Y-98698913D01*
X259519948Y-98738896D01*
X259492180Y-98776337D01*
X259460876Y-98810876D01*
X259426337Y-98842180D01*
X259388896Y-98869948D01*
X259348913Y-98893913D01*
X259306775Y-98913843D01*
X259262885Y-98929547D01*
X259217668Y-98940873D01*
X259171558Y-98947713D01*
X259125000Y-98950000D01*
X256175000Y-98950000D01*
X256128442Y-98947713D01*
X256082332Y-98940873D01*
X256037115Y-98929547D01*
X255993225Y-98913843D01*
X255951087Y-98893913D01*
X255911104Y-98869948D01*
X255873663Y-98842180D01*
X255839124Y-98810876D01*
X255807820Y-98776337D01*
X255780052Y-98738896D01*
X255756087Y-98698913D01*
X255736157Y-98656775D01*
X255720453Y-98612885D01*
X255709127Y-98567668D01*
X255702287Y-98521558D01*
X255700000Y-98475000D01*
X255700000Y-97525000D01*
X255702287Y-97478442D01*
X255709127Y-97432332D01*
X255720453Y-97387115D01*
X255736157Y-97343225D01*
X255756087Y-97301087D01*
X255780052Y-97261104D01*
X255807820Y-97223663D01*
X255839124Y-97189124D01*
X255873663Y-97157820D01*
X255911104Y-97130052D01*
X255951087Y-97106087D01*
X255993225Y-97086157D01*
X256037115Y-97070453D01*
X256082332Y-97059127D01*
X256128442Y-97052287D01*
X256175000Y-97050000D01*
X259125000Y-97050000D01*
X259171558Y-97052287D01*
G37*
G36*
X251977631Y-86650920D02*
G01*
X251996182Y-86653672D01*
X252014373Y-86658229D01*
X252032031Y-86664547D01*
X252048984Y-86672565D01*
X252065069Y-86682206D01*
X252080133Y-86693378D01*
X252094028Y-86705972D01*
X252106622Y-86719867D01*
X252117794Y-86734931D01*
X252127435Y-86751016D01*
X252135453Y-86767969D01*
X252141771Y-86785627D01*
X252146328Y-86803818D01*
X252149080Y-86822369D01*
X252150000Y-86841100D01*
X252150000Y-87758900D01*
X252149080Y-87777631D01*
X252146328Y-87796182D01*
X252141771Y-87814373D01*
X252135453Y-87832031D01*
X252127435Y-87848984D01*
X252117794Y-87865069D01*
X252106622Y-87880133D01*
X252094028Y-87894028D01*
X252080133Y-87906622D01*
X252065069Y-87917794D01*
X252048984Y-87927435D01*
X252032031Y-87935453D01*
X252014373Y-87941771D01*
X251996182Y-87946328D01*
X251977631Y-87949080D01*
X251958900Y-87950000D01*
X247841100Y-87950000D01*
X247822369Y-87949080D01*
X247803818Y-87946328D01*
X247785627Y-87941771D01*
X247767969Y-87935453D01*
X247751016Y-87927435D01*
X247734931Y-87917794D01*
X247719867Y-87906622D01*
X247705972Y-87894028D01*
X247693378Y-87880133D01*
X247682206Y-87865069D01*
X247672565Y-87848984D01*
X247664547Y-87832031D01*
X247658229Y-87814373D01*
X247653672Y-87796182D01*
X247650920Y-87777631D01*
X247650000Y-87758900D01*
X247650000Y-86841100D01*
X247650920Y-86822369D01*
X247653672Y-86803818D01*
X247658229Y-86785627D01*
X247664547Y-86767969D01*
X247672565Y-86751016D01*
X247682206Y-86734931D01*
X247693378Y-86719867D01*
X247705972Y-86705972D01*
X247719867Y-86693378D01*
X247734931Y-86682206D01*
X247751016Y-86672565D01*
X247767969Y-86664547D01*
X247785627Y-86658229D01*
X247803818Y-86653672D01*
X247822369Y-86650920D01*
X247841100Y-86650000D01*
X251958900Y-86650000D01*
X251977631Y-86650920D01*
G37*
G36*
X251856856Y-89151565D02*
G01*
X251888404Y-89156245D01*
X251919343Y-89163994D01*
X251949372Y-89174739D01*
X251978204Y-89188376D01*
X252005560Y-89204772D01*
X252031178Y-89223772D01*
X252054810Y-89245190D01*
X252076228Y-89268822D01*
X252095228Y-89294440D01*
X252111624Y-89321796D01*
X252125261Y-89350628D01*
X252136006Y-89380657D01*
X252143755Y-89411596D01*
X252148435Y-89443144D01*
X252150000Y-89475000D01*
X252150000Y-90125000D01*
X252148435Y-90156856D01*
X252143755Y-90188404D01*
X252136006Y-90219343D01*
X252125261Y-90249372D01*
X252111624Y-90278204D01*
X252095228Y-90305560D01*
X252076228Y-90331178D01*
X252054810Y-90354810D01*
X252031178Y-90376228D01*
X252005560Y-90395228D01*
X251978204Y-90411624D01*
X251949372Y-90425261D01*
X251919343Y-90436006D01*
X251888404Y-90443755D01*
X251856856Y-90448435D01*
X251825000Y-90450000D01*
X247975000Y-90450000D01*
X247943144Y-90448435D01*
X247911596Y-90443755D01*
X247880657Y-90436006D01*
X247850628Y-90425261D01*
X247821796Y-90411624D01*
X247794440Y-90395228D01*
X247768822Y-90376228D01*
X247745190Y-90354810D01*
X247723772Y-90331178D01*
X247704772Y-90305560D01*
X247688376Y-90278204D01*
X247674739Y-90249372D01*
X247663994Y-90219343D01*
X247656245Y-90188404D01*
X247651565Y-90156856D01*
X247650000Y-90125000D01*
X247650000Y-89475000D01*
X247651565Y-89443144D01*
X247656245Y-89411596D01*
X247663994Y-89380657D01*
X247674739Y-89350628D01*
X247688376Y-89321796D01*
X247704772Y-89294440D01*
X247723772Y-89268822D01*
X247745190Y-89245190D01*
X247768822Y-89223772D01*
X247794440Y-89204772D01*
X247821796Y-89188376D01*
X247850628Y-89174739D01*
X247880657Y-89163994D01*
X247911596Y-89156245D01*
X247943144Y-89151565D01*
X247975000Y-89150000D01*
X251825000Y-89150000D01*
X251856856Y-89151565D01*
G37*
G36*
X251856856Y-91651565D02*
G01*
X251888404Y-91656245D01*
X251919343Y-91663994D01*
X251949372Y-91674739D01*
X251978204Y-91688376D01*
X252005560Y-91704772D01*
X252031178Y-91723772D01*
X252054810Y-91745190D01*
X252076228Y-91768822D01*
X252095228Y-91794440D01*
X252111624Y-91821796D01*
X252125261Y-91850628D01*
X252136006Y-91880657D01*
X252143755Y-91911596D01*
X252148435Y-91943144D01*
X252150000Y-91975000D01*
X252150000Y-92625000D01*
X252148435Y-92656856D01*
X252143755Y-92688404D01*
X252136006Y-92719343D01*
X252125261Y-92749372D01*
X252111624Y-92778204D01*
X252095228Y-92805560D01*
X252076228Y-92831178D01*
X252054810Y-92854810D01*
X252031178Y-92876228D01*
X252005560Y-92895228D01*
X251978204Y-92911624D01*
X251949372Y-92925261D01*
X251919343Y-92936006D01*
X251888404Y-92943755D01*
X251856856Y-92948435D01*
X251825000Y-92950000D01*
X247975000Y-92950000D01*
X247943144Y-92948435D01*
X247911596Y-92943755D01*
X247880657Y-92936006D01*
X247850628Y-92925261D01*
X247821796Y-92911624D01*
X247794440Y-92895228D01*
X247768822Y-92876228D01*
X247745190Y-92854810D01*
X247723772Y-92831178D01*
X247704772Y-92805560D01*
X247688376Y-92778204D01*
X247674739Y-92749372D01*
X247663994Y-92719343D01*
X247656245Y-92688404D01*
X247651565Y-92656856D01*
X247650000Y-92625000D01*
X247650000Y-91975000D01*
X247651565Y-91943144D01*
X247656245Y-91911596D01*
X247663994Y-91880657D01*
X247674739Y-91850628D01*
X247688376Y-91821796D01*
X247704772Y-91794440D01*
X247723772Y-91768822D01*
X247745190Y-91745190D01*
X247768822Y-91723772D01*
X247794440Y-91704772D01*
X247821796Y-91688376D01*
X247850628Y-91674739D01*
X247880657Y-91663994D01*
X247911596Y-91656245D01*
X247943144Y-91651565D01*
X247975000Y-91650000D01*
X251825000Y-91650000D01*
X251856856Y-91651565D01*
G37*
G36*
X251856856Y-94151565D02*
G01*
X251888404Y-94156245D01*
X251919343Y-94163994D01*
X251949372Y-94174739D01*
X251978204Y-94188376D01*
X252005560Y-94204772D01*
X252031178Y-94223772D01*
X252054810Y-94245190D01*
X252076228Y-94268822D01*
X252095228Y-94294440D01*
X252111624Y-94321796D01*
X252125261Y-94350628D01*
X252136006Y-94380657D01*
X252143755Y-94411596D01*
X252148435Y-94443144D01*
X252150000Y-94475000D01*
X252150000Y-95125000D01*
X252148435Y-95156856D01*
X252143755Y-95188404D01*
X252136006Y-95219343D01*
X252125261Y-95249372D01*
X252111624Y-95278204D01*
X252095228Y-95305560D01*
X252076228Y-95331178D01*
X252054810Y-95354810D01*
X252031178Y-95376228D01*
X252005560Y-95395228D01*
X251978204Y-95411624D01*
X251949372Y-95425261D01*
X251919343Y-95436006D01*
X251888404Y-95443755D01*
X251856856Y-95448435D01*
X251825000Y-95450000D01*
X247975000Y-95450000D01*
X247943144Y-95448435D01*
X247911596Y-95443755D01*
X247880657Y-95436006D01*
X247850628Y-95425261D01*
X247821796Y-95411624D01*
X247794440Y-95395228D01*
X247768822Y-95376228D01*
X247745190Y-95354810D01*
X247723772Y-95331178D01*
X247704772Y-95305560D01*
X247688376Y-95278204D01*
X247674739Y-95249372D01*
X247663994Y-95219343D01*
X247656245Y-95188404D01*
X247651565Y-95156856D01*
X247650000Y-95125000D01*
X247650000Y-94475000D01*
X247651565Y-94443144D01*
X247656245Y-94411596D01*
X247663994Y-94380657D01*
X247674739Y-94350628D01*
X247688376Y-94321796D01*
X247704772Y-94294440D01*
X247723772Y-94268822D01*
X247745190Y-94245190D01*
X247768822Y-94223772D01*
X247794440Y-94204772D01*
X247821796Y-94188376D01*
X247850628Y-94174739D01*
X247880657Y-94163994D01*
X247911596Y-94156245D01*
X247943144Y-94151565D01*
X247975000Y-94150000D01*
X251825000Y-94150000D01*
X251856856Y-94151565D01*
G37*
%TD*%
D13*
%TO.C,U1*%
X185410000Y-96275000D03*
X184140000Y-96275000D03*
X182870000Y-96275000D03*
X181600000Y-96275000D03*
X180330000Y-96275000D03*
X179060000Y-96275000D03*
X177790000Y-96275000D03*
D14*
X178825000Y-84700000D03*
X184375000Y-89550000D03*
X184375000Y-84700000D03*
X178825000Y-89550000D03*
%TD*%
D15*
%TO.C,C1*%
G36*
X124174504Y-91126204D02*
G01*
X124198773Y-91129804D01*
X124222571Y-91135765D01*
X124245671Y-91144030D01*
X124267849Y-91154520D01*
X124288893Y-91167133D01*
X124308598Y-91181747D01*
X124326777Y-91198223D01*
X124343253Y-91216402D01*
X124357867Y-91236107D01*
X124370480Y-91257151D01*
X124380970Y-91279329D01*
X124389235Y-91302429D01*
X124395196Y-91326227D01*
X124398796Y-91350496D01*
X124400000Y-91375000D01*
X124400000Y-93225000D01*
X124398796Y-93249504D01*
X124395196Y-93273773D01*
X124389235Y-93297571D01*
X124380970Y-93320671D01*
X124370480Y-93342849D01*
X124357867Y-93363893D01*
X124343253Y-93383598D01*
X124326777Y-93401777D01*
X124308598Y-93418253D01*
X124288893Y-93432867D01*
X124267849Y-93445480D01*
X124245671Y-93455970D01*
X124222571Y-93464235D01*
X124198773Y-93470196D01*
X124174504Y-93473796D01*
X124150000Y-93475000D01*
X122575000Y-93475000D01*
X122550496Y-93473796D01*
X122526227Y-93470196D01*
X122502429Y-93464235D01*
X122479329Y-93455970D01*
X122457151Y-93445480D01*
X122436107Y-93432867D01*
X122416402Y-93418253D01*
X122398223Y-93401777D01*
X122381747Y-93383598D01*
X122367133Y-93363893D01*
X122354520Y-93342849D01*
X122344030Y-93320671D01*
X122335765Y-93297571D01*
X122329804Y-93273773D01*
X122326204Y-93249504D01*
X122325000Y-93225000D01*
X122325000Y-91375000D01*
X122326204Y-91350496D01*
X122329804Y-91326227D01*
X122335765Y-91302429D01*
X122344030Y-91279329D01*
X122354520Y-91257151D01*
X122367133Y-91236107D01*
X122381747Y-91216402D01*
X122398223Y-91198223D01*
X122416402Y-91181747D01*
X122436107Y-91167133D01*
X122457151Y-91154520D01*
X122479329Y-91144030D01*
X122502429Y-91135765D01*
X122526227Y-91129804D01*
X122550496Y-91126204D01*
X122575000Y-91125000D01*
X124150000Y-91125000D01*
X124174504Y-91126204D01*
G37*
G36*
X119249504Y-91126204D02*
G01*
X119273773Y-91129804D01*
X119297571Y-91135765D01*
X119320671Y-91144030D01*
X119342849Y-91154520D01*
X119363893Y-91167133D01*
X119383598Y-91181747D01*
X119401777Y-91198223D01*
X119418253Y-91216402D01*
X119432867Y-91236107D01*
X119445480Y-91257151D01*
X119455970Y-91279329D01*
X119464235Y-91302429D01*
X119470196Y-91326227D01*
X119473796Y-91350496D01*
X119475000Y-91375000D01*
X119475000Y-93225000D01*
X119473796Y-93249504D01*
X119470196Y-93273773D01*
X119464235Y-93297571D01*
X119455970Y-93320671D01*
X119445480Y-93342849D01*
X119432867Y-93363893D01*
X119418253Y-93383598D01*
X119401777Y-93401777D01*
X119383598Y-93418253D01*
X119363893Y-93432867D01*
X119342849Y-93445480D01*
X119320671Y-93455970D01*
X119297571Y-93464235D01*
X119273773Y-93470196D01*
X119249504Y-93473796D01*
X119225000Y-93475000D01*
X117650000Y-93475000D01*
X117625496Y-93473796D01*
X117601227Y-93470196D01*
X117577429Y-93464235D01*
X117554329Y-93455970D01*
X117532151Y-93445480D01*
X117511107Y-93432867D01*
X117491402Y-93418253D01*
X117473223Y-93401777D01*
X117456747Y-93383598D01*
X117442133Y-93363893D01*
X117429520Y-93342849D01*
X117419030Y-93320671D01*
X117410765Y-93297571D01*
X117404804Y-93273773D01*
X117401204Y-93249504D01*
X117400000Y-93225000D01*
X117400000Y-91375000D01*
X117401204Y-91350496D01*
X117404804Y-91326227D01*
X117410765Y-91302429D01*
X117419030Y-91279329D01*
X117429520Y-91257151D01*
X117442133Y-91236107D01*
X117456747Y-91216402D01*
X117473223Y-91198223D01*
X117491402Y-91181747D01*
X117511107Y-91167133D01*
X117532151Y-91154520D01*
X117554329Y-91144030D01*
X117577429Y-91135765D01*
X117601227Y-91129804D01*
X117625496Y-91126204D01*
X117650000Y-91125000D01*
X119225000Y-91125000D01*
X119249504Y-91126204D01*
G37*
%TD*%
%TO.C,R6*%
G36*
X102176958Y-85980710D02*
G01*
X102191276Y-85982834D01*
X102205317Y-85986351D01*
X102218946Y-85991228D01*
X102232031Y-85997417D01*
X102244447Y-86004858D01*
X102256073Y-86013481D01*
X102266798Y-86023202D01*
X102276519Y-86033927D01*
X102285142Y-86045553D01*
X102292583Y-86057969D01*
X102298772Y-86071054D01*
X102303649Y-86084683D01*
X102307166Y-86098724D01*
X102309290Y-86113042D01*
X102310000Y-86127500D01*
X102310000Y-86472500D01*
X102309290Y-86486958D01*
X102307166Y-86501276D01*
X102303649Y-86515317D01*
X102298772Y-86528946D01*
X102292583Y-86542031D01*
X102285142Y-86554447D01*
X102276519Y-86566073D01*
X102266798Y-86576798D01*
X102256073Y-86586519D01*
X102244447Y-86595142D01*
X102232031Y-86602583D01*
X102218946Y-86608772D01*
X102205317Y-86613649D01*
X102191276Y-86617166D01*
X102176958Y-86619290D01*
X102162500Y-86620000D01*
X101867500Y-86620000D01*
X101853042Y-86619290D01*
X101838724Y-86617166D01*
X101824683Y-86613649D01*
X101811054Y-86608772D01*
X101797969Y-86602583D01*
X101785553Y-86595142D01*
X101773927Y-86586519D01*
X101763202Y-86576798D01*
X101753481Y-86566073D01*
X101744858Y-86554447D01*
X101737417Y-86542031D01*
X101731228Y-86528946D01*
X101726351Y-86515317D01*
X101722834Y-86501276D01*
X101720710Y-86486958D01*
X101720000Y-86472500D01*
X101720000Y-86127500D01*
X101720710Y-86113042D01*
X101722834Y-86098724D01*
X101726351Y-86084683D01*
X101731228Y-86071054D01*
X101737417Y-86057969D01*
X101744858Y-86045553D01*
X101753481Y-86033927D01*
X101763202Y-86023202D01*
X101773927Y-86013481D01*
X101785553Y-86004858D01*
X101797969Y-85997417D01*
X101811054Y-85991228D01*
X101824683Y-85986351D01*
X101838724Y-85982834D01*
X101853042Y-85980710D01*
X101867500Y-85980000D01*
X102162500Y-85980000D01*
X102176958Y-85980710D01*
G37*
G36*
X103146958Y-85980710D02*
G01*
X103161276Y-85982834D01*
X103175317Y-85986351D01*
X103188946Y-85991228D01*
X103202031Y-85997417D01*
X103214447Y-86004858D01*
X103226073Y-86013481D01*
X103236798Y-86023202D01*
X103246519Y-86033927D01*
X103255142Y-86045553D01*
X103262583Y-86057969D01*
X103268772Y-86071054D01*
X103273649Y-86084683D01*
X103277166Y-86098724D01*
X103279290Y-86113042D01*
X103280000Y-86127500D01*
X103280000Y-86472500D01*
X103279290Y-86486958D01*
X103277166Y-86501276D01*
X103273649Y-86515317D01*
X103268772Y-86528946D01*
X103262583Y-86542031D01*
X103255142Y-86554447D01*
X103246519Y-86566073D01*
X103236798Y-86576798D01*
X103226073Y-86586519D01*
X103214447Y-86595142D01*
X103202031Y-86602583D01*
X103188946Y-86608772D01*
X103175317Y-86613649D01*
X103161276Y-86617166D01*
X103146958Y-86619290D01*
X103132500Y-86620000D01*
X102837500Y-86620000D01*
X102823042Y-86619290D01*
X102808724Y-86617166D01*
X102794683Y-86613649D01*
X102781054Y-86608772D01*
X102767969Y-86602583D01*
X102755553Y-86595142D01*
X102743927Y-86586519D01*
X102733202Y-86576798D01*
X102723481Y-86566073D01*
X102714858Y-86554447D01*
X102707417Y-86542031D01*
X102701228Y-86528946D01*
X102696351Y-86515317D01*
X102692834Y-86501276D01*
X102690710Y-86486958D01*
X102690000Y-86472500D01*
X102690000Y-86127500D01*
X102690710Y-86113042D01*
X102692834Y-86098724D01*
X102696351Y-86084683D01*
X102701228Y-86071054D01*
X102707417Y-86057969D01*
X102714858Y-86045553D01*
X102723481Y-86033927D01*
X102733202Y-86023202D01*
X102743927Y-86013481D01*
X102755553Y-86004858D01*
X102767969Y-85997417D01*
X102781054Y-85991228D01*
X102794683Y-85986351D01*
X102808724Y-85982834D01*
X102823042Y-85980710D01*
X102837500Y-85980000D01*
X103132500Y-85980000D01*
X103146958Y-85980710D01*
G37*
%TD*%
%TO.C,F1*%
G36*
X113599504Y-94476204D02*
G01*
X113623773Y-94479804D01*
X113647571Y-94485765D01*
X113670671Y-94494030D01*
X113692849Y-94504520D01*
X113713893Y-94517133D01*
X113733598Y-94531747D01*
X113751777Y-94548223D01*
X113768253Y-94566402D01*
X113782867Y-94586107D01*
X113795480Y-94607151D01*
X113805970Y-94629329D01*
X113814235Y-94652429D01*
X113820196Y-94676227D01*
X113823796Y-94700496D01*
X113825000Y-94725000D01*
X113825000Y-96875000D01*
X113823796Y-96899504D01*
X113820196Y-96923773D01*
X113814235Y-96947571D01*
X113805970Y-96970671D01*
X113795480Y-96992849D01*
X113782867Y-97013893D01*
X113768253Y-97033598D01*
X113751777Y-97051777D01*
X113733598Y-97068253D01*
X113713893Y-97082867D01*
X113692849Y-97095480D01*
X113670671Y-97105970D01*
X113647571Y-97114235D01*
X113623773Y-97120196D01*
X113599504Y-97123796D01*
X113575000Y-97125000D01*
X112825000Y-97125000D01*
X112800496Y-97123796D01*
X112776227Y-97120196D01*
X112752429Y-97114235D01*
X112729329Y-97105970D01*
X112707151Y-97095480D01*
X112686107Y-97082867D01*
X112666402Y-97068253D01*
X112648223Y-97051777D01*
X112631747Y-97033598D01*
X112617133Y-97013893D01*
X112604520Y-96992849D01*
X112594030Y-96970671D01*
X112585765Y-96947571D01*
X112579804Y-96923773D01*
X112576204Y-96899504D01*
X112575000Y-96875000D01*
X112575000Y-94725000D01*
X112576204Y-94700496D01*
X112579804Y-94676227D01*
X112585765Y-94652429D01*
X112594030Y-94629329D01*
X112604520Y-94607151D01*
X112617133Y-94586107D01*
X112631747Y-94566402D01*
X112648223Y-94548223D01*
X112666402Y-94531747D01*
X112686107Y-94517133D01*
X112707151Y-94504520D01*
X112729329Y-94494030D01*
X112752429Y-94485765D01*
X112776227Y-94479804D01*
X112800496Y-94476204D01*
X112825000Y-94475000D01*
X113575000Y-94475000D01*
X113599504Y-94476204D01*
G37*
G36*
X116399504Y-94476204D02*
G01*
X116423773Y-94479804D01*
X116447571Y-94485765D01*
X116470671Y-94494030D01*
X116492849Y-94504520D01*
X116513893Y-94517133D01*
X116533598Y-94531747D01*
X116551777Y-94548223D01*
X116568253Y-94566402D01*
X116582867Y-94586107D01*
X116595480Y-94607151D01*
X116605970Y-94629329D01*
X116614235Y-94652429D01*
X116620196Y-94676227D01*
X116623796Y-94700496D01*
X116625000Y-94725000D01*
X116625000Y-96875000D01*
X116623796Y-96899504D01*
X116620196Y-96923773D01*
X116614235Y-96947571D01*
X116605970Y-96970671D01*
X116595480Y-96992849D01*
X116582867Y-97013893D01*
X116568253Y-97033598D01*
X116551777Y-97051777D01*
X116533598Y-97068253D01*
X116513893Y-97082867D01*
X116492849Y-97095480D01*
X116470671Y-97105970D01*
X116447571Y-97114235D01*
X116423773Y-97120196D01*
X116399504Y-97123796D01*
X116375000Y-97125000D01*
X115625000Y-97125000D01*
X115600496Y-97123796D01*
X115576227Y-97120196D01*
X115552429Y-97114235D01*
X115529329Y-97105970D01*
X115507151Y-97095480D01*
X115486107Y-97082867D01*
X115466402Y-97068253D01*
X115448223Y-97051777D01*
X115431747Y-97033598D01*
X115417133Y-97013893D01*
X115404520Y-96992849D01*
X115394030Y-96970671D01*
X115385765Y-96947571D01*
X115379804Y-96923773D01*
X115376204Y-96899504D01*
X115375000Y-96875000D01*
X115375000Y-94725000D01*
X115376204Y-94700496D01*
X115379804Y-94676227D01*
X115385765Y-94652429D01*
X115394030Y-94629329D01*
X115404520Y-94607151D01*
X115417133Y-94586107D01*
X115431747Y-94566402D01*
X115448223Y-94548223D01*
X115466402Y-94531747D01*
X115486107Y-94517133D01*
X115507151Y-94504520D01*
X115529329Y-94494030D01*
X115552429Y-94485765D01*
X115576227Y-94479804D01*
X115600496Y-94476204D01*
X115625000Y-94475000D01*
X116375000Y-94475000D01*
X116399504Y-94476204D01*
G37*
%TD*%
%TO.C,R5*%
G36*
X103131958Y-86980710D02*
G01*
X103146276Y-86982834D01*
X103160317Y-86986351D01*
X103173946Y-86991228D01*
X103187031Y-86997417D01*
X103199447Y-87004858D01*
X103211073Y-87013481D01*
X103221798Y-87023202D01*
X103231519Y-87033927D01*
X103240142Y-87045553D01*
X103247583Y-87057969D01*
X103253772Y-87071054D01*
X103258649Y-87084683D01*
X103262166Y-87098724D01*
X103264290Y-87113042D01*
X103265000Y-87127500D01*
X103265000Y-87472500D01*
X103264290Y-87486958D01*
X103262166Y-87501276D01*
X103258649Y-87515317D01*
X103253772Y-87528946D01*
X103247583Y-87542031D01*
X103240142Y-87554447D01*
X103231519Y-87566073D01*
X103221798Y-87576798D01*
X103211073Y-87586519D01*
X103199447Y-87595142D01*
X103187031Y-87602583D01*
X103173946Y-87608772D01*
X103160317Y-87613649D01*
X103146276Y-87617166D01*
X103131958Y-87619290D01*
X103117500Y-87620000D01*
X102822500Y-87620000D01*
X102808042Y-87619290D01*
X102793724Y-87617166D01*
X102779683Y-87613649D01*
X102766054Y-87608772D01*
X102752969Y-87602583D01*
X102740553Y-87595142D01*
X102728927Y-87586519D01*
X102718202Y-87576798D01*
X102708481Y-87566073D01*
X102699858Y-87554447D01*
X102692417Y-87542031D01*
X102686228Y-87528946D01*
X102681351Y-87515317D01*
X102677834Y-87501276D01*
X102675710Y-87486958D01*
X102675000Y-87472500D01*
X102675000Y-87127500D01*
X102675710Y-87113042D01*
X102677834Y-87098724D01*
X102681351Y-87084683D01*
X102686228Y-87071054D01*
X102692417Y-87057969D01*
X102699858Y-87045553D01*
X102708481Y-87033927D01*
X102718202Y-87023202D01*
X102728927Y-87013481D01*
X102740553Y-87004858D01*
X102752969Y-86997417D01*
X102766054Y-86991228D01*
X102779683Y-86986351D01*
X102793724Y-86982834D01*
X102808042Y-86980710D01*
X102822500Y-86980000D01*
X103117500Y-86980000D01*
X103131958Y-86980710D01*
G37*
G36*
X102161958Y-86980710D02*
G01*
X102176276Y-86982834D01*
X102190317Y-86986351D01*
X102203946Y-86991228D01*
X102217031Y-86997417D01*
X102229447Y-87004858D01*
X102241073Y-87013481D01*
X102251798Y-87023202D01*
X102261519Y-87033927D01*
X102270142Y-87045553D01*
X102277583Y-87057969D01*
X102283772Y-87071054D01*
X102288649Y-87084683D01*
X102292166Y-87098724D01*
X102294290Y-87113042D01*
X102295000Y-87127500D01*
X102295000Y-87472500D01*
X102294290Y-87486958D01*
X102292166Y-87501276D01*
X102288649Y-87515317D01*
X102283772Y-87528946D01*
X102277583Y-87542031D01*
X102270142Y-87554447D01*
X102261519Y-87566073D01*
X102251798Y-87576798D01*
X102241073Y-87586519D01*
X102229447Y-87595142D01*
X102217031Y-87602583D01*
X102203946Y-87608772D01*
X102190317Y-87613649D01*
X102176276Y-87617166D01*
X102161958Y-87619290D01*
X102147500Y-87620000D01*
X101852500Y-87620000D01*
X101838042Y-87619290D01*
X101823724Y-87617166D01*
X101809683Y-87613649D01*
X101796054Y-87608772D01*
X101782969Y-87602583D01*
X101770553Y-87595142D01*
X101758927Y-87586519D01*
X101748202Y-87576798D01*
X101738481Y-87566073D01*
X101729858Y-87554447D01*
X101722417Y-87542031D01*
X101716228Y-87528946D01*
X101711351Y-87515317D01*
X101707834Y-87501276D01*
X101705710Y-87486958D01*
X101705000Y-87472500D01*
X101705000Y-87127500D01*
X101705710Y-87113042D01*
X101707834Y-87098724D01*
X101711351Y-87084683D01*
X101716228Y-87071054D01*
X101722417Y-87057969D01*
X101729858Y-87045553D01*
X101738481Y-87033927D01*
X101748202Y-87023202D01*
X101758927Y-87013481D01*
X101770553Y-87004858D01*
X101782969Y-86997417D01*
X101796054Y-86991228D01*
X101809683Y-86986351D01*
X101823724Y-86982834D01*
X101838042Y-86980710D01*
X101852500Y-86980000D01*
X102147500Y-86980000D01*
X102161958Y-86980710D01*
G37*
%TD*%
D16*
%TO.C,D25*%
X105800000Y-94750000D03*
X105800000Y-97250000D03*
%TD*%
D13*
%TO.C,U3*%
X202310000Y-96075000D03*
X201040000Y-96075000D03*
X199770000Y-96075000D03*
X198500000Y-96075000D03*
X197230000Y-96075000D03*
X195960000Y-96075000D03*
X194690000Y-96075000D03*
D14*
X195725000Y-84500000D03*
X201275000Y-89350000D03*
X201275000Y-84500000D03*
X195725000Y-89350000D03*
%TD*%
D15*
%TO.C,C2*%
G36*
X124174504Y-87426204D02*
G01*
X124198773Y-87429804D01*
X124222571Y-87435765D01*
X124245671Y-87444030D01*
X124267849Y-87454520D01*
X124288893Y-87467133D01*
X124308598Y-87481747D01*
X124326777Y-87498223D01*
X124343253Y-87516402D01*
X124357867Y-87536107D01*
X124370480Y-87557151D01*
X124380970Y-87579329D01*
X124389235Y-87602429D01*
X124395196Y-87626227D01*
X124398796Y-87650496D01*
X124400000Y-87675000D01*
X124400000Y-89525000D01*
X124398796Y-89549504D01*
X124395196Y-89573773D01*
X124389235Y-89597571D01*
X124380970Y-89620671D01*
X124370480Y-89642849D01*
X124357867Y-89663893D01*
X124343253Y-89683598D01*
X124326777Y-89701777D01*
X124308598Y-89718253D01*
X124288893Y-89732867D01*
X124267849Y-89745480D01*
X124245671Y-89755970D01*
X124222571Y-89764235D01*
X124198773Y-89770196D01*
X124174504Y-89773796D01*
X124150000Y-89775000D01*
X122575000Y-89775000D01*
X122550496Y-89773796D01*
X122526227Y-89770196D01*
X122502429Y-89764235D01*
X122479329Y-89755970D01*
X122457151Y-89745480D01*
X122436107Y-89732867D01*
X122416402Y-89718253D01*
X122398223Y-89701777D01*
X122381747Y-89683598D01*
X122367133Y-89663893D01*
X122354520Y-89642849D01*
X122344030Y-89620671D01*
X122335765Y-89597571D01*
X122329804Y-89573773D01*
X122326204Y-89549504D01*
X122325000Y-89525000D01*
X122325000Y-87675000D01*
X122326204Y-87650496D01*
X122329804Y-87626227D01*
X122335765Y-87602429D01*
X122344030Y-87579329D01*
X122354520Y-87557151D01*
X122367133Y-87536107D01*
X122381747Y-87516402D01*
X122398223Y-87498223D01*
X122416402Y-87481747D01*
X122436107Y-87467133D01*
X122457151Y-87454520D01*
X122479329Y-87444030D01*
X122502429Y-87435765D01*
X122526227Y-87429804D01*
X122550496Y-87426204D01*
X122575000Y-87425000D01*
X124150000Y-87425000D01*
X124174504Y-87426204D01*
G37*
G36*
X119249504Y-87426204D02*
G01*
X119273773Y-87429804D01*
X119297571Y-87435765D01*
X119320671Y-87444030D01*
X119342849Y-87454520D01*
X119363893Y-87467133D01*
X119383598Y-87481747D01*
X119401777Y-87498223D01*
X119418253Y-87516402D01*
X119432867Y-87536107D01*
X119445480Y-87557151D01*
X119455970Y-87579329D01*
X119464235Y-87602429D01*
X119470196Y-87626227D01*
X119473796Y-87650496D01*
X119475000Y-87675000D01*
X119475000Y-89525000D01*
X119473796Y-89549504D01*
X119470196Y-89573773D01*
X119464235Y-89597571D01*
X119455970Y-89620671D01*
X119445480Y-89642849D01*
X119432867Y-89663893D01*
X119418253Y-89683598D01*
X119401777Y-89701777D01*
X119383598Y-89718253D01*
X119363893Y-89732867D01*
X119342849Y-89745480D01*
X119320671Y-89755970D01*
X119297571Y-89764235D01*
X119273773Y-89770196D01*
X119249504Y-89773796D01*
X119225000Y-89775000D01*
X117650000Y-89775000D01*
X117625496Y-89773796D01*
X117601227Y-89770196D01*
X117577429Y-89764235D01*
X117554329Y-89755970D01*
X117532151Y-89745480D01*
X117511107Y-89732867D01*
X117491402Y-89718253D01*
X117473223Y-89701777D01*
X117456747Y-89683598D01*
X117442133Y-89663893D01*
X117429520Y-89642849D01*
X117419030Y-89620671D01*
X117410765Y-89597571D01*
X117404804Y-89573773D01*
X117401204Y-89549504D01*
X117400000Y-89525000D01*
X117400000Y-87675000D01*
X117401204Y-87650496D01*
X117404804Y-87626227D01*
X117410765Y-87602429D01*
X117419030Y-87579329D01*
X117429520Y-87557151D01*
X117442133Y-87536107D01*
X117456747Y-87516402D01*
X117473223Y-87498223D01*
X117491402Y-87481747D01*
X117511107Y-87467133D01*
X117532151Y-87454520D01*
X117554329Y-87444030D01*
X117577429Y-87435765D01*
X117601227Y-87429804D01*
X117625496Y-87426204D01*
X117650000Y-87425000D01*
X119225000Y-87425000D01*
X119249504Y-87426204D01*
G37*
%TD*%
%TO.C,C5*%
G36*
X160967642Y-94901174D02*
G01*
X160991303Y-94904684D01*
X161014507Y-94910496D01*
X161037029Y-94918554D01*
X161058653Y-94928782D01*
X161079170Y-94941079D01*
X161098383Y-94955329D01*
X161116107Y-94971393D01*
X161132171Y-94989117D01*
X161146421Y-95008330D01*
X161158718Y-95028847D01*
X161168946Y-95050471D01*
X161177004Y-95072993D01*
X161182816Y-95096197D01*
X161186326Y-95119858D01*
X161187500Y-95143750D01*
X161187500Y-96056250D01*
X161186326Y-96080142D01*
X161182816Y-96103803D01*
X161177004Y-96127007D01*
X161168946Y-96149529D01*
X161158718Y-96171153D01*
X161146421Y-96191670D01*
X161132171Y-96210883D01*
X161116107Y-96228607D01*
X161098383Y-96244671D01*
X161079170Y-96258921D01*
X161058653Y-96271218D01*
X161037029Y-96281446D01*
X161014507Y-96289504D01*
X160991303Y-96295316D01*
X160967642Y-96298826D01*
X160943750Y-96300000D01*
X160456250Y-96300000D01*
X160432358Y-96298826D01*
X160408697Y-96295316D01*
X160385493Y-96289504D01*
X160362971Y-96281446D01*
X160341347Y-96271218D01*
X160320830Y-96258921D01*
X160301617Y-96244671D01*
X160283893Y-96228607D01*
X160267829Y-96210883D01*
X160253579Y-96191670D01*
X160241282Y-96171153D01*
X160231054Y-96149529D01*
X160222996Y-96127007D01*
X160217184Y-96103803D01*
X160213674Y-96080142D01*
X160212500Y-96056250D01*
X160212500Y-95143750D01*
X160213674Y-95119858D01*
X160217184Y-95096197D01*
X160222996Y-95072993D01*
X160231054Y-95050471D01*
X160241282Y-95028847D01*
X160253579Y-95008330D01*
X160267829Y-94989117D01*
X160283893Y-94971393D01*
X160301617Y-94955329D01*
X160320830Y-94941079D01*
X160341347Y-94928782D01*
X160362971Y-94918554D01*
X160385493Y-94910496D01*
X160408697Y-94904684D01*
X160432358Y-94901174D01*
X160456250Y-94900000D01*
X160943750Y-94900000D01*
X160967642Y-94901174D01*
G37*
G36*
X159092642Y-94901174D02*
G01*
X159116303Y-94904684D01*
X159139507Y-94910496D01*
X159162029Y-94918554D01*
X159183653Y-94928782D01*
X159204170Y-94941079D01*
X159223383Y-94955329D01*
X159241107Y-94971393D01*
X159257171Y-94989117D01*
X159271421Y-95008330D01*
X159283718Y-95028847D01*
X159293946Y-95050471D01*
X159302004Y-95072993D01*
X159307816Y-95096197D01*
X159311326Y-95119858D01*
X159312500Y-95143750D01*
X159312500Y-96056250D01*
X159311326Y-96080142D01*
X159307816Y-96103803D01*
X159302004Y-96127007D01*
X159293946Y-96149529D01*
X159283718Y-96171153D01*
X159271421Y-96191670D01*
X159257171Y-96210883D01*
X159241107Y-96228607D01*
X159223383Y-96244671D01*
X159204170Y-96258921D01*
X159183653Y-96271218D01*
X159162029Y-96281446D01*
X159139507Y-96289504D01*
X159116303Y-96295316D01*
X159092642Y-96298826D01*
X159068750Y-96300000D01*
X158581250Y-96300000D01*
X158557358Y-96298826D01*
X158533697Y-96295316D01*
X158510493Y-96289504D01*
X158487971Y-96281446D01*
X158466347Y-96271218D01*
X158445830Y-96258921D01*
X158426617Y-96244671D01*
X158408893Y-96228607D01*
X158392829Y-96210883D01*
X158378579Y-96191670D01*
X158366282Y-96171153D01*
X158356054Y-96149529D01*
X158347996Y-96127007D01*
X158342184Y-96103803D01*
X158338674Y-96080142D01*
X158337500Y-96056250D01*
X158337500Y-95143750D01*
X158338674Y-95119858D01*
X158342184Y-95096197D01*
X158347996Y-95072993D01*
X158356054Y-95050471D01*
X158366282Y-95028847D01*
X158378579Y-95008330D01*
X158392829Y-94989117D01*
X158408893Y-94971393D01*
X158426617Y-94955329D01*
X158445830Y-94941079D01*
X158466347Y-94928782D01*
X158487971Y-94918554D01*
X158510493Y-94910496D01*
X158533697Y-94904684D01*
X158557358Y-94901174D01*
X158581250Y-94900000D01*
X159068750Y-94900000D01*
X159092642Y-94901174D01*
G37*
%TD*%
%TO.C,C3*%
G36*
X66105142Y-85801174D02*
G01*
X66128803Y-85804684D01*
X66152007Y-85810496D01*
X66174529Y-85818554D01*
X66196153Y-85828782D01*
X66216670Y-85841079D01*
X66235883Y-85855329D01*
X66253607Y-85871393D01*
X66269671Y-85889117D01*
X66283921Y-85908330D01*
X66296218Y-85928847D01*
X66306446Y-85950471D01*
X66314504Y-85972993D01*
X66320316Y-85996197D01*
X66323826Y-86019858D01*
X66325000Y-86043750D01*
X66325000Y-86956250D01*
X66323826Y-86980142D01*
X66320316Y-87003803D01*
X66314504Y-87027007D01*
X66306446Y-87049529D01*
X66296218Y-87071153D01*
X66283921Y-87091670D01*
X66269671Y-87110883D01*
X66253607Y-87128607D01*
X66235883Y-87144671D01*
X66216670Y-87158921D01*
X66196153Y-87171218D01*
X66174529Y-87181446D01*
X66152007Y-87189504D01*
X66128803Y-87195316D01*
X66105142Y-87198826D01*
X66081250Y-87200000D01*
X65593750Y-87200000D01*
X65569858Y-87198826D01*
X65546197Y-87195316D01*
X65522993Y-87189504D01*
X65500471Y-87181446D01*
X65478847Y-87171218D01*
X65458330Y-87158921D01*
X65439117Y-87144671D01*
X65421393Y-87128607D01*
X65405329Y-87110883D01*
X65391079Y-87091670D01*
X65378782Y-87071153D01*
X65368554Y-87049529D01*
X65360496Y-87027007D01*
X65354684Y-87003803D01*
X65351174Y-86980142D01*
X65350000Y-86956250D01*
X65350000Y-86043750D01*
X65351174Y-86019858D01*
X65354684Y-85996197D01*
X65360496Y-85972993D01*
X65368554Y-85950471D01*
X65378782Y-85928847D01*
X65391079Y-85908330D01*
X65405329Y-85889117D01*
X65421393Y-85871393D01*
X65439117Y-85855329D01*
X65458330Y-85841079D01*
X65478847Y-85828782D01*
X65500471Y-85818554D01*
X65522993Y-85810496D01*
X65546197Y-85804684D01*
X65569858Y-85801174D01*
X65593750Y-85800000D01*
X66081250Y-85800000D01*
X66105142Y-85801174D01*
G37*
G36*
X64230142Y-85801174D02*
G01*
X64253803Y-85804684D01*
X64277007Y-85810496D01*
X64299529Y-85818554D01*
X64321153Y-85828782D01*
X64341670Y-85841079D01*
X64360883Y-85855329D01*
X64378607Y-85871393D01*
X64394671Y-85889117D01*
X64408921Y-85908330D01*
X64421218Y-85928847D01*
X64431446Y-85950471D01*
X64439504Y-85972993D01*
X64445316Y-85996197D01*
X64448826Y-86019858D01*
X64450000Y-86043750D01*
X64450000Y-86956250D01*
X64448826Y-86980142D01*
X64445316Y-87003803D01*
X64439504Y-87027007D01*
X64431446Y-87049529D01*
X64421218Y-87071153D01*
X64408921Y-87091670D01*
X64394671Y-87110883D01*
X64378607Y-87128607D01*
X64360883Y-87144671D01*
X64341670Y-87158921D01*
X64321153Y-87171218D01*
X64299529Y-87181446D01*
X64277007Y-87189504D01*
X64253803Y-87195316D01*
X64230142Y-87198826D01*
X64206250Y-87200000D01*
X63718750Y-87200000D01*
X63694858Y-87198826D01*
X63671197Y-87195316D01*
X63647993Y-87189504D01*
X63625471Y-87181446D01*
X63603847Y-87171218D01*
X63583330Y-87158921D01*
X63564117Y-87144671D01*
X63546393Y-87128607D01*
X63530329Y-87110883D01*
X63516079Y-87091670D01*
X63503782Y-87071153D01*
X63493554Y-87049529D01*
X63485496Y-87027007D01*
X63479684Y-87003803D01*
X63476174Y-86980142D01*
X63475000Y-86956250D01*
X63475000Y-86043750D01*
X63476174Y-86019858D01*
X63479684Y-85996197D01*
X63485496Y-85972993D01*
X63493554Y-85950471D01*
X63503782Y-85928847D01*
X63516079Y-85908330D01*
X63530329Y-85889117D01*
X63546393Y-85871393D01*
X63564117Y-85855329D01*
X63583330Y-85841079D01*
X63603847Y-85828782D01*
X63625471Y-85818554D01*
X63647993Y-85810496D01*
X63671197Y-85804684D01*
X63694858Y-85801174D01*
X63718750Y-85800000D01*
X64206250Y-85800000D01*
X64230142Y-85801174D01*
G37*
%TD*%
%TO.C,C4*%
G36*
X64230142Y-83801174D02*
G01*
X64253803Y-83804684D01*
X64277007Y-83810496D01*
X64299529Y-83818554D01*
X64321153Y-83828782D01*
X64341670Y-83841079D01*
X64360883Y-83855329D01*
X64378607Y-83871393D01*
X64394671Y-83889117D01*
X64408921Y-83908330D01*
X64421218Y-83928847D01*
X64431446Y-83950471D01*
X64439504Y-83972993D01*
X64445316Y-83996197D01*
X64448826Y-84019858D01*
X64450000Y-84043750D01*
X64450000Y-84956250D01*
X64448826Y-84980142D01*
X64445316Y-85003803D01*
X64439504Y-85027007D01*
X64431446Y-85049529D01*
X64421218Y-85071153D01*
X64408921Y-85091670D01*
X64394671Y-85110883D01*
X64378607Y-85128607D01*
X64360883Y-85144671D01*
X64341670Y-85158921D01*
X64321153Y-85171218D01*
X64299529Y-85181446D01*
X64277007Y-85189504D01*
X64253803Y-85195316D01*
X64230142Y-85198826D01*
X64206250Y-85200000D01*
X63718750Y-85200000D01*
X63694858Y-85198826D01*
X63671197Y-85195316D01*
X63647993Y-85189504D01*
X63625471Y-85181446D01*
X63603847Y-85171218D01*
X63583330Y-85158921D01*
X63564117Y-85144671D01*
X63546393Y-85128607D01*
X63530329Y-85110883D01*
X63516079Y-85091670D01*
X63503782Y-85071153D01*
X63493554Y-85049529D01*
X63485496Y-85027007D01*
X63479684Y-85003803D01*
X63476174Y-84980142D01*
X63475000Y-84956250D01*
X63475000Y-84043750D01*
X63476174Y-84019858D01*
X63479684Y-83996197D01*
X63485496Y-83972993D01*
X63493554Y-83950471D01*
X63503782Y-83928847D01*
X63516079Y-83908330D01*
X63530329Y-83889117D01*
X63546393Y-83871393D01*
X63564117Y-83855329D01*
X63583330Y-83841079D01*
X63603847Y-83828782D01*
X63625471Y-83818554D01*
X63647993Y-83810496D01*
X63671197Y-83804684D01*
X63694858Y-83801174D01*
X63718750Y-83800000D01*
X64206250Y-83800000D01*
X64230142Y-83801174D01*
G37*
G36*
X66105142Y-83801174D02*
G01*
X66128803Y-83804684D01*
X66152007Y-83810496D01*
X66174529Y-83818554D01*
X66196153Y-83828782D01*
X66216670Y-83841079D01*
X66235883Y-83855329D01*
X66253607Y-83871393D01*
X66269671Y-83889117D01*
X66283921Y-83908330D01*
X66296218Y-83928847D01*
X66306446Y-83950471D01*
X66314504Y-83972993D01*
X66320316Y-83996197D01*
X66323826Y-84019858D01*
X66325000Y-84043750D01*
X66325000Y-84956250D01*
X66323826Y-84980142D01*
X66320316Y-85003803D01*
X66314504Y-85027007D01*
X66306446Y-85049529D01*
X66296218Y-85071153D01*
X66283921Y-85091670D01*
X66269671Y-85110883D01*
X66253607Y-85128607D01*
X66235883Y-85144671D01*
X66216670Y-85158921D01*
X66196153Y-85171218D01*
X66174529Y-85181446D01*
X66152007Y-85189504D01*
X66128803Y-85195316D01*
X66105142Y-85198826D01*
X66081250Y-85200000D01*
X65593750Y-85200000D01*
X65569858Y-85198826D01*
X65546197Y-85195316D01*
X65522993Y-85189504D01*
X65500471Y-85181446D01*
X65478847Y-85171218D01*
X65458330Y-85158921D01*
X65439117Y-85144671D01*
X65421393Y-85128607D01*
X65405329Y-85110883D01*
X65391079Y-85091670D01*
X65378782Y-85071153D01*
X65368554Y-85049529D01*
X65360496Y-85027007D01*
X65354684Y-85003803D01*
X65351174Y-84980142D01*
X65350000Y-84956250D01*
X65350000Y-84043750D01*
X65351174Y-84019858D01*
X65354684Y-83996197D01*
X65360496Y-83972993D01*
X65368554Y-83950471D01*
X65378782Y-83928847D01*
X65391079Y-83908330D01*
X65405329Y-83889117D01*
X65421393Y-83871393D01*
X65439117Y-83855329D01*
X65458330Y-83841079D01*
X65478847Y-83828782D01*
X65500471Y-83818554D01*
X65522993Y-83810496D01*
X65546197Y-83804684D01*
X65569858Y-83801174D01*
X65593750Y-83800000D01*
X66081250Y-83800000D01*
X66105142Y-83801174D01*
G37*
%TD*%
%TO.C,J3*%
G36*
X52056856Y-86651565D02*
G01*
X52088404Y-86656245D01*
X52119343Y-86663994D01*
X52149372Y-86674739D01*
X52178204Y-86688376D01*
X52205560Y-86704772D01*
X52231178Y-86723772D01*
X52254810Y-86745190D01*
X52276228Y-86768822D01*
X52295228Y-86794440D01*
X52311624Y-86821796D01*
X52325261Y-86850628D01*
X52336006Y-86880657D01*
X52343755Y-86911596D01*
X52348435Y-86943144D01*
X52350000Y-86975000D01*
X52350000Y-87625000D01*
X52348435Y-87656856D01*
X52343755Y-87688404D01*
X52336006Y-87719343D01*
X52325261Y-87749372D01*
X52311624Y-87778204D01*
X52295228Y-87805560D01*
X52276228Y-87831178D01*
X52254810Y-87854810D01*
X52231178Y-87876228D01*
X52205560Y-87895228D01*
X52178204Y-87911624D01*
X52149372Y-87925261D01*
X52119343Y-87936006D01*
X52088404Y-87943755D01*
X52056856Y-87948435D01*
X52025000Y-87950000D01*
X48175000Y-87950000D01*
X48143144Y-87948435D01*
X48111596Y-87943755D01*
X48080657Y-87936006D01*
X48050628Y-87925261D01*
X48021796Y-87911624D01*
X47994440Y-87895228D01*
X47968822Y-87876228D01*
X47945190Y-87854810D01*
X47923772Y-87831178D01*
X47904772Y-87805560D01*
X47888376Y-87778204D01*
X47874739Y-87749372D01*
X47863994Y-87719343D01*
X47856245Y-87688404D01*
X47851565Y-87656856D01*
X47850000Y-87625000D01*
X47850000Y-86975000D01*
X47851565Y-86943144D01*
X47856245Y-86911596D01*
X47863994Y-86880657D01*
X47874739Y-86850628D01*
X47888376Y-86821796D01*
X47904772Y-86794440D01*
X47923772Y-86768822D01*
X47945190Y-86745190D01*
X47968822Y-86723772D01*
X47994440Y-86704772D01*
X48021796Y-86688376D01*
X48050628Y-86674739D01*
X48080657Y-86663994D01*
X48111596Y-86656245D01*
X48143144Y-86651565D01*
X48175000Y-86650000D01*
X52025000Y-86650000D01*
X52056856Y-86651565D01*
G37*
G36*
X52056856Y-89151565D02*
G01*
X52088404Y-89156245D01*
X52119343Y-89163994D01*
X52149372Y-89174739D01*
X52178204Y-89188376D01*
X52205560Y-89204772D01*
X52231178Y-89223772D01*
X52254810Y-89245190D01*
X52276228Y-89268822D01*
X52295228Y-89294440D01*
X52311624Y-89321796D01*
X52325261Y-89350628D01*
X52336006Y-89380657D01*
X52343755Y-89411596D01*
X52348435Y-89443144D01*
X52350000Y-89475000D01*
X52350000Y-90125000D01*
X52348435Y-90156856D01*
X52343755Y-90188404D01*
X52336006Y-90219343D01*
X52325261Y-90249372D01*
X52311624Y-90278204D01*
X52295228Y-90305560D01*
X52276228Y-90331178D01*
X52254810Y-90354810D01*
X52231178Y-90376228D01*
X52205560Y-90395228D01*
X52178204Y-90411624D01*
X52149372Y-90425261D01*
X52119343Y-90436006D01*
X52088404Y-90443755D01*
X52056856Y-90448435D01*
X52025000Y-90450000D01*
X48175000Y-90450000D01*
X48143144Y-90448435D01*
X48111596Y-90443755D01*
X48080657Y-90436006D01*
X48050628Y-90425261D01*
X48021796Y-90411624D01*
X47994440Y-90395228D01*
X47968822Y-90376228D01*
X47945190Y-90354810D01*
X47923772Y-90331178D01*
X47904772Y-90305560D01*
X47888376Y-90278204D01*
X47874739Y-90249372D01*
X47863994Y-90219343D01*
X47856245Y-90188404D01*
X47851565Y-90156856D01*
X47850000Y-90125000D01*
X47850000Y-89475000D01*
X47851565Y-89443144D01*
X47856245Y-89411596D01*
X47863994Y-89380657D01*
X47874739Y-89350628D01*
X47888376Y-89321796D01*
X47904772Y-89294440D01*
X47923772Y-89268822D01*
X47945190Y-89245190D01*
X47968822Y-89223772D01*
X47994440Y-89204772D01*
X48021796Y-89188376D01*
X48050628Y-89174739D01*
X48080657Y-89163994D01*
X48111596Y-89156245D01*
X48143144Y-89151565D01*
X48175000Y-89150000D01*
X52025000Y-89150000D01*
X52056856Y-89151565D01*
G37*
G36*
X52056856Y-91651565D02*
G01*
X52088404Y-91656245D01*
X52119343Y-91663994D01*
X52149372Y-91674739D01*
X52178204Y-91688376D01*
X52205560Y-91704772D01*
X52231178Y-91723772D01*
X52254810Y-91745190D01*
X52276228Y-91768822D01*
X52295228Y-91794440D01*
X52311624Y-91821796D01*
X52325261Y-91850628D01*
X52336006Y-91880657D01*
X52343755Y-91911596D01*
X52348435Y-91943144D01*
X52350000Y-91975000D01*
X52350000Y-92625000D01*
X52348435Y-92656856D01*
X52343755Y-92688404D01*
X52336006Y-92719343D01*
X52325261Y-92749372D01*
X52311624Y-92778204D01*
X52295228Y-92805560D01*
X52276228Y-92831178D01*
X52254810Y-92854810D01*
X52231178Y-92876228D01*
X52205560Y-92895228D01*
X52178204Y-92911624D01*
X52149372Y-92925261D01*
X52119343Y-92936006D01*
X52088404Y-92943755D01*
X52056856Y-92948435D01*
X52025000Y-92950000D01*
X48175000Y-92950000D01*
X48143144Y-92948435D01*
X48111596Y-92943755D01*
X48080657Y-92936006D01*
X48050628Y-92925261D01*
X48021796Y-92911624D01*
X47994440Y-92895228D01*
X47968822Y-92876228D01*
X47945190Y-92854810D01*
X47923772Y-92831178D01*
X47904772Y-92805560D01*
X47888376Y-92778204D01*
X47874739Y-92749372D01*
X47863994Y-92719343D01*
X47856245Y-92688404D01*
X47851565Y-92656856D01*
X47850000Y-92625000D01*
X47850000Y-91975000D01*
X47851565Y-91943144D01*
X47856245Y-91911596D01*
X47863994Y-91880657D01*
X47874739Y-91850628D01*
X47888376Y-91821796D01*
X47904772Y-91794440D01*
X47923772Y-91768822D01*
X47945190Y-91745190D01*
X47968822Y-91723772D01*
X47994440Y-91704772D01*
X48021796Y-91688376D01*
X48050628Y-91674739D01*
X48080657Y-91663994D01*
X48111596Y-91656245D01*
X48143144Y-91651565D01*
X48175000Y-91650000D01*
X52025000Y-91650000D01*
X52056856Y-91651565D01*
G37*
G36*
X52177631Y-94150920D02*
G01*
X52196182Y-94153672D01*
X52214373Y-94158229D01*
X52232031Y-94164547D01*
X52248984Y-94172565D01*
X52265069Y-94182206D01*
X52280133Y-94193378D01*
X52294028Y-94205972D01*
X52306622Y-94219867D01*
X52317794Y-94234931D01*
X52327435Y-94251016D01*
X52335453Y-94267969D01*
X52341771Y-94285627D01*
X52346328Y-94303818D01*
X52349080Y-94322369D01*
X52350000Y-94341100D01*
X52350000Y-95258900D01*
X52349080Y-95277631D01*
X52346328Y-95296182D01*
X52341771Y-95314373D01*
X52335453Y-95332031D01*
X52327435Y-95348984D01*
X52317794Y-95365069D01*
X52306622Y-95380133D01*
X52294028Y-95394028D01*
X52280133Y-95406622D01*
X52265069Y-95417794D01*
X52248984Y-95427435D01*
X52232031Y-95435453D01*
X52214373Y-95441771D01*
X52196182Y-95446328D01*
X52177631Y-95449080D01*
X52158900Y-95450000D01*
X48041100Y-95450000D01*
X48022369Y-95449080D01*
X48003818Y-95446328D01*
X47985627Y-95441771D01*
X47967969Y-95435453D01*
X47951016Y-95427435D01*
X47934931Y-95417794D01*
X47919867Y-95406622D01*
X47905972Y-95394028D01*
X47893378Y-95380133D01*
X47882206Y-95365069D01*
X47872565Y-95348984D01*
X47864547Y-95332031D01*
X47858229Y-95314373D01*
X47853672Y-95296182D01*
X47850920Y-95277631D01*
X47850000Y-95258900D01*
X47850000Y-94341100D01*
X47850920Y-94322369D01*
X47853672Y-94303818D01*
X47858229Y-94285627D01*
X47864547Y-94267969D01*
X47872565Y-94251016D01*
X47882206Y-94234931D01*
X47893378Y-94219867D01*
X47905972Y-94205972D01*
X47919867Y-94193378D01*
X47934931Y-94182206D01*
X47951016Y-94172565D01*
X47967969Y-94164547D01*
X47985627Y-94158229D01*
X48003818Y-94153672D01*
X48022369Y-94150920D01*
X48041100Y-94150000D01*
X52158900Y-94150000D01*
X52177631Y-94150920D01*
G37*
G36*
X43871558Y-83152287D02*
G01*
X43917668Y-83159127D01*
X43962885Y-83170453D01*
X44006775Y-83186157D01*
X44048913Y-83206087D01*
X44088896Y-83230052D01*
X44126337Y-83257820D01*
X44160876Y-83289124D01*
X44192180Y-83323663D01*
X44219948Y-83361104D01*
X44243913Y-83401087D01*
X44263843Y-83443225D01*
X44279547Y-83487115D01*
X44290873Y-83532332D01*
X44297713Y-83578442D01*
X44300000Y-83625000D01*
X44300000Y-84575000D01*
X44297713Y-84621558D01*
X44290873Y-84667668D01*
X44279547Y-84712885D01*
X44263843Y-84756775D01*
X44243913Y-84798913D01*
X44219948Y-84838896D01*
X44192180Y-84876337D01*
X44160876Y-84910876D01*
X44126337Y-84942180D01*
X44088896Y-84969948D01*
X44048913Y-84993913D01*
X44006775Y-85013843D01*
X43962885Y-85029547D01*
X43917668Y-85040873D01*
X43871558Y-85047713D01*
X43825000Y-85050000D01*
X40875000Y-85050000D01*
X40828442Y-85047713D01*
X40782332Y-85040873D01*
X40737115Y-85029547D01*
X40693225Y-85013843D01*
X40651087Y-84993913D01*
X40611104Y-84969948D01*
X40573663Y-84942180D01*
X40539124Y-84910876D01*
X40507820Y-84876337D01*
X40480052Y-84838896D01*
X40456087Y-84798913D01*
X40436157Y-84756775D01*
X40420453Y-84712885D01*
X40409127Y-84667668D01*
X40402287Y-84621558D01*
X40400000Y-84575000D01*
X40400000Y-83625000D01*
X40402287Y-83578442D01*
X40409127Y-83532332D01*
X40420453Y-83487115D01*
X40436157Y-83443225D01*
X40456087Y-83401087D01*
X40480052Y-83361104D01*
X40507820Y-83323663D01*
X40539124Y-83289124D01*
X40573663Y-83257820D01*
X40611104Y-83230052D01*
X40651087Y-83206087D01*
X40693225Y-83186157D01*
X40737115Y-83170453D01*
X40782332Y-83159127D01*
X40828442Y-83152287D01*
X40875000Y-83150000D01*
X43825000Y-83150000D01*
X43871558Y-83152287D01*
G37*
G36*
X43871558Y-97052287D02*
G01*
X43917668Y-97059127D01*
X43962885Y-97070453D01*
X44006775Y-97086157D01*
X44048913Y-97106087D01*
X44088896Y-97130052D01*
X44126337Y-97157820D01*
X44160876Y-97189124D01*
X44192180Y-97223663D01*
X44219948Y-97261104D01*
X44243913Y-97301087D01*
X44263843Y-97343225D01*
X44279547Y-97387115D01*
X44290873Y-97432332D01*
X44297713Y-97478442D01*
X44300000Y-97525000D01*
X44300000Y-98475000D01*
X44297713Y-98521558D01*
X44290873Y-98567668D01*
X44279547Y-98612885D01*
X44263843Y-98656775D01*
X44243913Y-98698913D01*
X44219948Y-98738896D01*
X44192180Y-98776337D01*
X44160876Y-98810876D01*
X44126337Y-98842180D01*
X44088896Y-98869948D01*
X44048913Y-98893913D01*
X44006775Y-98913843D01*
X43962885Y-98929547D01*
X43917668Y-98940873D01*
X43871558Y-98947713D01*
X43825000Y-98950000D01*
X40875000Y-98950000D01*
X40828442Y-98947713D01*
X40782332Y-98940873D01*
X40737115Y-98929547D01*
X40693225Y-98913843D01*
X40651087Y-98893913D01*
X40611104Y-98869948D01*
X40573663Y-98842180D01*
X40539124Y-98810876D01*
X40507820Y-98776337D01*
X40480052Y-98738896D01*
X40456087Y-98698913D01*
X40436157Y-98656775D01*
X40420453Y-98612885D01*
X40409127Y-98567668D01*
X40402287Y-98521558D01*
X40400000Y-98475000D01*
X40400000Y-97525000D01*
X40402287Y-97478442D01*
X40409127Y-97432332D01*
X40420453Y-97387115D01*
X40436157Y-97343225D01*
X40456087Y-97301087D01*
X40480052Y-97261104D01*
X40507820Y-97223663D01*
X40539124Y-97189124D01*
X40573663Y-97157820D01*
X40611104Y-97130052D01*
X40651087Y-97106087D01*
X40693225Y-97086157D01*
X40737115Y-97070453D01*
X40782332Y-97059127D01*
X40828442Y-97052287D01*
X40875000Y-97050000D01*
X43825000Y-97050000D01*
X43871558Y-97052287D01*
G37*
%TD*%
D17*
%TO.C,J2*%
X80250000Y-91060000D03*
X76350000Y-91060000D03*
X80250000Y-92330000D03*
X76350000Y-92330000D03*
X80250000Y-93600000D03*
X76350000Y-93600000D03*
X80250000Y-94870000D03*
X76350000Y-94870000D03*
X80250000Y-96140000D03*
X76350000Y-96140000D03*
%TD*%
D15*
%TO.C,U6*%
G36*
X56984802Y-95625482D02*
G01*
X56994509Y-95626921D01*
X57004028Y-95629306D01*
X57013268Y-95632612D01*
X57022140Y-95636808D01*
X57030557Y-95641853D01*
X57038439Y-95647699D01*
X57045711Y-95654289D01*
X57052301Y-95661561D01*
X57058147Y-95669443D01*
X57063192Y-95677860D01*
X57067388Y-95686732D01*
X57070694Y-95695972D01*
X57073079Y-95705491D01*
X57074518Y-95715198D01*
X57075000Y-95725000D01*
X57075000Y-95925000D01*
X57074518Y-95934802D01*
X57073079Y-95944509D01*
X57070694Y-95954028D01*
X57067388Y-95963268D01*
X57063192Y-95972140D01*
X57058147Y-95980557D01*
X57052301Y-95988439D01*
X57045711Y-95995711D01*
X57038439Y-96002301D01*
X57030557Y-96008147D01*
X57022140Y-96013192D01*
X57013268Y-96017388D01*
X57004028Y-96020694D01*
X56994509Y-96023079D01*
X56984802Y-96024518D01*
X56975000Y-96025000D01*
X55700000Y-96025000D01*
X55690198Y-96024518D01*
X55680491Y-96023079D01*
X55670972Y-96020694D01*
X55661732Y-96017388D01*
X55652860Y-96013192D01*
X55644443Y-96008147D01*
X55636561Y-96002301D01*
X55629289Y-95995711D01*
X55622699Y-95988439D01*
X55616853Y-95980557D01*
X55611808Y-95972140D01*
X55607612Y-95963268D01*
X55604306Y-95954028D01*
X55601921Y-95944509D01*
X55600482Y-95934802D01*
X55600000Y-95925000D01*
X55600000Y-95725000D01*
X55600482Y-95715198D01*
X55601921Y-95705491D01*
X55604306Y-95695972D01*
X55607612Y-95686732D01*
X55611808Y-95677860D01*
X55616853Y-95669443D01*
X55622699Y-95661561D01*
X55629289Y-95654289D01*
X55636561Y-95647699D01*
X55644443Y-95641853D01*
X55652860Y-95636808D01*
X55661732Y-95632612D01*
X55670972Y-95629306D01*
X55680491Y-95626921D01*
X55690198Y-95625482D01*
X55700000Y-95625000D01*
X56975000Y-95625000D01*
X56984802Y-95625482D01*
G37*
G36*
X56984802Y-94975482D02*
G01*
X56994509Y-94976921D01*
X57004028Y-94979306D01*
X57013268Y-94982612D01*
X57022140Y-94986808D01*
X57030557Y-94991853D01*
X57038439Y-94997699D01*
X57045711Y-95004289D01*
X57052301Y-95011561D01*
X57058147Y-95019443D01*
X57063192Y-95027860D01*
X57067388Y-95036732D01*
X57070694Y-95045972D01*
X57073079Y-95055491D01*
X57074518Y-95065198D01*
X57075000Y-95075000D01*
X57075000Y-95275000D01*
X57074518Y-95284802D01*
X57073079Y-95294509D01*
X57070694Y-95304028D01*
X57067388Y-95313268D01*
X57063192Y-95322140D01*
X57058147Y-95330557D01*
X57052301Y-95338439D01*
X57045711Y-95345711D01*
X57038439Y-95352301D01*
X57030557Y-95358147D01*
X57022140Y-95363192D01*
X57013268Y-95367388D01*
X57004028Y-95370694D01*
X56994509Y-95373079D01*
X56984802Y-95374518D01*
X56975000Y-95375000D01*
X55700000Y-95375000D01*
X55690198Y-95374518D01*
X55680491Y-95373079D01*
X55670972Y-95370694D01*
X55661732Y-95367388D01*
X55652860Y-95363192D01*
X55644443Y-95358147D01*
X55636561Y-95352301D01*
X55629289Y-95345711D01*
X55622699Y-95338439D01*
X55616853Y-95330557D01*
X55611808Y-95322140D01*
X55607612Y-95313268D01*
X55604306Y-95304028D01*
X55601921Y-95294509D01*
X55600482Y-95284802D01*
X55600000Y-95275000D01*
X55600000Y-95075000D01*
X55600482Y-95065198D01*
X55601921Y-95055491D01*
X55604306Y-95045972D01*
X55607612Y-95036732D01*
X55611808Y-95027860D01*
X55616853Y-95019443D01*
X55622699Y-95011561D01*
X55629289Y-95004289D01*
X55636561Y-94997699D01*
X55644443Y-94991853D01*
X55652860Y-94986808D01*
X55661732Y-94982612D01*
X55670972Y-94979306D01*
X55680491Y-94976921D01*
X55690198Y-94975482D01*
X55700000Y-94975000D01*
X56975000Y-94975000D01*
X56984802Y-94975482D01*
G37*
G36*
X56984802Y-94325482D02*
G01*
X56994509Y-94326921D01*
X57004028Y-94329306D01*
X57013268Y-94332612D01*
X57022140Y-94336808D01*
X57030557Y-94341853D01*
X57038439Y-94347699D01*
X57045711Y-94354289D01*
X57052301Y-94361561D01*
X57058147Y-94369443D01*
X57063192Y-94377860D01*
X57067388Y-94386732D01*
X57070694Y-94395972D01*
X57073079Y-94405491D01*
X57074518Y-94415198D01*
X57075000Y-94425000D01*
X57075000Y-94625000D01*
X57074518Y-94634802D01*
X57073079Y-94644509D01*
X57070694Y-94654028D01*
X57067388Y-94663268D01*
X57063192Y-94672140D01*
X57058147Y-94680557D01*
X57052301Y-94688439D01*
X57045711Y-94695711D01*
X57038439Y-94702301D01*
X57030557Y-94708147D01*
X57022140Y-94713192D01*
X57013268Y-94717388D01*
X57004028Y-94720694D01*
X56994509Y-94723079D01*
X56984802Y-94724518D01*
X56975000Y-94725000D01*
X55700000Y-94725000D01*
X55690198Y-94724518D01*
X55680491Y-94723079D01*
X55670972Y-94720694D01*
X55661732Y-94717388D01*
X55652860Y-94713192D01*
X55644443Y-94708147D01*
X55636561Y-94702301D01*
X55629289Y-94695711D01*
X55622699Y-94688439D01*
X55616853Y-94680557D01*
X55611808Y-94672140D01*
X55607612Y-94663268D01*
X55604306Y-94654028D01*
X55601921Y-94644509D01*
X55600482Y-94634802D01*
X55600000Y-94625000D01*
X55600000Y-94425000D01*
X55600482Y-94415198D01*
X55601921Y-94405491D01*
X55604306Y-94395972D01*
X55607612Y-94386732D01*
X55611808Y-94377860D01*
X55616853Y-94369443D01*
X55622699Y-94361561D01*
X55629289Y-94354289D01*
X55636561Y-94347699D01*
X55644443Y-94341853D01*
X55652860Y-94336808D01*
X55661732Y-94332612D01*
X55670972Y-94329306D01*
X55680491Y-94326921D01*
X55690198Y-94325482D01*
X55700000Y-94325000D01*
X56975000Y-94325000D01*
X56984802Y-94325482D01*
G37*
G36*
X56984802Y-93675482D02*
G01*
X56994509Y-93676921D01*
X57004028Y-93679306D01*
X57013268Y-93682612D01*
X57022140Y-93686808D01*
X57030557Y-93691853D01*
X57038439Y-93697699D01*
X57045711Y-93704289D01*
X57052301Y-93711561D01*
X57058147Y-93719443D01*
X57063192Y-93727860D01*
X57067388Y-93736732D01*
X57070694Y-93745972D01*
X57073079Y-93755491D01*
X57074518Y-93765198D01*
X57075000Y-93775000D01*
X57075000Y-93975000D01*
X57074518Y-93984802D01*
X57073079Y-93994509D01*
X57070694Y-94004028D01*
X57067388Y-94013268D01*
X57063192Y-94022140D01*
X57058147Y-94030557D01*
X57052301Y-94038439D01*
X57045711Y-94045711D01*
X57038439Y-94052301D01*
X57030557Y-94058147D01*
X57022140Y-94063192D01*
X57013268Y-94067388D01*
X57004028Y-94070694D01*
X56994509Y-94073079D01*
X56984802Y-94074518D01*
X56975000Y-94075000D01*
X55700000Y-94075000D01*
X55690198Y-94074518D01*
X55680491Y-94073079D01*
X55670972Y-94070694D01*
X55661732Y-94067388D01*
X55652860Y-94063192D01*
X55644443Y-94058147D01*
X55636561Y-94052301D01*
X55629289Y-94045711D01*
X55622699Y-94038439D01*
X55616853Y-94030557D01*
X55611808Y-94022140D01*
X55607612Y-94013268D01*
X55604306Y-94004028D01*
X55601921Y-93994509D01*
X55600482Y-93984802D01*
X55600000Y-93975000D01*
X55600000Y-93775000D01*
X55600482Y-93765198D01*
X55601921Y-93755491D01*
X55604306Y-93745972D01*
X55607612Y-93736732D01*
X55611808Y-93727860D01*
X55616853Y-93719443D01*
X55622699Y-93711561D01*
X55629289Y-93704289D01*
X55636561Y-93697699D01*
X55644443Y-93691853D01*
X55652860Y-93686808D01*
X55661732Y-93682612D01*
X55670972Y-93679306D01*
X55680491Y-93676921D01*
X55690198Y-93675482D01*
X55700000Y-93675000D01*
X56975000Y-93675000D01*
X56984802Y-93675482D01*
G37*
G36*
X56984802Y-93025482D02*
G01*
X56994509Y-93026921D01*
X57004028Y-93029306D01*
X57013268Y-93032612D01*
X57022140Y-93036808D01*
X57030557Y-93041853D01*
X57038439Y-93047699D01*
X57045711Y-93054289D01*
X57052301Y-93061561D01*
X57058147Y-93069443D01*
X57063192Y-93077860D01*
X57067388Y-93086732D01*
X57070694Y-93095972D01*
X57073079Y-93105491D01*
X57074518Y-93115198D01*
X57075000Y-93125000D01*
X57075000Y-93325000D01*
X57074518Y-93334802D01*
X57073079Y-93344509D01*
X57070694Y-93354028D01*
X57067388Y-93363268D01*
X57063192Y-93372140D01*
X57058147Y-93380557D01*
X57052301Y-93388439D01*
X57045711Y-93395711D01*
X57038439Y-93402301D01*
X57030557Y-93408147D01*
X57022140Y-93413192D01*
X57013268Y-93417388D01*
X57004028Y-93420694D01*
X56994509Y-93423079D01*
X56984802Y-93424518D01*
X56975000Y-93425000D01*
X55700000Y-93425000D01*
X55690198Y-93424518D01*
X55680491Y-93423079D01*
X55670972Y-93420694D01*
X55661732Y-93417388D01*
X55652860Y-93413192D01*
X55644443Y-93408147D01*
X55636561Y-93402301D01*
X55629289Y-93395711D01*
X55622699Y-93388439D01*
X55616853Y-93380557D01*
X55611808Y-93372140D01*
X55607612Y-93363268D01*
X55604306Y-93354028D01*
X55601921Y-93344509D01*
X55600482Y-93334802D01*
X55600000Y-93325000D01*
X55600000Y-93125000D01*
X55600482Y-93115198D01*
X55601921Y-93105491D01*
X55604306Y-93095972D01*
X55607612Y-93086732D01*
X55611808Y-93077860D01*
X55616853Y-93069443D01*
X55622699Y-93061561D01*
X55629289Y-93054289D01*
X55636561Y-93047699D01*
X55644443Y-93041853D01*
X55652860Y-93036808D01*
X55661732Y-93032612D01*
X55670972Y-93029306D01*
X55680491Y-93026921D01*
X55690198Y-93025482D01*
X55700000Y-93025000D01*
X56975000Y-93025000D01*
X56984802Y-93025482D01*
G37*
G36*
X56984802Y-92375482D02*
G01*
X56994509Y-92376921D01*
X57004028Y-92379306D01*
X57013268Y-92382612D01*
X57022140Y-92386808D01*
X57030557Y-92391853D01*
X57038439Y-92397699D01*
X57045711Y-92404289D01*
X57052301Y-92411561D01*
X57058147Y-92419443D01*
X57063192Y-92427860D01*
X57067388Y-92436732D01*
X57070694Y-92445972D01*
X57073079Y-92455491D01*
X57074518Y-92465198D01*
X57075000Y-92475000D01*
X57075000Y-92675000D01*
X57074518Y-92684802D01*
X57073079Y-92694509D01*
X57070694Y-92704028D01*
X57067388Y-92713268D01*
X57063192Y-92722140D01*
X57058147Y-92730557D01*
X57052301Y-92738439D01*
X57045711Y-92745711D01*
X57038439Y-92752301D01*
X57030557Y-92758147D01*
X57022140Y-92763192D01*
X57013268Y-92767388D01*
X57004028Y-92770694D01*
X56994509Y-92773079D01*
X56984802Y-92774518D01*
X56975000Y-92775000D01*
X55700000Y-92775000D01*
X55690198Y-92774518D01*
X55680491Y-92773079D01*
X55670972Y-92770694D01*
X55661732Y-92767388D01*
X55652860Y-92763192D01*
X55644443Y-92758147D01*
X55636561Y-92752301D01*
X55629289Y-92745711D01*
X55622699Y-92738439D01*
X55616853Y-92730557D01*
X55611808Y-92722140D01*
X55607612Y-92713268D01*
X55604306Y-92704028D01*
X55601921Y-92694509D01*
X55600482Y-92684802D01*
X55600000Y-92675000D01*
X55600000Y-92475000D01*
X55600482Y-92465198D01*
X55601921Y-92455491D01*
X55604306Y-92445972D01*
X55607612Y-92436732D01*
X55611808Y-92427860D01*
X55616853Y-92419443D01*
X55622699Y-92411561D01*
X55629289Y-92404289D01*
X55636561Y-92397699D01*
X55644443Y-92391853D01*
X55652860Y-92386808D01*
X55661732Y-92382612D01*
X55670972Y-92379306D01*
X55680491Y-92376921D01*
X55690198Y-92375482D01*
X55700000Y-92375000D01*
X56975000Y-92375000D01*
X56984802Y-92375482D01*
G37*
G36*
X56984802Y-91725482D02*
G01*
X56994509Y-91726921D01*
X57004028Y-91729306D01*
X57013268Y-91732612D01*
X57022140Y-91736808D01*
X57030557Y-91741853D01*
X57038439Y-91747699D01*
X57045711Y-91754289D01*
X57052301Y-91761561D01*
X57058147Y-91769443D01*
X57063192Y-91777860D01*
X57067388Y-91786732D01*
X57070694Y-91795972D01*
X57073079Y-91805491D01*
X57074518Y-91815198D01*
X57075000Y-91825000D01*
X57075000Y-92025000D01*
X57074518Y-92034802D01*
X57073079Y-92044509D01*
X57070694Y-92054028D01*
X57067388Y-92063268D01*
X57063192Y-92072140D01*
X57058147Y-92080557D01*
X57052301Y-92088439D01*
X57045711Y-92095711D01*
X57038439Y-92102301D01*
X57030557Y-92108147D01*
X57022140Y-92113192D01*
X57013268Y-92117388D01*
X57004028Y-92120694D01*
X56994509Y-92123079D01*
X56984802Y-92124518D01*
X56975000Y-92125000D01*
X55700000Y-92125000D01*
X55690198Y-92124518D01*
X55680491Y-92123079D01*
X55670972Y-92120694D01*
X55661732Y-92117388D01*
X55652860Y-92113192D01*
X55644443Y-92108147D01*
X55636561Y-92102301D01*
X55629289Y-92095711D01*
X55622699Y-92088439D01*
X55616853Y-92080557D01*
X55611808Y-92072140D01*
X55607612Y-92063268D01*
X55604306Y-92054028D01*
X55601921Y-92044509D01*
X55600482Y-92034802D01*
X55600000Y-92025000D01*
X55600000Y-91825000D01*
X55600482Y-91815198D01*
X55601921Y-91805491D01*
X55604306Y-91795972D01*
X55607612Y-91786732D01*
X55611808Y-91777860D01*
X55616853Y-91769443D01*
X55622699Y-91761561D01*
X55629289Y-91754289D01*
X55636561Y-91747699D01*
X55644443Y-91741853D01*
X55652860Y-91736808D01*
X55661732Y-91732612D01*
X55670972Y-91729306D01*
X55680491Y-91726921D01*
X55690198Y-91725482D01*
X55700000Y-91725000D01*
X56975000Y-91725000D01*
X56984802Y-91725482D01*
G37*
G36*
X56984802Y-91075482D02*
G01*
X56994509Y-91076921D01*
X57004028Y-91079306D01*
X57013268Y-91082612D01*
X57022140Y-91086808D01*
X57030557Y-91091853D01*
X57038439Y-91097699D01*
X57045711Y-91104289D01*
X57052301Y-91111561D01*
X57058147Y-91119443D01*
X57063192Y-91127860D01*
X57067388Y-91136732D01*
X57070694Y-91145972D01*
X57073079Y-91155491D01*
X57074518Y-91165198D01*
X57075000Y-91175000D01*
X57075000Y-91375000D01*
X57074518Y-91384802D01*
X57073079Y-91394509D01*
X57070694Y-91404028D01*
X57067388Y-91413268D01*
X57063192Y-91422140D01*
X57058147Y-91430557D01*
X57052301Y-91438439D01*
X57045711Y-91445711D01*
X57038439Y-91452301D01*
X57030557Y-91458147D01*
X57022140Y-91463192D01*
X57013268Y-91467388D01*
X57004028Y-91470694D01*
X56994509Y-91473079D01*
X56984802Y-91474518D01*
X56975000Y-91475000D01*
X55700000Y-91475000D01*
X55690198Y-91474518D01*
X55680491Y-91473079D01*
X55670972Y-91470694D01*
X55661732Y-91467388D01*
X55652860Y-91463192D01*
X55644443Y-91458147D01*
X55636561Y-91452301D01*
X55629289Y-91445711D01*
X55622699Y-91438439D01*
X55616853Y-91430557D01*
X55611808Y-91422140D01*
X55607612Y-91413268D01*
X55604306Y-91404028D01*
X55601921Y-91394509D01*
X55600482Y-91384802D01*
X55600000Y-91375000D01*
X55600000Y-91175000D01*
X55600482Y-91165198D01*
X55601921Y-91155491D01*
X55604306Y-91145972D01*
X55607612Y-91136732D01*
X55611808Y-91127860D01*
X55616853Y-91119443D01*
X55622699Y-91111561D01*
X55629289Y-91104289D01*
X55636561Y-91097699D01*
X55644443Y-91091853D01*
X55652860Y-91086808D01*
X55661732Y-91082612D01*
X55670972Y-91079306D01*
X55680491Y-91076921D01*
X55690198Y-91075482D01*
X55700000Y-91075000D01*
X56975000Y-91075000D01*
X56984802Y-91075482D01*
G37*
G36*
X56984802Y-90425482D02*
G01*
X56994509Y-90426921D01*
X57004028Y-90429306D01*
X57013268Y-90432612D01*
X57022140Y-90436808D01*
X57030557Y-90441853D01*
X57038439Y-90447699D01*
X57045711Y-90454289D01*
X57052301Y-90461561D01*
X57058147Y-90469443D01*
X57063192Y-90477860D01*
X57067388Y-90486732D01*
X57070694Y-90495972D01*
X57073079Y-90505491D01*
X57074518Y-90515198D01*
X57075000Y-90525000D01*
X57075000Y-90725000D01*
X57074518Y-90734802D01*
X57073079Y-90744509D01*
X57070694Y-90754028D01*
X57067388Y-90763268D01*
X57063192Y-90772140D01*
X57058147Y-90780557D01*
X57052301Y-90788439D01*
X57045711Y-90795711D01*
X57038439Y-90802301D01*
X57030557Y-90808147D01*
X57022140Y-90813192D01*
X57013268Y-90817388D01*
X57004028Y-90820694D01*
X56994509Y-90823079D01*
X56984802Y-90824518D01*
X56975000Y-90825000D01*
X55700000Y-90825000D01*
X55690198Y-90824518D01*
X55680491Y-90823079D01*
X55670972Y-90820694D01*
X55661732Y-90817388D01*
X55652860Y-90813192D01*
X55644443Y-90808147D01*
X55636561Y-90802301D01*
X55629289Y-90795711D01*
X55622699Y-90788439D01*
X55616853Y-90780557D01*
X55611808Y-90772140D01*
X55607612Y-90763268D01*
X55604306Y-90754028D01*
X55601921Y-90744509D01*
X55600482Y-90734802D01*
X55600000Y-90725000D01*
X55600000Y-90525000D01*
X55600482Y-90515198D01*
X55601921Y-90505491D01*
X55604306Y-90495972D01*
X55607612Y-90486732D01*
X55611808Y-90477860D01*
X55616853Y-90469443D01*
X55622699Y-90461561D01*
X55629289Y-90454289D01*
X55636561Y-90447699D01*
X55644443Y-90441853D01*
X55652860Y-90436808D01*
X55661732Y-90432612D01*
X55670972Y-90429306D01*
X55680491Y-90426921D01*
X55690198Y-90425482D01*
X55700000Y-90425000D01*
X56975000Y-90425000D01*
X56984802Y-90425482D01*
G37*
G36*
X56984802Y-89775482D02*
G01*
X56994509Y-89776921D01*
X57004028Y-89779306D01*
X57013268Y-89782612D01*
X57022140Y-89786808D01*
X57030557Y-89791853D01*
X57038439Y-89797699D01*
X57045711Y-89804289D01*
X57052301Y-89811561D01*
X57058147Y-89819443D01*
X57063192Y-89827860D01*
X57067388Y-89836732D01*
X57070694Y-89845972D01*
X57073079Y-89855491D01*
X57074518Y-89865198D01*
X57075000Y-89875000D01*
X57075000Y-90075000D01*
X57074518Y-90084802D01*
X57073079Y-90094509D01*
X57070694Y-90104028D01*
X57067388Y-90113268D01*
X57063192Y-90122140D01*
X57058147Y-90130557D01*
X57052301Y-90138439D01*
X57045711Y-90145711D01*
X57038439Y-90152301D01*
X57030557Y-90158147D01*
X57022140Y-90163192D01*
X57013268Y-90167388D01*
X57004028Y-90170694D01*
X56994509Y-90173079D01*
X56984802Y-90174518D01*
X56975000Y-90175000D01*
X55700000Y-90175000D01*
X55690198Y-90174518D01*
X55680491Y-90173079D01*
X55670972Y-90170694D01*
X55661732Y-90167388D01*
X55652860Y-90163192D01*
X55644443Y-90158147D01*
X55636561Y-90152301D01*
X55629289Y-90145711D01*
X55622699Y-90138439D01*
X55616853Y-90130557D01*
X55611808Y-90122140D01*
X55607612Y-90113268D01*
X55604306Y-90104028D01*
X55601921Y-90094509D01*
X55600482Y-90084802D01*
X55600000Y-90075000D01*
X55600000Y-89875000D01*
X55600482Y-89865198D01*
X55601921Y-89855491D01*
X55604306Y-89845972D01*
X55607612Y-89836732D01*
X55611808Y-89827860D01*
X55616853Y-89819443D01*
X55622699Y-89811561D01*
X55629289Y-89804289D01*
X55636561Y-89797699D01*
X55644443Y-89791853D01*
X55652860Y-89786808D01*
X55661732Y-89782612D01*
X55670972Y-89779306D01*
X55680491Y-89776921D01*
X55690198Y-89775482D01*
X55700000Y-89775000D01*
X56975000Y-89775000D01*
X56984802Y-89775482D01*
G37*
G36*
X62709802Y-89775482D02*
G01*
X62719509Y-89776921D01*
X62729028Y-89779306D01*
X62738268Y-89782612D01*
X62747140Y-89786808D01*
X62755557Y-89791853D01*
X62763439Y-89797699D01*
X62770711Y-89804289D01*
X62777301Y-89811561D01*
X62783147Y-89819443D01*
X62788192Y-89827860D01*
X62792388Y-89836732D01*
X62795694Y-89845972D01*
X62798079Y-89855491D01*
X62799518Y-89865198D01*
X62800000Y-89875000D01*
X62800000Y-90075000D01*
X62799518Y-90084802D01*
X62798079Y-90094509D01*
X62795694Y-90104028D01*
X62792388Y-90113268D01*
X62788192Y-90122140D01*
X62783147Y-90130557D01*
X62777301Y-90138439D01*
X62770711Y-90145711D01*
X62763439Y-90152301D01*
X62755557Y-90158147D01*
X62747140Y-90163192D01*
X62738268Y-90167388D01*
X62729028Y-90170694D01*
X62719509Y-90173079D01*
X62709802Y-90174518D01*
X62700000Y-90175000D01*
X61425000Y-90175000D01*
X61415198Y-90174518D01*
X61405491Y-90173079D01*
X61395972Y-90170694D01*
X61386732Y-90167388D01*
X61377860Y-90163192D01*
X61369443Y-90158147D01*
X61361561Y-90152301D01*
X61354289Y-90145711D01*
X61347699Y-90138439D01*
X61341853Y-90130557D01*
X61336808Y-90122140D01*
X61332612Y-90113268D01*
X61329306Y-90104028D01*
X61326921Y-90094509D01*
X61325482Y-90084802D01*
X61325000Y-90075000D01*
X61325000Y-89875000D01*
X61325482Y-89865198D01*
X61326921Y-89855491D01*
X61329306Y-89845972D01*
X61332612Y-89836732D01*
X61336808Y-89827860D01*
X61341853Y-89819443D01*
X61347699Y-89811561D01*
X61354289Y-89804289D01*
X61361561Y-89797699D01*
X61369443Y-89791853D01*
X61377860Y-89786808D01*
X61386732Y-89782612D01*
X61395972Y-89779306D01*
X61405491Y-89776921D01*
X61415198Y-89775482D01*
X61425000Y-89775000D01*
X62700000Y-89775000D01*
X62709802Y-89775482D01*
G37*
G36*
X62709802Y-90425482D02*
G01*
X62719509Y-90426921D01*
X62729028Y-90429306D01*
X62738268Y-90432612D01*
X62747140Y-90436808D01*
X62755557Y-90441853D01*
X62763439Y-90447699D01*
X62770711Y-90454289D01*
X62777301Y-90461561D01*
X62783147Y-90469443D01*
X62788192Y-90477860D01*
X62792388Y-90486732D01*
X62795694Y-90495972D01*
X62798079Y-90505491D01*
X62799518Y-90515198D01*
X62800000Y-90525000D01*
X62800000Y-90725000D01*
X62799518Y-90734802D01*
X62798079Y-90744509D01*
X62795694Y-90754028D01*
X62792388Y-90763268D01*
X62788192Y-90772140D01*
X62783147Y-90780557D01*
X62777301Y-90788439D01*
X62770711Y-90795711D01*
X62763439Y-90802301D01*
X62755557Y-90808147D01*
X62747140Y-90813192D01*
X62738268Y-90817388D01*
X62729028Y-90820694D01*
X62719509Y-90823079D01*
X62709802Y-90824518D01*
X62700000Y-90825000D01*
X61425000Y-90825000D01*
X61415198Y-90824518D01*
X61405491Y-90823079D01*
X61395972Y-90820694D01*
X61386732Y-90817388D01*
X61377860Y-90813192D01*
X61369443Y-90808147D01*
X61361561Y-90802301D01*
X61354289Y-90795711D01*
X61347699Y-90788439D01*
X61341853Y-90780557D01*
X61336808Y-90772140D01*
X61332612Y-90763268D01*
X61329306Y-90754028D01*
X61326921Y-90744509D01*
X61325482Y-90734802D01*
X61325000Y-90725000D01*
X61325000Y-90525000D01*
X61325482Y-90515198D01*
X61326921Y-90505491D01*
X61329306Y-90495972D01*
X61332612Y-90486732D01*
X61336808Y-90477860D01*
X61341853Y-90469443D01*
X61347699Y-90461561D01*
X61354289Y-90454289D01*
X61361561Y-90447699D01*
X61369443Y-90441853D01*
X61377860Y-90436808D01*
X61386732Y-90432612D01*
X61395972Y-90429306D01*
X61405491Y-90426921D01*
X61415198Y-90425482D01*
X61425000Y-90425000D01*
X62700000Y-90425000D01*
X62709802Y-90425482D01*
G37*
G36*
X62709802Y-91075482D02*
G01*
X62719509Y-91076921D01*
X62729028Y-91079306D01*
X62738268Y-91082612D01*
X62747140Y-91086808D01*
X62755557Y-91091853D01*
X62763439Y-91097699D01*
X62770711Y-91104289D01*
X62777301Y-91111561D01*
X62783147Y-91119443D01*
X62788192Y-91127860D01*
X62792388Y-91136732D01*
X62795694Y-91145972D01*
X62798079Y-91155491D01*
X62799518Y-91165198D01*
X62800000Y-91175000D01*
X62800000Y-91375000D01*
X62799518Y-91384802D01*
X62798079Y-91394509D01*
X62795694Y-91404028D01*
X62792388Y-91413268D01*
X62788192Y-91422140D01*
X62783147Y-91430557D01*
X62777301Y-91438439D01*
X62770711Y-91445711D01*
X62763439Y-91452301D01*
X62755557Y-91458147D01*
X62747140Y-91463192D01*
X62738268Y-91467388D01*
X62729028Y-91470694D01*
X62719509Y-91473079D01*
X62709802Y-91474518D01*
X62700000Y-91475000D01*
X61425000Y-91475000D01*
X61415198Y-91474518D01*
X61405491Y-91473079D01*
X61395972Y-91470694D01*
X61386732Y-91467388D01*
X61377860Y-91463192D01*
X61369443Y-91458147D01*
X61361561Y-91452301D01*
X61354289Y-91445711D01*
X61347699Y-91438439D01*
X61341853Y-91430557D01*
X61336808Y-91422140D01*
X61332612Y-91413268D01*
X61329306Y-91404028D01*
X61326921Y-91394509D01*
X61325482Y-91384802D01*
X61325000Y-91375000D01*
X61325000Y-91175000D01*
X61325482Y-91165198D01*
X61326921Y-91155491D01*
X61329306Y-91145972D01*
X61332612Y-91136732D01*
X61336808Y-91127860D01*
X61341853Y-91119443D01*
X61347699Y-91111561D01*
X61354289Y-91104289D01*
X61361561Y-91097699D01*
X61369443Y-91091853D01*
X61377860Y-91086808D01*
X61386732Y-91082612D01*
X61395972Y-91079306D01*
X61405491Y-91076921D01*
X61415198Y-91075482D01*
X61425000Y-91075000D01*
X62700000Y-91075000D01*
X62709802Y-91075482D01*
G37*
G36*
X62709802Y-91725482D02*
G01*
X62719509Y-91726921D01*
X62729028Y-91729306D01*
X62738268Y-91732612D01*
X62747140Y-91736808D01*
X62755557Y-91741853D01*
X62763439Y-91747699D01*
X62770711Y-91754289D01*
X62777301Y-91761561D01*
X62783147Y-91769443D01*
X62788192Y-91777860D01*
X62792388Y-91786732D01*
X62795694Y-91795972D01*
X62798079Y-91805491D01*
X62799518Y-91815198D01*
X62800000Y-91825000D01*
X62800000Y-92025000D01*
X62799518Y-92034802D01*
X62798079Y-92044509D01*
X62795694Y-92054028D01*
X62792388Y-92063268D01*
X62788192Y-92072140D01*
X62783147Y-92080557D01*
X62777301Y-92088439D01*
X62770711Y-92095711D01*
X62763439Y-92102301D01*
X62755557Y-92108147D01*
X62747140Y-92113192D01*
X62738268Y-92117388D01*
X62729028Y-92120694D01*
X62719509Y-92123079D01*
X62709802Y-92124518D01*
X62700000Y-92125000D01*
X61425000Y-92125000D01*
X61415198Y-92124518D01*
X61405491Y-92123079D01*
X61395972Y-92120694D01*
X61386732Y-92117388D01*
X61377860Y-92113192D01*
X61369443Y-92108147D01*
X61361561Y-92102301D01*
X61354289Y-92095711D01*
X61347699Y-92088439D01*
X61341853Y-92080557D01*
X61336808Y-92072140D01*
X61332612Y-92063268D01*
X61329306Y-92054028D01*
X61326921Y-92044509D01*
X61325482Y-92034802D01*
X61325000Y-92025000D01*
X61325000Y-91825000D01*
X61325482Y-91815198D01*
X61326921Y-91805491D01*
X61329306Y-91795972D01*
X61332612Y-91786732D01*
X61336808Y-91777860D01*
X61341853Y-91769443D01*
X61347699Y-91761561D01*
X61354289Y-91754289D01*
X61361561Y-91747699D01*
X61369443Y-91741853D01*
X61377860Y-91736808D01*
X61386732Y-91732612D01*
X61395972Y-91729306D01*
X61405491Y-91726921D01*
X61415198Y-91725482D01*
X61425000Y-91725000D01*
X62700000Y-91725000D01*
X62709802Y-91725482D01*
G37*
G36*
X62709802Y-92375482D02*
G01*
X62719509Y-92376921D01*
X62729028Y-92379306D01*
X62738268Y-92382612D01*
X62747140Y-92386808D01*
X62755557Y-92391853D01*
X62763439Y-92397699D01*
X62770711Y-92404289D01*
X62777301Y-92411561D01*
X62783147Y-92419443D01*
X62788192Y-92427860D01*
X62792388Y-92436732D01*
X62795694Y-92445972D01*
X62798079Y-92455491D01*
X62799518Y-92465198D01*
X62800000Y-92475000D01*
X62800000Y-92675000D01*
X62799518Y-92684802D01*
X62798079Y-92694509D01*
X62795694Y-92704028D01*
X62792388Y-92713268D01*
X62788192Y-92722140D01*
X62783147Y-92730557D01*
X62777301Y-92738439D01*
X62770711Y-92745711D01*
X62763439Y-92752301D01*
X62755557Y-92758147D01*
X62747140Y-92763192D01*
X62738268Y-92767388D01*
X62729028Y-92770694D01*
X62719509Y-92773079D01*
X62709802Y-92774518D01*
X62700000Y-92775000D01*
X61425000Y-92775000D01*
X61415198Y-92774518D01*
X61405491Y-92773079D01*
X61395972Y-92770694D01*
X61386732Y-92767388D01*
X61377860Y-92763192D01*
X61369443Y-92758147D01*
X61361561Y-92752301D01*
X61354289Y-92745711D01*
X61347699Y-92738439D01*
X61341853Y-92730557D01*
X61336808Y-92722140D01*
X61332612Y-92713268D01*
X61329306Y-92704028D01*
X61326921Y-92694509D01*
X61325482Y-92684802D01*
X61325000Y-92675000D01*
X61325000Y-92475000D01*
X61325482Y-92465198D01*
X61326921Y-92455491D01*
X61329306Y-92445972D01*
X61332612Y-92436732D01*
X61336808Y-92427860D01*
X61341853Y-92419443D01*
X61347699Y-92411561D01*
X61354289Y-92404289D01*
X61361561Y-92397699D01*
X61369443Y-92391853D01*
X61377860Y-92386808D01*
X61386732Y-92382612D01*
X61395972Y-92379306D01*
X61405491Y-92376921D01*
X61415198Y-92375482D01*
X61425000Y-92375000D01*
X62700000Y-92375000D01*
X62709802Y-92375482D01*
G37*
G36*
X62709802Y-93025482D02*
G01*
X62719509Y-93026921D01*
X62729028Y-93029306D01*
X62738268Y-93032612D01*
X62747140Y-93036808D01*
X62755557Y-93041853D01*
X62763439Y-93047699D01*
X62770711Y-93054289D01*
X62777301Y-93061561D01*
X62783147Y-93069443D01*
X62788192Y-93077860D01*
X62792388Y-93086732D01*
X62795694Y-93095972D01*
X62798079Y-93105491D01*
X62799518Y-93115198D01*
X62800000Y-93125000D01*
X62800000Y-93325000D01*
X62799518Y-93334802D01*
X62798079Y-93344509D01*
X62795694Y-93354028D01*
X62792388Y-93363268D01*
X62788192Y-93372140D01*
X62783147Y-93380557D01*
X62777301Y-93388439D01*
X62770711Y-93395711D01*
X62763439Y-93402301D01*
X62755557Y-93408147D01*
X62747140Y-93413192D01*
X62738268Y-93417388D01*
X62729028Y-93420694D01*
X62719509Y-93423079D01*
X62709802Y-93424518D01*
X62700000Y-93425000D01*
X61425000Y-93425000D01*
X61415198Y-93424518D01*
X61405491Y-93423079D01*
X61395972Y-93420694D01*
X61386732Y-93417388D01*
X61377860Y-93413192D01*
X61369443Y-93408147D01*
X61361561Y-93402301D01*
X61354289Y-93395711D01*
X61347699Y-93388439D01*
X61341853Y-93380557D01*
X61336808Y-93372140D01*
X61332612Y-93363268D01*
X61329306Y-93354028D01*
X61326921Y-93344509D01*
X61325482Y-93334802D01*
X61325000Y-93325000D01*
X61325000Y-93125000D01*
X61325482Y-93115198D01*
X61326921Y-93105491D01*
X61329306Y-93095972D01*
X61332612Y-93086732D01*
X61336808Y-93077860D01*
X61341853Y-93069443D01*
X61347699Y-93061561D01*
X61354289Y-93054289D01*
X61361561Y-93047699D01*
X61369443Y-93041853D01*
X61377860Y-93036808D01*
X61386732Y-93032612D01*
X61395972Y-93029306D01*
X61405491Y-93026921D01*
X61415198Y-93025482D01*
X61425000Y-93025000D01*
X62700000Y-93025000D01*
X62709802Y-93025482D01*
G37*
G36*
X62709802Y-93675482D02*
G01*
X62719509Y-93676921D01*
X62729028Y-93679306D01*
X62738268Y-93682612D01*
X62747140Y-93686808D01*
X62755557Y-93691853D01*
X62763439Y-93697699D01*
X62770711Y-93704289D01*
X62777301Y-93711561D01*
X62783147Y-93719443D01*
X62788192Y-93727860D01*
X62792388Y-93736732D01*
X62795694Y-93745972D01*
X62798079Y-93755491D01*
X62799518Y-93765198D01*
X62800000Y-93775000D01*
X62800000Y-93975000D01*
X62799518Y-93984802D01*
X62798079Y-93994509D01*
X62795694Y-94004028D01*
X62792388Y-94013268D01*
X62788192Y-94022140D01*
X62783147Y-94030557D01*
X62777301Y-94038439D01*
X62770711Y-94045711D01*
X62763439Y-94052301D01*
X62755557Y-94058147D01*
X62747140Y-94063192D01*
X62738268Y-94067388D01*
X62729028Y-94070694D01*
X62719509Y-94073079D01*
X62709802Y-94074518D01*
X62700000Y-94075000D01*
X61425000Y-94075000D01*
X61415198Y-94074518D01*
X61405491Y-94073079D01*
X61395972Y-94070694D01*
X61386732Y-94067388D01*
X61377860Y-94063192D01*
X61369443Y-94058147D01*
X61361561Y-94052301D01*
X61354289Y-94045711D01*
X61347699Y-94038439D01*
X61341853Y-94030557D01*
X61336808Y-94022140D01*
X61332612Y-94013268D01*
X61329306Y-94004028D01*
X61326921Y-93994509D01*
X61325482Y-93984802D01*
X61325000Y-93975000D01*
X61325000Y-93775000D01*
X61325482Y-93765198D01*
X61326921Y-93755491D01*
X61329306Y-93745972D01*
X61332612Y-93736732D01*
X61336808Y-93727860D01*
X61341853Y-93719443D01*
X61347699Y-93711561D01*
X61354289Y-93704289D01*
X61361561Y-93697699D01*
X61369443Y-93691853D01*
X61377860Y-93686808D01*
X61386732Y-93682612D01*
X61395972Y-93679306D01*
X61405491Y-93676921D01*
X61415198Y-93675482D01*
X61425000Y-93675000D01*
X62700000Y-93675000D01*
X62709802Y-93675482D01*
G37*
G36*
X62709802Y-94325482D02*
G01*
X62719509Y-94326921D01*
X62729028Y-94329306D01*
X62738268Y-94332612D01*
X62747140Y-94336808D01*
X62755557Y-94341853D01*
X62763439Y-94347699D01*
X62770711Y-94354289D01*
X62777301Y-94361561D01*
X62783147Y-94369443D01*
X62788192Y-94377860D01*
X62792388Y-94386732D01*
X62795694Y-94395972D01*
X62798079Y-94405491D01*
X62799518Y-94415198D01*
X62800000Y-94425000D01*
X62800000Y-94625000D01*
X62799518Y-94634802D01*
X62798079Y-94644509D01*
X62795694Y-94654028D01*
X62792388Y-94663268D01*
X62788192Y-94672140D01*
X62783147Y-94680557D01*
X62777301Y-94688439D01*
X62770711Y-94695711D01*
X62763439Y-94702301D01*
X62755557Y-94708147D01*
X62747140Y-94713192D01*
X62738268Y-94717388D01*
X62729028Y-94720694D01*
X62719509Y-94723079D01*
X62709802Y-94724518D01*
X62700000Y-94725000D01*
X61425000Y-94725000D01*
X61415198Y-94724518D01*
X61405491Y-94723079D01*
X61395972Y-94720694D01*
X61386732Y-94717388D01*
X61377860Y-94713192D01*
X61369443Y-94708147D01*
X61361561Y-94702301D01*
X61354289Y-94695711D01*
X61347699Y-94688439D01*
X61341853Y-94680557D01*
X61336808Y-94672140D01*
X61332612Y-94663268D01*
X61329306Y-94654028D01*
X61326921Y-94644509D01*
X61325482Y-94634802D01*
X61325000Y-94625000D01*
X61325000Y-94425000D01*
X61325482Y-94415198D01*
X61326921Y-94405491D01*
X61329306Y-94395972D01*
X61332612Y-94386732D01*
X61336808Y-94377860D01*
X61341853Y-94369443D01*
X61347699Y-94361561D01*
X61354289Y-94354289D01*
X61361561Y-94347699D01*
X61369443Y-94341853D01*
X61377860Y-94336808D01*
X61386732Y-94332612D01*
X61395972Y-94329306D01*
X61405491Y-94326921D01*
X61415198Y-94325482D01*
X61425000Y-94325000D01*
X62700000Y-94325000D01*
X62709802Y-94325482D01*
G37*
G36*
X62709802Y-94975482D02*
G01*
X62719509Y-94976921D01*
X62729028Y-94979306D01*
X62738268Y-94982612D01*
X62747140Y-94986808D01*
X62755557Y-94991853D01*
X62763439Y-94997699D01*
X62770711Y-95004289D01*
X62777301Y-95011561D01*
X62783147Y-95019443D01*
X62788192Y-95027860D01*
X62792388Y-95036732D01*
X62795694Y-95045972D01*
X62798079Y-95055491D01*
X62799518Y-95065198D01*
X62800000Y-95075000D01*
X62800000Y-95275000D01*
X62799518Y-95284802D01*
X62798079Y-95294509D01*
X62795694Y-95304028D01*
X62792388Y-95313268D01*
X62788192Y-95322140D01*
X62783147Y-95330557D01*
X62777301Y-95338439D01*
X62770711Y-95345711D01*
X62763439Y-95352301D01*
X62755557Y-95358147D01*
X62747140Y-95363192D01*
X62738268Y-95367388D01*
X62729028Y-95370694D01*
X62719509Y-95373079D01*
X62709802Y-95374518D01*
X62700000Y-95375000D01*
X61425000Y-95375000D01*
X61415198Y-95374518D01*
X61405491Y-95373079D01*
X61395972Y-95370694D01*
X61386732Y-95367388D01*
X61377860Y-95363192D01*
X61369443Y-95358147D01*
X61361561Y-95352301D01*
X61354289Y-95345711D01*
X61347699Y-95338439D01*
X61341853Y-95330557D01*
X61336808Y-95322140D01*
X61332612Y-95313268D01*
X61329306Y-95304028D01*
X61326921Y-95294509D01*
X61325482Y-95284802D01*
X61325000Y-95275000D01*
X61325000Y-95075000D01*
X61325482Y-95065198D01*
X61326921Y-95055491D01*
X61329306Y-95045972D01*
X61332612Y-95036732D01*
X61336808Y-95027860D01*
X61341853Y-95019443D01*
X61347699Y-95011561D01*
X61354289Y-95004289D01*
X61361561Y-94997699D01*
X61369443Y-94991853D01*
X61377860Y-94986808D01*
X61386732Y-94982612D01*
X61395972Y-94979306D01*
X61405491Y-94976921D01*
X61415198Y-94975482D01*
X61425000Y-94975000D01*
X62700000Y-94975000D01*
X62709802Y-94975482D01*
G37*
G36*
X62709802Y-95625482D02*
G01*
X62719509Y-95626921D01*
X62729028Y-95629306D01*
X62738268Y-95632612D01*
X62747140Y-95636808D01*
X62755557Y-95641853D01*
X62763439Y-95647699D01*
X62770711Y-95654289D01*
X62777301Y-95661561D01*
X62783147Y-95669443D01*
X62788192Y-95677860D01*
X62792388Y-95686732D01*
X62795694Y-95695972D01*
X62798079Y-95705491D01*
X62799518Y-95715198D01*
X62800000Y-95725000D01*
X62800000Y-95925000D01*
X62799518Y-95934802D01*
X62798079Y-95944509D01*
X62795694Y-95954028D01*
X62792388Y-95963268D01*
X62788192Y-95972140D01*
X62783147Y-95980557D01*
X62777301Y-95988439D01*
X62770711Y-95995711D01*
X62763439Y-96002301D01*
X62755557Y-96008147D01*
X62747140Y-96013192D01*
X62738268Y-96017388D01*
X62729028Y-96020694D01*
X62719509Y-96023079D01*
X62709802Y-96024518D01*
X62700000Y-96025000D01*
X61425000Y-96025000D01*
X61415198Y-96024518D01*
X61405491Y-96023079D01*
X61395972Y-96020694D01*
X61386732Y-96017388D01*
X61377860Y-96013192D01*
X61369443Y-96008147D01*
X61361561Y-96002301D01*
X61354289Y-95995711D01*
X61347699Y-95988439D01*
X61341853Y-95980557D01*
X61336808Y-95972140D01*
X61332612Y-95963268D01*
X61329306Y-95954028D01*
X61326921Y-95944509D01*
X61325482Y-95934802D01*
X61325000Y-95925000D01*
X61325000Y-95725000D01*
X61325482Y-95715198D01*
X61326921Y-95705491D01*
X61329306Y-95695972D01*
X61332612Y-95686732D01*
X61336808Y-95677860D01*
X61341853Y-95669443D01*
X61347699Y-95661561D01*
X61354289Y-95654289D01*
X61361561Y-95647699D01*
X61369443Y-95641853D01*
X61377860Y-95636808D01*
X61386732Y-95632612D01*
X61395972Y-95629306D01*
X61405491Y-95626921D01*
X61415198Y-95625482D01*
X61425000Y-95625000D01*
X62700000Y-95625000D01*
X62709802Y-95625482D01*
G37*
%TD*%
D18*
%TO.C,FB1*%
X111280000Y-96690000D03*
X111280000Y-95040000D03*
%TD*%
D19*
%TO.C,U5*%
X111650000Y-86500000D03*
X111650000Y-91100000D03*
X111650000Y-88800000D03*
D20*
X105350000Y-88800000D03*
%TD*%
D13*
%TO.C,U2*%
X240610000Y-96075000D03*
X239340000Y-96075000D03*
X238070000Y-96075000D03*
X236800000Y-96075000D03*
X235530000Y-96075000D03*
X234260000Y-96075000D03*
X232990000Y-96075000D03*
D14*
X234025000Y-84500000D03*
X239575000Y-89350000D03*
X239575000Y-84500000D03*
X234025000Y-89350000D03*
%TD*%
M02*
