%TF.GenerationSoftware,KiCad,Pcbnew,(5.1.5)-3*%
%TF.CreationDate,2020-08-13T15:19:08+02:00*%
%TF.ProjectId,Horticulture,486f7274-6963-4756-9c74-7572652e6b69,rev?*%
%TF.SameCoordinates,Original*%
%TF.FileFunction,Legend,Bot*%
%TF.FilePolarity,Positive*%
%FSLAX46Y46*%
G04 Gerber Fmt 4.6, Leading zero omitted, Abs format (unit mm)*
G04 Created by KiCad (PCBNEW (5.1.5)-3) date 2020-08-13 15:19:08*
%MOMM*%
%LPD*%
G04 APERTURE LIST*
%ADD10C,0.150000*%
%ADD11C,0.254000*%
%ADD12C,0.120000*%
G04 APERTURE END LIST*
D10*
X87739285Y-96346428D02*
X87739285Y-97846428D01*
X87739285Y-97132142D02*
X88596428Y-97132142D01*
X88596428Y-96346428D02*
X88596428Y-97846428D01*
X89525000Y-96346428D02*
X89382142Y-96417857D01*
X89310714Y-96489285D01*
X89239285Y-96632142D01*
X89239285Y-97060714D01*
X89310714Y-97203571D01*
X89382142Y-97275000D01*
X89525000Y-97346428D01*
X89739285Y-97346428D01*
X89882142Y-97275000D01*
X89953571Y-97203571D01*
X90025000Y-97060714D01*
X90025000Y-96632142D01*
X89953571Y-96489285D01*
X89882142Y-96417857D01*
X89739285Y-96346428D01*
X89525000Y-96346428D01*
X90667857Y-96346428D02*
X90667857Y-97346428D01*
X90667857Y-97060714D02*
X90739285Y-97203571D01*
X90810714Y-97275000D01*
X90953571Y-97346428D01*
X91096428Y-97346428D01*
X91382142Y-97346428D02*
X91953571Y-97346428D01*
X91596428Y-97846428D02*
X91596428Y-96560714D01*
X91667857Y-96417857D01*
X91810714Y-96346428D01*
X91953571Y-96346428D01*
X92453571Y-96346428D02*
X92453571Y-97346428D01*
X92453571Y-97846428D02*
X92382142Y-97775000D01*
X92453571Y-97703571D01*
X92524999Y-97775000D01*
X92453571Y-97846428D01*
X92453571Y-97703571D01*
X93810714Y-96417857D02*
X93667857Y-96346428D01*
X93382142Y-96346428D01*
X93239285Y-96417857D01*
X93167857Y-96489285D01*
X93096428Y-96632142D01*
X93096428Y-97060714D01*
X93167857Y-97203571D01*
X93239285Y-97275000D01*
X93382142Y-97346428D01*
X93667857Y-97346428D01*
X93810714Y-97275000D01*
X95096428Y-97346428D02*
X95096428Y-96346428D01*
X94453571Y-97346428D02*
X94453571Y-96560714D01*
X94524999Y-96417857D01*
X94667857Y-96346428D01*
X94882142Y-96346428D01*
X95025000Y-96417857D01*
X95096428Y-96489285D01*
X96025000Y-96346428D02*
X95882142Y-96417857D01*
X95810714Y-96560714D01*
X95810714Y-97846428D01*
X96382142Y-97346428D02*
X96953571Y-97346428D01*
X96596428Y-97846428D02*
X96596428Y-96560714D01*
X96667857Y-96417857D01*
X96810714Y-96346428D01*
X96953571Y-96346428D01*
X98096428Y-97346428D02*
X98096428Y-96346428D01*
X97453571Y-97346428D02*
X97453571Y-96560714D01*
X97524999Y-96417857D01*
X97667857Y-96346428D01*
X97882142Y-96346428D01*
X98024999Y-96417857D01*
X98096428Y-96489285D01*
X98810714Y-96346428D02*
X98810714Y-97346428D01*
X98810714Y-97060714D02*
X98882142Y-97203571D01*
X98953571Y-97275000D01*
X99096428Y-97346428D01*
X99239285Y-97346428D01*
X100310714Y-96417857D02*
X100167857Y-96346428D01*
X99882142Y-96346428D01*
X99739285Y-96417857D01*
X99667857Y-96560714D01*
X99667857Y-97132142D01*
X99739285Y-97275000D01*
X99882142Y-97346428D01*
X100167857Y-97346428D01*
X100310714Y-97275000D01*
X100382142Y-97132142D01*
X100382142Y-96989285D01*
X99667857Y-96846428D01*
X88203571Y-93946428D02*
X88203571Y-94946428D01*
X88203571Y-94660714D02*
X88275000Y-94803571D01*
X88346428Y-94875000D01*
X88489285Y-94946428D01*
X88632142Y-94946428D01*
X89703571Y-94017857D02*
X89560714Y-93946428D01*
X89275000Y-93946428D01*
X89132142Y-94017857D01*
X89060714Y-94160714D01*
X89060714Y-94732142D01*
X89132142Y-94875000D01*
X89275000Y-94946428D01*
X89560714Y-94946428D01*
X89703571Y-94875000D01*
X89775000Y-94732142D01*
X89775000Y-94589285D01*
X89060714Y-94446428D01*
X90275000Y-94946428D02*
X90632142Y-93946428D01*
X90989285Y-94946428D01*
X92560714Y-95446428D02*
X93489285Y-95446428D01*
X92989285Y-94875000D01*
X93203571Y-94875000D01*
X93346428Y-94803571D01*
X93417857Y-94732142D01*
X93489285Y-94589285D01*
X93489285Y-94232142D01*
X93417857Y-94089285D01*
X93346428Y-94017857D01*
X93203571Y-93946428D01*
X92775000Y-93946428D01*
X92632142Y-94017857D01*
X92560714Y-94089285D01*
X94132142Y-94089285D02*
X94203571Y-94017857D01*
X94132142Y-93946428D01*
X94060714Y-94017857D01*
X94132142Y-94089285D01*
X94132142Y-93946428D01*
X95132142Y-95446428D02*
X95275000Y-95446428D01*
X95417857Y-95375000D01*
X95489285Y-95303571D01*
X95560714Y-95160714D01*
X95632142Y-94875000D01*
X95632142Y-94517857D01*
X95560714Y-94232142D01*
X95489285Y-94089285D01*
X95417857Y-94017857D01*
X95275000Y-93946428D01*
X95132142Y-93946428D01*
X94989285Y-94017857D01*
X94917857Y-94089285D01*
X94846428Y-94232142D01*
X94775000Y-94517857D01*
X94775000Y-94875000D01*
X94846428Y-95160714D01*
X94917857Y-95303571D01*
X94989285Y-95375000D01*
X95132142Y-95446428D01*
X96275000Y-94089285D02*
X96346428Y-94017857D01*
X96275000Y-93946428D01*
X96203571Y-94017857D01*
X96275000Y-94089285D01*
X96275000Y-93946428D01*
X97775000Y-93946428D02*
X96917857Y-93946428D01*
X97346428Y-93946428D02*
X97346428Y-95446428D01*
X97203571Y-95232142D01*
X97060714Y-95089285D01*
X96917857Y-95017857D01*
X98417857Y-94089285D02*
X98489285Y-94017857D01*
X98417857Y-93946428D01*
X98346428Y-94017857D01*
X98417857Y-94089285D01*
X98417857Y-93946428D01*
X99417857Y-95446428D02*
X99560714Y-95446428D01*
X99703571Y-95375000D01*
X99775000Y-95303571D01*
X99846428Y-95160714D01*
X99917857Y-94875000D01*
X99917857Y-94517857D01*
X99846428Y-94232142D01*
X99775000Y-94089285D01*
X99703571Y-94017857D01*
X99560714Y-93946428D01*
X99417857Y-93946428D01*
X99275000Y-94017857D01*
X99203571Y-94089285D01*
X99132142Y-94232142D01*
X99060714Y-94517857D01*
X99060714Y-94875000D01*
X99132142Y-95160714D01*
X99203571Y-95303571D01*
X99275000Y-95375000D01*
X99417857Y-95446428D01*
D11*
%TO.C,SW2*%
X142000000Y-81800000D02*
X142000000Y-88403000D01*
X142000000Y-99800000D02*
X142000000Y-93136000D01*
X157000000Y-99800000D02*
X157000000Y-93242000D01*
X157000000Y-81800000D02*
X157000000Y-88403000D01*
X146319000Y-99800000D02*
X152607000Y-99800000D01*
X146118000Y-81800000D02*
X152891000Y-81800000D01*
X146725000Y-80968000D02*
G75*
G03X146725000Y-80968000I-112000J0D01*
G01*
D12*
%TO.C,U4*%
X215090000Y-93250000D02*
X215090000Y-94350000D01*
X214400000Y-93250000D02*
X215090000Y-93250000D01*
X214400000Y-91750000D02*
X214400000Y-93250000D01*
X224110000Y-93250000D02*
X224110000Y-98375000D01*
X224800000Y-93250000D02*
X224110000Y-93250000D01*
X224800000Y-91750000D02*
X224800000Y-93250000D01*
%TO.C,J4*%
X249100000Y-87600000D02*
X249700000Y-87300000D01*
X249100000Y-87000000D02*
X249100000Y-87600000D01*
X249700000Y-87300000D02*
X249100000Y-87000000D01*
X252800000Y-95050000D02*
X252800000Y-94550000D01*
X258300000Y-95050000D02*
X252800000Y-95050000D01*
X258300000Y-94550000D02*
X258300000Y-95050000D01*
X252800000Y-94550000D02*
X258300000Y-94550000D01*
X252800000Y-92550000D02*
X252800000Y-92050000D01*
X258300000Y-92550000D02*
X252800000Y-92550000D01*
X258300000Y-92050000D02*
X258300000Y-92550000D01*
X252800000Y-92050000D02*
X258300000Y-92050000D01*
X252800000Y-90050000D02*
X252800000Y-89550000D01*
X258300000Y-90050000D02*
X252800000Y-90050000D01*
X258300000Y-89550000D02*
X258300000Y-90050000D01*
X252800000Y-89550000D02*
X258300000Y-89550000D01*
X252800000Y-87550000D02*
X252800000Y-87050000D01*
X258300000Y-87550000D02*
X252800000Y-87550000D01*
X258300000Y-87050000D02*
X258300000Y-87550000D01*
X252800000Y-87050000D02*
X258300000Y-87050000D01*
X247190000Y-95940000D02*
X251690000Y-95940000D01*
X247190000Y-97360000D02*
X247190000Y-95940000D01*
X258910000Y-97360000D02*
X247190000Y-97360000D01*
X258910000Y-91050000D02*
X258910000Y-97360000D01*
X247190000Y-86160000D02*
X251690000Y-86160000D01*
X247190000Y-84740000D02*
X247190000Y-86160000D01*
X258910000Y-84740000D02*
X247190000Y-84740000D01*
X258910000Y-91050000D02*
X258910000Y-84740000D01*
%TO.C,U1*%
X177090000Y-93450000D02*
X177090000Y-94550000D01*
X176400000Y-93450000D02*
X177090000Y-93450000D01*
X176400000Y-91950000D02*
X176400000Y-93450000D01*
X186110000Y-93450000D02*
X186110000Y-98575000D01*
X186800000Y-93450000D02*
X186110000Y-93450000D01*
X186800000Y-91950000D02*
X186800000Y-93450000D01*
%TO.C,C1*%
X123900000Y-94010000D02*
X117140000Y-94010000D01*
X117140000Y-94010000D02*
X117140000Y-90590000D01*
X117140000Y-90590000D02*
X123900000Y-90590000D01*
%TO.C,F1*%
X115202064Y-94440000D02*
X113997936Y-94440000D01*
X115202064Y-97160000D02*
X113997936Y-97160000D01*
%TO.C,D25*%
X106650000Y-97900000D02*
X104950000Y-97900000D01*
X104950000Y-97900000D02*
X104950000Y-94750000D01*
X106650000Y-97900000D02*
X106650000Y-94750000D01*
%TO.C,U3*%
X193990000Y-93250000D02*
X193990000Y-94350000D01*
X193300000Y-93250000D02*
X193990000Y-93250000D01*
X193300000Y-91750000D02*
X193300000Y-93250000D01*
X203010000Y-93250000D02*
X203010000Y-98375000D01*
X203700000Y-93250000D02*
X203010000Y-93250000D01*
X203700000Y-91750000D02*
X203700000Y-93250000D01*
%TO.C,C2*%
X123900000Y-90310000D02*
X117140000Y-90310000D01*
X117140000Y-90310000D02*
X117140000Y-86890000D01*
X117140000Y-86890000D02*
X123900000Y-86890000D01*
%TO.C,C5*%
X159503922Y-94890000D02*
X160021078Y-94890000D01*
X159503922Y-96310000D02*
X160021078Y-96310000D01*
%TO.C,C3*%
X64641422Y-85790000D02*
X65158578Y-85790000D01*
X64641422Y-87210000D02*
X65158578Y-87210000D01*
%TO.C,U7*%
X134070000Y-95810000D02*
X135400000Y-95810000D01*
X134070000Y-94480000D02*
X134070000Y-95810000D01*
X134070000Y-93210000D02*
X136730000Y-93210000D01*
X136730000Y-93210000D02*
X136730000Y-85530000D01*
X134070000Y-93210000D02*
X134070000Y-85530000D01*
X134070000Y-85530000D02*
X136730000Y-85530000D01*
%TO.C,C4*%
X65158578Y-85210000D02*
X64641422Y-85210000D01*
X65158578Y-83790000D02*
X64641422Y-83790000D01*
%TO.C,J3*%
X41090000Y-91050000D02*
X41090000Y-97360000D01*
X41090000Y-97360000D02*
X52810000Y-97360000D01*
X52810000Y-97360000D02*
X52810000Y-95940000D01*
X52810000Y-95940000D02*
X48310000Y-95940000D01*
X41090000Y-91050000D02*
X41090000Y-84740000D01*
X41090000Y-84740000D02*
X52810000Y-84740000D01*
X52810000Y-84740000D02*
X52810000Y-86160000D01*
X52810000Y-86160000D02*
X48310000Y-86160000D01*
X47200000Y-95050000D02*
X41700000Y-95050000D01*
X41700000Y-95050000D02*
X41700000Y-94550000D01*
X41700000Y-94550000D02*
X47200000Y-94550000D01*
X47200000Y-94550000D02*
X47200000Y-95050000D01*
X47200000Y-92550000D02*
X41700000Y-92550000D01*
X41700000Y-92550000D02*
X41700000Y-92050000D01*
X41700000Y-92050000D02*
X47200000Y-92050000D01*
X47200000Y-92050000D02*
X47200000Y-92550000D01*
X47200000Y-90050000D02*
X41700000Y-90050000D01*
X41700000Y-90050000D02*
X41700000Y-89550000D01*
X41700000Y-89550000D02*
X47200000Y-89550000D01*
X47200000Y-89550000D02*
X47200000Y-90050000D01*
X47200000Y-87550000D02*
X41700000Y-87550000D01*
X41700000Y-87550000D02*
X41700000Y-87050000D01*
X41700000Y-87050000D02*
X47200000Y-87050000D01*
X47200000Y-87050000D02*
X47200000Y-87550000D01*
X50300000Y-94800000D02*
X50900000Y-95100000D01*
X50900000Y-95100000D02*
X50900000Y-94500000D01*
X50900000Y-94500000D02*
X50300000Y-94800000D01*
%TO.C,SW1*%
X57800000Y-85800000D02*
X57800000Y-86400000D01*
X59900000Y-85100000D02*
X58500000Y-85100000D01*
X60600000Y-86400000D02*
X60600000Y-85800000D01*
X58500000Y-87100000D02*
X59900000Y-87100000D01*
X57800000Y-86400000D02*
G75*
G03X58500000Y-87100000I700000J0D01*
G01*
X58500000Y-85100000D02*
G75*
G03X57800000Y-85800000I0J-700000D01*
G01*
X60600000Y-85800000D02*
G75*
G03X59900000Y-85100000I-700000J0D01*
G01*
X59900000Y-87100000D02*
G75*
G03X60600000Y-86400000I0J700000D01*
G01*
%TO.C,J2*%
X76535000Y-96770000D02*
X76535000Y-96835000D01*
X80065000Y-96770000D02*
X80065000Y-96835000D01*
X76535000Y-90365000D02*
X76535000Y-90430000D01*
X80065000Y-90365000D02*
X80065000Y-90430000D01*
X81390000Y-90430000D02*
X80065000Y-90430000D01*
X80065000Y-96835000D02*
X76535000Y-96835000D01*
X80065000Y-90365000D02*
X76535000Y-90365000D01*
%TO.C,U6*%
X59200000Y-89515000D02*
X61400000Y-89515000D01*
X59200000Y-89515000D02*
X57000000Y-89515000D01*
X59200000Y-96285000D02*
X61400000Y-96285000D01*
X59200000Y-96285000D02*
X55600000Y-96285000D01*
%TO.C,FB1*%
X111900000Y-97400000D02*
X111900000Y-94300000D01*
X111900000Y-94300000D02*
X110700000Y-94300000D01*
X111900000Y-97400000D02*
X111900000Y-97500000D01*
X111900000Y-97500000D02*
X110600000Y-97500000D01*
X110600000Y-97500000D02*
X110600000Y-94300000D01*
X110600000Y-94300000D02*
X110800000Y-94300000D01*
%TO.C,U5*%
X112600000Y-85390000D02*
X106590000Y-85390000D01*
X110350000Y-92210000D02*
X106590000Y-92210000D01*
X106590000Y-85390000D02*
X106590000Y-86650000D01*
X106590000Y-92210000D02*
X106590000Y-90950000D01*
%TO.C,U2*%
X232290000Y-93250000D02*
X232290000Y-94350000D01*
X231600000Y-93250000D02*
X232290000Y-93250000D01*
X231600000Y-91750000D02*
X231600000Y-93250000D01*
X241310000Y-93250000D02*
X241310000Y-98375000D01*
X242000000Y-93250000D02*
X241310000Y-93250000D01*
X242000000Y-91750000D02*
X242000000Y-93250000D01*
%TO.C,SW2*%
D11*
X151085333Y-94604047D02*
X150903904Y-94664523D01*
X150601523Y-94664523D01*
X150480571Y-94604047D01*
X150420095Y-94543571D01*
X150359619Y-94422619D01*
X150359619Y-94301666D01*
X150420095Y-94180714D01*
X150480571Y-94120238D01*
X150601523Y-94059761D01*
X150843428Y-93999285D01*
X150964380Y-93938809D01*
X151024857Y-93878333D01*
X151085333Y-93757380D01*
X151085333Y-93636428D01*
X151024857Y-93515476D01*
X150964380Y-93455000D01*
X150843428Y-93394523D01*
X150541047Y-93394523D01*
X150359619Y-93455000D01*
X149936285Y-93394523D02*
X149633904Y-94664523D01*
X149392000Y-93757380D01*
X149150095Y-94664523D01*
X148847714Y-93394523D01*
X148424380Y-93515476D02*
X148363904Y-93455000D01*
X148242952Y-93394523D01*
X147940571Y-93394523D01*
X147819619Y-93455000D01*
X147759142Y-93515476D01*
X147698666Y-93636428D01*
X147698666Y-93757380D01*
X147759142Y-93938809D01*
X148484857Y-94664523D01*
X147698666Y-94664523D01*
%TO.C,U4*%
D10*
X225702380Y-89538095D02*
X226511904Y-89538095D01*
X226607142Y-89585714D01*
X226654761Y-89633333D01*
X226702380Y-89728571D01*
X226702380Y-89919047D01*
X226654761Y-90014285D01*
X226607142Y-90061904D01*
X226511904Y-90109523D01*
X225702380Y-90109523D01*
X226035714Y-91014285D02*
X226702380Y-91014285D01*
X225654761Y-90776190D02*
X226369047Y-90538095D01*
X226369047Y-91157142D01*
%TO.C,J4*%
X245552380Y-90716666D02*
X246266666Y-90716666D01*
X246409523Y-90669047D01*
X246504761Y-90573809D01*
X246552380Y-90430952D01*
X246552380Y-90335714D01*
X245885714Y-91621428D02*
X246552380Y-91621428D01*
X245504761Y-91383333D02*
X246219047Y-91145238D01*
X246219047Y-91764285D01*
%TO.C,U1*%
X187702380Y-89738095D02*
X188511904Y-89738095D01*
X188607142Y-89785714D01*
X188654761Y-89833333D01*
X188702380Y-89928571D01*
X188702380Y-90119047D01*
X188654761Y-90214285D01*
X188607142Y-90261904D01*
X188511904Y-90309523D01*
X187702380Y-90309523D01*
X188702380Y-91309523D02*
X188702380Y-90738095D01*
X188702380Y-91023809D02*
X187702380Y-91023809D01*
X187845238Y-90928571D01*
X187940476Y-90833333D01*
X187988095Y-90738095D01*
%TO.C,C1*%
X121066666Y-95207142D02*
X121114285Y-95254761D01*
X121257142Y-95302380D01*
X121352380Y-95302380D01*
X121495238Y-95254761D01*
X121590476Y-95159523D01*
X121638095Y-95064285D01*
X121685714Y-94873809D01*
X121685714Y-94730952D01*
X121638095Y-94540476D01*
X121590476Y-94445238D01*
X121495238Y-94350000D01*
X121352380Y-94302380D01*
X121257142Y-94302380D01*
X121114285Y-94350000D01*
X121066666Y-94397619D01*
X120114285Y-95302380D02*
X120685714Y-95302380D01*
X120400000Y-95302380D02*
X120400000Y-94302380D01*
X120495238Y-94445238D01*
X120590476Y-94540476D01*
X120685714Y-94588095D01*
%TO.C,R6*%
X102666666Y-85582380D02*
X103000000Y-85106190D01*
X103238095Y-85582380D02*
X103238095Y-84582380D01*
X102857142Y-84582380D01*
X102761904Y-84630000D01*
X102714285Y-84677619D01*
X102666666Y-84772857D01*
X102666666Y-84915714D01*
X102714285Y-85010952D01*
X102761904Y-85058571D01*
X102857142Y-85106190D01*
X103238095Y-85106190D01*
X101809523Y-84582380D02*
X102000000Y-84582380D01*
X102095238Y-84630000D01*
X102142857Y-84677619D01*
X102238095Y-84820476D01*
X102285714Y-85010952D01*
X102285714Y-85391904D01*
X102238095Y-85487142D01*
X102190476Y-85534761D01*
X102095238Y-85582380D01*
X101904761Y-85582380D01*
X101809523Y-85534761D01*
X101761904Y-85487142D01*
X101714285Y-85391904D01*
X101714285Y-85153809D01*
X101761904Y-85058571D01*
X101809523Y-85010952D01*
X101904761Y-84963333D01*
X102095238Y-84963333D01*
X102190476Y-85010952D01*
X102238095Y-85058571D01*
X102285714Y-85153809D01*
%TO.C,F1*%
X118033333Y-94628571D02*
X118366666Y-94628571D01*
X118366666Y-95152380D02*
X118366666Y-94152380D01*
X117890476Y-94152380D01*
X116985714Y-95152380D02*
X117557142Y-95152380D01*
X117271428Y-95152380D02*
X117271428Y-94152380D01*
X117366666Y-94295238D01*
X117461904Y-94390476D01*
X117557142Y-94438095D01*
%TO.C,R5*%
X102651666Y-88922380D02*
X102985000Y-88446190D01*
X103223095Y-88922380D02*
X103223095Y-87922380D01*
X102842142Y-87922380D01*
X102746904Y-87970000D01*
X102699285Y-88017619D01*
X102651666Y-88112857D01*
X102651666Y-88255714D01*
X102699285Y-88350952D01*
X102746904Y-88398571D01*
X102842142Y-88446190D01*
X103223095Y-88446190D01*
X101746904Y-87922380D02*
X102223095Y-87922380D01*
X102270714Y-88398571D01*
X102223095Y-88350952D01*
X102127857Y-88303333D01*
X101889761Y-88303333D01*
X101794523Y-88350952D01*
X101746904Y-88398571D01*
X101699285Y-88493809D01*
X101699285Y-88731904D01*
X101746904Y-88827142D01*
X101794523Y-88874761D01*
X101889761Y-88922380D01*
X102127857Y-88922380D01*
X102223095Y-88874761D01*
X102270714Y-88827142D01*
%TO.C,D25*%
X108102380Y-94785714D02*
X107102380Y-94785714D01*
X107102380Y-95023809D01*
X107150000Y-95166666D01*
X107245238Y-95261904D01*
X107340476Y-95309523D01*
X107530952Y-95357142D01*
X107673809Y-95357142D01*
X107864285Y-95309523D01*
X107959523Y-95261904D01*
X108054761Y-95166666D01*
X108102380Y-95023809D01*
X108102380Y-94785714D01*
X107197619Y-95738095D02*
X107150000Y-95785714D01*
X107102380Y-95880952D01*
X107102380Y-96119047D01*
X107150000Y-96214285D01*
X107197619Y-96261904D01*
X107292857Y-96309523D01*
X107388095Y-96309523D01*
X107530952Y-96261904D01*
X108102380Y-95690476D01*
X108102380Y-96309523D01*
X107102380Y-97214285D02*
X107102380Y-96738095D01*
X107578571Y-96690476D01*
X107530952Y-96738095D01*
X107483333Y-96833333D01*
X107483333Y-97071428D01*
X107530952Y-97166666D01*
X107578571Y-97214285D01*
X107673809Y-97261904D01*
X107911904Y-97261904D01*
X108007142Y-97214285D01*
X108054761Y-97166666D01*
X108102380Y-97071428D01*
X108102380Y-96833333D01*
X108054761Y-96738095D01*
X108007142Y-96690476D01*
%TO.C,U3*%
X204602380Y-89538095D02*
X205411904Y-89538095D01*
X205507142Y-89585714D01*
X205554761Y-89633333D01*
X205602380Y-89728571D01*
X205602380Y-89919047D01*
X205554761Y-90014285D01*
X205507142Y-90061904D01*
X205411904Y-90109523D01*
X204602380Y-90109523D01*
X204602380Y-90490476D02*
X204602380Y-91109523D01*
X204983333Y-90776190D01*
X204983333Y-90919047D01*
X205030952Y-91014285D01*
X205078571Y-91061904D01*
X205173809Y-91109523D01*
X205411904Y-91109523D01*
X205507142Y-91061904D01*
X205554761Y-91014285D01*
X205602380Y-90919047D01*
X205602380Y-90633333D01*
X205554761Y-90538095D01*
X205507142Y-90490476D01*
%TO.C,C2*%
X121066666Y-91507142D02*
X121114285Y-91554761D01*
X121257142Y-91602380D01*
X121352380Y-91602380D01*
X121495238Y-91554761D01*
X121590476Y-91459523D01*
X121638095Y-91364285D01*
X121685714Y-91173809D01*
X121685714Y-91030952D01*
X121638095Y-90840476D01*
X121590476Y-90745238D01*
X121495238Y-90650000D01*
X121352380Y-90602380D01*
X121257142Y-90602380D01*
X121114285Y-90650000D01*
X121066666Y-90697619D01*
X120685714Y-90697619D02*
X120638095Y-90650000D01*
X120542857Y-90602380D01*
X120304761Y-90602380D01*
X120209523Y-90650000D01*
X120161904Y-90697619D01*
X120114285Y-90792857D01*
X120114285Y-90888095D01*
X120161904Y-91030952D01*
X120733333Y-91602380D01*
X120114285Y-91602380D01*
%TO.C,C5*%
X159929166Y-97607142D02*
X159976785Y-97654761D01*
X160119642Y-97702380D01*
X160214880Y-97702380D01*
X160357738Y-97654761D01*
X160452976Y-97559523D01*
X160500595Y-97464285D01*
X160548214Y-97273809D01*
X160548214Y-97130952D01*
X160500595Y-96940476D01*
X160452976Y-96845238D01*
X160357738Y-96750000D01*
X160214880Y-96702380D01*
X160119642Y-96702380D01*
X159976785Y-96750000D01*
X159929166Y-96797619D01*
X159024404Y-96702380D02*
X159500595Y-96702380D01*
X159548214Y-97178571D01*
X159500595Y-97130952D01*
X159405357Y-97083333D01*
X159167261Y-97083333D01*
X159072023Y-97130952D01*
X159024404Y-97178571D01*
X158976785Y-97273809D01*
X158976785Y-97511904D01*
X159024404Y-97607142D01*
X159072023Y-97654761D01*
X159167261Y-97702380D01*
X159405357Y-97702380D01*
X159500595Y-97654761D01*
X159548214Y-97607142D01*
%TO.C,C3*%
X65066666Y-88507142D02*
X65114285Y-88554761D01*
X65257142Y-88602380D01*
X65352380Y-88602380D01*
X65495238Y-88554761D01*
X65590476Y-88459523D01*
X65638095Y-88364285D01*
X65685714Y-88173809D01*
X65685714Y-88030952D01*
X65638095Y-87840476D01*
X65590476Y-87745238D01*
X65495238Y-87650000D01*
X65352380Y-87602380D01*
X65257142Y-87602380D01*
X65114285Y-87650000D01*
X65066666Y-87697619D01*
X64733333Y-87602380D02*
X64114285Y-87602380D01*
X64447619Y-87983333D01*
X64304761Y-87983333D01*
X64209523Y-88030952D01*
X64161904Y-88078571D01*
X64114285Y-88173809D01*
X64114285Y-88411904D01*
X64161904Y-88507142D01*
X64209523Y-88554761D01*
X64304761Y-88602380D01*
X64590476Y-88602380D01*
X64685714Y-88554761D01*
X64733333Y-88507142D01*
%TO.C,U7*%
X136161904Y-96262380D02*
X136161904Y-97071904D01*
X136114285Y-97167142D01*
X136066666Y-97214761D01*
X135971428Y-97262380D01*
X135780952Y-97262380D01*
X135685714Y-97214761D01*
X135638095Y-97167142D01*
X135590476Y-97071904D01*
X135590476Y-96262380D01*
X135209523Y-96262380D02*
X134542857Y-96262380D01*
X134971428Y-97262380D01*
%TO.C,C4*%
X65066666Y-83207142D02*
X65114285Y-83254761D01*
X65257142Y-83302380D01*
X65352380Y-83302380D01*
X65495238Y-83254761D01*
X65590476Y-83159523D01*
X65638095Y-83064285D01*
X65685714Y-82873809D01*
X65685714Y-82730952D01*
X65638095Y-82540476D01*
X65590476Y-82445238D01*
X65495238Y-82350000D01*
X65352380Y-82302380D01*
X65257142Y-82302380D01*
X65114285Y-82350000D01*
X65066666Y-82397619D01*
X64209523Y-82635714D02*
X64209523Y-83302380D01*
X64447619Y-82254761D02*
X64685714Y-82969047D01*
X64066666Y-82969047D01*
%TO.C,J3*%
X53352380Y-90716666D02*
X54066666Y-90716666D01*
X54209523Y-90669047D01*
X54304761Y-90573809D01*
X54352380Y-90430952D01*
X54352380Y-90335714D01*
X53352380Y-91097619D02*
X53352380Y-91716666D01*
X53733333Y-91383333D01*
X53733333Y-91526190D01*
X53780952Y-91621428D01*
X53828571Y-91669047D01*
X53923809Y-91716666D01*
X54161904Y-91716666D01*
X54257142Y-91669047D01*
X54304761Y-91621428D01*
X54352380Y-91526190D01*
X54352380Y-91240476D01*
X54304761Y-91145238D01*
X54257142Y-91097619D01*
%TO.C,SW1*%
X60533333Y-88304761D02*
X60390476Y-88352380D01*
X60152380Y-88352380D01*
X60057142Y-88304761D01*
X60009523Y-88257142D01*
X59961904Y-88161904D01*
X59961904Y-88066666D01*
X60009523Y-87971428D01*
X60057142Y-87923809D01*
X60152380Y-87876190D01*
X60342857Y-87828571D01*
X60438095Y-87780952D01*
X60485714Y-87733333D01*
X60533333Y-87638095D01*
X60533333Y-87542857D01*
X60485714Y-87447619D01*
X60438095Y-87400000D01*
X60342857Y-87352380D01*
X60104761Y-87352380D01*
X59961904Y-87400000D01*
X59628571Y-87352380D02*
X59390476Y-88352380D01*
X59200000Y-87638095D01*
X59009523Y-88352380D01*
X58771428Y-87352380D01*
X57866666Y-88352380D02*
X58438095Y-88352380D01*
X58152380Y-88352380D02*
X58152380Y-87352380D01*
X58247619Y-87495238D01*
X58342857Y-87590476D01*
X58438095Y-87638095D01*
%TO.C,J2*%
X78633333Y-88817380D02*
X78633333Y-89531666D01*
X78680952Y-89674523D01*
X78776190Y-89769761D01*
X78919047Y-89817380D01*
X79014285Y-89817380D01*
X78204761Y-88912619D02*
X78157142Y-88865000D01*
X78061904Y-88817380D01*
X77823809Y-88817380D01*
X77728571Y-88865000D01*
X77680952Y-88912619D01*
X77633333Y-89007857D01*
X77633333Y-89103095D01*
X77680952Y-89245952D01*
X78252380Y-89817380D01*
X77633333Y-89817380D01*
%TO.C,U6*%
X59961904Y-96752380D02*
X59961904Y-97561904D01*
X59914285Y-97657142D01*
X59866666Y-97704761D01*
X59771428Y-97752380D01*
X59580952Y-97752380D01*
X59485714Y-97704761D01*
X59438095Y-97657142D01*
X59390476Y-97561904D01*
X59390476Y-96752380D01*
X58485714Y-96752380D02*
X58676190Y-96752380D01*
X58771428Y-96800000D01*
X58819047Y-96847619D01*
X58914285Y-96990476D01*
X58961904Y-97180952D01*
X58961904Y-97561904D01*
X58914285Y-97657142D01*
X58866666Y-97704761D01*
X58771428Y-97752380D01*
X58580952Y-97752380D01*
X58485714Y-97704761D01*
X58438095Y-97657142D01*
X58390476Y-97561904D01*
X58390476Y-97323809D01*
X58438095Y-97228571D01*
X58485714Y-97180952D01*
X58580952Y-97133333D01*
X58771428Y-97133333D01*
X58866666Y-97180952D01*
X58914285Y-97228571D01*
X58961904Y-97323809D01*
%TO.C,FB1*%
X109828571Y-95066666D02*
X109828571Y-94733333D01*
X110352380Y-94733333D02*
X109352380Y-94733333D01*
X109352380Y-95209523D01*
X109828571Y-95923809D02*
X109876190Y-96066666D01*
X109923809Y-96114285D01*
X110019047Y-96161904D01*
X110161904Y-96161904D01*
X110257142Y-96114285D01*
X110304761Y-96066666D01*
X110352380Y-95971428D01*
X110352380Y-95590476D01*
X109352380Y-95590476D01*
X109352380Y-95923809D01*
X109400000Y-96019047D01*
X109447619Y-96066666D01*
X109542857Y-96114285D01*
X109638095Y-96114285D01*
X109733333Y-96066666D01*
X109780952Y-96019047D01*
X109828571Y-95923809D01*
X109828571Y-95590476D01*
X110352380Y-97114285D02*
X110352380Y-96542857D01*
X110352380Y-96828571D02*
X109352380Y-96828571D01*
X109495238Y-96733333D01*
X109590476Y-96638095D01*
X109638095Y-96542857D01*
%TO.C,U5*%
X109261904Y-83752380D02*
X109261904Y-84561904D01*
X109214285Y-84657142D01*
X109166666Y-84704761D01*
X109071428Y-84752380D01*
X108880952Y-84752380D01*
X108785714Y-84704761D01*
X108738095Y-84657142D01*
X108690476Y-84561904D01*
X108690476Y-83752380D01*
X107738095Y-83752380D02*
X108214285Y-83752380D01*
X108261904Y-84228571D01*
X108214285Y-84180952D01*
X108119047Y-84133333D01*
X107880952Y-84133333D01*
X107785714Y-84180952D01*
X107738095Y-84228571D01*
X107690476Y-84323809D01*
X107690476Y-84561904D01*
X107738095Y-84657142D01*
X107785714Y-84704761D01*
X107880952Y-84752380D01*
X108119047Y-84752380D01*
X108214285Y-84704761D01*
X108261904Y-84657142D01*
%TO.C,U2*%
X242902380Y-89538095D02*
X243711904Y-89538095D01*
X243807142Y-89585714D01*
X243854761Y-89633333D01*
X243902380Y-89728571D01*
X243902380Y-89919047D01*
X243854761Y-90014285D01*
X243807142Y-90061904D01*
X243711904Y-90109523D01*
X242902380Y-90109523D01*
X242997619Y-90538095D02*
X242950000Y-90585714D01*
X242902380Y-90680952D01*
X242902380Y-90919047D01*
X242950000Y-91014285D01*
X242997619Y-91061904D01*
X243092857Y-91109523D01*
X243188095Y-91109523D01*
X243330952Y-91061904D01*
X243902380Y-90490476D01*
X243902380Y-91109523D01*
%TD*%
M02*
