M48
; DRILL file {KiCad (5.1.5)-3} date 13/08/2020 15:19:13
; FORMAT={-:-/ absolute / inch / decimal}
; #@! TF.CreationDate,2020-08-13T15:19:13+02:00
; #@! TF.GenerationSoftware,Kicad,Pcbnew,(5.1.5)-3
; #@! TF.FileFunction,Plated,1,2,PTH
FMAT,2
INCH
T1C0.0157
T2C0.0300
T3C0.0394
T4C0.0630
T5C0.0827
%
G90
G05
T1
X1.7795Y-3.2441
X1.7953Y-3.7835
X2.1071Y-3.7274
X2.1102Y-3.5354
X2.1261Y-3.6929
X2.1285Y-3.8474
X2.1385Y-3.6555
X2.3484Y-3.4428
X2.3561Y-3.3331
X2.3858Y-3.6772
X2.4488Y-3.2441
X2.4955Y-3.7275
X2.5328Y-3.7149
X2.6191Y-3.627
X2.6386Y-3.7037
X2.6772Y-3.4213
X2.7405Y-3.444
X2.7559Y-3.376
X2.7966Y-3.8317
X2.8798Y-3.4466
X2.8819Y-3.8189
X3.0512Y-3.3632
X3.2657Y-3.6555
X3.2874Y-3.8268
X3.3035Y-3.7035
X3.3512Y-3.805
X3.4595Y-3.7894
X3.6611Y-3.753
X3.7008Y-3.752
X3.7598Y-3.7795
X3.8071Y-3.7323
X3.9087Y-3.3549
X3.9724Y-3.3199
X4.0469Y-3.5571
X4.0569Y-3.3445
X4.154Y-3.3341
X4.2904Y-3.3376
X4.5152Y-3.3648
X4.5807Y-3.4577
X4.8986Y-3.3317
X5.2047Y-3.5551
X5.4449Y-3.563
X5.5041Y-3.4222
X5.5945Y-3.4134
X6.248Y-3.2126
X6.8601Y-3.376
X7.0996Y-3.9161
X7.4055Y-3.7874
X7.4081Y-3.5541
X7.5377Y-3.5925
X7.7892Y-3.9331
X8.0709Y-3.7874
X8.3937Y-3.7402
X8.5195Y-3.9715
X8.6108Y-3.9094
X8.8858Y-3.7874
X9.0197Y-3.4134
X9.5827Y-3.7874
X9.5851Y-3.6132
X9.6102Y-3.8346
X9.6329Y-3.3474
X9.6356Y-3.9734
X9.6496Y-3.6417
X9.6654Y-3.7795
X9.7008Y-3.9764
X9.9606Y-3.7835
X10.0118Y-3.2047
T2
X1.8248Y-3.1827
X1.9248Y-3.1827
X2.0248Y-3.1827
X2.1248Y-3.1827
X2.2248Y-3.1827
X2.2248Y-3.9827
X2.3248Y-3.1827
X2.3248Y-3.9827
X2.4248Y-3.1827
X2.4248Y-3.9827
X2.5248Y-3.1827
X2.5248Y-3.9827
X2.6248Y-3.1827
X2.6248Y-3.9827
X2.7248Y-3.1827
X2.7248Y-3.9827
X2.8248Y-3.1827
X2.8248Y-3.9827
X2.9248Y-3.1827
X2.9248Y-3.9827
X3.0248Y-3.1827
X3.0248Y-3.9827
X3.1248Y-3.1827
X3.1248Y-3.9827
X3.2248Y-3.1827
X3.2248Y-3.9827
X3.3248Y-3.1827
X3.3248Y-3.9827
T3
X5.3307Y-3.4197
X5.3307Y-3.5197
X5.3307Y-3.6197
X5.3307Y-3.7197
T5
X5.8858Y-3.5748
T4
G00X5.8858Y-3.3917
M15
G01X5.8858Y-3.4035
M16
G05
T0
M30
