%TF.GenerationSoftware,KiCad,Pcbnew,(5.1.5)-3*%
%TF.CreationDate,2020-08-13T15:19:08+02:00*%
%TF.ProjectId,Horticulture,486f7274-6963-4756-9c74-7572652e6b69,rev?*%
%TF.SameCoordinates,Original*%
%TF.FileFunction,Soldermask,Top*%
%TF.FilePolarity,Negative*%
%FSLAX46Y46*%
G04 Gerber Fmt 4.6, Leading zero omitted, Abs format (unit mm)*
G04 Created by KiCad (PCBNEW (5.1.5)-3) date 2020-08-13 15:19:08*
%MOMM*%
%LPD*%
G04 APERTURE LIST*
%ADD10C,2.300000*%
%ADD11C,3.250000*%
%ADD12C,1.624000*%
%ADD13O,1.800000X1.800000*%
%ADD14R,1.800000X1.800000*%
%ADD15R,0.920000X2.500000*%
%ADD16R,2.030000X2.500000*%
%ADD17C,0.100000*%
G04 APERTURE END LIST*
D10*
%TO.C,SW2*%
X149500000Y-86300000D03*
D11*
X149500000Y-90800000D03*
%TD*%
D12*
%TO.C,A1*%
X84450000Y-80840000D03*
X81910000Y-80840000D03*
X79370000Y-80840000D03*
X76830000Y-80840000D03*
X74290000Y-80840000D03*
X71750000Y-80840000D03*
X69210000Y-80840000D03*
X66670000Y-80840000D03*
X64130000Y-80840000D03*
X61590000Y-80840000D03*
X59050000Y-80840000D03*
X56510000Y-80840000D03*
X51430000Y-80840000D03*
X46350000Y-80840000D03*
X84450000Y-101160000D03*
X81910000Y-101160000D03*
X79370000Y-101160000D03*
X76830000Y-101160000D03*
X74290000Y-101160000D03*
X71750000Y-101160000D03*
X69210000Y-101160000D03*
X66670000Y-101160000D03*
X64130000Y-101160000D03*
X61590000Y-101160000D03*
X59050000Y-101160000D03*
X56510000Y-101160000D03*
X48890000Y-80840000D03*
X53970000Y-80840000D03*
%TD*%
D13*
%TO.C,U7*%
X135400000Y-86860000D03*
X135400000Y-89400000D03*
X135400000Y-91940000D03*
D14*
X135400000Y-94480000D03*
%TD*%
D15*
%TO.C,D5*%
X210000000Y-83500000D03*
D16*
X207775000Y-83500000D03*
%TD*%
D15*
%TO.C,D1*%
X50000000Y-83500000D03*
D16*
X47775000Y-83500000D03*
%TD*%
D15*
%TO.C,D8*%
X90000000Y-88500000D03*
D16*
X87775000Y-88500000D03*
%TD*%
D15*
%TO.C,D16*%
X170000000Y-93500000D03*
D16*
X167775000Y-93500000D03*
%TD*%
D15*
%TO.C,D14*%
X90000000Y-93500000D03*
D16*
X87775000Y-93500000D03*
%TD*%
D15*
%TO.C,D2*%
X90000000Y-83500000D03*
D16*
X87775000Y-83500000D03*
%TD*%
D15*
%TO.C,D9*%
X130000000Y-88500000D03*
D16*
X127775000Y-88500000D03*
%TD*%
D17*
%TO.C,R3*%
G36*
X255032592Y-92751294D02*
G01*
X255058681Y-92755164D01*
X255084264Y-92761572D01*
X255109096Y-92770457D01*
X255132938Y-92781734D01*
X255155560Y-92795293D01*
X255176743Y-92811003D01*
X255196285Y-92828715D01*
X255213997Y-92848257D01*
X255229707Y-92869440D01*
X255243266Y-92892062D01*
X255254543Y-92915904D01*
X255263428Y-92940736D01*
X255269836Y-92966319D01*
X255273706Y-92992408D01*
X255275000Y-93018750D01*
X255275000Y-93981250D01*
X255273706Y-94007592D01*
X255269836Y-94033681D01*
X255263428Y-94059264D01*
X255254543Y-94084096D01*
X255243266Y-94107938D01*
X255229707Y-94130560D01*
X255213997Y-94151743D01*
X255196285Y-94171285D01*
X255176743Y-94188997D01*
X255155560Y-94204707D01*
X255132938Y-94218266D01*
X255109096Y-94229543D01*
X255084264Y-94238428D01*
X255058681Y-94244836D01*
X255032592Y-94248706D01*
X255006250Y-94250000D01*
X254468750Y-94250000D01*
X254442408Y-94248706D01*
X254416319Y-94244836D01*
X254390736Y-94238428D01*
X254365904Y-94229543D01*
X254342062Y-94218266D01*
X254319440Y-94204707D01*
X254298257Y-94188997D01*
X254278715Y-94171285D01*
X254261003Y-94151743D01*
X254245293Y-94130560D01*
X254231734Y-94107938D01*
X254220457Y-94084096D01*
X254211572Y-94059264D01*
X254205164Y-94033681D01*
X254201294Y-94007592D01*
X254200000Y-93981250D01*
X254200000Y-93018750D01*
X254201294Y-92992408D01*
X254205164Y-92966319D01*
X254211572Y-92940736D01*
X254220457Y-92915904D01*
X254231734Y-92892062D01*
X254245293Y-92869440D01*
X254261003Y-92848257D01*
X254278715Y-92828715D01*
X254298257Y-92811003D01*
X254319440Y-92795293D01*
X254342062Y-92781734D01*
X254365904Y-92770457D01*
X254390736Y-92761572D01*
X254416319Y-92755164D01*
X254442408Y-92751294D01*
X254468750Y-92750000D01*
X255006250Y-92750000D01*
X255032592Y-92751294D01*
G37*
G36*
X253157592Y-92751294D02*
G01*
X253183681Y-92755164D01*
X253209264Y-92761572D01*
X253234096Y-92770457D01*
X253257938Y-92781734D01*
X253280560Y-92795293D01*
X253301743Y-92811003D01*
X253321285Y-92828715D01*
X253338997Y-92848257D01*
X253354707Y-92869440D01*
X253368266Y-92892062D01*
X253379543Y-92915904D01*
X253388428Y-92940736D01*
X253394836Y-92966319D01*
X253398706Y-92992408D01*
X253400000Y-93018750D01*
X253400000Y-93981250D01*
X253398706Y-94007592D01*
X253394836Y-94033681D01*
X253388428Y-94059264D01*
X253379543Y-94084096D01*
X253368266Y-94107938D01*
X253354707Y-94130560D01*
X253338997Y-94151743D01*
X253321285Y-94171285D01*
X253301743Y-94188997D01*
X253280560Y-94204707D01*
X253257938Y-94218266D01*
X253234096Y-94229543D01*
X253209264Y-94238428D01*
X253183681Y-94244836D01*
X253157592Y-94248706D01*
X253131250Y-94250000D01*
X252593750Y-94250000D01*
X252567408Y-94248706D01*
X252541319Y-94244836D01*
X252515736Y-94238428D01*
X252490904Y-94229543D01*
X252467062Y-94218266D01*
X252444440Y-94204707D01*
X252423257Y-94188997D01*
X252403715Y-94171285D01*
X252386003Y-94151743D01*
X252370293Y-94130560D01*
X252356734Y-94107938D01*
X252345457Y-94084096D01*
X252336572Y-94059264D01*
X252330164Y-94033681D01*
X252326294Y-94007592D01*
X252325000Y-93981250D01*
X252325000Y-93018750D01*
X252326294Y-92992408D01*
X252330164Y-92966319D01*
X252336572Y-92940736D01*
X252345457Y-92915904D01*
X252356734Y-92892062D01*
X252370293Y-92869440D01*
X252386003Y-92848257D01*
X252403715Y-92828715D01*
X252423257Y-92811003D01*
X252444440Y-92795293D01*
X252467062Y-92781734D01*
X252490904Y-92770457D01*
X252515736Y-92761572D01*
X252541319Y-92755164D01*
X252567408Y-92751294D01*
X252593750Y-92750000D01*
X253131250Y-92750000D01*
X253157592Y-92751294D01*
G37*
%TD*%
D15*
%TO.C,D15*%
X130000000Y-93500000D03*
D16*
X127775000Y-93500000D03*
%TD*%
D17*
%TO.C,R2*%
G36*
X255032592Y-87751294D02*
G01*
X255058681Y-87755164D01*
X255084264Y-87761572D01*
X255109096Y-87770457D01*
X255132938Y-87781734D01*
X255155560Y-87795293D01*
X255176743Y-87811003D01*
X255196285Y-87828715D01*
X255213997Y-87848257D01*
X255229707Y-87869440D01*
X255243266Y-87892062D01*
X255254543Y-87915904D01*
X255263428Y-87940736D01*
X255269836Y-87966319D01*
X255273706Y-87992408D01*
X255275000Y-88018750D01*
X255275000Y-88981250D01*
X255273706Y-89007592D01*
X255269836Y-89033681D01*
X255263428Y-89059264D01*
X255254543Y-89084096D01*
X255243266Y-89107938D01*
X255229707Y-89130560D01*
X255213997Y-89151743D01*
X255196285Y-89171285D01*
X255176743Y-89188997D01*
X255155560Y-89204707D01*
X255132938Y-89218266D01*
X255109096Y-89229543D01*
X255084264Y-89238428D01*
X255058681Y-89244836D01*
X255032592Y-89248706D01*
X255006250Y-89250000D01*
X254468750Y-89250000D01*
X254442408Y-89248706D01*
X254416319Y-89244836D01*
X254390736Y-89238428D01*
X254365904Y-89229543D01*
X254342062Y-89218266D01*
X254319440Y-89204707D01*
X254298257Y-89188997D01*
X254278715Y-89171285D01*
X254261003Y-89151743D01*
X254245293Y-89130560D01*
X254231734Y-89107938D01*
X254220457Y-89084096D01*
X254211572Y-89059264D01*
X254205164Y-89033681D01*
X254201294Y-89007592D01*
X254200000Y-88981250D01*
X254200000Y-88018750D01*
X254201294Y-87992408D01*
X254205164Y-87966319D01*
X254211572Y-87940736D01*
X254220457Y-87915904D01*
X254231734Y-87892062D01*
X254245293Y-87869440D01*
X254261003Y-87848257D01*
X254278715Y-87828715D01*
X254298257Y-87811003D01*
X254319440Y-87795293D01*
X254342062Y-87781734D01*
X254365904Y-87770457D01*
X254390736Y-87761572D01*
X254416319Y-87755164D01*
X254442408Y-87751294D01*
X254468750Y-87750000D01*
X255006250Y-87750000D01*
X255032592Y-87751294D01*
G37*
G36*
X253157592Y-87751294D02*
G01*
X253183681Y-87755164D01*
X253209264Y-87761572D01*
X253234096Y-87770457D01*
X253257938Y-87781734D01*
X253280560Y-87795293D01*
X253301743Y-87811003D01*
X253321285Y-87828715D01*
X253338997Y-87848257D01*
X253354707Y-87869440D01*
X253368266Y-87892062D01*
X253379543Y-87915904D01*
X253388428Y-87940736D01*
X253394836Y-87966319D01*
X253398706Y-87992408D01*
X253400000Y-88018750D01*
X253400000Y-88981250D01*
X253398706Y-89007592D01*
X253394836Y-89033681D01*
X253388428Y-89059264D01*
X253379543Y-89084096D01*
X253368266Y-89107938D01*
X253354707Y-89130560D01*
X253338997Y-89151743D01*
X253321285Y-89171285D01*
X253301743Y-89188997D01*
X253280560Y-89204707D01*
X253257938Y-89218266D01*
X253234096Y-89229543D01*
X253209264Y-89238428D01*
X253183681Y-89244836D01*
X253157592Y-89248706D01*
X253131250Y-89250000D01*
X252593750Y-89250000D01*
X252567408Y-89248706D01*
X252541319Y-89244836D01*
X252515736Y-89238428D01*
X252490904Y-89229543D01*
X252467062Y-89218266D01*
X252444440Y-89204707D01*
X252423257Y-89188997D01*
X252403715Y-89171285D01*
X252386003Y-89151743D01*
X252370293Y-89130560D01*
X252356734Y-89107938D01*
X252345457Y-89084096D01*
X252336572Y-89059264D01*
X252330164Y-89033681D01*
X252326294Y-89007592D01*
X252325000Y-88981250D01*
X252325000Y-88018750D01*
X252326294Y-87992408D01*
X252330164Y-87966319D01*
X252336572Y-87940736D01*
X252345457Y-87915904D01*
X252356734Y-87892062D01*
X252370293Y-87869440D01*
X252386003Y-87848257D01*
X252403715Y-87828715D01*
X252423257Y-87811003D01*
X252444440Y-87795293D01*
X252467062Y-87781734D01*
X252490904Y-87770457D01*
X252515736Y-87761572D01*
X252541319Y-87755164D01*
X252567408Y-87751294D01*
X252593750Y-87750000D01*
X253131250Y-87750000D01*
X253157592Y-87751294D01*
G37*
%TD*%
D15*
%TO.C,D10*%
X170000000Y-88500000D03*
D16*
X167775000Y-88500000D03*
%TD*%
D17*
%TO.C,R4*%
G36*
X255032592Y-97751294D02*
G01*
X255058681Y-97755164D01*
X255084264Y-97761572D01*
X255109096Y-97770457D01*
X255132938Y-97781734D01*
X255155560Y-97795293D01*
X255176743Y-97811003D01*
X255196285Y-97828715D01*
X255213997Y-97848257D01*
X255229707Y-97869440D01*
X255243266Y-97892062D01*
X255254543Y-97915904D01*
X255263428Y-97940736D01*
X255269836Y-97966319D01*
X255273706Y-97992408D01*
X255275000Y-98018750D01*
X255275000Y-98981250D01*
X255273706Y-99007592D01*
X255269836Y-99033681D01*
X255263428Y-99059264D01*
X255254543Y-99084096D01*
X255243266Y-99107938D01*
X255229707Y-99130560D01*
X255213997Y-99151743D01*
X255196285Y-99171285D01*
X255176743Y-99188997D01*
X255155560Y-99204707D01*
X255132938Y-99218266D01*
X255109096Y-99229543D01*
X255084264Y-99238428D01*
X255058681Y-99244836D01*
X255032592Y-99248706D01*
X255006250Y-99250000D01*
X254468750Y-99250000D01*
X254442408Y-99248706D01*
X254416319Y-99244836D01*
X254390736Y-99238428D01*
X254365904Y-99229543D01*
X254342062Y-99218266D01*
X254319440Y-99204707D01*
X254298257Y-99188997D01*
X254278715Y-99171285D01*
X254261003Y-99151743D01*
X254245293Y-99130560D01*
X254231734Y-99107938D01*
X254220457Y-99084096D01*
X254211572Y-99059264D01*
X254205164Y-99033681D01*
X254201294Y-99007592D01*
X254200000Y-98981250D01*
X254200000Y-98018750D01*
X254201294Y-97992408D01*
X254205164Y-97966319D01*
X254211572Y-97940736D01*
X254220457Y-97915904D01*
X254231734Y-97892062D01*
X254245293Y-97869440D01*
X254261003Y-97848257D01*
X254278715Y-97828715D01*
X254298257Y-97811003D01*
X254319440Y-97795293D01*
X254342062Y-97781734D01*
X254365904Y-97770457D01*
X254390736Y-97761572D01*
X254416319Y-97755164D01*
X254442408Y-97751294D01*
X254468750Y-97750000D01*
X255006250Y-97750000D01*
X255032592Y-97751294D01*
G37*
G36*
X253157592Y-97751294D02*
G01*
X253183681Y-97755164D01*
X253209264Y-97761572D01*
X253234096Y-97770457D01*
X253257938Y-97781734D01*
X253280560Y-97795293D01*
X253301743Y-97811003D01*
X253321285Y-97828715D01*
X253338997Y-97848257D01*
X253354707Y-97869440D01*
X253368266Y-97892062D01*
X253379543Y-97915904D01*
X253388428Y-97940736D01*
X253394836Y-97966319D01*
X253398706Y-97992408D01*
X253400000Y-98018750D01*
X253400000Y-98981250D01*
X253398706Y-99007592D01*
X253394836Y-99033681D01*
X253388428Y-99059264D01*
X253379543Y-99084096D01*
X253368266Y-99107938D01*
X253354707Y-99130560D01*
X253338997Y-99151743D01*
X253321285Y-99171285D01*
X253301743Y-99188997D01*
X253280560Y-99204707D01*
X253257938Y-99218266D01*
X253234096Y-99229543D01*
X253209264Y-99238428D01*
X253183681Y-99244836D01*
X253157592Y-99248706D01*
X253131250Y-99250000D01*
X252593750Y-99250000D01*
X252567408Y-99248706D01*
X252541319Y-99244836D01*
X252515736Y-99238428D01*
X252490904Y-99229543D01*
X252467062Y-99218266D01*
X252444440Y-99204707D01*
X252423257Y-99188997D01*
X252403715Y-99171285D01*
X252386003Y-99151743D01*
X252370293Y-99130560D01*
X252356734Y-99107938D01*
X252345457Y-99084096D01*
X252336572Y-99059264D01*
X252330164Y-99033681D01*
X252326294Y-99007592D01*
X252325000Y-98981250D01*
X252325000Y-98018750D01*
X252326294Y-97992408D01*
X252330164Y-97966319D01*
X252336572Y-97940736D01*
X252345457Y-97915904D01*
X252356734Y-97892062D01*
X252370293Y-97869440D01*
X252386003Y-97848257D01*
X252403715Y-97828715D01*
X252423257Y-97811003D01*
X252444440Y-97795293D01*
X252467062Y-97781734D01*
X252490904Y-97770457D01*
X252515736Y-97761572D01*
X252541319Y-97755164D01*
X252567408Y-97751294D01*
X252593750Y-97750000D01*
X253131250Y-97750000D01*
X253157592Y-97751294D01*
G37*
%TD*%
D15*
%TO.C,D12*%
X250000000Y-88500000D03*
D16*
X247775000Y-88500000D03*
%TD*%
D15*
%TO.C,D6*%
X250000000Y-83500000D03*
D16*
X247775000Y-83500000D03*
%TD*%
D15*
%TO.C,D3*%
X130000000Y-83500000D03*
D16*
X127775000Y-83500000D03*
%TD*%
D15*
%TO.C,D11*%
X210000000Y-88500000D03*
D16*
X207775000Y-88500000D03*
%TD*%
D15*
%TO.C,D13*%
X50000000Y-93500000D03*
D16*
X47775000Y-93500000D03*
%TD*%
D15*
%TO.C,D7*%
X50000000Y-88500000D03*
D16*
X47775000Y-88500000D03*
%TD*%
D17*
%TO.C,R1*%
G36*
X255032592Y-82751294D02*
G01*
X255058681Y-82755164D01*
X255084264Y-82761572D01*
X255109096Y-82770457D01*
X255132938Y-82781734D01*
X255155560Y-82795293D01*
X255176743Y-82811003D01*
X255196285Y-82828715D01*
X255213997Y-82848257D01*
X255229707Y-82869440D01*
X255243266Y-82892062D01*
X255254543Y-82915904D01*
X255263428Y-82940736D01*
X255269836Y-82966319D01*
X255273706Y-82992408D01*
X255275000Y-83018750D01*
X255275000Y-83981250D01*
X255273706Y-84007592D01*
X255269836Y-84033681D01*
X255263428Y-84059264D01*
X255254543Y-84084096D01*
X255243266Y-84107938D01*
X255229707Y-84130560D01*
X255213997Y-84151743D01*
X255196285Y-84171285D01*
X255176743Y-84188997D01*
X255155560Y-84204707D01*
X255132938Y-84218266D01*
X255109096Y-84229543D01*
X255084264Y-84238428D01*
X255058681Y-84244836D01*
X255032592Y-84248706D01*
X255006250Y-84250000D01*
X254468750Y-84250000D01*
X254442408Y-84248706D01*
X254416319Y-84244836D01*
X254390736Y-84238428D01*
X254365904Y-84229543D01*
X254342062Y-84218266D01*
X254319440Y-84204707D01*
X254298257Y-84188997D01*
X254278715Y-84171285D01*
X254261003Y-84151743D01*
X254245293Y-84130560D01*
X254231734Y-84107938D01*
X254220457Y-84084096D01*
X254211572Y-84059264D01*
X254205164Y-84033681D01*
X254201294Y-84007592D01*
X254200000Y-83981250D01*
X254200000Y-83018750D01*
X254201294Y-82992408D01*
X254205164Y-82966319D01*
X254211572Y-82940736D01*
X254220457Y-82915904D01*
X254231734Y-82892062D01*
X254245293Y-82869440D01*
X254261003Y-82848257D01*
X254278715Y-82828715D01*
X254298257Y-82811003D01*
X254319440Y-82795293D01*
X254342062Y-82781734D01*
X254365904Y-82770457D01*
X254390736Y-82761572D01*
X254416319Y-82755164D01*
X254442408Y-82751294D01*
X254468750Y-82750000D01*
X255006250Y-82750000D01*
X255032592Y-82751294D01*
G37*
G36*
X253157592Y-82751294D02*
G01*
X253183681Y-82755164D01*
X253209264Y-82761572D01*
X253234096Y-82770457D01*
X253257938Y-82781734D01*
X253280560Y-82795293D01*
X253301743Y-82811003D01*
X253321285Y-82828715D01*
X253338997Y-82848257D01*
X253354707Y-82869440D01*
X253368266Y-82892062D01*
X253379543Y-82915904D01*
X253388428Y-82940736D01*
X253394836Y-82966319D01*
X253398706Y-82992408D01*
X253400000Y-83018750D01*
X253400000Y-83981250D01*
X253398706Y-84007592D01*
X253394836Y-84033681D01*
X253388428Y-84059264D01*
X253379543Y-84084096D01*
X253368266Y-84107938D01*
X253354707Y-84130560D01*
X253338997Y-84151743D01*
X253321285Y-84171285D01*
X253301743Y-84188997D01*
X253280560Y-84204707D01*
X253257938Y-84218266D01*
X253234096Y-84229543D01*
X253209264Y-84238428D01*
X253183681Y-84244836D01*
X253157592Y-84248706D01*
X253131250Y-84250000D01*
X252593750Y-84250000D01*
X252567408Y-84248706D01*
X252541319Y-84244836D01*
X252515736Y-84238428D01*
X252490904Y-84229543D01*
X252467062Y-84218266D01*
X252444440Y-84204707D01*
X252423257Y-84188997D01*
X252403715Y-84171285D01*
X252386003Y-84151743D01*
X252370293Y-84130560D01*
X252356734Y-84107938D01*
X252345457Y-84084096D01*
X252336572Y-84059264D01*
X252330164Y-84033681D01*
X252326294Y-84007592D01*
X252325000Y-83981250D01*
X252325000Y-83018750D01*
X252326294Y-82992408D01*
X252330164Y-82966319D01*
X252336572Y-82940736D01*
X252345457Y-82915904D01*
X252356734Y-82892062D01*
X252370293Y-82869440D01*
X252386003Y-82848257D01*
X252403715Y-82828715D01*
X252423257Y-82811003D01*
X252444440Y-82795293D01*
X252467062Y-82781734D01*
X252490904Y-82770457D01*
X252515736Y-82761572D01*
X252541319Y-82755164D01*
X252567408Y-82751294D01*
X252593750Y-82750000D01*
X253131250Y-82750000D01*
X253157592Y-82751294D01*
G37*
%TD*%
D15*
%TO.C,D22*%
X170000000Y-98500000D03*
D16*
X167775000Y-98500000D03*
%TD*%
D15*
%TO.C,D19*%
X50000000Y-98500000D03*
D16*
X47775000Y-98500000D03*
%TD*%
D15*
%TO.C,D18*%
X250000000Y-93500000D03*
D16*
X247775000Y-93500000D03*
%TD*%
D15*
%TO.C,D17*%
X210000000Y-93500000D03*
D16*
X207775000Y-93500000D03*
%TD*%
D15*
%TO.C,D24*%
X250000000Y-98500000D03*
D16*
X247775000Y-98500000D03*
%TD*%
D15*
%TO.C,D4*%
X170000000Y-83500000D03*
D16*
X167775000Y-83500000D03*
%TD*%
D15*
%TO.C,D23*%
X210000000Y-98500000D03*
D16*
X207775000Y-98500000D03*
%TD*%
D15*
%TO.C,D21*%
X130000000Y-98500000D03*
D16*
X127775000Y-98500000D03*
%TD*%
D15*
%TO.C,D20*%
X90000000Y-98500000D03*
D16*
X87775000Y-98500000D03*
%TD*%
M02*
